<?xml version="1.0" encoding="utf-8" standalone="no"?>
<!DOCTYPE svg PUBLIC "-//W3C//DTD SVG 1.1//EN"
  "http://www.w3.org/Graphics/SVG/1.1/DTD/svg11.dtd">
<svg xmlns:xlink="http://www.w3.org/1999/xlink" width="460.8pt" height="345.6pt" viewBox="0 0 460.8 345.6" xmlns="http://www.w3.org/2000/svg" version="1.1">
 <metadata>
  <rdf:RDF xmlns:dc="http://purl.org/dc/elements/1.1/" xmlns:cc="http://creativecommons.org/ns#" xmlns:rdf="http://www.w3.org/1999/02/22-rdf-syntax-ns#">
   <cc:Work>
    <dc:type rdf:resource="http://purl.org/dc/dcmitype/StillImage"/>
    <dc:date>2025-01-07T09:40:48.583200</dc:date>
    <dc:format>image/svg+xml</dc:format>
    <dc:creator>
     <cc:Agent>
      <dc:title>Matplotlib v3.9.2, https://matplotlib.org/</dc:title>
     </cc:Agent>
    </dc:creator>
   </cc:Work>
  </rdf:RDF>
 </metadata>
 <defs>
  <style type="text/css">*{stroke-linejoin: round; stroke-linecap: butt}</style>
 </defs>
 <g id="figure_1">
  <g id="patch_1">
   <path d="M 0 345.6 
L 460.8 345.6 
L 460.8 0 
L 0 0 
z
" style="fill: #ffffff"/>
  </g>
  <g id="axes_1">
   <g id="patch_2">
    <path d="M 57.6 307.584 
L 414.72 307.584 
L 414.72 41.472 
L 57.6 41.472 
z
" style="fill: #ffffff"/>
   </g>
   <g id="matplotlib.axis_1">
    <g id="xtick_1">
     <g id="line2d_1">
      <defs>
       <path id="md9b32c607f" d="M 0 0 
L 0 3.5 
" style="stroke: #000000; stroke-width: 0.8"/>
      </defs>
      <g>
       <use xlink:href="#md9b32c607f" x="94.238131" y="307.584" style="stroke: #000000; stroke-width: 0.8"/>
      </g>
     </g>
     <g id="text_1">
      <!-- 20 -->
      <g transform="translate(87.875631 322.182437) scale(0.1 -0.1)">
       <defs>
        <path id="DejaVuSans-32" d="M 1228 531 
L 3431 531 
L 3431 0 
L 469 0 
L 469 531 
Q 828 903 1448 1529 
Q 2069 2156 2228 2338 
Q 2531 2678 2651 2914 
Q 2772 3150 2772 3378 
Q 2772 3750 2511 3984 
Q 2250 4219 1831 4219 
Q 1534 4219 1204 4116 
Q 875 4013 500 3803 
L 500 4441 
Q 881 4594 1212 4672 
Q 1544 4750 1819 4750 
Q 2544 4750 2975 4387 
Q 3406 4025 3406 3419 
Q 3406 3131 3298 2873 
Q 3191 2616 2906 2266 
Q 2828 2175 2409 1742 
Q 1991 1309 1228 531 
z
" transform="scale(0.015625)"/>
        <path id="DejaVuSans-30" d="M 2034 4250 
Q 1547 4250 1301 3770 
Q 1056 3291 1056 2328 
Q 1056 1369 1301 889 
Q 1547 409 2034 409 
Q 2525 409 2770 889 
Q 3016 1369 3016 2328 
Q 3016 3291 2770 3770 
Q 2525 4250 2034 4250 
z
M 2034 4750 
Q 2819 4750 3233 4129 
Q 3647 3509 3647 2328 
Q 3647 1150 3233 529 
Q 2819 -91 2034 -91 
Q 1250 -91 836 529 
Q 422 1150 422 2328 
Q 422 3509 836 4129 
Q 1250 4750 2034 4750 
z
" transform="scale(0.015625)"/>
       </defs>
       <use xlink:href="#DejaVuSans-32"/>
       <use xlink:href="#DejaVuSans-30" x="63.623047"/>
      </g>
     </g>
    </g>
    <g id="xtick_2">
     <g id="line2d_2">
      <g>
       <use xlink:href="#md9b32c607f" x="134.947164" y="307.584" style="stroke: #000000; stroke-width: 0.8"/>
      </g>
     </g>
     <g id="text_2">
      <!-- 40 -->
      <g transform="translate(128.584664 322.182437) scale(0.1 -0.1)">
       <defs>
        <path id="DejaVuSans-34" d="M 2419 4116 
L 825 1625 
L 2419 1625 
L 2419 4116 
z
M 2253 4666 
L 3047 4666 
L 3047 1625 
L 3713 1625 
L 3713 1100 
L 3047 1100 
L 3047 0 
L 2419 0 
L 2419 1100 
L 313 1100 
L 313 1709 
L 2253 4666 
z
" transform="scale(0.015625)"/>
       </defs>
       <use xlink:href="#DejaVuSans-34"/>
       <use xlink:href="#DejaVuSans-30" x="63.623047"/>
      </g>
     </g>
    </g>
    <g id="xtick_3">
     <g id="line2d_3">
      <g>
       <use xlink:href="#md9b32c607f" x="175.656198" y="307.584" style="stroke: #000000; stroke-width: 0.8"/>
      </g>
     </g>
     <g id="text_3">
      <!-- 60 -->
      <g transform="translate(169.293698 322.182437) scale(0.1 -0.1)">
       <defs>
        <path id="DejaVuSans-36" d="M 2113 2584 
Q 1688 2584 1439 2293 
Q 1191 2003 1191 1497 
Q 1191 994 1439 701 
Q 1688 409 2113 409 
Q 2538 409 2786 701 
Q 3034 994 3034 1497 
Q 3034 2003 2786 2293 
Q 2538 2584 2113 2584 
z
M 3366 4563 
L 3366 3988 
Q 3128 4100 2886 4159 
Q 2644 4219 2406 4219 
Q 1781 4219 1451 3797 
Q 1122 3375 1075 2522 
Q 1259 2794 1537 2939 
Q 1816 3084 2150 3084 
Q 2853 3084 3261 2657 
Q 3669 2231 3669 1497 
Q 3669 778 3244 343 
Q 2819 -91 2113 -91 
Q 1303 -91 875 529 
Q 447 1150 447 2328 
Q 447 3434 972 4092 
Q 1497 4750 2381 4750 
Q 2619 4750 2861 4703 
Q 3103 4656 3366 4563 
z
" transform="scale(0.015625)"/>
       </defs>
       <use xlink:href="#DejaVuSans-36"/>
       <use xlink:href="#DejaVuSans-30" x="63.623047"/>
      </g>
     </g>
    </g>
    <g id="xtick_4">
     <g id="line2d_4">
      <g>
       <use xlink:href="#md9b32c607f" x="216.365232" y="307.584" style="stroke: #000000; stroke-width: 0.8"/>
      </g>
     </g>
     <g id="text_4">
      <!-- 80 -->
      <g transform="translate(210.002732 322.182437) scale(0.1 -0.1)">
       <defs>
        <path id="DejaVuSans-38" d="M 2034 2216 
Q 1584 2216 1326 1975 
Q 1069 1734 1069 1313 
Q 1069 891 1326 650 
Q 1584 409 2034 409 
Q 2484 409 2743 651 
Q 3003 894 3003 1313 
Q 3003 1734 2745 1975 
Q 2488 2216 2034 2216 
z
M 1403 2484 
Q 997 2584 770 2862 
Q 544 3141 544 3541 
Q 544 4100 942 4425 
Q 1341 4750 2034 4750 
Q 2731 4750 3128 4425 
Q 3525 4100 3525 3541 
Q 3525 3141 3298 2862 
Q 3072 2584 2669 2484 
Q 3125 2378 3379 2068 
Q 3634 1759 3634 1313 
Q 3634 634 3220 271 
Q 2806 -91 2034 -91 
Q 1263 -91 848 271 
Q 434 634 434 1313 
Q 434 1759 690 2068 
Q 947 2378 1403 2484 
z
M 1172 3481 
Q 1172 3119 1398 2916 
Q 1625 2713 2034 2713 
Q 2441 2713 2670 2916 
Q 2900 3119 2900 3481 
Q 2900 3844 2670 4047 
Q 2441 4250 2034 4250 
Q 1625 4250 1398 4047 
Q 1172 3844 1172 3481 
z
" transform="scale(0.015625)"/>
       </defs>
       <use xlink:href="#DejaVuSans-38"/>
       <use xlink:href="#DejaVuSans-30" x="63.623047"/>
      </g>
     </g>
    </g>
    <g id="xtick_5">
     <g id="line2d_5">
      <g>
       <use xlink:href="#md9b32c607f" x="257.074266" y="307.584" style="stroke: #000000; stroke-width: 0.8"/>
      </g>
     </g>
     <g id="text_5">
      <!-- 100 -->
      <g transform="translate(247.530516 322.182437) scale(0.1 -0.1)">
       <defs>
        <path id="DejaVuSans-31" d="M 794 531 
L 1825 531 
L 1825 4091 
L 703 3866 
L 703 4441 
L 1819 4666 
L 2450 4666 
L 2450 531 
L 3481 531 
L 3481 0 
L 794 0 
L 794 531 
z
" transform="scale(0.015625)"/>
       </defs>
       <use xlink:href="#DejaVuSans-31"/>
       <use xlink:href="#DejaVuSans-30" x="63.623047"/>
       <use xlink:href="#DejaVuSans-30" x="127.246094"/>
      </g>
     </g>
    </g>
    <g id="xtick_6">
     <g id="line2d_6">
      <g>
       <use xlink:href="#md9b32c607f" x="297.7833" y="307.584" style="stroke: #000000; stroke-width: 0.8"/>
      </g>
     </g>
     <g id="text_6">
      <!-- 120 -->
      <g transform="translate(288.23955 322.182437) scale(0.1 -0.1)">
       <use xlink:href="#DejaVuSans-31"/>
       <use xlink:href="#DejaVuSans-32" x="63.623047"/>
       <use xlink:href="#DejaVuSans-30" x="127.246094"/>
      </g>
     </g>
    </g>
    <g id="xtick_7">
     <g id="line2d_7">
      <g>
       <use xlink:href="#md9b32c607f" x="338.492334" y="307.584" style="stroke: #000000; stroke-width: 0.8"/>
      </g>
     </g>
     <g id="text_7">
      <!-- 140 -->
      <g transform="translate(328.948584 322.182437) scale(0.1 -0.1)">
       <use xlink:href="#DejaVuSans-31"/>
       <use xlink:href="#DejaVuSans-34" x="63.623047"/>
       <use xlink:href="#DejaVuSans-30" x="127.246094"/>
      </g>
     </g>
    </g>
    <g id="xtick_8">
     <g id="line2d_8">
      <g>
       <use xlink:href="#md9b32c607f" x="379.201368" y="307.584" style="stroke: #000000; stroke-width: 0.8"/>
      </g>
     </g>
     <g id="text_8">
      <!-- 160 -->
      <g transform="translate(369.657618 322.182437) scale(0.1 -0.1)">
       <use xlink:href="#DejaVuSans-31"/>
       <use xlink:href="#DejaVuSans-36" x="63.623047"/>
       <use xlink:href="#DejaVuSans-30" x="127.246094"/>
      </g>
     </g>
    </g>
    <g id="text_9">
     <!-- degree of polymerization -->
     <g transform="translate(173.402187 335.860562) scale(0.1 -0.1)">
      <defs>
       <path id="DejaVuSans-64" d="M 2906 2969 
L 2906 4863 
L 3481 4863 
L 3481 0 
L 2906 0 
L 2906 525 
Q 2725 213 2448 61 
Q 2172 -91 1784 -91 
Q 1150 -91 751 415 
Q 353 922 353 1747 
Q 353 2572 751 3078 
Q 1150 3584 1784 3584 
Q 2172 3584 2448 3432 
Q 2725 3281 2906 2969 
z
M 947 1747 
Q 947 1113 1208 752 
Q 1469 391 1925 391 
Q 2381 391 2643 752 
Q 2906 1113 2906 1747 
Q 2906 2381 2643 2742 
Q 2381 3103 1925 3103 
Q 1469 3103 1208 2742 
Q 947 2381 947 1747 
z
" transform="scale(0.015625)"/>
       <path id="DejaVuSans-65" d="M 3597 1894 
L 3597 1613 
L 953 1613 
Q 991 1019 1311 708 
Q 1631 397 2203 397 
Q 2534 397 2845 478 
Q 3156 559 3463 722 
L 3463 178 
Q 3153 47 2828 -22 
Q 2503 -91 2169 -91 
Q 1331 -91 842 396 
Q 353 884 353 1716 
Q 353 2575 817 3079 
Q 1281 3584 2069 3584 
Q 2775 3584 3186 3129 
Q 3597 2675 3597 1894 
z
M 3022 2063 
Q 3016 2534 2758 2815 
Q 2500 3097 2075 3097 
Q 1594 3097 1305 2825 
Q 1016 2553 972 2059 
L 3022 2063 
z
" transform="scale(0.015625)"/>
       <path id="DejaVuSans-67" d="M 2906 1791 
Q 2906 2416 2648 2759 
Q 2391 3103 1925 3103 
Q 1463 3103 1205 2759 
Q 947 2416 947 1791 
Q 947 1169 1205 825 
Q 1463 481 1925 481 
Q 2391 481 2648 825 
Q 2906 1169 2906 1791 
z
M 3481 434 
Q 3481 -459 3084 -895 
Q 2688 -1331 1869 -1331 
Q 1566 -1331 1297 -1286 
Q 1028 -1241 775 -1147 
L 775 -588 
Q 1028 -725 1275 -790 
Q 1522 -856 1778 -856 
Q 2344 -856 2625 -561 
Q 2906 -266 2906 331 
L 2906 616 
Q 2728 306 2450 153 
Q 2172 0 1784 0 
Q 1141 0 747 490 
Q 353 981 353 1791 
Q 353 2603 747 3093 
Q 1141 3584 1784 3584 
Q 2172 3584 2450 3431 
Q 2728 3278 2906 2969 
L 2906 3500 
L 3481 3500 
L 3481 434 
z
" transform="scale(0.015625)"/>
       <path id="DejaVuSans-72" d="M 2631 2963 
Q 2534 3019 2420 3045 
Q 2306 3072 2169 3072 
Q 1681 3072 1420 2755 
Q 1159 2438 1159 1844 
L 1159 0 
L 581 0 
L 581 3500 
L 1159 3500 
L 1159 2956 
Q 1341 3275 1631 3429 
Q 1922 3584 2338 3584 
Q 2397 3584 2469 3576 
Q 2541 3569 2628 3553 
L 2631 2963 
z
" transform="scale(0.015625)"/>
       <path id="DejaVuSans-20" transform="scale(0.015625)"/>
       <path id="DejaVuSans-6f" d="M 1959 3097 
Q 1497 3097 1228 2736 
Q 959 2375 959 1747 
Q 959 1119 1226 758 
Q 1494 397 1959 397 
Q 2419 397 2687 759 
Q 2956 1122 2956 1747 
Q 2956 2369 2687 2733 
Q 2419 3097 1959 3097 
z
M 1959 3584 
Q 2709 3584 3137 3096 
Q 3566 2609 3566 1747 
Q 3566 888 3137 398 
Q 2709 -91 1959 -91 
Q 1206 -91 779 398 
Q 353 888 353 1747 
Q 353 2609 779 3096 
Q 1206 3584 1959 3584 
z
" transform="scale(0.015625)"/>
       <path id="DejaVuSans-66" d="M 2375 4863 
L 2375 4384 
L 1825 4384 
Q 1516 4384 1395 4259 
Q 1275 4134 1275 3809 
L 1275 3500 
L 2222 3500 
L 2222 3053 
L 1275 3053 
L 1275 0 
L 697 0 
L 697 3053 
L 147 3053 
L 147 3500 
L 697 3500 
L 697 3744 
Q 697 4328 969 4595 
Q 1241 4863 1831 4863 
L 2375 4863 
z
" transform="scale(0.015625)"/>
       <path id="DejaVuSans-70" d="M 1159 525 
L 1159 -1331 
L 581 -1331 
L 581 3500 
L 1159 3500 
L 1159 2969 
Q 1341 3281 1617 3432 
Q 1894 3584 2278 3584 
Q 2916 3584 3314 3078 
Q 3713 2572 3713 1747 
Q 3713 922 3314 415 
Q 2916 -91 2278 -91 
Q 1894 -91 1617 61 
Q 1341 213 1159 525 
z
M 3116 1747 
Q 3116 2381 2855 2742 
Q 2594 3103 2138 3103 
Q 1681 3103 1420 2742 
Q 1159 2381 1159 1747 
Q 1159 1113 1420 752 
Q 1681 391 2138 391 
Q 2594 391 2855 752 
Q 3116 1113 3116 1747 
z
" transform="scale(0.015625)"/>
       <path id="DejaVuSans-6c" d="M 603 4863 
L 1178 4863 
L 1178 0 
L 603 0 
L 603 4863 
z
" transform="scale(0.015625)"/>
       <path id="DejaVuSans-79" d="M 2059 -325 
Q 1816 -950 1584 -1140 
Q 1353 -1331 966 -1331 
L 506 -1331 
L 506 -850 
L 844 -850 
Q 1081 -850 1212 -737 
Q 1344 -625 1503 -206 
L 1606 56 
L 191 3500 
L 800 3500 
L 1894 763 
L 2988 3500 
L 3597 3500 
L 2059 -325 
z
" transform="scale(0.015625)"/>
       <path id="DejaVuSans-6d" d="M 3328 2828 
Q 3544 3216 3844 3400 
Q 4144 3584 4550 3584 
Q 5097 3584 5394 3201 
Q 5691 2819 5691 2113 
L 5691 0 
L 5113 0 
L 5113 2094 
Q 5113 2597 4934 2840 
Q 4756 3084 4391 3084 
Q 3944 3084 3684 2787 
Q 3425 2491 3425 1978 
L 3425 0 
L 2847 0 
L 2847 2094 
Q 2847 2600 2669 2842 
Q 2491 3084 2119 3084 
Q 1678 3084 1418 2786 
Q 1159 2488 1159 1978 
L 1159 0 
L 581 0 
L 581 3500 
L 1159 3500 
L 1159 2956 
Q 1356 3278 1631 3431 
Q 1906 3584 2284 3584 
Q 2666 3584 2933 3390 
Q 3200 3197 3328 2828 
z
" transform="scale(0.015625)"/>
       <path id="DejaVuSans-69" d="M 603 3500 
L 1178 3500 
L 1178 0 
L 603 0 
L 603 3500 
z
M 603 4863 
L 1178 4863 
L 1178 4134 
L 603 4134 
L 603 4863 
z
" transform="scale(0.015625)"/>
       <path id="DejaVuSans-7a" d="M 353 3500 
L 3084 3500 
L 3084 2975 
L 922 459 
L 3084 459 
L 3084 0 
L 275 0 
L 275 525 
L 2438 3041 
L 353 3041 
L 353 3500 
z
" transform="scale(0.015625)"/>
       <path id="DejaVuSans-61" d="M 2194 1759 
Q 1497 1759 1228 1600 
Q 959 1441 959 1056 
Q 959 750 1161 570 
Q 1363 391 1709 391 
Q 2188 391 2477 730 
Q 2766 1069 2766 1631 
L 2766 1759 
L 2194 1759 
z
M 3341 1997 
L 3341 0 
L 2766 0 
L 2766 531 
Q 2569 213 2275 61 
Q 1981 -91 1556 -91 
Q 1019 -91 701 211 
Q 384 513 384 1019 
Q 384 1609 779 1909 
Q 1175 2209 1959 2209 
L 2766 2209 
L 2766 2266 
Q 2766 2663 2505 2880 
Q 2244 3097 1772 3097 
Q 1472 3097 1187 3025 
Q 903 2953 641 2809 
L 641 3341 
Q 956 3463 1253 3523 
Q 1550 3584 1831 3584 
Q 2591 3584 2966 3190 
Q 3341 2797 3341 1997 
z
" transform="scale(0.015625)"/>
       <path id="DejaVuSans-74" d="M 1172 4494 
L 1172 3500 
L 2356 3500 
L 2356 3053 
L 1172 3053 
L 1172 1153 
Q 1172 725 1289 603 
Q 1406 481 1766 481 
L 2356 481 
L 2356 0 
L 1766 0 
Q 1100 0 847 248 
Q 594 497 594 1153 
L 594 3053 
L 172 3053 
L 172 3500 
L 594 3500 
L 594 4494 
L 1172 4494 
z
" transform="scale(0.015625)"/>
       <path id="DejaVuSans-6e" d="M 3513 2113 
L 3513 0 
L 2938 0 
L 2938 2094 
Q 2938 2591 2744 2837 
Q 2550 3084 2163 3084 
Q 1697 3084 1428 2787 
Q 1159 2491 1159 1978 
L 1159 0 
L 581 0 
L 581 3500 
L 1159 3500 
L 1159 2956 
Q 1366 3272 1645 3428 
Q 1925 3584 2291 3584 
Q 2894 3584 3203 3211 
Q 3513 2838 3513 2113 
z
" transform="scale(0.015625)"/>
      </defs>
      <use xlink:href="#DejaVuSans-64"/>
      <use xlink:href="#DejaVuSans-65" x="63.476562"/>
      <use xlink:href="#DejaVuSans-67" x="125"/>
      <use xlink:href="#DejaVuSans-72" x="188.476562"/>
      <use xlink:href="#DejaVuSans-65" x="227.339844"/>
      <use xlink:href="#DejaVuSans-65" x="288.863281"/>
      <use xlink:href="#DejaVuSans-20" x="350.386719"/>
      <use xlink:href="#DejaVuSans-6f" x="382.173828"/>
      <use xlink:href="#DejaVuSans-66" x="443.355469"/>
      <use xlink:href="#DejaVuSans-20" x="478.560547"/>
      <use xlink:href="#DejaVuSans-70" x="510.347656"/>
      <use xlink:href="#DejaVuSans-6f" x="573.824219"/>
      <use xlink:href="#DejaVuSans-6c" x="635.005859"/>
      <use xlink:href="#DejaVuSans-79" x="662.789062"/>
      <use xlink:href="#DejaVuSans-6d" x="721.96875"/>
      <use xlink:href="#DejaVuSans-65" x="819.380859"/>
      <use xlink:href="#DejaVuSans-72" x="880.904297"/>
      <use xlink:href="#DejaVuSans-69" x="922.017578"/>
      <use xlink:href="#DejaVuSans-7a" x="949.800781"/>
      <use xlink:href="#DejaVuSans-61" x="1002.291016"/>
      <use xlink:href="#DejaVuSans-74" x="1063.570312"/>
      <use xlink:href="#DejaVuSans-69" x="1102.779297"/>
      <use xlink:href="#DejaVuSans-6f" x="1130.5625"/>
      <use xlink:href="#DejaVuSans-6e" x="1191.744141"/>
     </g>
    </g>
   </g>
   <g id="matplotlib.axis_2">
    <g id="ytick_1">
     <g id="line2d_9">
      <defs>
       <path id="mbfdbe5339b" d="M 0 0 
L -3.5 0 
" style="stroke: #000000; stroke-width: 0.8"/>
      </defs>
      <g>
       <use xlink:href="#mbfdbe5339b" x="57.6" y="307.584" style="stroke: #000000; stroke-width: 0.8"/>
      </g>
     </g>
     <g id="text_10">
      <!-- 0.0 -->
      <g transform="translate(34.696875 311.383219) scale(0.1 -0.1)">
       <defs>
        <path id="DejaVuSans-2e" d="M 684 794 
L 1344 794 
L 1344 0 
L 684 0 
L 684 794 
z
" transform="scale(0.015625)"/>
       </defs>
       <use xlink:href="#DejaVuSans-30"/>
       <use xlink:href="#DejaVuSans-2e" x="63.623047"/>
       <use xlink:href="#DejaVuSans-30" x="95.410156"/>
      </g>
     </g>
    </g>
    <g id="ytick_2">
     <g id="line2d_10">
      <g>
       <use xlink:href="#mbfdbe5339b" x="57.6" y="254.3616" style="stroke: #000000; stroke-width: 0.8"/>
      </g>
     </g>
     <g id="text_11">
      <!-- 0.2 -->
      <g transform="translate(34.696875 258.160819) scale(0.1 -0.1)">
       <use xlink:href="#DejaVuSans-30"/>
       <use xlink:href="#DejaVuSans-2e" x="63.623047"/>
       <use xlink:href="#DejaVuSans-32" x="95.410156"/>
      </g>
     </g>
    </g>
    <g id="ytick_3">
     <g id="line2d_11">
      <g>
       <use xlink:href="#mbfdbe5339b" x="57.6" y="201.1392" style="stroke: #000000; stroke-width: 0.8"/>
      </g>
     </g>
     <g id="text_12">
      <!-- 0.4 -->
      <g transform="translate(34.696875 204.938419) scale(0.1 -0.1)">
       <use xlink:href="#DejaVuSans-30"/>
       <use xlink:href="#DejaVuSans-2e" x="63.623047"/>
       <use xlink:href="#DejaVuSans-34" x="95.410156"/>
      </g>
     </g>
    </g>
    <g id="ytick_4">
     <g id="line2d_12">
      <g>
       <use xlink:href="#mbfdbe5339b" x="57.6" y="147.9168" style="stroke: #000000; stroke-width: 0.8"/>
      </g>
     </g>
     <g id="text_13">
      <!-- 0.6 -->
      <g transform="translate(34.696875 151.716019) scale(0.1 -0.1)">
       <use xlink:href="#DejaVuSans-30"/>
       <use xlink:href="#DejaVuSans-2e" x="63.623047"/>
       <use xlink:href="#DejaVuSans-36" x="95.410156"/>
      </g>
     </g>
    </g>
    <g id="ytick_5">
     <g id="line2d_13">
      <g>
       <use xlink:href="#mbfdbe5339b" x="57.6" y="94.6944" style="stroke: #000000; stroke-width: 0.8"/>
      </g>
     </g>
     <g id="text_14">
      <!-- 0.8 -->
      <g transform="translate(34.696875 98.493619) scale(0.1 -0.1)">
       <use xlink:href="#DejaVuSans-30"/>
       <use xlink:href="#DejaVuSans-2e" x="63.623047"/>
       <use xlink:href="#DejaVuSans-38" x="95.410156"/>
      </g>
     </g>
    </g>
    <g id="ytick_6">
     <g id="line2d_14">
      <g>
       <use xlink:href="#mbfdbe5339b" x="57.6" y="41.472" style="stroke: #000000; stroke-width: 0.8"/>
      </g>
     </g>
     <g id="text_15">
      <!-- 1.0 -->
      <g transform="translate(34.696875 45.271219) scale(0.1 -0.1)">
       <use xlink:href="#DejaVuSans-31"/>
       <use xlink:href="#DejaVuSans-2e" x="63.623047"/>
       <use xlink:href="#DejaVuSans-30" x="95.410156"/>
      </g>
     </g>
    </g>
    <g id="text_16">
     <!-- monomer probability -->
     <g transform="translate(28.617187 226.953) rotate(-90) scale(0.1 -0.1)">
      <defs>
       <path id="DejaVuSans-62" d="M 3116 1747 
Q 3116 2381 2855 2742 
Q 2594 3103 2138 3103 
Q 1681 3103 1420 2742 
Q 1159 2381 1159 1747 
Q 1159 1113 1420 752 
Q 1681 391 2138 391 
Q 2594 391 2855 752 
Q 3116 1113 3116 1747 
z
M 1159 2969 
Q 1341 3281 1617 3432 
Q 1894 3584 2278 3584 
Q 2916 3584 3314 3078 
Q 3713 2572 3713 1747 
Q 3713 922 3314 415 
Q 2916 -91 2278 -91 
Q 1894 -91 1617 61 
Q 1341 213 1159 525 
L 1159 0 
L 581 0 
L 581 4863 
L 1159 4863 
L 1159 2969 
z
" transform="scale(0.015625)"/>
      </defs>
      <use xlink:href="#DejaVuSans-6d"/>
      <use xlink:href="#DejaVuSans-6f" x="97.412109"/>
      <use xlink:href="#DejaVuSans-6e" x="158.59375"/>
      <use xlink:href="#DejaVuSans-6f" x="221.972656"/>
      <use xlink:href="#DejaVuSans-6d" x="283.154297"/>
      <use xlink:href="#DejaVuSans-65" x="380.566406"/>
      <use xlink:href="#DejaVuSans-72" x="442.089844"/>
      <use xlink:href="#DejaVuSans-20" x="483.203125"/>
      <use xlink:href="#DejaVuSans-70" x="514.990234"/>
      <use xlink:href="#DejaVuSans-72" x="578.466797"/>
      <use xlink:href="#DejaVuSans-6f" x="617.330078"/>
      <use xlink:href="#DejaVuSans-62" x="678.511719"/>
      <use xlink:href="#DejaVuSans-61" x="741.988281"/>
      <use xlink:href="#DejaVuSans-62" x="803.267578"/>
      <use xlink:href="#DejaVuSans-69" x="866.744141"/>
      <use xlink:href="#DejaVuSans-6c" x="894.527344"/>
      <use xlink:href="#DejaVuSans-69" x="922.310547"/>
      <use xlink:href="#DejaVuSans-74" x="950.09375"/>
      <use xlink:href="#DejaVuSans-79" x="989.302734"/>
     </g>
    </g>
   </g>
   <g id="line2d_15">
    <path d="M 53.529097 51.318144 
L 55.564548 53.180928 
L 57.6 54.245376 
L 59.635452 54.511488 
L 61.670903 52.914816 
L 63.706355 50.519808 
L 65.741807 53.180928 
L 67.777258 52.11648 
L 69.81271 58.237056 
L 71.848162 53.44704 
L 73.883614 51.052032 
L 75.919065 54.7776 
L 77.954517 52.648704 
L 79.989969 53.44704 
L 82.02542 52.382592 
L 84.060872 52.648704 
L 86.096324 57.172608 
L 88.131775 51.850368 
L 90.167227 53.44704 
L 92.202679 54.511488 
L 94.238131 51.850368 
L 96.273582 55.309824 
L 98.309034 51.584256 
L 100.344486 55.043712 
L 102.379937 57.970944 
L 104.415389 58.237056 
L 106.450841 63.027072 
L 108.486292 57.43872 
L 110.521744 62.494848 
L 112.557196 65.155968 
L 114.592647 69.41376 
L 116.628099 70.478208 
L 118.663551 74.736 
L 120.699003 73.40544 
L 122.734454 77.131008 
L 126.805358 86.178816 
L 128.840809 87.243264 
L 130.876261 86.444928 
L 132.911713 86.977152 
L 134.947164 91.767168 
L 136.982616 89.638272 
L 139.018068 94.6944 
L 141.05352 93.896064 
L 143.088971 96.557184 
L 145.124423 101.879424 
L 147.159875 99.484416 
L 149.195326 106.66944 
L 151.230778 105.072768 
L 153.26623 112.790016 
L 155.301681 113.32224 
L 157.337133 124.765056 
L 159.372585 126.62784 
L 161.408036 111.725568 
L 163.443488 119.176704 
L 165.47894 129.28896 
L 167.514392 128.490624 
L 169.549843 126.893952 
L 171.585295 135.675648 
L 173.620747 139.401216 
L 175.656198 143.392896 
L 177.69165 143.392896 
L 179.727102 153.505152 
L 181.762553 150.311808 
L 183.798005 160.690176 
L 185.833457 168.939648 
L 187.868909 165.21408 
L 189.90436 167.8752 
L 191.939812 163.88352 
L 193.975264 179.85024 
L 196.010715 173.729664 
L 198.046167 190.760832 
L 200.081619 187.567488 
L 202.11707 181.1808 
L 204.152522 189.16416 
L 206.187974 194.4864 
L 208.223425 194.220288 
L 210.258877 201.405312 
L 212.294329 214.4448 
L 214.329781 199.276416 
L 216.365232 207.792 
L 218.400684 208.856448 
L 220.436136 212.049792 
L 222.471587 214.710912 
L 224.507039 216.573696 
L 226.542491 214.178688 
L 228.577942 214.977024 
L 230.613394 215.509248 
L 232.648846 216.573696 
L 234.684298 216.307584 
L 236.719749 219.500928 
L 238.755201 212.049792 
L 240.790653 221.0976 
L 242.826104 226.685952 
L 244.861556 224.290944 
L 246.897008 226.41984 
L 248.932459 226.41984 
L 250.967911 225.355392 
L 253.003363 227.7504 
L 255.038814 226.153728 
L 257.074266 223.226496 
L 259.109718 227.484288 
L 261.14517 227.484288 
L 263.180621 226.153728 
L 265.216073 232.806528 
L 267.251525 228.814848 
L 269.286976 233.870976 
L 271.322428 230.677632 
L 273.35788 225.08928 
L 275.393331 238.128768 
L 277.428783 233.338752 
L 279.464235 230.943744 
L 281.499687 244.781568 
L 283.535138 247.442688 
L 285.57059 247.7088 
L 287.606042 251.434368 
L 289.641493 247.7088 
L 291.676945 255.958272 
L 293.712397 254.3616 
L 295.747848 258.885504 
L 299.818752 268.731648 
L 301.854203 272.98944 
L 305.925107 276.715008 
L 307.960559 276.448896 
L 309.99601 285.230592 
L 312.031462 287.359488 
L 314.066914 282.037248 
L 316.102365 291.085056 
L 318.137817 291.883392 
L 320.173269 291.085056 
L 322.20872 297.205632 
L 324.244172 296.141184 
L 326.279624 299.068416 
L 328.315076 299.866752 
L 330.350527 302.793984 
L 332.385979 303.59232 
L 334.421431 303.060096 
L 336.456882 303.858432 
L 338.492334 303.858432 
L 340.527786 305.987328 
L 342.563237 305.721216 
L 344.598689 306.25344 
L 346.634141 305.987328 
L 348.669592 306.785664 
L 350.705044 307.051776 
L 352.740496 307.051776 
L 354.775948 307.317888 
L 358.846851 307.317888 
L 360.882303 307.584 
L 362.917754 307.317888 
L 364.953206 307.584 
L 366.988658 307.317888 
L 369.024109 307.584 
L 371.059561 307.317888 
L 373.095013 307.584 
L 397.520433 307.584 
L 397.520433 307.584 
" clip-path="url(#pd3fb121d8e)" style="fill: none; stroke: #1f77b4; stroke-width: 1.5; stroke-linecap: square"/>
   </g>
   <g id="line2d_16">
    <path d="M 53.529097 303.59232 
L 55.564548 302.527872 
L 57.6 301.197312 
L 61.670903 302.793984 
L 63.706355 303.326208 
L 69.81271 301.729536 
L 71.848162 303.59232 
L 75.919065 301.463424 
L 77.954517 303.858432 
L 79.989969 301.729536 
L 82.02542 301.729536 
L 84.060872 303.060096 
L 86.096324 299.334528 
L 88.131775 303.326208 
L 90.167227 304.124544 
L 92.202679 302.793984 
L 94.238131 302.793984 
L 96.273582 300.9312 
L 98.309034 302.527872 
L 100.344486 301.995648 
L 102.379937 299.866752 
L 104.415389 299.866752 
L 106.450841 296.141184 
L 108.486292 301.463424 
L 110.521744 299.334528 
L 112.557196 294.2784 
L 114.592647 294.012288 
L 116.628099 295.60896 
L 118.663551 291.085056 
L 120.699003 294.810624 
L 122.734454 290.020608 
L 124.769906 287.6256 
L 126.805358 289.754496 
L 128.840809 286.827264 
L 130.876261 288.157824 
L 132.911713 282.037248 
L 134.947164 281.505024 
L 136.982616 287.891712 
L 139.018068 280.174464 
L 141.05352 282.037248 
L 143.088971 281.505024 
L 145.124423 276.715008 
L 147.159875 281.238912 
L 149.195326 277.779456 
L 151.230778 277.779456 
L 153.26623 276.715008 
L 155.301681 271.924992 
L 157.337133 266.33664 
L 159.372585 267.6672 
L 161.408036 273.787776 
L 163.443488 266.33664 
L 165.47894 269.529984 
L 167.514392 266.070528 
L 169.549843 270.062208 
L 171.585295 264.739968 
L 173.620747 267.134976 
L 175.656198 262.078848 
L 177.69165 261.546624 
L 179.727102 257.821056 
L 181.762553 262.34496 
L 183.798005 256.490496 
L 185.833457 257.554944 
L 187.868909 262.877184 
L 189.90436 259.151616 
L 191.939812 261.546624 
L 193.975264 253.297152 
L 196.010715 258.619392 
L 198.046167 254.3616 
L 200.081619 250.902144 
L 202.11707 253.563264 
L 204.152522 254.893824 
L 206.187974 257.554944 
L 208.223425 255.69216 
L 210.258877 251.434368 
L 212.294329 245.579904 
L 214.329781 251.434368 
L 216.365232 246.644352 
L 218.400684 252.764928 
L 220.436136 243.983232 
L 222.471587 248.773248 
L 224.507039 256.756608 
L 226.542491 249.03936 
L 228.577942 248.773248 
L 230.613394 248.773248 
L 232.648846 252.498816 
L 234.684298 254.095488 
L 236.719749 253.563264 
L 238.755201 259.151616 
L 240.790653 251.168256 
L 242.826104 251.434368 
L 244.861556 248.507136 
L 246.897008 251.966592 
L 248.932459 252.764928 
L 250.967911 251.434368 
L 253.003363 253.563264 
L 255.038814 252.498816 
L 257.074266 256.224384 
L 259.109718 254.095488 
L 261.14517 259.68384 
L 265.216073 260.748288 
L 267.251525 256.490496 
L 269.286976 258.35328 
L 271.322428 262.611072 
L 273.35788 265.272192 
L 275.393331 263.143296 
L 277.428783 263.67552 
L 279.464235 262.877184 
L 281.499687 268.199424 
L 283.535138 267.933312 
L 285.57059 270.594432 
L 287.606042 265.272192 
L 289.641493 273.255552 
L 291.676945 279.376128 
L 293.712397 277.513344 
L 295.747848 280.174464 
L 297.7833 279.376128 
L 299.818752 282.835584 
L 301.854203 288.690048 
L 303.889655 282.30336 
L 305.925107 288.423936 
L 307.960559 292.149504 
L 312.031462 292.149504 
L 314.066914 296.673408 
L 316.102365 296.93952 
L 318.137817 298.536192 
L 320.173269 299.60064 
L 322.20872 298.802304 
L 324.244172 300.398976 
L 326.279624 303.060096 
L 328.315076 303.59232 
L 330.350527 303.59232 
L 332.385979 304.92288 
L 334.421431 303.326208 
L 338.492334 306.519552 
L 340.527786 306.25344 
L 342.563237 307.051776 
L 344.598689 307.051776 
L 346.634141 307.317888 
L 348.669592 307.317888 
L 350.705044 307.051776 
L 352.740496 307.317888 
L 354.775948 306.785664 
L 356.811399 307.584 
L 358.846851 307.051776 
L 360.882303 307.584 
L 366.988658 307.584 
L 369.024109 307.317888 
L 371.059561 307.584 
L 373.095013 307.317888 
L 375.130465 307.584 
L 397.520433 307.584 
L 397.520433 307.584 
" clip-path="url(#pd3fb121d8e)" style="fill: none; stroke: #ff7f0e; stroke-width: 1.5; stroke-linecap: square"/>
   </g>
   <g id="line2d_17">
    <path d="M 53.529097 301.729536 
L 55.564548 300.9312 
L 57.6 301.197312 
L 59.635452 300.132864 
L 61.670903 300.9312 
L 63.706355 302.793984 
L 65.741807 300.665088 
L 67.777258 302.26176 
L 69.81271 296.673408 
L 71.848162 299.60064 
L 73.883614 303.060096 
L 75.919065 300.398976 
L 77.954517 300.132864 
L 79.989969 301.463424 
L 82.02542 302.527872 
L 84.060872 300.9312 
L 86.096324 300.132864 
L 88.131775 301.463424 
L 90.167227 299.068416 
L 92.202679 299.334528 
L 94.238131 301.995648 
L 96.273582 300.398976 
L 98.309034 302.527872 
L 100.344486 299.60064 
L 102.379937 298.802304 
L 104.415389 298.536192 
L 106.450841 297.471744 
L 108.486292 297.737856 
L 110.521744 294.810624 
L 112.557196 297.205632 
L 114.592647 293.213952 
L 116.628099 290.552832 
L 118.663551 290.818944 
L 120.699003 288.423936 
L 122.734454 289.488384 
L 124.769906 287.359488 
L 126.805358 280.706688 
L 128.840809 282.569472 
L 130.876261 282.037248 
L 132.911713 287.6256 
L 136.982616 279.110016 
L 139.018068 281.771136 
L 141.05352 280.706688 
L 143.088971 278.577792 
L 145.124423 278.045568 
L 147.159875 275.916672 
L 149.195326 272.191104 
L 151.230778 273.787776 
L 153.26623 267.134976 
L 155.301681 271.392768 
L 157.337133 265.538304 
L 159.372585 262.34496 
L 161.408036 271.126656 
L 163.443488 271.126656 
L 165.47894 257.821056 
L 167.514392 262.078848 
L 169.549843 259.68384 
L 171.585295 256.224384 
L 173.620747 250.103808 
L 175.656198 251.168256 
L 177.69165 251.70048 
L 179.727102 245.313792 
L 181.762553 243.983232 
L 183.798005 239.459328 
L 185.833457 230.145408 
L 187.868909 228.548736 
L 189.90436 229.613184 
L 191.939812 231.209856 
L 193.975264 223.492608 
L 196.010715 224.290944 
L 198.046167 211.517568 
L 200.081619 218.170368 
L 202.11707 221.895936 
L 204.152522 212.582016 
L 206.187974 204.598656 
L 208.223425 206.727552 
L 210.258877 203.80032 
L 212.294329 196.615296 
L 214.329781 205.929216 
L 216.365232 202.203648 
L 218.400684 195.018624 
L 220.436136 200.606976 
L 222.471587 193.15584 
L 224.507039 183.575808 
L 226.542491 193.688064 
L 230.613394 192.623616 
L 232.648846 187.8336 
L 234.684298 186.50304 
L 236.719749 183.84192 
L 238.755201 186.50304 
L 240.790653 185.704704 
L 242.826104 180.116352 
L 244.861556 185.704704 
L 246.897008 181.713024 
L 248.932459 181.1808 
L 250.967911 184.374144 
L 253.003363 181.1808 
L 255.038814 185.17248 
L 257.074266 185.970816 
L 259.109718 184.906368 
L 261.14517 180.914688 
L 263.180621 184.906368 
L 265.216073 178.253568 
L 267.251525 191.293056 
L 269.286976 189.16416 
L 271.322428 192.357504 
L 273.35788 202.203648 
L 275.393331 196.083072 
L 277.428783 204.598656 
L 279.464235 216.041472 
L 281.499687 203.80032 
L 283.535138 208.058112 
L 285.57059 215.509248 
L 287.606042 221.895936 
L 289.641493 227.484288 
L 291.676945 223.226496 
L 293.712397 234.4032 
L 295.747848 238.128768 
L 297.7833 244.781568 
L 299.818752 243.983232 
L 301.854203 244.249344 
L 303.889655 257.288832 
L 305.925107 258.35328 
L 307.960559 263.941632 
L 309.99601 264.207744 
L 312.031462 267.6672 
L 314.066914 278.045568 
L 316.102365 276.448896 
L 318.137817 282.30336 
L 320.173269 287.359488 
L 322.20872 286.827264 
L 324.244172 291.61728 
L 326.279624 292.149504 
L 328.315076 295.875072 
L 330.350527 296.407296 
L 332.385979 297.205632 
L 334.421431 301.995648 
L 338.492334 302.527872 
L 340.527786 303.326208 
L 342.563237 304.390656 
L 344.598689 304.92288 
L 346.634141 305.987328 
L 348.669592 305.721216 
L 350.705044 306.25344 
L 352.740496 305.987328 
L 354.775948 306.519552 
L 356.811399 305.987328 
L 358.846851 307.051776 
L 360.882303 306.519552 
L 362.917754 307.317888 
L 364.953206 307.317888 
L 366.988658 307.584 
L 373.095013 307.584 
L 375.130465 307.317888 
L 377.165916 307.584 
L 397.520433 307.584 
L 397.520433 307.584 
" clip-path="url(#pd3fb121d8e)" style="fill: none; stroke: #2ca02c; stroke-width: 1.5; stroke-linecap: square"/>
   </g>
   <g id="patch_3">
    <path d="M 57.6 307.584 
L 57.6 41.472 
" style="fill: none; stroke: #000000; stroke-width: 0.8; stroke-linejoin: miter; stroke-linecap: square"/>
   </g>
   <g id="patch_4">
    <path d="M 414.72 307.584 
L 414.72 41.472 
" style="fill: none; stroke: #000000; stroke-width: 0.8; stroke-linejoin: miter; stroke-linecap: square"/>
   </g>
   <g id="patch_5">
    <path d="M 57.6 307.584 
L 414.72 307.584 
" style="fill: none; stroke: #000000; stroke-width: 0.8; stroke-linejoin: miter; stroke-linecap: square"/>
   </g>
   <g id="patch_6">
    <path d="M 57.6 41.472 
L 414.72 41.472 
" style="fill: none; stroke: #000000; stroke-width: 0.8; stroke-linejoin: miter; stroke-linecap: square"/>
   </g>
  </g>
 </g>
 <defs>
  <clipPath id="pd3fb121d8e">
   <rect x="57.6" y="41.472" width="357.12" height="266.112"/>
  </clipPath>
 </defs>
</svg>
