<?xml version="1.0" encoding="utf-8" standalone="no"?>
<!DOCTYPE svg PUBLIC "-//W3C//DTD SVG 1.1//EN"
  "http://www.w3.org/Graphics/SVG/1.1/DTD/svg11.dtd">
<svg xmlns:xlink="http://www.w3.org/1999/xlink" width="460.8pt" height="345.6pt" viewBox="0 0 460.8 345.6" xmlns="http://www.w3.org/2000/svg" version="1.1">
 <metadata>
  <rdf:RDF xmlns:dc="http://purl.org/dc/elements/1.1/" xmlns:cc="http://creativecommons.org/ns#" xmlns:rdf="http://www.w3.org/1999/02/22-rdf-syntax-ns#">
   <cc:Work>
    <dc:type rdf:resource="http://purl.org/dc/dcmitype/StillImage"/>
    <dc:date>2025-01-07T09:42:25.542987</dc:date>
    <dc:format>image/svg+xml</dc:format>
    <dc:creator>
     <cc:Agent>
      <dc:title>Matplotlib v3.9.2, https://matplotlib.org/</dc:title>
     </cc:Agent>
    </dc:creator>
   </cc:Work>
  </rdf:RDF>
 </metadata>
 <defs>
  <style type="text/css">*{stroke-linejoin: round; stroke-linecap: butt}</style>
 </defs>
 <g id="figure_1">
  <g id="patch_1">
   <path d="M 0 345.6 
L 460.8 345.6 
L 460.8 0 
L 0 0 
z
" style="fill: #ffffff"/>
  </g>
  <g id="axes_1">
   <g id="patch_2">
    <path d="M 57.6 307.584 
L 414.72 307.584 
L 414.72 41.472 
L 57.6 41.472 
z
" style="fill: #ffffff"/>
   </g>
   <g id="matplotlib.axis_1">
    <g id="xtick_1">
     <g id="line2d_1">
      <defs>
       <path id="m746735040d" d="M 0 0 
L 0 3.5 
" style="stroke: #000000; stroke-width: 0.8"/>
      </defs>
      <g>
       <use xlink:href="#m746735040d" x="101.036066" y="307.584" style="stroke: #000000; stroke-width: 0.8"/>
      </g>
     </g>
     <g id="text_1">
      <!-- 25 -->
      <g transform="translate(94.673566 322.182437) scale(0.1 -0.1)">
       <defs>
        <path id="DejaVuSans-32" d="M 1228 531 
L 3431 531 
L 3431 0 
L 469 0 
L 469 531 
Q 828 903 1448 1529 
Q 2069 2156 2228 2338 
Q 2531 2678 2651 2914 
Q 2772 3150 2772 3378 
Q 2772 3750 2511 3984 
Q 2250 4219 1831 4219 
Q 1534 4219 1204 4116 
Q 875 4013 500 3803 
L 500 4441 
Q 881 4594 1212 4672 
Q 1544 4750 1819 4750 
Q 2544 4750 2975 4387 
Q 3406 4025 3406 3419 
Q 3406 3131 3298 2873 
Q 3191 2616 2906 2266 
Q 2828 2175 2409 1742 
Q 1991 1309 1228 531 
z
" transform="scale(0.015625)"/>
        <path id="DejaVuSans-35" d="M 691 4666 
L 3169 4666 
L 3169 4134 
L 1269 4134 
L 1269 2991 
Q 1406 3038 1543 3061 
Q 1681 3084 1819 3084 
Q 2600 3084 3056 2656 
Q 3513 2228 3513 1497 
Q 3513 744 3044 326 
Q 2575 -91 1722 -91 
Q 1428 -91 1123 -41 
Q 819 9 494 109 
L 494 744 
Q 775 591 1075 516 
Q 1375 441 1709 441 
Q 2250 441 2565 725 
Q 2881 1009 2881 1497 
Q 2881 1984 2565 2268 
Q 2250 2553 1709 2553 
Q 1456 2553 1204 2497 
Q 953 2441 691 2322 
L 691 4666 
z
" transform="scale(0.015625)"/>
       </defs>
       <use xlink:href="#DejaVuSans-32"/>
       <use xlink:href="#DejaVuSans-35" x="63.623047"/>
      </g>
     </g>
    </g>
    <g id="xtick_2">
     <g id="line2d_2">
      <g>
       <use xlink:href="#m746735040d" x="148.24918" y="307.584" style="stroke: #000000; stroke-width: 0.8"/>
      </g>
     </g>
     <g id="text_2">
      <!-- 50 -->
      <g transform="translate(141.88668 322.182437) scale(0.1 -0.1)">
       <defs>
        <path id="DejaVuSans-30" d="M 2034 4250 
Q 1547 4250 1301 3770 
Q 1056 3291 1056 2328 
Q 1056 1369 1301 889 
Q 1547 409 2034 409 
Q 2525 409 2770 889 
Q 3016 1369 3016 2328 
Q 3016 3291 2770 3770 
Q 2525 4250 2034 4250 
z
M 2034 4750 
Q 2819 4750 3233 4129 
Q 3647 3509 3647 2328 
Q 3647 1150 3233 529 
Q 2819 -91 2034 -91 
Q 1250 -91 836 529 
Q 422 1150 422 2328 
Q 422 3509 836 4129 
Q 1250 4750 2034 4750 
z
" transform="scale(0.015625)"/>
       </defs>
       <use xlink:href="#DejaVuSans-35"/>
       <use xlink:href="#DejaVuSans-30" x="63.623047"/>
      </g>
     </g>
    </g>
    <g id="xtick_3">
     <g id="line2d_3">
      <g>
       <use xlink:href="#m746735040d" x="195.462295" y="307.584" style="stroke: #000000; stroke-width: 0.8"/>
      </g>
     </g>
     <g id="text_3">
      <!-- 75 -->
      <g transform="translate(189.099795 322.182437) scale(0.1 -0.1)">
       <defs>
        <path id="DejaVuSans-37" d="M 525 4666 
L 3525 4666 
L 3525 4397 
L 1831 0 
L 1172 0 
L 2766 4134 
L 525 4134 
L 525 4666 
z
" transform="scale(0.015625)"/>
       </defs>
       <use xlink:href="#DejaVuSans-37"/>
       <use xlink:href="#DejaVuSans-35" x="63.623047"/>
      </g>
     </g>
    </g>
    <g id="xtick_4">
     <g id="line2d_4">
      <g>
       <use xlink:href="#m746735040d" x="242.67541" y="307.584" style="stroke: #000000; stroke-width: 0.8"/>
      </g>
     </g>
     <g id="text_4">
      <!-- 100 -->
      <g transform="translate(233.13166 322.182437) scale(0.1 -0.1)">
       <defs>
        <path id="DejaVuSans-31" d="M 794 531 
L 1825 531 
L 1825 4091 
L 703 3866 
L 703 4441 
L 1819 4666 
L 2450 4666 
L 2450 531 
L 3481 531 
L 3481 0 
L 794 0 
L 794 531 
z
" transform="scale(0.015625)"/>
       </defs>
       <use xlink:href="#DejaVuSans-31"/>
       <use xlink:href="#DejaVuSans-30" x="63.623047"/>
       <use xlink:href="#DejaVuSans-30" x="127.246094"/>
      </g>
     </g>
    </g>
    <g id="xtick_5">
     <g id="line2d_5">
      <g>
       <use xlink:href="#m746735040d" x="289.888525" y="307.584" style="stroke: #000000; stroke-width: 0.8"/>
      </g>
     </g>
     <g id="text_5">
      <!-- 125 -->
      <g transform="translate(280.344775 322.182437) scale(0.1 -0.1)">
       <use xlink:href="#DejaVuSans-31"/>
       <use xlink:href="#DejaVuSans-32" x="63.623047"/>
       <use xlink:href="#DejaVuSans-35" x="127.246094"/>
      </g>
     </g>
    </g>
    <g id="xtick_6">
     <g id="line2d_6">
      <g>
       <use xlink:href="#m746735040d" x="337.101639" y="307.584" style="stroke: #000000; stroke-width: 0.8"/>
      </g>
     </g>
     <g id="text_6">
      <!-- 150 -->
      <g transform="translate(327.557889 322.182437) scale(0.1 -0.1)">
       <use xlink:href="#DejaVuSans-31"/>
       <use xlink:href="#DejaVuSans-35" x="63.623047"/>
       <use xlink:href="#DejaVuSans-30" x="127.246094"/>
      </g>
     </g>
    </g>
    <g id="xtick_7">
     <g id="line2d_7">
      <g>
       <use xlink:href="#m746735040d" x="384.314754" y="307.584" style="stroke: #000000; stroke-width: 0.8"/>
      </g>
     </g>
     <g id="text_7">
      <!-- 175 -->
      <g transform="translate(374.771004 322.182437) scale(0.1 -0.1)">
       <use xlink:href="#DejaVuSans-31"/>
       <use xlink:href="#DejaVuSans-37" x="63.623047"/>
       <use xlink:href="#DejaVuSans-35" x="127.246094"/>
      </g>
     </g>
    </g>
    <g id="text_8">
     <!-- degree of polymerization -->
     <g transform="translate(173.402187 335.860562) scale(0.1 -0.1)">
      <defs>
       <path id="DejaVuSans-64" d="M 2906 2969 
L 2906 4863 
L 3481 4863 
L 3481 0 
L 2906 0 
L 2906 525 
Q 2725 213 2448 61 
Q 2172 -91 1784 -91 
Q 1150 -91 751 415 
Q 353 922 353 1747 
Q 353 2572 751 3078 
Q 1150 3584 1784 3584 
Q 2172 3584 2448 3432 
Q 2725 3281 2906 2969 
z
M 947 1747 
Q 947 1113 1208 752 
Q 1469 391 1925 391 
Q 2381 391 2643 752 
Q 2906 1113 2906 1747 
Q 2906 2381 2643 2742 
Q 2381 3103 1925 3103 
Q 1469 3103 1208 2742 
Q 947 2381 947 1747 
z
" transform="scale(0.015625)"/>
       <path id="DejaVuSans-65" d="M 3597 1894 
L 3597 1613 
L 953 1613 
Q 991 1019 1311 708 
Q 1631 397 2203 397 
Q 2534 397 2845 478 
Q 3156 559 3463 722 
L 3463 178 
Q 3153 47 2828 -22 
Q 2503 -91 2169 -91 
Q 1331 -91 842 396 
Q 353 884 353 1716 
Q 353 2575 817 3079 
Q 1281 3584 2069 3584 
Q 2775 3584 3186 3129 
Q 3597 2675 3597 1894 
z
M 3022 2063 
Q 3016 2534 2758 2815 
Q 2500 3097 2075 3097 
Q 1594 3097 1305 2825 
Q 1016 2553 972 2059 
L 3022 2063 
z
" transform="scale(0.015625)"/>
       <path id="DejaVuSans-67" d="M 2906 1791 
Q 2906 2416 2648 2759 
Q 2391 3103 1925 3103 
Q 1463 3103 1205 2759 
Q 947 2416 947 1791 
Q 947 1169 1205 825 
Q 1463 481 1925 481 
Q 2391 481 2648 825 
Q 2906 1169 2906 1791 
z
M 3481 434 
Q 3481 -459 3084 -895 
Q 2688 -1331 1869 -1331 
Q 1566 -1331 1297 -1286 
Q 1028 -1241 775 -1147 
L 775 -588 
Q 1028 -725 1275 -790 
Q 1522 -856 1778 -856 
Q 2344 -856 2625 -561 
Q 2906 -266 2906 331 
L 2906 616 
Q 2728 306 2450 153 
Q 2172 0 1784 0 
Q 1141 0 747 490 
Q 353 981 353 1791 
Q 353 2603 747 3093 
Q 1141 3584 1784 3584 
Q 2172 3584 2450 3431 
Q 2728 3278 2906 2969 
L 2906 3500 
L 3481 3500 
L 3481 434 
z
" transform="scale(0.015625)"/>
       <path id="DejaVuSans-72" d="M 2631 2963 
Q 2534 3019 2420 3045 
Q 2306 3072 2169 3072 
Q 1681 3072 1420 2755 
Q 1159 2438 1159 1844 
L 1159 0 
L 581 0 
L 581 3500 
L 1159 3500 
L 1159 2956 
Q 1341 3275 1631 3429 
Q 1922 3584 2338 3584 
Q 2397 3584 2469 3576 
Q 2541 3569 2628 3553 
L 2631 2963 
z
" transform="scale(0.015625)"/>
       <path id="DejaVuSans-20" transform="scale(0.015625)"/>
       <path id="DejaVuSans-6f" d="M 1959 3097 
Q 1497 3097 1228 2736 
Q 959 2375 959 1747 
Q 959 1119 1226 758 
Q 1494 397 1959 397 
Q 2419 397 2687 759 
Q 2956 1122 2956 1747 
Q 2956 2369 2687 2733 
Q 2419 3097 1959 3097 
z
M 1959 3584 
Q 2709 3584 3137 3096 
Q 3566 2609 3566 1747 
Q 3566 888 3137 398 
Q 2709 -91 1959 -91 
Q 1206 -91 779 398 
Q 353 888 353 1747 
Q 353 2609 779 3096 
Q 1206 3584 1959 3584 
z
" transform="scale(0.015625)"/>
       <path id="DejaVuSans-66" d="M 2375 4863 
L 2375 4384 
L 1825 4384 
Q 1516 4384 1395 4259 
Q 1275 4134 1275 3809 
L 1275 3500 
L 2222 3500 
L 2222 3053 
L 1275 3053 
L 1275 0 
L 697 0 
L 697 3053 
L 147 3053 
L 147 3500 
L 697 3500 
L 697 3744 
Q 697 4328 969 4595 
Q 1241 4863 1831 4863 
L 2375 4863 
z
" transform="scale(0.015625)"/>
       <path id="DejaVuSans-70" d="M 1159 525 
L 1159 -1331 
L 581 -1331 
L 581 3500 
L 1159 3500 
L 1159 2969 
Q 1341 3281 1617 3432 
Q 1894 3584 2278 3584 
Q 2916 3584 3314 3078 
Q 3713 2572 3713 1747 
Q 3713 922 3314 415 
Q 2916 -91 2278 -91 
Q 1894 -91 1617 61 
Q 1341 213 1159 525 
z
M 3116 1747 
Q 3116 2381 2855 2742 
Q 2594 3103 2138 3103 
Q 1681 3103 1420 2742 
Q 1159 2381 1159 1747 
Q 1159 1113 1420 752 
Q 1681 391 2138 391 
Q 2594 391 2855 752 
Q 3116 1113 3116 1747 
z
" transform="scale(0.015625)"/>
       <path id="DejaVuSans-6c" d="M 603 4863 
L 1178 4863 
L 1178 0 
L 603 0 
L 603 4863 
z
" transform="scale(0.015625)"/>
       <path id="DejaVuSans-79" d="M 2059 -325 
Q 1816 -950 1584 -1140 
Q 1353 -1331 966 -1331 
L 506 -1331 
L 506 -850 
L 844 -850 
Q 1081 -850 1212 -737 
Q 1344 -625 1503 -206 
L 1606 56 
L 191 3500 
L 800 3500 
L 1894 763 
L 2988 3500 
L 3597 3500 
L 2059 -325 
z
" transform="scale(0.015625)"/>
       <path id="DejaVuSans-6d" d="M 3328 2828 
Q 3544 3216 3844 3400 
Q 4144 3584 4550 3584 
Q 5097 3584 5394 3201 
Q 5691 2819 5691 2113 
L 5691 0 
L 5113 0 
L 5113 2094 
Q 5113 2597 4934 2840 
Q 4756 3084 4391 3084 
Q 3944 3084 3684 2787 
Q 3425 2491 3425 1978 
L 3425 0 
L 2847 0 
L 2847 2094 
Q 2847 2600 2669 2842 
Q 2491 3084 2119 3084 
Q 1678 3084 1418 2786 
Q 1159 2488 1159 1978 
L 1159 0 
L 581 0 
L 581 3500 
L 1159 3500 
L 1159 2956 
Q 1356 3278 1631 3431 
Q 1906 3584 2284 3584 
Q 2666 3584 2933 3390 
Q 3200 3197 3328 2828 
z
" transform="scale(0.015625)"/>
       <path id="DejaVuSans-69" d="M 603 3500 
L 1178 3500 
L 1178 0 
L 603 0 
L 603 3500 
z
M 603 4863 
L 1178 4863 
L 1178 4134 
L 603 4134 
L 603 4863 
z
" transform="scale(0.015625)"/>
       <path id="DejaVuSans-7a" d="M 353 3500 
L 3084 3500 
L 3084 2975 
L 922 459 
L 3084 459 
L 3084 0 
L 275 0 
L 275 525 
L 2438 3041 
L 353 3041 
L 353 3500 
z
" transform="scale(0.015625)"/>
       <path id="DejaVuSans-61" d="M 2194 1759 
Q 1497 1759 1228 1600 
Q 959 1441 959 1056 
Q 959 750 1161 570 
Q 1363 391 1709 391 
Q 2188 391 2477 730 
Q 2766 1069 2766 1631 
L 2766 1759 
L 2194 1759 
z
M 3341 1997 
L 3341 0 
L 2766 0 
L 2766 531 
Q 2569 213 2275 61 
Q 1981 -91 1556 -91 
Q 1019 -91 701 211 
Q 384 513 384 1019 
Q 384 1609 779 1909 
Q 1175 2209 1959 2209 
L 2766 2209 
L 2766 2266 
Q 2766 2663 2505 2880 
Q 2244 3097 1772 3097 
Q 1472 3097 1187 3025 
Q 903 2953 641 2809 
L 641 3341 
Q 956 3463 1253 3523 
Q 1550 3584 1831 3584 
Q 2591 3584 2966 3190 
Q 3341 2797 3341 1997 
z
" transform="scale(0.015625)"/>
       <path id="DejaVuSans-74" d="M 1172 4494 
L 1172 3500 
L 2356 3500 
L 2356 3053 
L 1172 3053 
L 1172 1153 
Q 1172 725 1289 603 
Q 1406 481 1766 481 
L 2356 481 
L 2356 0 
L 1766 0 
Q 1100 0 847 248 
Q 594 497 594 1153 
L 594 3053 
L 172 3053 
L 172 3500 
L 594 3500 
L 594 4494 
L 1172 4494 
z
" transform="scale(0.015625)"/>
       <path id="DejaVuSans-6e" d="M 3513 2113 
L 3513 0 
L 2938 0 
L 2938 2094 
Q 2938 2591 2744 2837 
Q 2550 3084 2163 3084 
Q 1697 3084 1428 2787 
Q 1159 2491 1159 1978 
L 1159 0 
L 581 0 
L 581 3500 
L 1159 3500 
L 1159 2956 
Q 1366 3272 1645 3428 
Q 1925 3584 2291 3584 
Q 2894 3584 3203 3211 
Q 3513 2838 3513 2113 
z
" transform="scale(0.015625)"/>
      </defs>
      <use xlink:href="#DejaVuSans-64"/>
      <use xlink:href="#DejaVuSans-65" x="63.476562"/>
      <use xlink:href="#DejaVuSans-67" x="125"/>
      <use xlink:href="#DejaVuSans-72" x="188.476562"/>
      <use xlink:href="#DejaVuSans-65" x="227.339844"/>
      <use xlink:href="#DejaVuSans-65" x="288.863281"/>
      <use xlink:href="#DejaVuSans-20" x="350.386719"/>
      <use xlink:href="#DejaVuSans-6f" x="382.173828"/>
      <use xlink:href="#DejaVuSans-66" x="443.355469"/>
      <use xlink:href="#DejaVuSans-20" x="478.560547"/>
      <use xlink:href="#DejaVuSans-70" x="510.347656"/>
      <use xlink:href="#DejaVuSans-6f" x="573.824219"/>
      <use xlink:href="#DejaVuSans-6c" x="635.005859"/>
      <use xlink:href="#DejaVuSans-79" x="662.789062"/>
      <use xlink:href="#DejaVuSans-6d" x="721.96875"/>
      <use xlink:href="#DejaVuSans-65" x="819.380859"/>
      <use xlink:href="#DejaVuSans-72" x="880.904297"/>
      <use xlink:href="#DejaVuSans-69" x="922.017578"/>
      <use xlink:href="#DejaVuSans-7a" x="949.800781"/>
      <use xlink:href="#DejaVuSans-61" x="1002.291016"/>
      <use xlink:href="#DejaVuSans-74" x="1063.570312"/>
      <use xlink:href="#DejaVuSans-69" x="1102.779297"/>
      <use xlink:href="#DejaVuSans-6f" x="1130.5625"/>
      <use xlink:href="#DejaVuSans-6e" x="1191.744141"/>
     </g>
    </g>
   </g>
   <g id="matplotlib.axis_2">
    <g id="ytick_1">
     <g id="line2d_8">
      <defs>
       <path id="m577ae195c6" d="M 0 0 
L -3.5 0 
" style="stroke: #000000; stroke-width: 0.8"/>
      </defs>
      <g>
       <use xlink:href="#m577ae195c6" x="57.6" y="307.584" style="stroke: #000000; stroke-width: 0.8"/>
      </g>
     </g>
     <g id="text_9">
      <!-- 0.0 -->
      <g transform="translate(34.696875 311.383219) scale(0.1 -0.1)">
       <defs>
        <path id="DejaVuSans-2e" d="M 684 794 
L 1344 794 
L 1344 0 
L 684 0 
L 684 794 
z
" transform="scale(0.015625)"/>
       </defs>
       <use xlink:href="#DejaVuSans-30"/>
       <use xlink:href="#DejaVuSans-2e" x="63.623047"/>
       <use xlink:href="#DejaVuSans-30" x="95.410156"/>
      </g>
     </g>
    </g>
    <g id="ytick_2">
     <g id="line2d_9">
      <g>
       <use xlink:href="#m577ae195c6" x="57.6" y="254.3616" style="stroke: #000000; stroke-width: 0.8"/>
      </g>
     </g>
     <g id="text_10">
      <!-- 0.2 -->
      <g transform="translate(34.696875 258.160819) scale(0.1 -0.1)">
       <use xlink:href="#DejaVuSans-30"/>
       <use xlink:href="#DejaVuSans-2e" x="63.623047"/>
       <use xlink:href="#DejaVuSans-32" x="95.410156"/>
      </g>
     </g>
    </g>
    <g id="ytick_3">
     <g id="line2d_10">
      <g>
       <use xlink:href="#m577ae195c6" x="57.6" y="201.1392" style="stroke: #000000; stroke-width: 0.8"/>
      </g>
     </g>
     <g id="text_11">
      <!-- 0.4 -->
      <g transform="translate(34.696875 204.938419) scale(0.1 -0.1)">
       <defs>
        <path id="DejaVuSans-34" d="M 2419 4116 
L 825 1625 
L 2419 1625 
L 2419 4116 
z
M 2253 4666 
L 3047 4666 
L 3047 1625 
L 3713 1625 
L 3713 1100 
L 3047 1100 
L 3047 0 
L 2419 0 
L 2419 1100 
L 313 1100 
L 313 1709 
L 2253 4666 
z
" transform="scale(0.015625)"/>
       </defs>
       <use xlink:href="#DejaVuSans-30"/>
       <use xlink:href="#DejaVuSans-2e" x="63.623047"/>
       <use xlink:href="#DejaVuSans-34" x="95.410156"/>
      </g>
     </g>
    </g>
    <g id="ytick_4">
     <g id="line2d_11">
      <g>
       <use xlink:href="#m577ae195c6" x="57.6" y="147.9168" style="stroke: #000000; stroke-width: 0.8"/>
      </g>
     </g>
     <g id="text_12">
      <!-- 0.6 -->
      <g transform="translate(34.696875 151.716019) scale(0.1 -0.1)">
       <defs>
        <path id="DejaVuSans-36" d="M 2113 2584 
Q 1688 2584 1439 2293 
Q 1191 2003 1191 1497 
Q 1191 994 1439 701 
Q 1688 409 2113 409 
Q 2538 409 2786 701 
Q 3034 994 3034 1497 
Q 3034 2003 2786 2293 
Q 2538 2584 2113 2584 
z
M 3366 4563 
L 3366 3988 
Q 3128 4100 2886 4159 
Q 2644 4219 2406 4219 
Q 1781 4219 1451 3797 
Q 1122 3375 1075 2522 
Q 1259 2794 1537 2939 
Q 1816 3084 2150 3084 
Q 2853 3084 3261 2657 
Q 3669 2231 3669 1497 
Q 3669 778 3244 343 
Q 2819 -91 2113 -91 
Q 1303 -91 875 529 
Q 447 1150 447 2328 
Q 447 3434 972 4092 
Q 1497 4750 2381 4750 
Q 2619 4750 2861 4703 
Q 3103 4656 3366 4563 
z
" transform="scale(0.015625)"/>
       </defs>
       <use xlink:href="#DejaVuSans-30"/>
       <use xlink:href="#DejaVuSans-2e" x="63.623047"/>
       <use xlink:href="#DejaVuSans-36" x="95.410156"/>
      </g>
     </g>
    </g>
    <g id="ytick_5">
     <g id="line2d_12">
      <g>
       <use xlink:href="#m577ae195c6" x="57.6" y="94.6944" style="stroke: #000000; stroke-width: 0.8"/>
      </g>
     </g>
     <g id="text_13">
      <!-- 0.8 -->
      <g transform="translate(34.696875 98.493619) scale(0.1 -0.1)">
       <defs>
        <path id="DejaVuSans-38" d="M 2034 2216 
Q 1584 2216 1326 1975 
Q 1069 1734 1069 1313 
Q 1069 891 1326 650 
Q 1584 409 2034 409 
Q 2484 409 2743 651 
Q 3003 894 3003 1313 
Q 3003 1734 2745 1975 
Q 2488 2216 2034 2216 
z
M 1403 2484 
Q 997 2584 770 2862 
Q 544 3141 544 3541 
Q 544 4100 942 4425 
Q 1341 4750 2034 4750 
Q 2731 4750 3128 4425 
Q 3525 4100 3525 3541 
Q 3525 3141 3298 2862 
Q 3072 2584 2669 2484 
Q 3125 2378 3379 2068 
Q 3634 1759 3634 1313 
Q 3634 634 3220 271 
Q 2806 -91 2034 -91 
Q 1263 -91 848 271 
Q 434 634 434 1313 
Q 434 1759 690 2068 
Q 947 2378 1403 2484 
z
M 1172 3481 
Q 1172 3119 1398 2916 
Q 1625 2713 2034 2713 
Q 2441 2713 2670 2916 
Q 2900 3119 2900 3481 
Q 2900 3844 2670 4047 
Q 2441 4250 2034 4250 
Q 1625 4250 1398 4047 
Q 1172 3844 1172 3481 
z
" transform="scale(0.015625)"/>
       </defs>
       <use xlink:href="#DejaVuSans-30"/>
       <use xlink:href="#DejaVuSans-2e" x="63.623047"/>
       <use xlink:href="#DejaVuSans-38" x="95.410156"/>
      </g>
     </g>
    </g>
    <g id="ytick_6">
     <g id="line2d_13">
      <g>
       <use xlink:href="#m577ae195c6" x="57.6" y="41.472" style="stroke: #000000; stroke-width: 0.8"/>
      </g>
     </g>
     <g id="text_14">
      <!-- 1.0 -->
      <g transform="translate(34.696875 45.271219) scale(0.1 -0.1)">
       <use xlink:href="#DejaVuSans-31"/>
       <use xlink:href="#DejaVuSans-2e" x="63.623047"/>
       <use xlink:href="#DejaVuSans-30" x="95.410156"/>
      </g>
     </g>
    </g>
    <g id="text_15">
     <!-- monomer probability -->
     <g transform="translate(28.617187 226.953) rotate(-90) scale(0.1 -0.1)">
      <defs>
       <path id="DejaVuSans-62" d="M 3116 1747 
Q 3116 2381 2855 2742 
Q 2594 3103 2138 3103 
Q 1681 3103 1420 2742 
Q 1159 2381 1159 1747 
Q 1159 1113 1420 752 
Q 1681 391 2138 391 
Q 2594 391 2855 752 
Q 3116 1113 3116 1747 
z
M 1159 2969 
Q 1341 3281 1617 3432 
Q 1894 3584 2278 3584 
Q 2916 3584 3314 3078 
Q 3713 2572 3713 1747 
Q 3713 922 3314 415 
Q 2916 -91 2278 -91 
Q 1894 -91 1617 61 
Q 1341 213 1159 525 
L 1159 0 
L 581 0 
L 581 4863 
L 1159 4863 
L 1159 2969 
z
" transform="scale(0.015625)"/>
      </defs>
      <use xlink:href="#DejaVuSans-6d"/>
      <use xlink:href="#DejaVuSans-6f" x="97.412109"/>
      <use xlink:href="#DejaVuSans-6e" x="158.59375"/>
      <use xlink:href="#DejaVuSans-6f" x="221.972656"/>
      <use xlink:href="#DejaVuSans-6d" x="283.154297"/>
      <use xlink:href="#DejaVuSans-65" x="380.566406"/>
      <use xlink:href="#DejaVuSans-72" x="442.089844"/>
      <use xlink:href="#DejaVuSans-20" x="483.203125"/>
      <use xlink:href="#DejaVuSans-70" x="514.990234"/>
      <use xlink:href="#DejaVuSans-72" x="578.466797"/>
      <use xlink:href="#DejaVuSans-6f" x="617.330078"/>
      <use xlink:href="#DejaVuSans-62" x="678.511719"/>
      <use xlink:href="#DejaVuSans-61" x="741.988281"/>
      <use xlink:href="#DejaVuSans-62" x="803.267578"/>
      <use xlink:href="#DejaVuSans-69" x="866.744141"/>
      <use xlink:href="#DejaVuSans-6c" x="894.527344"/>
      <use xlink:href="#DejaVuSans-69" x="922.310547"/>
      <use xlink:href="#DejaVuSans-74" x="950.09375"/>
      <use xlink:href="#DejaVuSans-79" x="989.302734"/>
     </g>
    </g>
   </g>
   <g id="line2d_14">
    <path d="M 53.822951 57.43872 
L 55.711475 56.906496 
L 57.6 58.503168 
L 59.488525 58.76928 
L 63.265574 59.833728 
L 65.154098 60.898176 
L 67.042623 63.825408 
L 68.931148 61.164288 
L 70.819672 60.09984 
L 72.708197 57.43872 
L 74.596721 55.842048 
L 76.485246 59.567616 
L 78.37377 60.09984 
L 80.262295 60.09984 
L 82.15082 62.228736 
L 84.039344 68.0832 
L 85.927869 64.889856 
L 87.816393 65.155968 
L 89.704918 71.808768 
L 91.593443 72.07488 
L 93.481967 70.74432 
L 95.370492 72.340992 
L 97.259016 73.671552 
L 99.147541 73.139328 
L 101.036066 72.07488 
L 102.92459 80.856576 
L 104.813115 78.195456 
L 106.701639 83.783808 
L 108.590164 83.517696 
L 110.478689 81.122688 
L 112.367213 91.234944 
L 114.255738 89.638272 
L 116.144262 89.638272 
L 118.032787 89.37216 
L 119.921311 99.484416 
L 121.809836 101.879424 
L 123.698361 113.32224 
L 125.586885 107.201664 
L 127.47541 113.056128 
L 129.363934 122.103936 
L 131.252459 122.370048 
L 133.140984 120.241152 
L 135.029508 135.94176 
L 136.918033 132.482304 
L 138.806557 138.868992 
L 140.695082 131.683968 
L 142.583607 137.006208 
L 144.472131 141.796224 
L 146.360656 151.376256 
L 148.24918 152.440704 
L 150.137705 161.488512 
L 152.02623 154.5696 
L 153.914754 160.690176 
L 155.803279 163.351296 
L 157.691803 172.132992 
L 159.580328 167.342976 
L 161.468852 175.060224 
L 163.357377 169.471872 
L 165.245902 169.471872 
L 167.134426 180.382464 
L 170.911475 183.575808 
L 172.8 185.704704 
L 174.688525 178.253568 
L 176.577049 179.318016 
L 178.465574 179.318016 
L 180.354098 183.84192 
L 182.242623 184.108032 
L 184.131148 183.84192 
L 186.019672 182.777472 
L 187.908197 184.906368 
L 189.796721 184.640256 
L 191.685246 181.979136 
L 193.57377 183.309696 
L 195.462295 186.236928 
L 197.35082 184.108032 
L 199.239344 186.50304 
L 201.127869 179.051904 
L 203.016393 193.421952 
L 204.904918 182.51136 
L 206.793443 184.108032 
L 208.681967 192.357504 
L 210.570492 184.374144 
L 212.459016 185.970816 
L 214.347541 192.889728 
L 216.236066 188.898048 
L 218.12459 185.17248 
L 220.013115 188.365824 
L 221.901639 188.365824 
L 223.790164 187.035264 
L 225.678689 187.8336 
L 227.567213 186.236928 
L 229.455738 185.17248 
L 231.344262 191.559168 
L 233.232787 195.018624 
L 235.121311 195.81696 
L 237.009836 187.567488 
L 238.898361 195.550848 
L 240.786885 190.49472 
L 242.67541 192.889728 
L 244.563934 191.559168 
L 246.452459 188.898048 
L 248.340984 194.4864 
L 250.229508 199.542528 
L 252.118033 188.099712 
L 254.006557 192.889728 
L 255.895082 196.083072 
L 257.783607 191.82528 
L 259.672131 195.284736 
L 261.560656 193.688064 
L 263.44918 195.550848 
L 265.337705 194.4864 
L 267.22623 196.349184 
L 269.114754 198.744192 
L 271.003279 192.623616 
L 272.891803 196.349184 
L 274.780328 199.542528 
L 276.668852 199.542528 
L 278.557377 212.315904 
L 280.445902 213.11424 
L 282.334426 212.848128 
L 284.222951 209.654784 
L 286.111475 212.848128 
L 288 212.848128 
L 289.888525 216.307584 
L 291.777049 225.355392 
L 293.665574 220.831488 
L 295.554098 228.548736 
L 297.442623 234.4032 
L 299.331148 234.935424 
L 301.219672 241.056 
L 303.108197 244.249344 
L 304.996721 251.70048 
L 306.885246 254.3616 
L 308.77377 261.0144 
L 310.662295 264.207744 
L 312.55082 266.868864 
L 314.439344 266.070528 
L 316.327869 272.98944 
L 318.216393 278.577792 
L 320.104918 279.376128 
L 321.993443 281.238912 
L 323.881967 282.30336 
L 325.770492 290.020608 
L 327.659016 291.351168 
L 329.547541 291.883392 
L 331.436066 295.875072 
L 333.32459 297.471744 
L 335.213115 300.398976 
L 337.101639 301.197312 
L 340.878689 302.26176 
L 342.767213 303.59232 
L 344.655738 304.124544 
L 346.544262 302.527872 
L 348.432787 304.390656 
L 350.321311 305.188992 
L 352.209836 304.656768 
L 354.098361 305.987328 
L 355.986885 305.721216 
L 357.87541 307.051776 
L 359.763934 306.785664 
L 361.652459 306.25344 
L 363.540984 306.519552 
L 365.429508 307.317888 
L 367.318033 307.584 
L 369.206557 307.051776 
L 371.095082 306.785664 
L 372.983607 307.317888 
L 374.872131 307.584 
L 397.534426 307.584 
L 397.534426 307.584 
" clip-path="url(#p1039f80b6b)" style="fill: none; stroke: #1f77b4; stroke-width: 1.5; stroke-linecap: square"/>
   </g>
   <g id="line2d_15">
    <path d="M 53.822951 300.9312 
L 55.711475 301.729536 
L 57.6 300.398976 
L 59.488525 301.197312 
L 61.377049 298.802304 
L 63.265574 300.398976 
L 65.154098 300.398976 
L 67.042623 300.132864 
L 68.931148 298.536192 
L 70.819672 301.197312 
L 72.708197 300.398976 
L 74.596721 302.26176 
L 76.485246 301.197312 
L 78.37377 299.866752 
L 80.262295 300.9312 
L 82.15082 298.802304 
L 84.039344 295.60896 
L 85.927869 299.068416 
L 87.816393 297.471744 
L 89.704918 294.012288 
L 91.593443 293.746176 
L 93.481967 294.012288 
L 95.370492 295.60896 
L 97.259016 292.415616 
L 99.147541 294.012288 
L 101.036066 294.810624 
L 102.92459 288.690048 
L 104.813115 291.085056 
L 106.701639 288.95616 
L 108.590164 285.762816 
L 110.478689 290.552832 
L 112.367213 285.496704 
L 114.255738 283.63392 
L 116.144262 283.367808 
L 118.032787 284.96448 
L 119.921311 282.30336 
L 121.809836 280.174464 
L 123.698361 273.787776 
L 125.586885 272.723328 
L 127.47541 274.586112 
L 129.363934 271.65888 
L 131.252459 273.255552 
L 133.140984 272.457216 
L 135.029508 266.868864 
L 136.918033 270.32832 
L 138.806557 268.731648 
L 140.695082 271.392768 
L 142.583607 271.65888 
L 144.472131 269.529984 
L 146.360656 265.804416 
L 148.24918 259.68384 
L 150.137705 261.546624 
L 152.02623 269.796096 
L 153.914754 259.151616 
L 155.803279 260.482176 
L 157.691803 253.829376 
L 159.580328 261.0144 
L 161.468852 255.426048 
L 163.357377 259.151616 
L 165.245902 259.417728 
L 167.134426 258.087168 
L 169.022951 254.095488 
L 170.911475 255.159936 
L 172.8 246.644352 
L 174.688525 256.490496 
L 176.577049 259.417728 
L 178.465574 253.03104 
L 180.354098 250.902144 
L 182.242623 256.490496 
L 186.019672 257.554944 
L 187.908197 256.224384 
L 189.796721 257.821056 
L 191.685246 261.280512 
L 193.57377 258.619392 
L 195.462295 258.619392 
L 197.35082 255.958272 
L 199.239344 255.958272 
L 201.127869 261.0144 
L 203.016393 257.821056 
L 204.904918 261.0144 
L 206.793443 262.611072 
L 208.681967 259.949952 
L 210.570492 260.216064 
L 212.459016 259.949952 
L 214.347541 266.602752 
L 216.236066 263.143296 
L 218.12459 256.756608 
L 220.013115 263.143296 
L 221.901639 263.409408 
L 223.790164 267.134976 
L 225.678689 266.868864 
L 227.567213 265.00608 
L 229.455738 266.070528 
L 231.344262 268.199424 
L 233.232787 269.263872 
L 235.121311 259.417728 
L 237.009836 263.941632 
L 238.898361 263.941632 
L 240.786885 262.877184 
L 242.67541 257.554944 
L 244.563934 263.143296 
L 246.452459 266.33664 
L 248.340984 261.280512 
L 250.229508 262.877184 
L 252.118033 262.877184 
L 254.006557 260.482176 
L 255.895082 262.34496 
L 257.783607 265.804416 
L 259.672131 264.473856 
L 261.560656 267.933312 
L 263.44918 263.941632 
L 265.337705 262.611072 
L 267.22623 267.401088 
L 269.114754 264.473856 
L 271.003279 266.602752 
L 272.891803 267.401088 
L 274.780328 265.272192 
L 276.668852 269.529984 
L 278.557377 261.546624 
L 280.445902 266.602752 
L 282.334426 266.33664 
L 284.222951 275.384448 
L 286.111475 272.457216 
L 288 273.255552 
L 289.888525 274.32 
L 291.777049 274.32 
L 293.665574 275.65056 
L 295.554098 275.916672 
L 297.442623 280.440576 
L 299.331148 279.64224 
L 301.219672 282.037248 
L 303.108197 278.045568 
L 304.996721 287.093376 
L 306.885246 287.359488 
L 308.77377 287.891712 
L 310.662295 289.488384 
L 312.55082 294.012288 
L 314.439344 294.544512 
L 316.327869 295.60896 
L 318.216393 295.60896 
L 320.104918 295.076736 
L 321.993443 298.003968 
L 323.881967 299.334528 
L 325.770492 299.60064 
L 327.659016 300.9312 
L 329.547541 301.729536 
L 331.436066 302.26176 
L 333.32459 303.326208 
L 335.213115 303.59232 
L 337.101639 304.390656 
L 338.990164 305.455104 
L 340.878689 305.987328 
L 342.767213 305.188992 
L 344.655738 304.124544 
L 346.544262 307.051776 
L 348.432787 306.519552 
L 350.321311 306.519552 
L 352.209836 307.317888 
L 354.098361 306.785664 
L 355.986885 307.317888 
L 357.87541 306.785664 
L 359.763934 307.317888 
L 361.652459 307.051776 
L 363.540984 307.051776 
L 365.429508 307.317888 
L 371.095082 307.317888 
L 372.983607 307.051776 
L 374.872131 307.051776 
L 378.64918 307.584 
L 397.534426 307.584 
L 397.534426 307.584 
" clip-path="url(#p1039f80b6b)" style="fill: none; stroke: #ff7f0e; stroke-width: 1.5; stroke-linecap: square"/>
   </g>
   <g id="line2d_16">
    <path d="M 53.822951 298.27008 
L 57.6 297.737856 
L 59.488525 296.673408 
L 61.377049 298.536192 
L 63.265574 296.407296 
L 65.154098 295.342848 
L 67.042623 292.681728 
L 68.931148 296.93952 
L 70.819672 295.342848 
L 72.708197 298.802304 
L 74.596721 298.536192 
L 76.485246 295.875072 
L 78.37377 296.673408 
L 80.262295 295.60896 
L 82.15082 295.60896 
L 84.039344 292.94784 
L 85.927869 292.681728 
L 87.816393 294.012288 
L 89.704918 290.818944 
L 91.593443 290.818944 
L 93.481967 291.883392 
L 95.370492 288.690048 
L 97.259016 290.552832 
L 99.147541 289.488384 
L 101.036066 289.754496 
L 102.92459 287.093376 
L 104.813115 287.359488 
L 106.701639 283.900032 
L 108.590164 287.359488 
L 110.478689 284.96448 
L 112.367213 279.908352 
L 114.255738 283.367808 
L 116.144262 283.63392 
L 118.032787 282.30336 
L 119.921311 274.852224 
L 121.809836 274.586112 
L 123.698361 269.529984 
L 125.586885 276.715008 
L 127.47541 268.99776 
L 129.363934 262.877184 
L 131.252459 261.0144 
L 133.140984 263.941632 
L 135.029508 253.829376 
L 136.918033 253.829376 
L 138.806557 249.03936 
L 140.695082 253.563264 
L 142.583607 247.974912 
L 144.472131 245.313792 
L 146.360656 239.459328 
L 148.24918 244.515456 
L 150.137705 233.604864 
L 152.02623 232.274304 
L 153.914754 236.798208 
L 155.803279 232.806528 
L 157.691803 230.677632 
L 159.580328 228.282624 
L 161.468852 226.153728 
L 163.357377 228.016512 
L 165.245902 227.7504 
L 167.134426 218.170368 
L 169.022951 220.565376 
L 170.911475 217.904256 
L 172.8 224.290944 
L 174.688525 221.895936 
L 176.577049 217.904256 
L 178.465574 224.290944 
L 180.354098 221.895936 
L 182.242623 216.041472 
L 184.131148 215.77536 
L 186.019672 216.307584 
L 187.908197 215.509248 
L 189.796721 214.178688 
L 191.685246 213.380352 
L 193.57377 214.710912 
L 195.462295 211.78368 
L 197.35082 216.573696 
L 199.239344 214.178688 
L 201.127869 216.573696 
L 203.016393 205.396992 
L 204.904918 213.11424 
L 206.793443 209.920896 
L 208.681967 204.332544 
L 210.570492 212.049792 
L 212.459016 210.719232 
L 214.347541 197.14752 
L 216.236066 204.598656 
L 218.12459 214.710912 
L 220.013115 205.13088 
L 221.901639 204.864768 
L 223.790164 202.46976 
L 225.678689 201.937536 
L 227.567213 205.396992 
L 229.455738 205.396992 
L 231.344262 196.881408 
L 233.232787 192.357504 
L 235.121311 201.405312 
L 237.009836 205.13088 
L 238.898361 197.14752 
L 240.786885 203.268096 
L 242.67541 206.195328 
L 244.563934 202.203648 
L 246.452459 201.671424 
L 248.340984 201.405312 
L 250.229508 194.752512 
L 252.118033 206.46144 
L 254.006557 204.066432 
L 255.895082 199.80864 
L 257.783607 200.873088 
L 259.672131 199.276416 
L 261.560656 198.47808 
L 265.337705 205.396992 
L 267.22623 200.873088 
L 269.114754 203.534208 
L 271.003279 210.45312 
L 272.891803 209.12256 
L 274.780328 211.517568 
L 276.668852 212.049792 
L 278.557377 212.049792 
L 280.445902 210.45312 
L 282.334426 214.710912 
L 284.222951 213.11424 
L 286.111475 217.372032 
L 288 224.024832 
L 289.888525 226.685952 
L 291.777049 224.557056 
L 293.665574 235.201536 
L 295.554098 235.999872 
L 297.442623 234.935424 
L 299.331148 245.04768 
L 301.219672 245.04768 
L 303.108197 254.3616 
L 304.996721 248.241024 
L 306.885246 255.426048 
L 308.77377 258.885504 
L 310.662295 264.207744 
L 312.55082 266.602752 
L 314.439344 275.384448 
L 316.327869 275.384448 
L 318.216393 276.98112 
L 320.104918 282.30336 
L 321.993443 286.028928 
L 323.881967 290.552832 
L 325.770492 289.754496 
L 327.659016 291.351168 
L 329.547541 296.141184 
L 331.436066 297.471744 
L 333.32459 297.737856 
L 335.213115 299.866752 
L 337.101639 300.398976 
L 338.990164 301.197312 
L 340.878689 302.793984 
L 342.767213 303.59232 
L 344.655738 305.188992 
L 346.544262 305.455104 
L 348.432787 306.519552 
L 350.321311 305.987328 
L 352.209836 306.519552 
L 354.098361 306.25344 
L 355.986885 306.785664 
L 357.87541 306.519552 
L 359.763934 306.519552 
L 361.652459 307.584 
L 363.540984 307.317888 
L 365.429508 306.519552 
L 367.318033 306.519552 
L 369.206557 307.317888 
L 371.095082 307.584 
L 397.534426 307.584 
L 397.534426 307.584 
" clip-path="url(#p1039f80b6b)" style="fill: none; stroke: #2ca02c; stroke-width: 1.5; stroke-linecap: square"/>
   </g>
   <g id="patch_3">
    <path d="M 57.6 307.584 
L 57.6 41.472 
" style="fill: none; stroke: #000000; stroke-width: 0.8; stroke-linejoin: miter; stroke-linecap: square"/>
   </g>
   <g id="patch_4">
    <path d="M 414.72 307.584 
L 414.72 41.472 
" style="fill: none; stroke: #000000; stroke-width: 0.8; stroke-linejoin: miter; stroke-linecap: square"/>
   </g>
   <g id="patch_5">
    <path d="M 57.6 307.584 
L 414.72 307.584 
" style="fill: none; stroke: #000000; stroke-width: 0.8; stroke-linejoin: miter; stroke-linecap: square"/>
   </g>
   <g id="patch_6">
    <path d="M 57.6 41.472 
L 414.72 41.472 
" style="fill: none; stroke: #000000; stroke-width: 0.8; stroke-linejoin: miter; stroke-linecap: square"/>
   </g>
  </g>
 </g>
 <defs>
  <clipPath id="p1039f80b6b">
   <rect x="57.6" y="41.472" width="357.12" height="266.112"/>
  </clipPath>
 </defs>
</svg>
