<?xml version="1.0" encoding="utf-8" standalone="no"?>
<!DOCTYPE svg PUBLIC "-//W3C//DTD SVG 1.1//EN"
  "http://www.w3.org/Graphics/SVG/1.1/DTD/svg11.dtd">
<svg xmlns:xlink="http://www.w3.org/1999/xlink" width="371.52pt" height="280.512pt" viewBox="0 0 371.52 280.512" xmlns="http://www.w3.org/2000/svg" version="1.1">
 <metadata>
  <rdf:RDF xmlns:dc="http://purl.org/dc/elements/1.1/" xmlns:cc="http://creativecommons.org/ns#" xmlns:rdf="http://www.w3.org/1999/02/22-rdf-syntax-ns#">
   <cc:Work>
    <dc:type rdf:resource="http://purl.org/dc/dcmitype/StillImage"/>
    <dc:date>2025-01-08T11:21:29.395971</dc:date>
    <dc:format>image/svg+xml</dc:format>
    <dc:creator>
     <cc:Agent>
      <dc:title>Matplotlib v3.9.2, https://matplotlib.org/</dc:title>
     </cc:Agent>
    </dc:creator>
   </cc:Work>
  </rdf:RDF>
 </metadata>
 <defs>
  <style type="text/css">*{stroke-linejoin: round; stroke-linecap: butt}</style>
 </defs>
 <g id="figure_1">
  <g id="patch_1">
   <path d="M 0 280.512 
L 371.52 280.512 
L 371.52 0 
L 0 0 
L 0 280.512 
z
" style="fill: none"/>
  </g>
  <g id="axes_1">
   <g id="patch_2">
    <path d="M 7.2 273.312 
L 364.32 273.312 
L 364.32 7.2 
L 7.2 7.2 
L 7.2 273.312 
z
" style="fill: none"/>
   </g>
   <g id="patch_3">
    <path d="M 303.96973 124.458672 
C 315.276387 124.458672 315.276387 140.869143 303.96973 140.869143 
C 292.663072 140.869143 292.663072 124.458672 283.730487 124.458672 
" clip-path="url(#p6e33a155bb)" style="fill: none; stroke: #000000; stroke-width: 18.102529; stroke-linecap: round"/>
    <path d="M 279.730487 122.458672 
L 283.730487 124.458672 
L 279.730487 126.458672 
z
" clip-path="url(#p6e33a155bb)" style="stroke: #000000; stroke-width: 18.102529; stroke-linecap: round"/>
   </g>
   <g id="patch_4">
    <path d="M 303.487724 132.221052 
Q 300.847829 108.9206 285.348675 94.370179 
" clip-path="url(#p6e33a155bb)" style="fill: none; stroke: #000000; stroke-width: 1.959499; stroke-linecap: round"/>
    <path d="M 286.896068 98.566079 
L 285.348675 94.370179 
L 289.633831 95.649806 
z
" clip-path="url(#p6e33a155bb)" style="stroke: #000000; stroke-width: 1.959499; stroke-linecap: round"/>
   </g>
   <g id="patch_5">
    <path d="M 300.442175 132.957584 
Q 274.640218 78.90403 220.83808 62.222504 
" clip-path="url(#p6e33a155bb)" style="fill: none; stroke: #000000; stroke-width: 3.190878; stroke-linecap: round"/>
    <path d="M 224.066362 65.317371 
L 220.83808 62.222504 
L 225.250942 61.496799 
z
" clip-path="url(#p6e33a155bb)" style="stroke: #000000; stroke-width: 3.190878; stroke-linecap: round"/>
   </g>
   <g id="patch_6">
    <path d="M 298.212721 134.400493 
Q 234.455071 65.188455 142.479313 68.212297 
" clip-path="url(#p6e33a155bb)" style="fill: none; stroke: #000000; stroke-width: 1.857906; stroke-linecap: round"/>
    <path d="M 146.542871 70.079782 
L 142.479313 68.212297 
L 146.411436 66.081942 
z
" clip-path="url(#p6e33a155bb)" style="stroke: #000000; stroke-width: 1.857906; stroke-linecap: round"/>
   </g>
   <g id="patch_7">
    <path d="M 296.710108 136.144736 
Q 199.267227 74.680836 89.938794 109.484721 
" clip-path="url(#p6e33a155bb)" style="fill: none; stroke: #000000; stroke-width: 0.423611; stroke-linecap: round"/>
    <path d="M 94.357006 110.177113 
L 89.938794 109.484721 
L 93.143635 106.365587 
z
" clip-path="url(#p6e33a155bb)" style="stroke: #000000; stroke-width: 0.423611; stroke-linecap: round"/>
   </g>
   <g id="patch_8">
    <path d="M 295.754418 138.124915 
Q 185.974682 103.177303 89.378302 164.107192 
" clip-path="url(#p6e33a155bb)" style="fill: none; stroke: #000000; stroke-width: 0.895178; stroke-linecap: round"/>
    <path d="M 93.828501 163.664779 
L 89.378302 164.107192 
L 91.694491 160.281585 
z
" clip-path="url(#p6e33a155bb)" style="stroke: #000000; stroke-width: 0.895178; stroke-linecap: round"/>
   </g>
   <g id="patch_9">
    <path d="M 295.321079 140.436216 
Q 201.269069 137.34371 139.867951 203.997043 
" clip-path="url(#p6e33a155bb)" style="fill: none; stroke: #000000; stroke-width: 3.111132; stroke-linecap: round"/>
    <path d="M 144.049072 202.41015 
L 139.867951 203.997043 
L 141.107109 199.70001 
z
" clip-path="url(#p6e33a155bb)" style="stroke: #000000; stroke-width: 3.111132; stroke-linecap: round"/>
   </g>
   <g id="patch_10">
    <path d="M 295.632229 143.219137 
Q 238.423298 160.957961 213.021433 214.175553 
" clip-path="url(#p6e33a155bb)" style="fill: none; stroke: #000000; stroke-width: 0.829307; stroke-linecap: round"/>
    <path d="M 216.549421 211.427226 
L 213.021433 214.175553 
L 212.939564 209.704167 
z
" clip-path="url(#p6e33a155bb)" style="stroke: #000000; stroke-width: 0.829307; stroke-linecap: round"/>
   </g>
   <g id="patch_11">
    <path d="M 297.326718 146.427218 
Q 280.230615 162.477245 277.795356 183.973976 
" clip-path="url(#p6e33a155bb)" style="fill: none; stroke: #000000; stroke-width: 1.623744; stroke-linecap: round"/>
    <path d="M 280.232905 180.224529 
L 277.795356 183.973976 
L 276.258327 179.774268 
z
" clip-path="url(#p6e33a155bb)" style="stroke: #000000; stroke-width: 1.623744; stroke-linecap: round"/>
   </g>
   <g id="patch_12">
    <path d="M 277.591109 95.961362 
Q 280.231003 119.261814 295.828319 133.904388 
" clip-path="url(#p6e33a155bb)" style="fill: none; stroke: #000000; stroke-width: 1.839073; stroke-linecap: round"/>
    <path d="M 294.280927 129.708488 
L 295.828319 133.904388 
L 291.543164 132.624762 
z
" clip-path="url(#p6e33a155bb)" style="stroke: #000000; stroke-width: 1.839073; stroke-linecap: round"/>
   </g>
   <g id="patch_13">
    <path d="M 277.109103 70.902801 
C 288.41576 70.902801 288.41576 87.313272 277.109103 87.313272 
C 265.802445 87.313272 265.802445 70.902801 276.640358 70.902801 
" clip-path="url(#p6e33a155bb)" style="fill: none; stroke: #000000; stroke-width: 0.419258; stroke-linecap: round"/>
    <path d="M 272.640358 68.902801 
L 276.640358 70.902801 
L 272.640358 72.902801 
z
" clip-path="url(#p6e33a155bb)" style="stroke: #000000; stroke-width: 0.419258; stroke-linecap: round"/>
   </g>
   <g id="patch_14">
    <path d="M 271.179526 81.001585 
Q 248.863838 59.318842 218.629602 58.636725 
" clip-path="url(#p6e33a155bb)" style="fill: none; stroke: #000000; stroke-width: 0.780237; stroke-linecap: round"/>
    <path d="M 222.583474 60.726437 
L 218.629602 58.636725 
L 222.673695 56.727455 
z
" clip-path="url(#p6e33a155bb)" style="stroke: #000000; stroke-width: 0.780237; stroke-linecap: round"/>
   </g>
   <g id="patch_15">
    <path d="M 269.812237 82.643266 
Q 208.609172 45.349575 140.50921 65.875172 
" clip-path="url(#p6e33a155bb)" style="fill: none; stroke: #000000; stroke-width: 0.487456; stroke-linecap: round"/>
    <path d="M 144.916193 66.63576 
L 140.50921 65.875172 
L 143.76187 62.805938 
z
" clip-path="url(#p6e33a155bb)" style="stroke: #000000; stroke-width: 0.487456; stroke-linecap: round"/>
   </g>
   <g id="patch_16">
    <path d="M 268.890799 84.5858 
Q 173.403559 54.602552 88.68423 107.572777 
" clip-path="url(#p6e33a155bb)" style="fill: none; stroke: #000000; stroke-width: 0.149586; stroke-linecap: round"/>
    <path d="M 93.136147 107.147998 
L 88.68423 107.572777 
L 91.015557 103.756376 
z
" clip-path="url(#p6e33a155bb)" style="stroke: #000000; stroke-width: 0.149586; stroke-linecap: round"/>
   </g>
   <g id="patch_17">
    <path d="M 268.457818 86.862362 
Q 160.130231 82.847215 87.243866 162.635327 
" clip-path="url(#p6e33a155bb)" style="fill: none; stroke: #000000; stroke-width: 0.299203; stroke-linecap: round"/>
    <path d="M 91.418313 161.030961 
L 87.243866 162.635327 
L 88.465041 158.33315 
z
" clip-path="url(#p6e33a155bb)" style="stroke: #000000; stroke-width: 0.299203; stroke-linecap: round"/>
   </g>
   <g id="patch_18">
    <path d="M 268.752394 89.588252 
Q 175.452563 116.663667 135.576488 204.277307 
" clip-path="url(#p6e33a155bb)" style="fill: none; stroke: #000000; stroke-width: 0.794341; stroke-linecap: round"/>
    <path d="M 139.053808 201.465146 
L 135.576488 204.277307 
L 135.413151 199.808155 
z
" clip-path="url(#p6e33a155bb)" style="stroke: #000000; stroke-width: 0.794341; stroke-linecap: round"/>
   </g>
   <g id="patch_19">
    <path d="M 270.282739 92.645398 
Q 212.518861 139.777082 209.302945 213.891156 
" clip-path="url(#p6e33a155bb)" style="fill: none; stroke: #000000; stroke-width: 0.329288; stroke-linecap: round"/>
    <path d="M 211.474468 209.981618 
L 209.302945 213.891156 
L 207.478228 209.808215 
z
" clip-path="url(#p6e33a155bb)" style="stroke: #000000; stroke-width: 0.329288; stroke-linecap: round"/>
   </g>
   <g id="patch_20">
    <path d="M 273.469665 95.168176 
Q 253.971789 140.866366 273.215967 185.975431 
" clip-path="url(#p6e33a155bb)" style="fill: none; stroke: #000000; stroke-width: 0.572876; stroke-linecap: round"/>
    <path d="M 273.485966 181.511453 
L 273.215967 185.975431 
L 269.806784 183.081045 
z
" clip-path="url(#p6e33a155bb)" style="stroke: #000000; stroke-width: 0.572876; stroke-linecap: round"/>
   </g>
   <g id="patch_21">
    <path d="M 212.623163 66.728346 
Q 238.425119 120.7819 292.480284 137.541878 
" clip-path="url(#p6e33a155bb)" style="fill: none; stroke: #000000; stroke-width: 2.953936; stroke-linecap: round"/>
    <path d="M 289.252003 134.447011 
L 292.480284 137.541878 
L 288.067422 138.267583 
z
" clip-path="url(#p6e33a155bb)" style="stroke: #000000; stroke-width: 2.953936; stroke-linecap: round"/>
   </g>
   <g id="patch_22">
    <path d="M 215.025184 65.128475 
Q 237.340873 86.811218 267.451858 87.490554 
" clip-path="url(#p6e33a155bb)" style="fill: none; stroke: #000000; stroke-width: 0.890504; stroke-linecap: round"/>
    <path d="M 263.497986 85.400841 
L 267.451858 87.490554 
L 263.407765 89.399824 
z
" clip-path="url(#p6e33a155bb)" style="stroke: #000000; stroke-width: 0.890504; stroke-linecap: round"/>
   </g>
   <g id="patch_23">
    <path d="M 209.095608 42.406317 
C 220.402265 42.406317 220.402265 58.816788 209.095608 58.816788 
C 197.78895 58.816788 197.78895 42.406317 207.276564 42.406317 
" clip-path="url(#p6e33a155bb)" style="fill: none; stroke: #000000; stroke-width: 1.627002; stroke-linecap: round"/>
    <path d="M 203.276564 40.406317 
L 207.276564 42.406317 
L 203.276564 44.406317 
z
" clip-path="url(#p6e33a155bb)" style="stroke: #000000; stroke-width: 1.627002; stroke-linecap: round"/>
   </g>
   <g id="patch_24">
    <path d="M 200.811352 56.299034 
Q 168.401868 47.950068 139.90014 63.767349 
" clip-path="url(#p6e33a155bb)" style="fill: none; stroke: #000000; stroke-width: 0.778823; stroke-linecap: round"/>
    <path d="M 144.368143 63.57513 
L 139.90014 63.767349 
L 142.427167 60.077615 
z
" clip-path="url(#p6e33a155bb)" style="stroke: #000000; stroke-width: 0.778823; stroke-linecap: round"/>
   </g>
   <g id="patch_25">
    <path d="M 200.447919 58.435739 
Q 133.224625 57.045202 87.287845 105.705406 
" clip-path="url(#p6e33a155bb)" style="fill: none; stroke: #000000; stroke-width: 0.285271; stroke-linecap: round"/>
    <path d="M 91.488031 104.169685 
L 87.287845 105.705406 
L 88.579379 101.423825 
z
" clip-path="url(#p6e33a155bb)" style="stroke: #000000; stroke-width: 0.285271; stroke-linecap: round"/>
   </g>
   <g id="patch_26">
    <path d="M 200.74567 61.110431 
Q 119.986116 84.9541 85.002573 160.876025 
" clip-path="url(#p6e33a155bb)" style="fill: none; stroke: #000000; stroke-width: 0.546679; stroke-linecap: round"/>
    <path d="M 88.492984 158.080129 
L 85.002573 160.876025 
L 84.860103 156.406159 
z
" clip-path="url(#p6e33a155bb)" style="stroke: #000000; stroke-width: 0.546679; stroke-linecap: round"/>
   </g>
   <g id="patch_27">
    <path d="M 202.256931 64.130366 
Q 135.206432 118.258587 131.99086 202.574887 
" clip-path="url(#p6e33a155bb)" style="fill: none; stroke: #000000; stroke-width: 1.605446; stroke-linecap: round"/>
    <path d="M 134.141845 198.654011 
L 131.99086 202.574887 
L 130.14475 198.501574 
z
" clip-path="url(#p6e33a155bb)" style="stroke: #000000; stroke-width: 1.605446; stroke-linecap: round"/>
   </g>
   <g id="patch_28">
    <path d="M 205.371877 66.636902 
Q 171.793016 140.869462 205.113759 214.530768 
" clip-path="url(#p6e33a155bb)" style="fill: none; stroke: #000000; stroke-width: 0.560788; stroke-linecap: round"/>
    <path d="M 205.287416 210.062005 
L 205.113759 214.530768 
L 201.642943 211.710585 
z
" clip-path="url(#p6e33a155bb)" style="stroke: #000000; stroke-width: 0.560788; stroke-linecap: round"/>
   </g>
   <g id="patch_29">
    <path d="M 209.286872 67.476709 
Q 212.517792 141.959072 269.211915 188.219138 
" clip-path="url(#p6e33a155bb)" style="fill: none; stroke: #000000; stroke-width: 1.233818; stroke-linecap: round"/>
    <path d="M 267.377123 184.140715 
L 269.211915 188.219138 
L 264.848301 187.239918 
z
" clip-path="url(#p6e33a155bb)" style="stroke: #000000; stroke-width: 1.233818; stroke-linecap: round"/>
   </g>
   <g id="patch_30">
    <path d="M 137.510524 75.182162 
Q 201.268174 144.394201 293.285644 141.368987 
" clip-path="url(#p6e33a155bb)" style="fill: none; stroke: #000000; stroke-width: 1.820578; stroke-linecap: round"/>
    <path d="M 289.222086 139.501502 
L 293.285644 141.368987 
L 289.353521 143.499342 
z
" clip-path="url(#p6e33a155bb)" style="stroke: #000000; stroke-width: 1.820578; stroke-linecap: round"/>
   </g>
   <g id="patch_31">
    <path d="M 139.050381 73.383519 
Q 200.253446 110.677209 268.410606 90.134372 
" clip-path="url(#p6e33a155bb)" style="fill: none; stroke: #000000; stroke-width: 0.434023; stroke-linecap: round"/>
    <path d="M 264.003623 89.373785 
L 268.410606 90.134372 
L 265.157946 93.203607 
z
" clip-path="url(#p6e33a155bb)" style="stroke: #000000; stroke-width: 0.434023; stroke-linecap: round"/>
   </g>
   <g id="patch_32">
    <path d="M 140.037771 71.231267 
Q 172.447255 79.580232 200.909925 63.784627 
" clip-path="url(#p6e33a155bb)" style="fill: none; stroke: #000000; stroke-width: 0.818777; stroke-linecap: round"/>
    <path d="M 196.441922 63.976846 
L 200.909925 63.784627 
L 198.382898 67.474361 
z
" clip-path="url(#p6e33a155bb)" style="stroke: #000000; stroke-width: 0.818777; stroke-linecap: round"/>
   </g>
   <g id="patch_33">
    <path d="M 131.753515 52.303042 
C 143.060173 52.303042 143.060173 68.713513 131.753515 68.713513 
C 120.446858 68.713513 120.446858 52.303042 131.254304 52.303042 
" clip-path="url(#p6e33a155bb)" style="fill: none; stroke: #000000; stroke-width: 0.446508; stroke-linecap: round"/>
    <path d="M 127.254304 50.303042 
L 131.254304 52.303042 
L 127.254304 54.303042 
z
" clip-path="url(#p6e33a155bb)" style="stroke: #000000; stroke-width: 0.446508; stroke-linecap: round"/>
   </g>
   <g id="patch_34">
    <path d="M 123.476869 71.255739 
Q 97.881816 80.563418 85.050696 104.419554 
" clip-path="url(#p6e33a155bb)" style="fill: none; stroke: #000000; stroke-width: 0.131502; stroke-linecap: round"/>
    <path d="M 88.706824 101.844147 
L 85.050696 104.419554 
L 85.184047 99.949407 
z
" clip-path="url(#p6e33a155bb)" style="stroke: #000000; stroke-width: 0.131502; stroke-linecap: round"/>
   </g>
   <g id="patch_35">
    <path d="M 124.968656 74.094886 
Q 84.61536 108.055767 81.546878 160.380849 
" clip-path="url(#p6e33a155bb)" style="fill: none; stroke: #000000; stroke-width: 0.292246; stroke-linecap: round"/>
    <path d="M 83.777616 156.504793 
L 81.546878 160.380849 
L 79.784477 156.270625 
z
" clip-path="url(#p6e33a155bb)" style="stroke: #000000; stroke-width: 0.292246; stroke-linecap: round"/>
   </g>
   <g id="patch_36">
    <path d="M 128.052734 76.539474 
Q 99.376581 140.868917 127.671665 204.34395 
" clip-path="url(#p6e33a155bb)" style="fill: none; stroke: #000000; stroke-width: 0.836697; stroke-linecap: round"/>
    <path d="M 127.869802 199.876205 
L 127.671665 204.34395 
L 124.216352 201.504793 
z
" clip-path="url(#p6e33a155bb)" style="stroke: #000000; stroke-width: 0.836697; stroke-linecap: round"/>
   </g>
   <g id="patch_37">
    <path d="M 131.92255 77.37221 
Q 135.207433 163.481694 202.035388 217.429077 
" clip-path="url(#p6e33a155bb)" style="fill: none; stroke: #000000; stroke-width: 0.256856; stroke-linecap: round"/>
    <path d="M 200.179227 213.360334 
L 202.035388 217.429077 
L 197.666697 216.47276 
z
" clip-path="url(#p6e33a155bb)" style="stroke: #000000; stroke-width: 0.256856; stroke-linecap: round"/>
   </g>
   <g id="patch_38">
    <path d="M 135.20961 76.654893 
Q 175.454249 165.076076 268.094757 191.959195 
" clip-path="url(#p6e33a155bb)" style="fill: none; stroke: #000000; stroke-width: 0.614667; stroke-linecap: round"/>
    <path d="M 264.810615 188.923671 
L 268.094757 191.959195 
L 263.695852 192.765195 
z
" clip-path="url(#p6e33a155bb)" style="stroke: #000000; stroke-width: 0.614667; stroke-linecap: round"/>
   </g>
   <g id="patch_39">
    <path d="M 88.531671 117.097065 
Q 185.974552 178.560965 295.302073 143.757371 
" clip-path="url(#p6e33a155bb)" style="fill: none; stroke: #000000; stroke-width: 0.424467; stroke-linecap: round"/>
    <path d="M 290.883861 143.064979 
L 295.302073 143.757371 
L 292.097232 146.876505 
z
" clip-path="url(#p6e33a155bb)" style="stroke: #000000; stroke-width: 0.424467; stroke-linecap: round"/>
   </g>
   <g id="patch_40">
    <path d="M 89.490353 115.100131 
Q 184.977593 145.083378 269.700847 92.110699 
" clip-path="url(#p6e33a155bb)" style="fill: none; stroke: #000000; stroke-width: 0.145446; stroke-linecap: round"/>
    <path d="M 265.24893 92.535479 
L 269.700847 92.110699 
L 267.36952 95.9271 
z
" clip-path="url(#p6e33a155bb)" style="stroke: #000000; stroke-width: 0.145446; stroke-linecap: round"/>
   </g>
   <g id="patch_41">
    <path d="M 89.919739 112.753708 
Q 157.143033 114.144245 203.083842 65.479772 
" clip-path="url(#p6e33a155bb)" style="fill: none; stroke: #000000; stroke-width: 0.280021; stroke-linecap: round"/>
    <path d="M 198.883656 67.015493 
L 203.083842 65.479772 
L 201.792308 69.761353 
z
" clip-path="url(#p6e33a155bb)" style="stroke: #000000; stroke-width: 0.280021; stroke-linecap: round"/>
   </g>
   <g id="patch_42">
    <path d="M 89.548696 109.830432 
Q 115.143749 100.522753 127.961106 76.692206 
" clip-path="url(#p6e33a155bb)" style="fill: none; stroke: #000000; stroke-width: 0.15749; stroke-linecap: round"/>
    <path d="M 124.304977 79.267613 
L 127.961106 76.692206 
L 127.827754 81.162353 
z
" clip-path="url(#p6e33a155bb)" style="stroke: #000000; stroke-width: 0.15749; stroke-linecap: round"/>
   </g>
   <g id="patch_43">
    <path d="M 81.272049 95.962188 
C 92.578707 95.962188 92.578707 112.372659 81.272049 112.372659 
C 69.965392 112.372659 69.965392 95.962188 81.210379 95.962188 
" clip-path="url(#p6e33a155bb)" style="fill: none; stroke: #000000; stroke-width: 0.05516; stroke-linecap: round"/>
    <path d="M 77.210379 93.962188 
L 81.210379 95.962188 
L 77.210379 97.962188 
z
" clip-path="url(#p6e33a155bb)" style="stroke: #000000; stroke-width: 0.05516; stroke-linecap: round"/>
   </g>
   <g id="patch_44">
    <path d="M 77.849543 120.328159 
Q 70.44576 140.87068 77.816064 161.317249 
" clip-path="url(#p6e33a155bb)" style="fill: none; stroke: #000000; stroke-width: 0.091227; stroke-linecap: round"/>
    <path d="M 78.341127 156.876043 
L 77.816064 161.317249 
L 74.578137 158.232475 
z
" clip-path="url(#p6e33a155bb)" style="stroke: #000000; stroke-width: 0.091227; stroke-linecap: round"/>
   </g>
   <g id="patch_45">
    <path d="M 81.527604 121.028766 
Q 84.614333 173.68047 124.757738 207.465887 
" clip-path="url(#p6e33a155bb)" style="fill: none; stroke: #000000; stroke-width: 0.24434; stroke-linecap: round"/>
    <path d="M 122.985194 203.360027 
L 124.757738 207.465887 
L 120.409524 206.420406 
z
" clip-path="url(#p6e33a155bb)" style="stroke: #000000; stroke-width: 0.24434; stroke-linecap: round"/>
   </g>
   <g id="patch_46">
    <path d="M 84.745635 120.304648 
Q 119.984218 196.782543 200.638056 220.59608 
" clip-path="url(#p6e33a155bb)" style="fill: none; stroke: #000000; stroke-width: 0.097897; stroke-linecap: round"/>
    <path d="M 197.36812 217.545257 
L 200.638056 220.59608 
L 196.235436 221.381535 
z
" clip-path="url(#p6e33a155bb)" style="stroke: #000000; stroke-width: 0.097897; stroke-linecap: round"/>
   </g>
   <g id="patch_47">
    <path d="M 87.018087 118.855799 
Q 160.13003 198.890986 268.212852 194.885003 
" clip-path="url(#p6e33a155bb)" style="fill: none; stroke: #000000; stroke-width: 0.21904; stroke-linecap: round"/>
    <path d="M 264.14152 193.03453 
L 268.212852 194.885003 
L 264.289674 197.031785 
z
" clip-path="url(#p6e33a155bb)" style="stroke: #000000; stroke-width: 0.21904; stroke-linecap: round"/>
   </g>
   <g id="patch_48">
    <path d="M 89.487361 172.109854 
Q 199.267097 207.057466 295.981524 146.053116 
" clip-path="url(#p6e33a155bb)" style="fill: none; stroke: #000000; stroke-width: 0.770344; stroke-linecap: round"/>
    <path d="M 291.531325 146.495529 
L 295.981524 146.053116 
L 293.665335 149.878723 
z
" clip-path="url(#p6e33a155bb)" style="stroke: #000000; stroke-width: 0.770344; stroke-linecap: round"/>
   </g>
   <g id="patch_49">
    <path d="M 89.923334 169.816536 
Q 198.250921 173.831683 271.142013 94.038396 
" clip-path="url(#p6e33a155bb)" style="fill: none; stroke: #000000; stroke-width: 0.292935; stroke-linecap: round"/>
    <path d="M 266.967566 95.642762 
L 271.142013 94.038396 
L 269.920838 98.340574 
z
" clip-path="url(#p6e33a155bb)" style="stroke: #000000; stroke-width: 0.292935; stroke-linecap: round"/>
   </g>
   <g id="patch_50">
    <path d="M 89.621987 167.071983 
Q 170.381541 143.228314 205.351884 67.335036 
" clip-path="url(#p6e33a155bb)" style="fill: none; stroke: #000000; stroke-width: 0.574891; stroke-linecap: round"/>
    <path d="M 201.861473 70.130932 
L 205.351884 67.335036 
L 205.494354 71.804902 
z
" clip-path="url(#p6e33a155bb)" style="stroke: #000000; stroke-width: 0.574891; stroke-linecap: round"/>
   </g>
   <g id="patch_51">
    <path d="M 88.056909 163.984253 
Q 128.410204 130.023372 131.478865 77.695237 
" clip-path="url(#p6e33a155bb)" style="fill: none; stroke: #000000; stroke-width: 0.28951; stroke-linecap: round"/>
    <path d="M 129.248127 81.571293 
L 131.478865 77.695237 
L 133.241267 81.805461 
z
" clip-path="url(#p6e33a155bb)" style="stroke: #000000; stroke-width: 0.28951; stroke-linecap: round"/>
   </g>
   <g id="patch_52">
    <path d="M 84.694556 161.410126 
Q 92.098339 140.867606 84.735499 120.441743 
" clip-path="url(#p6e33a155bb)" style="fill: none; stroke: #000000; stroke-width: 0.110914; stroke-linecap: round"/>
    <path d="M 84.210436 124.882949 
L 84.735499 120.441743 
L 87.973426 123.526517 
z
" clip-path="url(#p6e33a155bb)" style="stroke: #000000; stroke-width: 0.110914; stroke-linecap: round"/>
   </g>
   <g id="patch_53">
    <path d="M 81.272049 152.955155 
C 92.578707 152.955155 92.578707 169.365626 81.272049 169.365626 
C 69.965392 169.365626 69.965392 152.955155 81.020481 152.955155 
" clip-path="url(#p6e33a155bb)" style="fill: none; stroke: #000000; stroke-width: 0.22501; stroke-linecap: round"/>
    <path d="M 77.020481 150.955155 
L 81.020481 152.955155 
L 77.020481 154.955155 
z
" clip-path="url(#p6e33a155bb)" style="stroke: #000000; stroke-width: 0.22501; stroke-linecap: round"/>
   </g>
   <g id="patch_54">
    <path d="M 84.981054 177.18925 
Q 97.881817 201.174868 122.898742 210.272309 
" clip-path="url(#p6e33a155bb)" style="fill: none; stroke: #000000; stroke-width: 0.550224; stroke-linecap: round"/>
    <path d="M 119.823097 207.025709 
L 122.898742 210.272309 
L 118.456075 210.784865 
z
" clip-path="url(#p6e33a155bb)" style="stroke: #000000; stroke-width: 0.550224; stroke-linecap: round"/>
   </g>
   <g id="patch_55">
    <path d="M 87.065364 175.797207 
Q 133.220279 224.691263 200.22673 223.307116 
" clip-path="url(#p6e33a155bb)" style="fill: none; stroke: #000000; stroke-width: 0.193269; stroke-linecap: round"/>
    <path d="M 196.186278 221.390152 
L 200.22673 223.307116 
L 196.268888 225.389299 
z
" clip-path="url(#p6e33a155bb)" style="stroke: #000000; stroke-width: 0.193269; stroke-linecap: round"/>
   </g>
   <g id="patch_56">
    <path d="M 88.538786 174.07457 
Q 173.399694 227.135238 268.362148 197.318474 
" clip-path="url(#p6e33a155bb)" style="fill: none; stroke: #000000; stroke-width: 0.491763; stroke-linecap: round"/>
    <path d="M 263.946714 196.608584 
L 268.362148 197.318474 
L 265.144975 200.424887 
z
" clip-path="url(#p6e33a155bb)" style="stroke: #000000; stroke-width: 0.491763; stroke-linecap: round"/>
   </g>
   <g id="patch_57">
    <path d="M 140.402166 213.457699 
Q 234.454176 216.550206 295.918841 149.827889 
" clip-path="url(#p6e33a155bb)" style="fill: none; stroke: #000000; stroke-width: 3.027242; stroke-linecap: round"/>
    <path d="M 291.73772 151.414782 
L 295.918841 149.827889 
L 294.679683 154.124922 
z
" clip-path="url(#p6e33a155bb)" style="stroke: #000000; stroke-width: 3.027242; stroke-linecap: round"/>
   </g>
   <g id="patch_58">
    <path d="M 140.110224 210.749792 
Q 233.410054 183.674377 273.287926 96.056792 
" clip-path="url(#p6e33a155bb)" style="fill: none; stroke: #000000; stroke-width: 0.790464; stroke-linecap: round"/>
    <path d="M 269.810606 98.868952 
L 273.287926 96.056792 
L 273.451262 100.525944 
z
" clip-path="url(#p6e33a155bb)" style="stroke: #000000; stroke-width: 0.790464; stroke-linecap: round"/>
   </g>
   <g id="patch_59">
    <path d="M 138.592192 207.711195 
Q 205.642691 153.582974 208.861385 69.184804 
" clip-path="url(#p6e33a155bb)" style="fill: none; stroke: #000000; stroke-width: 1.532167; stroke-linecap: round"/>
    <path d="M 206.710401 73.10568 
L 208.861385 69.184804 
L 210.707495 73.258117 
z
" clip-path="url(#p6e33a155bb)" style="stroke: #000000; stroke-width: 1.532167; stroke-linecap: round"/>
   </g>
   <g id="patch_60">
    <path d="M 135.454296 205.198811 
Q 164.130449 140.869368 135.833596 77.390367 
" clip-path="url(#p6e33a155bb)" style="fill: none; stroke: #000000; stroke-width: 0.832812; stroke-linecap: round"/>
    <path d="M 135.635459 81.858112 
L 135.833596 77.390367 
L 139.28891 80.229524 
z
" clip-path="url(#p6e33a155bb)" style="stroke: #000000; stroke-width: 0.832812; stroke-linecap: round"/>
   </g>
   <g id="patch_61">
    <path d="M 131.49796 204.368665 
Q 128.411231 151.716961 88.287818 117.948369 
" clip-path="url(#p6e33a155bb)" style="fill: none; stroke: #000000; stroke-width: 0.267711; stroke-linecap: round"/>
    <path d="M 90.060362 122.054229 
L 88.287818 117.948369 
L 92.636032 118.99385 
z
" clip-path="url(#p6e33a155bb)" style="stroke: #000000; stroke-width: 0.267711; stroke-linecap: round"/>
   </g>
   <g id="patch_62">
    <path d="M 128.044511 205.201149 
Q 115.143747 181.215531 90.112134 172.112748 
" clip-path="url(#p6e33a155bb)" style="fill: none; stroke: #000000; stroke-width: 0.536244; stroke-linecap: round"/>
    <path d="M 93.187778 175.359348 
L 90.112134 172.112748 
L 94.5548 171.600192 
z
" clip-path="url(#p6e33a155bb)" style="stroke: #000000; stroke-width: 0.536244; stroke-linecap: round"/>
   </g>
   <g id="patch_63">
    <path d="M 131.753515 196.614302 
C 143.060173 196.614302 143.060173 213.024773 131.753515 213.024773 
C 120.446858 213.024773 120.446858 196.614302 130.026222 196.614302 
" clip-path="url(#p6e33a155bb)" style="fill: none; stroke: #000000; stroke-width: 1.544938; stroke-linecap: round"/>
    <path d="M 126.026222 194.614302 
L 130.026222 196.614302 
L 126.026222 198.614302 
z
" clip-path="url(#p6e33a155bb)" style="stroke: #000000; stroke-width: 1.544938; stroke-linecap: round"/>
   </g>
   <g id="patch_64">
    <path d="M 139.136886 217.547362 
Q 168.399879 233.787963 200.217261 225.59228 
" clip-path="url(#p6e33a155bb)" style="fill: none; stroke: #000000; stroke-width: 0.546785; stroke-linecap: round"/>
    <path d="M 195.844817 224.653272 
L 200.217261 225.59228 
L 196.842588 228.52683 
z
" clip-path="url(#p6e33a155bb)" style="stroke: #000000; stroke-width: 0.546785; stroke-linecap: round"/>
   </g>
   <g id="patch_65">
    <path d="M 139.991173 215.706975 
Q 208.612737 236.388254 268.675453 199.787744 
" clip-path="url(#p6e33a155bb)" style="fill: none; stroke: #000000; stroke-width: 1.194199; stroke-linecap: round"/>
    <path d="M 264.218948 200.161331 
L 268.675453 199.787744 
L 266.30042 203.5771 
z
" clip-path="url(#p6e33a155bb)" style="stroke: #000000; stroke-width: 1.194199; stroke-linecap: round"/>
   </g>
   <g id="patch_66">
    <path d="M 217.433109 220.571503 
Q 274.64204 202.832679 300.097078 149.503688 
" clip-path="url(#p6e33a155bb)" style="fill: none; stroke: #000000; stroke-width: 0.7189; stroke-linecap: round"/>
    <path d="M 296.56909 152.252015 
L 300.097078 149.503688 
L 300.178947 153.975074 
z
" clip-path="url(#p6e33a155bb)" style="stroke: #000000; stroke-width: 0.7189; stroke-linecap: round"/>
   </g>
   <g id="patch_67">
    <path d="M 215.921971 217.589371 
Q 273.68585 170.457687 276.905587 96.255539 
" clip-path="url(#p6e33a155bb)" style="fill: none; stroke: #000000; stroke-width: 0.250438; stroke-linecap: round"/>
    <path d="M 274.734065 100.165077 
L 276.905587 96.255539 
L 278.730304 100.33848 
z
" clip-path="url(#p6e33a155bb)" style="stroke: #000000; stroke-width: 0.250438; stroke-linecap: round"/>
   </g>
   <g id="patch_68">
    <path d="M 212.819338 215.101383 
Q 246.398199 140.868824 213.087558 67.229848 
" clip-path="url(#p6e33a155bb)" style="fill: none; stroke: #000000; stroke-width: 0.58271; stroke-linecap: round"/>
    <path d="M 212.913901 71.698611 
L 213.087558 67.229848 
L 216.558374 70.050031 
z
" clip-path="url(#p6e33a155bb)" style="stroke: #000000; stroke-width: 0.58271; stroke-linecap: round"/>
   </g>
   <g id="patch_69">
    <path d="M 208.926573 214.2628 
Q 205.64169 128.153316 138.834444 74.222651 
" clip-path="url(#p6e33a155bb)" style="fill: none; stroke: #000000; stroke-width: 0.280661; stroke-linecap: round"/>
    <path d="M 140.690605 78.291393 
L 138.834444 74.222651 
L 143.203135 75.178968 
z
" clip-path="url(#p6e33a155bb)" style="stroke: #000000; stroke-width: 0.280661; stroke-linecap: round"/>
   </g>
   <g id="patch_70">
    <path d="M 205.622022 214.989508 
Q 170.383439 138.511613 89.740913 114.701416 
" clip-path="url(#p6e33a155bb)" style="fill: none; stroke: #000000; stroke-width: 0.108445; stroke-linecap: round"/>
    <path d="M 93.010848 117.752239 
L 89.740913 114.701416 
L 94.143532 113.915961 
z
" clip-path="url(#p6e33a155bb)" style="stroke: #000000; stroke-width: 0.108445; stroke-linecap: round"/>
   </g>
   <g id="patch_71">
    <path d="M 203.302293 216.489917 
Q 157.147378 167.595861 90.173752 168.97933 
" clip-path="url(#p6e33a155bb)" style="fill: none; stroke: #000000; stroke-width: 0.222635; stroke-linecap: round"/>
    <path d="M 94.214204 170.896294 
L 90.173752 168.97933 
L 94.131594 166.897147 
z
" clip-path="url(#p6e33a155bb)" style="stroke: #000000; stroke-width: 0.222635; stroke-linecap: round"/>
   </g>
   <g id="patch_72">
    <path d="M 201.712237 218.398908 
Q 172.449244 202.158307 140.645466 210.350486 
" clip-path="url(#p6e33a155bb)" style="fill: none; stroke: #000000; stroke-width: 0.55935; stroke-linecap: round"/>
    <path d="M 145.017909 211.289494 
L 140.645466 210.350486 
L 144.020139 207.415936 
z
" clip-path="url(#p6e33a155bb)" style="stroke: #000000; stroke-width: 0.55935; stroke-linecap: round"/>
   </g>
   <g id="patch_73">
    <path d="M 209.095608 206.511027 
C 220.402265 206.511027 220.402265 222.921498 209.095608 222.921498 
C 197.78895 222.921498 197.78895 206.511027 208.868513 206.511027 
" clip-path="url(#p6e33a155bb)" style="fill: none; stroke: #000000; stroke-width: 0.20312; stroke-linecap: round"/>
    <path d="M 204.868513 204.511027 
L 208.868513 206.511027 
L 204.868513 208.511027 
z
" clip-path="url(#p6e33a155bb)" style="stroke: #000000; stroke-width: 0.20312; stroke-linecap: round"/>
   </g>
   <g id="patch_74">
    <path d="M 217.753398 223.121329 
Q 248.860322 222.420916 270.797031 201.108314 
" clip-path="url(#p6e33a155bb)" style="fill: none; stroke: #000000; stroke-width: 0.473327; stroke-linecap: round"/>
    <path d="M 266.534426 202.461164 
L 270.797031 201.108314 
L 269.321748 205.330107 
z
" clip-path="url(#p6e33a155bb)" style="stroke: #000000; stroke-width: 0.473327; stroke-linecap: round"/>
   </g>
   <g id="patch_75">
    <path d="M 283.752114 188.866939 
Q 300.848217 172.816912 303.297033 151.200518 
" clip-path="url(#p6e33a155bb)" style="fill: none; stroke: #000000; stroke-width: 1.51603; stroke-linecap: round"/>
    <path d="M 300.859483 154.949965 
L 303.297033 151.200518 
L 304.834061 155.400225 
z
" clip-path="url(#p6e33a155bb)" style="stroke: #000000; stroke-width: 1.51603; stroke-linecap: round"/>
   </g>
   <g id="patch_76">
    <path d="M 280.74854 186.570109 
Q 300.246416 140.871919 280.992259 95.739462 
" clip-path="url(#p6e33a155bb)" style="fill: none; stroke: #000000; stroke-width: 0.550129; stroke-linecap: round"/>
    <path d="M 280.72226 100.20344 
L 280.992259 95.739462 
L 284.401442 98.633848 
z
" clip-path="url(#p6e33a155bb)" style="stroke: #000000; stroke-width: 0.550129; stroke-linecap: round"/>
   </g>
   <g id="patch_77">
    <path d="M 276.917838 185.765093 
Q 273.686919 111.28273 217.018512 65.043646 
" clip-path="url(#p6e33a155bb)" style="fill: none; stroke: #000000; stroke-width: 1.263505; stroke-linecap: round"/>
    <path d="M 218.853304 69.12207 
L 217.018512 65.043646 
L 221.382126 66.022867 
z
" clip-path="url(#p6e33a155bb)" style="stroke: #000000; stroke-width: 1.263505; stroke-linecap: round"/>
   </g>
   <g id="patch_78">
    <path d="M 273.653008 186.483633 
Q 233.408369 98.06245 140.728849 71.168011 
" clip-path="url(#p6e33a155bb)" style="fill: none; stroke: #000000; stroke-width: 0.578334; stroke-linecap: round"/>
    <path d="M 144.012991 74.203535 
L 140.728849 71.168011 
L 145.127754 70.362011 
z
" clip-path="url(#p6e33a155bb)" style="stroke: #000000; stroke-width: 0.578334; stroke-linecap: round"/>
   </g>
   <g id="patch_79">
    <path d="M 271.363065 187.941874 
Q 198.251122 107.906686 90.171706 111.912543 
" clip-path="url(#p6e33a155bb)" style="fill: none; stroke: #000000; stroke-width: 0.222088; stroke-linecap: round"/>
    <path d="M 94.243038 113.763017 
L 90.171706 111.912543 
L 94.094884 109.765761 
z
" clip-path="url(#p6e33a155bb)" style="stroke: #000000; stroke-width: 0.222088; stroke-linecap: round"/>
   </g>
   <g id="patch_80">
    <path d="M 269.842366 189.71607 
Q 184.981458 136.655402 90.001636 166.477619 
" clip-path="url(#p6e33a155bb)" style="fill: none; stroke: #000000; stroke-width: 0.47548; stroke-linecap: round"/>
    <path d="M 94.41707 167.18751 
L 90.001636 166.477619 
L 93.218809 163.371207 
z
" clip-path="url(#p6e33a155bb)" style="stroke: #000000; stroke-width: 0.47548; stroke-linecap: round"/>
   </g>
   <g id="patch_81">
    <path d="M 268.871445 191.742812 
Q 200.249881 171.061532 140.196994 207.656053 
" clip-path="url(#p6e33a155bb)" style="fill: none; stroke: #000000; stroke-width: 1.204494; stroke-linecap: round"/>
    <path d="M 144.653499 207.282465 
L 140.196994 207.656053 
L 142.572026 203.866697 
z
" clip-path="url(#p6e33a155bb)" style="stroke: #000000; stroke-width: 1.204494; stroke-linecap: round"/>
   </g>
   <g id="patch_82">
    <path d="M 268.451312 194.225183 
Q 237.344388 194.925595 215.386661 216.258618 
" clip-path="url(#p6e33a155bb)" style="fill: none; stroke: #000000; stroke-width: 0.447116; stroke-linecap: round"/>
    <path d="M 219.649265 214.905769 
L 215.386661 216.258618 
L 216.861944 212.036825 
z
" clip-path="url(#p6e33a155bb)" style="stroke: #000000; stroke-width: 0.447116; stroke-linecap: round"/>
   </g>
   <g id="patch_83">
    <path d="M 277.109103 178.014543 
C 288.41576 178.014543 288.41576 194.425014 277.109103 194.425014 
C 265.802445 194.425014 265.802445 178.014543 275.926775 178.014543 
" clip-path="url(#p6e33a155bb)" style="fill: none; stroke: #000000; stroke-width: 1.057506; stroke-linecap: round"/>
    <path d="M 271.926775 176.014543 
L 275.926775 178.014543 
L 271.926775 180.014543 
z
" clip-path="url(#p6e33a155bb)" style="stroke: #000000; stroke-width: 1.057506; stroke-linecap: round"/>
   </g>
   <g id="matplotlib.axis_1">
    <g id="xtick_1"/>
    <g id="xtick_2"/>
    <g id="xtick_3"/>
    <g id="xtick_4"/>
    <g id="xtick_5"/>
    <g id="xtick_6"/>
    <g id="xtick_7"/>
   </g>
   <g id="matplotlib.axis_2">
    <g id="ytick_1"/>
    <g id="ytick_2"/>
    <g id="ytick_3"/>
    <g id="ytick_4"/>
    <g id="ytick_5"/>
    <g id="ytick_6"/>
    <g id="ytick_7"/>
   </g>
   <g id="PathCollection_1">
    <path d="M 303.96973 172.488848 
C 312.355374 172.488848 320.398692 169.157196 326.328238 163.227651 
C 332.257783 157.298105 335.589435 149.254787 335.589435 140.869143 
C 335.589435 132.483499 332.257783 124.44018 326.328238 118.510634 
C 320.398692 112.581089 312.355374 109.249437 303.96973 109.249437 
C 295.584086 109.249437 287.540767 112.581089 281.611221 118.510634 
C 275.681676 124.44018 272.350024 132.483499 272.350024 140.869143 
C 272.350024 149.254787 275.681676 157.298105 281.611221 163.227651 
C 287.540767 169.157196 295.584086 172.488848 303.96973 172.488848 
z
" clip-path="url(#p6e33a155bb)" style="fill: #add8e6; stroke: #add8e6"/>
    <path d="M 277.109103 100.625999 
C 280.639679 100.625999 284.026128 99.223286 286.522622 96.726791 
C 289.019117 94.230297 290.42183 90.843848 290.42183 87.313272 
C 290.42183 83.782695 289.019117 80.396247 286.522622 77.899752 
C 284.026128 75.403257 280.639679 74.000544 277.109103 74.000544 
C 273.578526 74.000544 270.192078 75.403257 267.695583 77.899752 
C 265.199089 80.396247 263.796376 83.782695 263.796376 87.313272 
C 263.796376 90.843848 265.199089 94.230297 267.695583 96.726791 
C 270.192078 99.223286 273.578526 100.625999 277.109103 100.625999 
z
" clip-path="url(#p6e33a155bb)" style="fill: #add8e6; stroke: #add8e6"/>
    <path d="M 209.095608 76.915707 
C 213.895497 76.915707 218.499442 75.00869 221.893476 71.614656 
C 225.28751 68.220622 227.194527 63.616677 227.194527 58.816788 
C 227.194527 54.016898 225.28751 49.412954 221.893476 46.018919 
C 218.499442 42.624885 213.895497 40.717869 209.095608 40.717869 
C 204.295718 40.717869 199.691774 42.624885 196.29774 46.018919 
C 192.903705 49.412954 190.996689 54.016898 190.996689 58.816788 
C 190.996689 63.616677 192.903705 68.220622 196.29774 71.614656 
C 199.691774 75.00869 204.295718 76.915707 209.095608 76.915707 
z
" clip-path="url(#p6e33a155bb)" style="fill: #add8e6; stroke: #add8e6"/>
    <path d="M 131.753515 82.003374 
C 135.278027 82.003374 138.658659 80.60307 141.150866 78.110864 
C 143.643073 75.618657 145.043376 72.238025 145.043376 68.713513 
C 145.043376 65.189 143.643073 61.808368 141.150866 59.316162 
C 138.658659 56.823955 135.278027 55.423652 131.753515 55.423652 
C 128.229003 55.423652 124.848371 56.823955 122.356164 59.316162 
C 119.863958 61.808368 118.463654 65.189 118.463654 68.713513 
C 118.463654 72.238025 119.863958 75.618657 122.356164 78.110864 
C 124.848371 80.60307 128.229003 82.003374 131.753515 82.003374 
z
" clip-path="url(#p6e33a155bb)" style="fill: #add8e6; stroke: #add8e6"/>
    <path d="M 81.272049 119.693621 
C 83.213591 119.693621 85.075874 118.922238 86.448751 117.54936 
C 87.821628 116.176483 88.593011 114.314201 88.593011 112.372659 
C 88.593011 110.431117 87.821628 108.568834 86.448751 107.195957 
C 85.075874 105.82308 83.213591 105.051697 81.272049 105.051697 
C 79.330508 105.051697 77.468225 105.82308 76.095348 107.195957 
C 74.72247 108.568834 73.951088 110.431117 73.951088 112.372659 
C 73.951088 114.314201 74.72247 116.176483 76.095348 117.54936 
C 77.468225 118.922238 79.330508 119.693621 81.272049 119.693621 
z
" clip-path="url(#p6e33a155bb)" style="fill: #add8e6; stroke: #add8e6"/>
    <path d="M 81.272049 179.822173 
C 84.045158 179.822173 86.705061 178.720405 88.665944 176.759522 
C 90.626828 174.798638 91.728596 172.138735 91.728596 169.365626 
C 91.728596 166.592518 90.626828 163.932615 88.665944 161.971731 
C 86.705061 160.010847 84.045158 158.90908 81.272049 158.90908 
C 78.498941 158.90908 75.839038 160.010847 73.878154 161.971731 
C 71.91727 163.932615 70.815503 166.592518 70.815503 169.365626 
C 70.815503 172.138735 71.91727 174.798638 73.878154 176.759522 
C 75.839038 178.720405 78.498941 179.822173 81.272049 179.822173 
z
" clip-path="url(#p6e33a155bb)" style="fill: #add8e6; stroke: #add8e6"/>
    <path d="M 131.753515 230.941734 
C 136.505149 230.941734 141.062808 229.05389 144.42272 225.693978 
C 147.782633 222.334065 149.670477 217.776406 149.670477 213.024773 
C 149.670477 208.273139 147.782633 203.71548 144.42272 200.355568 
C 141.062808 196.995655 136.505149 195.107811 131.753515 195.107811 
C 127.001881 195.107811 122.444223 196.995655 119.08431 200.355568 
C 115.724398 203.71548 113.836554 208.273139 113.836554 213.024773 
C 113.836554 217.776406 115.724398 222.334065 119.08431 225.693978 
C 122.444223 229.05389 127.001881 230.941734 131.753515 230.941734 
z
" clip-path="url(#p6e33a155bb)" style="fill: #add8e6; stroke: #add8e6"/>
    <path d="M 209.095608 233.228634 
C 211.829092 233.228634 214.450989 232.142609 216.383854 230.209744 
C 218.31672 228.276878 219.402744 225.654982 219.402744 222.921498 
C 219.402744 220.188013 218.31672 217.566117 216.383854 215.633251 
C 214.450989 213.700386 211.829092 212.614361 209.095608 212.614361 
C 206.362123 212.614361 203.740227 213.700386 201.807362 215.633251 
C 199.874496 217.566117 198.788471 220.188013 198.788471 222.921498 
C 198.788471 225.654982 199.874496 228.276878 201.807362 230.209744 
C 203.740227 232.142609 206.362123 233.228634 209.095608 233.228634 
z
" clip-path="url(#p6e33a155bb)" style="fill: #add8e6; stroke: #add8e6"/>
    <path d="M 277.109103 209.544003 
C 281.118706 209.544003 284.964625 207.950971 287.799842 205.115753 
C 290.63506 202.280536 292.228092 198.434616 292.228092 194.425014 
C 292.228092 190.415411 290.63506 186.569491 287.799842 183.734274 
C 284.964625 180.899057 281.118706 179.306025 277.109103 179.306025 
C 273.0995 179.306025 269.25358 180.899057 266.418363 183.734274 
C 263.583146 186.569491 261.990114 190.415411 261.990114 194.425014 
C 261.990114 198.434616 263.583146 202.280536 266.418363 205.115753 
C 269.25358 207.950971 273.0995 209.544003 277.109103 209.544003 
z
" clip-path="url(#p6e33a155bb)" style="fill: #add8e6; stroke: #add8e6"/>
   </g>
   <g id="patch_84">
    <path d="M 7.2 273.312 
L 7.2 7.2 
" style="fill: none; stroke: #000000; stroke-width: 0.8; stroke-linejoin: miter; stroke-linecap: square"/>
   </g>
   <g id="patch_85">
    <path d="M 364.32 273.312 
L 364.32 7.2 
" style="fill: none; stroke: #000000; stroke-width: 0.8; stroke-linejoin: miter; stroke-linecap: square"/>
   </g>
   <g id="patch_86">
    <path d="M 7.2 273.312 
L 364.32 273.312 
" style="fill: none; stroke: #000000; stroke-width: 0.8; stroke-linejoin: miter; stroke-linecap: square"/>
   </g>
   <g id="patch_87">
    <path d="M 7.2 7.2 
L 364.32 7.2 
" style="fill: none; stroke: #000000; stroke-width: 0.8; stroke-linejoin: miter; stroke-linecap: square"/>
   </g>
   <g id="text_1">
    <g clip-path="url(#p6e33a155bb)">
     <!-- 11 -->
     <g transform="translate(296.33473 144.180393) scale(0.12 -0.12)">
      <defs>
       <path id="DejaVuSans-31" d="M 794 531 
L 1825 531 
L 1825 4091 
L 703 3866 
L 703 4441 
L 1819 4666 
L 2450 4666 
L 2450 531 
L 3481 531 
L 3481 0 
L 794 0 
L 794 531 
z
" transform="scale(0.015625)"/>
      </defs>
      <use xlink:href="#DejaVuSans-31"/>
      <use xlink:href="#DejaVuSans-31" x="63.623047"/>
     </g>
    </g>
   </g>
   <g id="text_2">
    <g clip-path="url(#p6e33a155bb)">
     <!-- 12 -->
     <g transform="translate(269.474103 90.624522) scale(0.12 -0.12)">
      <defs>
       <path id="DejaVuSans-32" d="M 1228 531 
L 3431 531 
L 3431 0 
L 469 0 
L 469 531 
Q 828 903 1448 1529 
Q 2069 2156 2228 2338 
Q 2531 2678 2651 2914 
Q 2772 3150 2772 3378 
Q 2772 3750 2511 3984 
Q 2250 4219 1831 4219 
Q 1534 4219 1204 4116 
Q 875 4013 500 3803 
L 500 4441 
Q 881 4594 1212 4672 
Q 1544 4750 1819 4750 
Q 2544 4750 2975 4387 
Q 3406 4025 3406 3419 
Q 3406 3131 3298 2873 
Q 3191 2616 2906 2266 
Q 2828 2175 2409 1742 
Q 1991 1309 1228 531 
z
" transform="scale(0.015625)"/>
      </defs>
      <use xlink:href="#DejaVuSans-31"/>
      <use xlink:href="#DejaVuSans-32" x="63.623047"/>
     </g>
    </g>
   </g>
   <g id="text_3">
    <g clip-path="url(#p6e33a155bb)">
     <!-- 13 -->
     <g transform="translate(201.460608 62.128038) scale(0.12 -0.12)">
      <defs>
       <path id="DejaVuSans-33" d="M 2597 2516 
Q 3050 2419 3304 2112 
Q 3559 1806 3559 1356 
Q 3559 666 3084 287 
Q 2609 -91 1734 -91 
Q 1441 -91 1130 -33 
Q 819 25 488 141 
L 488 750 
Q 750 597 1062 519 
Q 1375 441 1716 441 
Q 2309 441 2620 675 
Q 2931 909 2931 1356 
Q 2931 1769 2642 2001 
Q 2353 2234 1838 2234 
L 1294 2234 
L 1294 2753 
L 1863 2753 
Q 2328 2753 2575 2939 
Q 2822 3125 2822 3475 
Q 2822 3834 2567 4026 
Q 2313 4219 1838 4219 
Q 1578 4219 1281 4162 
Q 984 4106 628 3988 
L 628 4550 
Q 988 4650 1302 4700 
Q 1616 4750 1894 4750 
Q 2613 4750 3031 4423 
Q 3450 4097 3450 3541 
Q 3450 3153 3228 2886 
Q 3006 2619 2597 2516 
z
" transform="scale(0.015625)"/>
      </defs>
      <use xlink:href="#DejaVuSans-31"/>
      <use xlink:href="#DejaVuSans-33" x="63.623047"/>
     </g>
    </g>
   </g>
   <g id="text_4">
    <g clip-path="url(#p6e33a155bb)">
     <!-- 21 -->
     <g transform="translate(124.118515 72.024763) scale(0.12 -0.12)">
      <use xlink:href="#DejaVuSans-32"/>
      <use xlink:href="#DejaVuSans-31" x="63.623047"/>
     </g>
    </g>
   </g>
   <g id="text_5">
    <g clip-path="url(#p6e33a155bb)">
     <!-- 22 -->
     <g transform="translate(73.637049 115.683909) scale(0.12 -0.12)">
      <use xlink:href="#DejaVuSans-32"/>
      <use xlink:href="#DejaVuSans-32" x="63.623047"/>
     </g>
    </g>
   </g>
   <g id="text_6">
    <g clip-path="url(#p6e33a155bb)">
     <!-- 23 -->
     <g transform="translate(73.637049 172.676876) scale(0.12 -0.12)">
      <use xlink:href="#DejaVuSans-32"/>
      <use xlink:href="#DejaVuSans-33" x="63.623047"/>
     </g>
    </g>
   </g>
   <g id="text_7">
    <g clip-path="url(#p6e33a155bb)">
     <!-- 31 -->
     <g transform="translate(124.118515 216.336023) scale(0.12 -0.12)">
      <use xlink:href="#DejaVuSans-33"/>
      <use xlink:href="#DejaVuSans-31" x="63.623047"/>
     </g>
    </g>
   </g>
   <g id="text_8">
    <g clip-path="url(#p6e33a155bb)">
     <!-- 32 -->
     <g transform="translate(201.460608 226.232748) scale(0.12 -0.12)">
      <use xlink:href="#DejaVuSans-33"/>
      <use xlink:href="#DejaVuSans-32" x="63.623047"/>
     </g>
    </g>
   </g>
   <g id="text_9">
    <g clip-path="url(#p6e33a155bb)">
     <!-- 33 -->
     <g transform="translate(269.474103 197.736264) scale(0.12 -0.12)">
      <use xlink:href="#DejaVuSans-33"/>
      <use xlink:href="#DejaVuSans-33" x="63.623047"/>
     </g>
    </g>
   </g>
  </g>
 </g>
 <defs>
  <clipPath id="p6e33a155bb">
   <rect x="7.2" y="7.2" width="357.12" height="266.112"/>
  </clipPath>
 </defs>
</svg>
