<?xml version="1.0" encoding="utf-8" standalone="no"?>
<!DOCTYPE svg PUBLIC "-//W3C//DTD SVG 1.1//EN"
  "http://www.w3.org/Graphics/SVG/1.1/DTD/svg11.dtd">
<svg xmlns:xlink="http://www.w3.org/1999/xlink" width="460.8pt" height="345.6pt" viewBox="0 0 460.8 345.6" xmlns="http://www.w3.org/2000/svg" version="1.1">
 <metadata>
  <rdf:RDF xmlns:dc="http://purl.org/dc/elements/1.1/" xmlns:cc="http://creativecommons.org/ns#" xmlns:rdf="http://www.w3.org/1999/02/22-rdf-syntax-ns#">
   <cc:Work>
    <dc:type rdf:resource="http://purl.org/dc/dcmitype/StillImage"/>
    <dc:date>2025-01-07T09:45:31.720273</dc:date>
    <dc:format>image/svg+xml</dc:format>
    <dc:creator>
     <cc:Agent>
      <dc:title>Matplotlib v3.9.2, https://matplotlib.org/</dc:title>
     </cc:Agent>
    </dc:creator>
   </cc:Work>
  </rdf:RDF>
 </metadata>
 <defs>
  <style type="text/css">*{stroke-linejoin: round; stroke-linecap: butt}</style>
 </defs>
 <g id="figure_1">
  <g id="patch_1">
   <path d="M 0 345.6 
L 460.8 345.6 
L 460.8 0 
L 0 0 
z
" style="fill: #ffffff"/>
  </g>
  <g id="axes_1">
   <g id="patch_2">
    <path d="M 57.6 307.584 
L 414.72 307.584 
L 414.72 41.472 
L 57.6 41.472 
z
" style="fill: #ffffff"/>
   </g>
   <g id="matplotlib.axis_1">
    <g id="xtick_1">
     <g id="line2d_1">
      <defs>
       <path id="ma5171f1dc7" d="M 0 0 
L 0 3.5 
" style="stroke: #000000; stroke-width: 0.8"/>
      </defs>
      <g>
       <use xlink:href="#ma5171f1dc7" x="93.591937" y="307.584" style="stroke: #000000; stroke-width: 0.8"/>
      </g>
     </g>
     <g id="text_1">
      <!-- 20 -->
      <g transform="translate(87.229437 322.182437) scale(0.1 -0.1)">
       <defs>
        <path id="DejaVuSans-32" d="M 1228 531 
L 3431 531 
L 3431 0 
L 469 0 
L 469 531 
Q 828 903 1448 1529 
Q 2069 2156 2228 2338 
Q 2531 2678 2651 2914 
Q 2772 3150 2772 3378 
Q 2772 3750 2511 3984 
Q 2250 4219 1831 4219 
Q 1534 4219 1204 4116 
Q 875 4013 500 3803 
L 500 4441 
Q 881 4594 1212 4672 
Q 1544 4750 1819 4750 
Q 2544 4750 2975 4387 
Q 3406 4025 3406 3419 
Q 3406 3131 3298 2873 
Q 3191 2616 2906 2266 
Q 2828 2175 2409 1742 
Q 1991 1309 1228 531 
z
" transform="scale(0.015625)"/>
        <path id="DejaVuSans-30" d="M 2034 4250 
Q 1547 4250 1301 3770 
Q 1056 3291 1056 2328 
Q 1056 1369 1301 889 
Q 1547 409 2034 409 
Q 2525 409 2770 889 
Q 3016 1369 3016 2328 
Q 3016 3291 2770 3770 
Q 2525 4250 2034 4250 
z
M 2034 4750 
Q 2819 4750 3233 4129 
Q 3647 3509 3647 2328 
Q 3647 1150 3233 529 
Q 2819 -91 2034 -91 
Q 1250 -91 836 529 
Q 422 1150 422 2328 
Q 422 3509 836 4129 
Q 1250 4750 2034 4750 
z
" transform="scale(0.015625)"/>
       </defs>
       <use xlink:href="#DejaVuSans-32"/>
       <use xlink:href="#DejaVuSans-30" x="63.623047"/>
      </g>
     </g>
    </g>
    <g id="xtick_2">
     <g id="line2d_2">
      <g>
       <use xlink:href="#ma5171f1dc7" x="133.582979" y="307.584" style="stroke: #000000; stroke-width: 0.8"/>
      </g>
     </g>
     <g id="text_2">
      <!-- 40 -->
      <g transform="translate(127.220479 322.182437) scale(0.1 -0.1)">
       <defs>
        <path id="DejaVuSans-34" d="M 2419 4116 
L 825 1625 
L 2419 1625 
L 2419 4116 
z
M 2253 4666 
L 3047 4666 
L 3047 1625 
L 3713 1625 
L 3713 1100 
L 3047 1100 
L 3047 0 
L 2419 0 
L 2419 1100 
L 313 1100 
L 313 1709 
L 2253 4666 
z
" transform="scale(0.015625)"/>
       </defs>
       <use xlink:href="#DejaVuSans-34"/>
       <use xlink:href="#DejaVuSans-30" x="63.623047"/>
      </g>
     </g>
    </g>
    <g id="xtick_3">
     <g id="line2d_3">
      <g>
       <use xlink:href="#ma5171f1dc7" x="173.57402" y="307.584" style="stroke: #000000; stroke-width: 0.8"/>
      </g>
     </g>
     <g id="text_3">
      <!-- 60 -->
      <g transform="translate(167.21152 322.182437) scale(0.1 -0.1)">
       <defs>
        <path id="DejaVuSans-36" d="M 2113 2584 
Q 1688 2584 1439 2293 
Q 1191 2003 1191 1497 
Q 1191 994 1439 701 
Q 1688 409 2113 409 
Q 2538 409 2786 701 
Q 3034 994 3034 1497 
Q 3034 2003 2786 2293 
Q 2538 2584 2113 2584 
z
M 3366 4563 
L 3366 3988 
Q 3128 4100 2886 4159 
Q 2644 4219 2406 4219 
Q 1781 4219 1451 3797 
Q 1122 3375 1075 2522 
Q 1259 2794 1537 2939 
Q 1816 3084 2150 3084 
Q 2853 3084 3261 2657 
Q 3669 2231 3669 1497 
Q 3669 778 3244 343 
Q 2819 -91 2113 -91 
Q 1303 -91 875 529 
Q 447 1150 447 2328 
Q 447 3434 972 4092 
Q 1497 4750 2381 4750 
Q 2619 4750 2861 4703 
Q 3103 4656 3366 4563 
z
" transform="scale(0.015625)"/>
       </defs>
       <use xlink:href="#DejaVuSans-36"/>
       <use xlink:href="#DejaVuSans-30" x="63.623047"/>
      </g>
     </g>
    </g>
    <g id="xtick_4">
     <g id="line2d_4">
      <g>
       <use xlink:href="#ma5171f1dc7" x="213.565062" y="307.584" style="stroke: #000000; stroke-width: 0.8"/>
      </g>
     </g>
     <g id="text_4">
      <!-- 80 -->
      <g transform="translate(207.202562 322.182437) scale(0.1 -0.1)">
       <defs>
        <path id="DejaVuSans-38" d="M 2034 2216 
Q 1584 2216 1326 1975 
Q 1069 1734 1069 1313 
Q 1069 891 1326 650 
Q 1584 409 2034 409 
Q 2484 409 2743 651 
Q 3003 894 3003 1313 
Q 3003 1734 2745 1975 
Q 2488 2216 2034 2216 
z
M 1403 2484 
Q 997 2584 770 2862 
Q 544 3141 544 3541 
Q 544 4100 942 4425 
Q 1341 4750 2034 4750 
Q 2731 4750 3128 4425 
Q 3525 4100 3525 3541 
Q 3525 3141 3298 2862 
Q 3072 2584 2669 2484 
Q 3125 2378 3379 2068 
Q 3634 1759 3634 1313 
Q 3634 634 3220 271 
Q 2806 -91 2034 -91 
Q 1263 -91 848 271 
Q 434 634 434 1313 
Q 434 1759 690 2068 
Q 947 2378 1403 2484 
z
M 1172 3481 
Q 1172 3119 1398 2916 
Q 1625 2713 2034 2713 
Q 2441 2713 2670 2916 
Q 2900 3119 2900 3481 
Q 2900 3844 2670 4047 
Q 2441 4250 2034 4250 
Q 1625 4250 1398 4047 
Q 1172 3844 1172 3481 
z
" transform="scale(0.015625)"/>
       </defs>
       <use xlink:href="#DejaVuSans-38"/>
       <use xlink:href="#DejaVuSans-30" x="63.623047"/>
      </g>
     </g>
    </g>
    <g id="xtick_5">
     <g id="line2d_5">
      <g>
       <use xlink:href="#ma5171f1dc7" x="253.556103" y="307.584" style="stroke: #000000; stroke-width: 0.8"/>
      </g>
     </g>
     <g id="text_5">
      <!-- 100 -->
      <g transform="translate(244.012353 322.182437) scale(0.1 -0.1)">
       <defs>
        <path id="DejaVuSans-31" d="M 794 531 
L 1825 531 
L 1825 4091 
L 703 3866 
L 703 4441 
L 1819 4666 
L 2450 4666 
L 2450 531 
L 3481 531 
L 3481 0 
L 794 0 
L 794 531 
z
" transform="scale(0.015625)"/>
       </defs>
       <use xlink:href="#DejaVuSans-31"/>
       <use xlink:href="#DejaVuSans-30" x="63.623047"/>
       <use xlink:href="#DejaVuSans-30" x="127.246094"/>
      </g>
     </g>
    </g>
    <g id="xtick_6">
     <g id="line2d_6">
      <g>
       <use xlink:href="#ma5171f1dc7" x="293.547144" y="307.584" style="stroke: #000000; stroke-width: 0.8"/>
      </g>
     </g>
     <g id="text_6">
      <!-- 120 -->
      <g transform="translate(284.003394 322.182437) scale(0.1 -0.1)">
       <use xlink:href="#DejaVuSans-31"/>
       <use xlink:href="#DejaVuSans-32" x="63.623047"/>
       <use xlink:href="#DejaVuSans-30" x="127.246094"/>
      </g>
     </g>
    </g>
    <g id="xtick_7">
     <g id="line2d_7">
      <g>
       <use xlink:href="#ma5171f1dc7" x="333.538186" y="307.584" style="stroke: #000000; stroke-width: 0.8"/>
      </g>
     </g>
     <g id="text_7">
      <!-- 140 -->
      <g transform="translate(323.994436 322.182437) scale(0.1 -0.1)">
       <use xlink:href="#DejaVuSans-31"/>
       <use xlink:href="#DejaVuSans-34" x="63.623047"/>
       <use xlink:href="#DejaVuSans-30" x="127.246094"/>
      </g>
     </g>
    </g>
    <g id="xtick_8">
     <g id="line2d_8">
      <g>
       <use xlink:href="#ma5171f1dc7" x="373.529227" y="307.584" style="stroke: #000000; stroke-width: 0.8"/>
      </g>
     </g>
     <g id="text_8">
      <!-- 160 -->
      <g transform="translate(363.985477 322.182437) scale(0.1 -0.1)">
       <use xlink:href="#DejaVuSans-31"/>
       <use xlink:href="#DejaVuSans-36" x="63.623047"/>
       <use xlink:href="#DejaVuSans-30" x="127.246094"/>
      </g>
     </g>
    </g>
    <g id="xtick_9">
     <g id="line2d_9">
      <g>
       <use xlink:href="#ma5171f1dc7" x="413.520269" y="307.584" style="stroke: #000000; stroke-width: 0.8"/>
      </g>
     </g>
     <g id="text_9">
      <!-- 180 -->
      <g transform="translate(403.976519 322.182437) scale(0.1 -0.1)">
       <use xlink:href="#DejaVuSans-31"/>
       <use xlink:href="#DejaVuSans-38" x="63.623047"/>
       <use xlink:href="#DejaVuSans-30" x="127.246094"/>
      </g>
     </g>
    </g>
    <g id="text_10">
     <!-- degree of polymerization -->
     <g transform="translate(173.402187 335.860562) scale(0.1 -0.1)">
      <defs>
       <path id="DejaVuSans-64" d="M 2906 2969 
L 2906 4863 
L 3481 4863 
L 3481 0 
L 2906 0 
L 2906 525 
Q 2725 213 2448 61 
Q 2172 -91 1784 -91 
Q 1150 -91 751 415 
Q 353 922 353 1747 
Q 353 2572 751 3078 
Q 1150 3584 1784 3584 
Q 2172 3584 2448 3432 
Q 2725 3281 2906 2969 
z
M 947 1747 
Q 947 1113 1208 752 
Q 1469 391 1925 391 
Q 2381 391 2643 752 
Q 2906 1113 2906 1747 
Q 2906 2381 2643 2742 
Q 2381 3103 1925 3103 
Q 1469 3103 1208 2742 
Q 947 2381 947 1747 
z
" transform="scale(0.015625)"/>
       <path id="DejaVuSans-65" d="M 3597 1894 
L 3597 1613 
L 953 1613 
Q 991 1019 1311 708 
Q 1631 397 2203 397 
Q 2534 397 2845 478 
Q 3156 559 3463 722 
L 3463 178 
Q 3153 47 2828 -22 
Q 2503 -91 2169 -91 
Q 1331 -91 842 396 
Q 353 884 353 1716 
Q 353 2575 817 3079 
Q 1281 3584 2069 3584 
Q 2775 3584 3186 3129 
Q 3597 2675 3597 1894 
z
M 3022 2063 
Q 3016 2534 2758 2815 
Q 2500 3097 2075 3097 
Q 1594 3097 1305 2825 
Q 1016 2553 972 2059 
L 3022 2063 
z
" transform="scale(0.015625)"/>
       <path id="DejaVuSans-67" d="M 2906 1791 
Q 2906 2416 2648 2759 
Q 2391 3103 1925 3103 
Q 1463 3103 1205 2759 
Q 947 2416 947 1791 
Q 947 1169 1205 825 
Q 1463 481 1925 481 
Q 2391 481 2648 825 
Q 2906 1169 2906 1791 
z
M 3481 434 
Q 3481 -459 3084 -895 
Q 2688 -1331 1869 -1331 
Q 1566 -1331 1297 -1286 
Q 1028 -1241 775 -1147 
L 775 -588 
Q 1028 -725 1275 -790 
Q 1522 -856 1778 -856 
Q 2344 -856 2625 -561 
Q 2906 -266 2906 331 
L 2906 616 
Q 2728 306 2450 153 
Q 2172 0 1784 0 
Q 1141 0 747 490 
Q 353 981 353 1791 
Q 353 2603 747 3093 
Q 1141 3584 1784 3584 
Q 2172 3584 2450 3431 
Q 2728 3278 2906 2969 
L 2906 3500 
L 3481 3500 
L 3481 434 
z
" transform="scale(0.015625)"/>
       <path id="DejaVuSans-72" d="M 2631 2963 
Q 2534 3019 2420 3045 
Q 2306 3072 2169 3072 
Q 1681 3072 1420 2755 
Q 1159 2438 1159 1844 
L 1159 0 
L 581 0 
L 581 3500 
L 1159 3500 
L 1159 2956 
Q 1341 3275 1631 3429 
Q 1922 3584 2338 3584 
Q 2397 3584 2469 3576 
Q 2541 3569 2628 3553 
L 2631 2963 
z
" transform="scale(0.015625)"/>
       <path id="DejaVuSans-20" transform="scale(0.015625)"/>
       <path id="DejaVuSans-6f" d="M 1959 3097 
Q 1497 3097 1228 2736 
Q 959 2375 959 1747 
Q 959 1119 1226 758 
Q 1494 397 1959 397 
Q 2419 397 2687 759 
Q 2956 1122 2956 1747 
Q 2956 2369 2687 2733 
Q 2419 3097 1959 3097 
z
M 1959 3584 
Q 2709 3584 3137 3096 
Q 3566 2609 3566 1747 
Q 3566 888 3137 398 
Q 2709 -91 1959 -91 
Q 1206 -91 779 398 
Q 353 888 353 1747 
Q 353 2609 779 3096 
Q 1206 3584 1959 3584 
z
" transform="scale(0.015625)"/>
       <path id="DejaVuSans-66" d="M 2375 4863 
L 2375 4384 
L 1825 4384 
Q 1516 4384 1395 4259 
Q 1275 4134 1275 3809 
L 1275 3500 
L 2222 3500 
L 2222 3053 
L 1275 3053 
L 1275 0 
L 697 0 
L 697 3053 
L 147 3053 
L 147 3500 
L 697 3500 
L 697 3744 
Q 697 4328 969 4595 
Q 1241 4863 1831 4863 
L 2375 4863 
z
" transform="scale(0.015625)"/>
       <path id="DejaVuSans-70" d="M 1159 525 
L 1159 -1331 
L 581 -1331 
L 581 3500 
L 1159 3500 
L 1159 2969 
Q 1341 3281 1617 3432 
Q 1894 3584 2278 3584 
Q 2916 3584 3314 3078 
Q 3713 2572 3713 1747 
Q 3713 922 3314 415 
Q 2916 -91 2278 -91 
Q 1894 -91 1617 61 
Q 1341 213 1159 525 
z
M 3116 1747 
Q 3116 2381 2855 2742 
Q 2594 3103 2138 3103 
Q 1681 3103 1420 2742 
Q 1159 2381 1159 1747 
Q 1159 1113 1420 752 
Q 1681 391 2138 391 
Q 2594 391 2855 752 
Q 3116 1113 3116 1747 
z
" transform="scale(0.015625)"/>
       <path id="DejaVuSans-6c" d="M 603 4863 
L 1178 4863 
L 1178 0 
L 603 0 
L 603 4863 
z
" transform="scale(0.015625)"/>
       <path id="DejaVuSans-79" d="M 2059 -325 
Q 1816 -950 1584 -1140 
Q 1353 -1331 966 -1331 
L 506 -1331 
L 506 -850 
L 844 -850 
Q 1081 -850 1212 -737 
Q 1344 -625 1503 -206 
L 1606 56 
L 191 3500 
L 800 3500 
L 1894 763 
L 2988 3500 
L 3597 3500 
L 2059 -325 
z
" transform="scale(0.015625)"/>
       <path id="DejaVuSans-6d" d="M 3328 2828 
Q 3544 3216 3844 3400 
Q 4144 3584 4550 3584 
Q 5097 3584 5394 3201 
Q 5691 2819 5691 2113 
L 5691 0 
L 5113 0 
L 5113 2094 
Q 5113 2597 4934 2840 
Q 4756 3084 4391 3084 
Q 3944 3084 3684 2787 
Q 3425 2491 3425 1978 
L 3425 0 
L 2847 0 
L 2847 2094 
Q 2847 2600 2669 2842 
Q 2491 3084 2119 3084 
Q 1678 3084 1418 2786 
Q 1159 2488 1159 1978 
L 1159 0 
L 581 0 
L 581 3500 
L 1159 3500 
L 1159 2956 
Q 1356 3278 1631 3431 
Q 1906 3584 2284 3584 
Q 2666 3584 2933 3390 
Q 3200 3197 3328 2828 
z
" transform="scale(0.015625)"/>
       <path id="DejaVuSans-69" d="M 603 3500 
L 1178 3500 
L 1178 0 
L 603 0 
L 603 3500 
z
M 603 4863 
L 1178 4863 
L 1178 4134 
L 603 4134 
L 603 4863 
z
" transform="scale(0.015625)"/>
       <path id="DejaVuSans-7a" d="M 353 3500 
L 3084 3500 
L 3084 2975 
L 922 459 
L 3084 459 
L 3084 0 
L 275 0 
L 275 525 
L 2438 3041 
L 353 3041 
L 353 3500 
z
" transform="scale(0.015625)"/>
       <path id="DejaVuSans-61" d="M 2194 1759 
Q 1497 1759 1228 1600 
Q 959 1441 959 1056 
Q 959 750 1161 570 
Q 1363 391 1709 391 
Q 2188 391 2477 730 
Q 2766 1069 2766 1631 
L 2766 1759 
L 2194 1759 
z
M 3341 1997 
L 3341 0 
L 2766 0 
L 2766 531 
Q 2569 213 2275 61 
Q 1981 -91 1556 -91 
Q 1019 -91 701 211 
Q 384 513 384 1019 
Q 384 1609 779 1909 
Q 1175 2209 1959 2209 
L 2766 2209 
L 2766 2266 
Q 2766 2663 2505 2880 
Q 2244 3097 1772 3097 
Q 1472 3097 1187 3025 
Q 903 2953 641 2809 
L 641 3341 
Q 956 3463 1253 3523 
Q 1550 3584 1831 3584 
Q 2591 3584 2966 3190 
Q 3341 2797 3341 1997 
z
" transform="scale(0.015625)"/>
       <path id="DejaVuSans-74" d="M 1172 4494 
L 1172 3500 
L 2356 3500 
L 2356 3053 
L 1172 3053 
L 1172 1153 
Q 1172 725 1289 603 
Q 1406 481 1766 481 
L 2356 481 
L 2356 0 
L 1766 0 
Q 1100 0 847 248 
Q 594 497 594 1153 
L 594 3053 
L 172 3053 
L 172 3500 
L 594 3500 
L 594 4494 
L 1172 4494 
z
" transform="scale(0.015625)"/>
       <path id="DejaVuSans-6e" d="M 3513 2113 
L 3513 0 
L 2938 0 
L 2938 2094 
Q 2938 2591 2744 2837 
Q 2550 3084 2163 3084 
Q 1697 3084 1428 2787 
Q 1159 2491 1159 1978 
L 1159 0 
L 581 0 
L 581 3500 
L 1159 3500 
L 1159 2956 
Q 1366 3272 1645 3428 
Q 1925 3584 2291 3584 
Q 2894 3584 3203 3211 
Q 3513 2838 3513 2113 
z
" transform="scale(0.015625)"/>
      </defs>
      <use xlink:href="#DejaVuSans-64"/>
      <use xlink:href="#DejaVuSans-65" x="63.476562"/>
      <use xlink:href="#DejaVuSans-67" x="125"/>
      <use xlink:href="#DejaVuSans-72" x="188.476562"/>
      <use xlink:href="#DejaVuSans-65" x="227.339844"/>
      <use xlink:href="#DejaVuSans-65" x="288.863281"/>
      <use xlink:href="#DejaVuSans-20" x="350.386719"/>
      <use xlink:href="#DejaVuSans-6f" x="382.173828"/>
      <use xlink:href="#DejaVuSans-66" x="443.355469"/>
      <use xlink:href="#DejaVuSans-20" x="478.560547"/>
      <use xlink:href="#DejaVuSans-70" x="510.347656"/>
      <use xlink:href="#DejaVuSans-6f" x="573.824219"/>
      <use xlink:href="#DejaVuSans-6c" x="635.005859"/>
      <use xlink:href="#DejaVuSans-79" x="662.789062"/>
      <use xlink:href="#DejaVuSans-6d" x="721.96875"/>
      <use xlink:href="#DejaVuSans-65" x="819.380859"/>
      <use xlink:href="#DejaVuSans-72" x="880.904297"/>
      <use xlink:href="#DejaVuSans-69" x="922.017578"/>
      <use xlink:href="#DejaVuSans-7a" x="949.800781"/>
      <use xlink:href="#DejaVuSans-61" x="1002.291016"/>
      <use xlink:href="#DejaVuSans-74" x="1063.570312"/>
      <use xlink:href="#DejaVuSans-69" x="1102.779297"/>
      <use xlink:href="#DejaVuSans-6f" x="1130.5625"/>
      <use xlink:href="#DejaVuSans-6e" x="1191.744141"/>
     </g>
    </g>
   </g>
   <g id="matplotlib.axis_2">
    <g id="ytick_1">
     <g id="line2d_10">
      <defs>
       <path id="m4d9d646c54" d="M 0 0 
L -3.5 0 
" style="stroke: #000000; stroke-width: 0.8"/>
      </defs>
      <g>
       <use xlink:href="#m4d9d646c54" x="57.6" y="307.584" style="stroke: #000000; stroke-width: 0.8"/>
      </g>
     </g>
     <g id="text_11">
      <!-- 0.0 -->
      <g transform="translate(34.696875 311.383219) scale(0.1 -0.1)">
       <defs>
        <path id="DejaVuSans-2e" d="M 684 794 
L 1344 794 
L 1344 0 
L 684 0 
L 684 794 
z
" transform="scale(0.015625)"/>
       </defs>
       <use xlink:href="#DejaVuSans-30"/>
       <use xlink:href="#DejaVuSans-2e" x="63.623047"/>
       <use xlink:href="#DejaVuSans-30" x="95.410156"/>
      </g>
     </g>
    </g>
    <g id="ytick_2">
     <g id="line2d_11">
      <g>
       <use xlink:href="#m4d9d646c54" x="57.6" y="254.3616" style="stroke: #000000; stroke-width: 0.8"/>
      </g>
     </g>
     <g id="text_12">
      <!-- 0.2 -->
      <g transform="translate(34.696875 258.160819) scale(0.1 -0.1)">
       <use xlink:href="#DejaVuSans-30"/>
       <use xlink:href="#DejaVuSans-2e" x="63.623047"/>
       <use xlink:href="#DejaVuSans-32" x="95.410156"/>
      </g>
     </g>
    </g>
    <g id="ytick_3">
     <g id="line2d_12">
      <g>
       <use xlink:href="#m4d9d646c54" x="57.6" y="201.1392" style="stroke: #000000; stroke-width: 0.8"/>
      </g>
     </g>
     <g id="text_13">
      <!-- 0.4 -->
      <g transform="translate(34.696875 204.938419) scale(0.1 -0.1)">
       <use xlink:href="#DejaVuSans-30"/>
       <use xlink:href="#DejaVuSans-2e" x="63.623047"/>
       <use xlink:href="#DejaVuSans-34" x="95.410156"/>
      </g>
     </g>
    </g>
    <g id="ytick_4">
     <g id="line2d_13">
      <g>
       <use xlink:href="#m4d9d646c54" x="57.6" y="147.9168" style="stroke: #000000; stroke-width: 0.8"/>
      </g>
     </g>
     <g id="text_14">
      <!-- 0.6 -->
      <g transform="translate(34.696875 151.716019) scale(0.1 -0.1)">
       <use xlink:href="#DejaVuSans-30"/>
       <use xlink:href="#DejaVuSans-2e" x="63.623047"/>
       <use xlink:href="#DejaVuSans-36" x="95.410156"/>
      </g>
     </g>
    </g>
    <g id="ytick_5">
     <g id="line2d_14">
      <g>
       <use xlink:href="#m4d9d646c54" x="57.6" y="94.6944" style="stroke: #000000; stroke-width: 0.8"/>
      </g>
     </g>
     <g id="text_15">
      <!-- 0.8 -->
      <g transform="translate(34.696875 98.493619) scale(0.1 -0.1)">
       <use xlink:href="#DejaVuSans-30"/>
       <use xlink:href="#DejaVuSans-2e" x="63.623047"/>
       <use xlink:href="#DejaVuSans-38" x="95.410156"/>
      </g>
     </g>
    </g>
    <g id="ytick_6">
     <g id="line2d_15">
      <g>
       <use xlink:href="#m4d9d646c54" x="57.6" y="41.472" style="stroke: #000000; stroke-width: 0.8"/>
      </g>
     </g>
     <g id="text_16">
      <!-- 1.0 -->
      <g transform="translate(34.696875 45.271219) scale(0.1 -0.1)">
       <use xlink:href="#DejaVuSans-31"/>
       <use xlink:href="#DejaVuSans-2e" x="63.623047"/>
       <use xlink:href="#DejaVuSans-30" x="95.410156"/>
      </g>
     </g>
    </g>
    <g id="text_17">
     <!-- monomer probability -->
     <g transform="translate(28.617187 226.953) rotate(-90) scale(0.1 -0.1)">
      <defs>
       <path id="DejaVuSans-62" d="M 3116 1747 
Q 3116 2381 2855 2742 
Q 2594 3103 2138 3103 
Q 1681 3103 1420 2742 
Q 1159 2381 1159 1747 
Q 1159 1113 1420 752 
Q 1681 391 2138 391 
Q 2594 391 2855 752 
Q 3116 1113 3116 1747 
z
M 1159 2969 
Q 1341 3281 1617 3432 
Q 1894 3584 2278 3584 
Q 2916 3584 3314 3078 
Q 3713 2572 3713 1747 
Q 3713 922 3314 415 
Q 2916 -91 2278 -91 
Q 1894 -91 1617 61 
Q 1341 213 1159 525 
L 1159 0 
L 581 0 
L 581 4863 
L 1159 4863 
L 1159 2969 
z
" transform="scale(0.015625)"/>
      </defs>
      <use xlink:href="#DejaVuSans-6d"/>
      <use xlink:href="#DejaVuSans-6f" x="97.412109"/>
      <use xlink:href="#DejaVuSans-6e" x="158.59375"/>
      <use xlink:href="#DejaVuSans-6f" x="221.972656"/>
      <use xlink:href="#DejaVuSans-6d" x="283.154297"/>
      <use xlink:href="#DejaVuSans-65" x="380.566406"/>
      <use xlink:href="#DejaVuSans-72" x="442.089844"/>
      <use xlink:href="#DejaVuSans-20" x="483.203125"/>
      <use xlink:href="#DejaVuSans-70" x="514.990234"/>
      <use xlink:href="#DejaVuSans-72" x="578.466797"/>
      <use xlink:href="#DejaVuSans-6f" x="617.330078"/>
      <use xlink:href="#DejaVuSans-62" x="678.511719"/>
      <use xlink:href="#DejaVuSans-61" x="741.988281"/>
      <use xlink:href="#DejaVuSans-62" x="803.267578"/>
      <use xlink:href="#DejaVuSans-69" x="866.744141"/>
      <use xlink:href="#DejaVuSans-6c" x="894.527344"/>
      <use xlink:href="#DejaVuSans-69" x="922.310547"/>
      <use xlink:href="#DejaVuSans-74" x="950.09375"/>
      <use xlink:href="#DejaVuSans-79" x="989.302734"/>
     </g>
    </g>
   </g>
   <g id="line2d_16">
    <path d="M 53.600896 55.309824 
L 55.600448 55.043712 
L 57.6 54.245376 
L 59.599552 54.7776 
L 61.599104 51.850368 
L 63.598656 54.245376 
L 65.598208 56.906496 
L 67.59776 53.713152 
L 69.597312 51.318144 
L 71.596865 57.43872 
L 73.596417 57.704832 
L 75.595969 54.511488 
L 77.595521 55.309824 
L 79.595073 50.519808 
L 81.594625 56.10816 
L 83.594177 56.374272 
L 85.593729 56.374272 
L 87.593281 57.172608 
L 89.592833 54.7776 
L 91.592385 56.640384 
L 93.591937 57.43872 
L 95.591489 57.970944 
L 97.591041 56.374272 
L 99.590594 59.833728 
L 101.590146 66.75264 
L 103.589698 63.825408 
L 105.58925 69.679872 
L 107.588802 74.736 
L 109.588354 69.945984 
L 111.587906 81.3888 
L 113.587458 78.461568 
L 115.58701 84.848256 
L 117.586562 81.122688 
L 119.586114 86.71104 
L 121.585666 89.904384 
L 123.585218 85.38048 
L 125.58477 92.299392 
L 127.584323 90.436608 
L 129.583875 97.089408 
L 131.583427 89.106048 
L 133.582979 93.896064 
L 135.582531 97.621632 
L 137.582083 101.613312 
L 139.581635 96.557184 
L 141.581187 106.137216 
L 143.580739 113.056128 
L 145.580291 121.3056 
L 147.579843 124.232832 
L 149.579395 116.249472 
L 151.578947 128.490624 
L 153.578499 127.692288 
L 155.578052 141.530112 
L 157.577604 144.723456 
L 159.577156 146.58624 
L 161.576708 156.166272 
L 163.57626 152.972928 
L 165.575812 164.947968 
L 167.575364 172.399104 
L 169.574916 170.802432 
L 171.574468 170.004096 
L 173.57402 173.19744 
L 175.573572 170.270208 
L 177.573124 182.777472 
L 179.572676 181.1808 
L 181.572228 182.777472 
L 183.571781 186.769152 
L 185.571333 191.559168 
L 187.570885 186.769152 
L 189.570437 194.4864 
L 191.569989 196.349184 
L 193.569541 203.268096 
L 195.569093 195.81696 
L 197.568645 204.598656 
L 199.568197 202.203648 
L 201.567749 197.413632 
L 203.567301 195.550848 
L 207.566405 200.340864 
L 209.565957 198.47808 
L 211.56551 202.735872 
L 213.565062 197.945856 
L 215.564614 200.074752 
L 217.564166 200.340864 
L 219.563718 195.018624 
L 221.56327 193.688064 
L 223.562822 202.203648 
L 225.562374 194.752512 
L 227.561926 209.654784 
L 229.561478 204.598656 
L 231.56103 201.1392 
L 233.560582 207.259776 
L 235.560134 201.671424 
L 237.559686 206.46144 
L 239.559239 207.792 
L 241.558791 205.929216 
L 243.558343 206.727552 
L 245.557895 198.744192 
L 247.557447 200.606976 
L 249.556999 201.671424 
L 251.556551 200.340864 
L 253.556103 195.550848 
L 255.555655 206.993664 
L 257.555207 203.001984 
L 259.554759 206.727552 
L 261.554311 209.12256 
L 263.553863 209.920896 
L 265.553415 206.993664 
L 267.552968 215.509248 
L 269.55252 214.977024 
L 271.552072 216.307584 
L 273.551624 213.912576 
L 275.551176 224.823168 
L 277.550728 229.08096 
L 279.55028 230.943744 
L 281.549832 229.613184 
L 283.549384 225.887616 
L 285.548936 240.523776 
L 287.548488 231.475968 
L 289.54804 243.451008 
L 291.547592 248.773248 
L 293.547144 241.056 
L 295.546697 252.498816 
L 297.546249 251.966592 
L 299.545801 256.490496 
L 301.545353 260.216064 
L 303.544905 267.401088 
L 305.544457 267.6672 
L 309.543561 276.448896 
L 311.543113 277.247232 
L 313.542665 279.64224 
L 317.541769 288.95616 
L 319.541321 288.157824 
L 321.540873 291.085056 
L 323.540426 292.94784 
L 325.539978 295.342848 
L 327.53953 296.93952 
L 329.539082 299.866752 
L 331.538634 299.334528 
L 333.538186 302.793984 
L 335.537738 303.060096 
L 341.536394 305.455104 
L 345.535498 306.519552 
L 347.53505 306.785664 
L 349.534602 306.785664 
L 351.534155 307.317888 
L 353.533707 306.25344 
L 355.533259 307.051776 
L 357.532811 307.051776 
L 359.532363 306.519552 
L 361.531915 307.317888 
L 367.530571 307.317888 
L 369.530123 307.584 
L 397.523852 307.584 
L 397.523852 307.584 
" clip-path="url(#pb7e2bb608d)" style="fill: none; stroke: #1f77b4; stroke-width: 1.5; stroke-linecap: square"/>
   </g>
   <g id="line2d_17">
    <path d="M 53.600896 302.793984 
L 55.600448 301.729536 
L 57.6 302.793984 
L 59.599552 302.527872 
L 63.598656 304.124544 
L 65.598208 300.665088 
L 67.59776 302.793984 
L 69.597312 303.060096 
L 71.596865 300.132864 
L 73.596417 300.398976 
L 75.595969 303.59232 
L 77.595521 301.463424 
L 79.595073 303.858432 
L 81.594625 302.26176 
L 83.594177 301.729536 
L 85.593729 302.527872 
L 87.593281 302.793984 
L 89.592833 302.26176 
L 93.591937 301.729536 
L 95.591489 302.26176 
L 97.591041 303.060096 
L 99.590594 301.729536 
L 101.590146 296.141184 
L 103.589698 298.27008 
L 105.58925 295.875072 
L 107.588802 294.810624 
L 109.588354 299.60064 
L 111.587906 290.818944 
L 113.587458 293.746176 
L 115.58701 291.351168 
L 117.586562 291.883392 
L 119.586114 291.085056 
L 121.585666 288.95616 
L 125.58477 290.552832 
L 127.584323 291.085056 
L 129.583875 288.95616 
L 131.583427 292.415616 
L 133.582979 287.093376 
L 135.582531 287.359488 
L 137.582083 284.96448 
L 139.581635 284.96448 
L 141.581187 283.101696 
L 143.580739 281.771136 
L 145.580291 278.045568 
L 147.579843 277.513344 
L 149.579395 279.64224 
L 151.578947 272.723328 
L 153.578499 275.384448 
L 155.578052 272.191104 
L 157.577604 266.33664 
L 159.577156 269.529984 
L 161.576708 263.409408 
L 163.57626 271.65888 
L 165.575812 260.482176 
L 167.575364 257.02272 
L 169.574916 264.473856 
L 171.574468 261.812736 
L 173.57402 258.087168 
L 175.573572 257.554944 
L 177.573124 263.143296 
L 179.572676 255.958272 
L 181.572228 256.224384 
L 183.571781 259.417728 
L 185.571333 260.748288 
L 187.570885 254.3616 
L 189.570437 256.224384 
L 191.569989 256.490496 
L 193.569541 246.37824 
L 195.569093 251.966592 
L 197.568645 255.159936 
L 199.568197 249.571584 
L 201.567749 253.03104 
L 203.567301 257.554944 
L 205.566853 252.232704 
L 207.566405 255.159936 
L 209.565957 253.03104 
L 211.56551 253.829376 
L 213.565062 253.829376 
L 215.564614 250.36992 
L 217.564166 253.03104 
L 219.563718 254.095488 
L 221.56327 261.546624 
L 223.562822 254.3616 
L 225.562374 254.627712 
L 227.561926 251.70048 
L 229.561478 252.232704 
L 231.56103 253.297152 
L 233.560582 257.02272 
L 235.560134 252.498816 
L 237.559686 256.224384 
L 239.559239 252.764928 
L 241.558791 257.288832 
L 243.558343 253.03104 
L 245.557895 260.482176 
L 247.557447 256.490496 
L 249.556999 254.095488 
L 251.556551 259.68384 
L 253.556103 258.35328 
L 255.555655 253.829376 
L 257.555207 252.498816 
L 259.554759 256.490496 
L 261.554311 253.03104 
L 263.553863 258.35328 
L 265.553415 257.821056 
L 267.552968 262.34496 
L 269.55252 261.280512 
L 271.552072 265.804416 
L 273.551624 261.546624 
L 275.551176 262.877184 
L 277.550728 268.199424 
L 279.55028 265.538304 
L 281.549832 271.392768 
L 283.549384 272.457216 
L 285.548936 265.272192 
L 287.548488 274.32 
L 289.54804 278.31168 
L 291.547592 274.852224 
L 293.547144 279.376128 
L 295.546697 280.706688 
L 297.546249 280.706688 
L 299.545801 285.762816 
L 301.545353 286.827264 
L 303.544905 286.561152 
L 305.544457 292.415616 
L 307.544009 291.61728 
L 309.543561 287.359488 
L 311.543113 291.883392 
L 313.542665 292.149504 
L 315.542217 298.003968 
L 317.541769 298.003968 
L 319.541321 298.802304 
L 321.540873 299.334528 
L 323.540426 302.527872 
L 325.539978 300.398976 
L 327.53953 304.656768 
L 329.539082 302.26176 
L 331.538634 304.656768 
L 333.538186 304.390656 
L 335.537738 306.519552 
L 337.53729 306.519552 
L 339.536842 305.455104 
L 341.536394 306.25344 
L 349.534602 307.317888 
L 351.534155 306.785664 
L 353.533707 307.584 
L 397.523852 307.584 
L 397.523852 307.584 
" clip-path="url(#pb7e2bb608d)" style="fill: none; stroke: #ff7f0e; stroke-width: 1.5; stroke-linecap: square"/>
   </g>
   <g id="line2d_18">
    <path d="M 53.600896 298.536192 
L 55.600448 299.866752 
L 59.599552 299.334528 
L 61.599104 301.463424 
L 63.598656 298.27008 
L 65.598208 299.068416 
L 67.59776 300.132864 
L 69.597312 302.26176 
L 71.596865 299.068416 
L 73.596417 298.536192 
L 75.595969 298.536192 
L 77.595521 299.866752 
L 79.595073 302.26176 
L 81.594625 298.27008 
L 83.594177 298.536192 
L 85.593729 297.737856 
L 87.593281 296.673408 
L 89.592833 299.60064 
L 91.592385 298.003968 
L 93.591937 297.471744 
L 95.591489 296.407296 
L 97.591041 297.205632 
L 99.590594 295.076736 
L 101.590146 293.746176 
L 103.589698 294.544512 
L 105.58925 291.085056 
L 107.588802 287.093376 
L 109.588354 287.093376 
L 111.587906 284.432256 
L 113.587458 284.432256 
L 115.58701 280.440576 
L 117.586562 283.63392 
L 119.586114 278.843904 
L 121.585666 277.779456 
L 123.585218 281.505024 
L 125.58477 273.787776 
L 127.584323 275.118336 
L 129.583875 270.594432 
L 131.583427 275.118336 
L 133.582979 275.65056 
L 135.582531 271.65888 
L 137.582083 270.062208 
L 139.581635 275.118336 
L 141.581187 267.401088 
L 143.580739 261.812736 
L 145.580291 257.288832 
L 147.579843 254.893824 
L 149.579395 260.748288 
L 151.578947 255.426048 
L 153.578499 253.563264 
L 155.578052 242.918784 
L 157.577604 245.579904 
L 159.577156 240.523776 
L 161.576708 237.06432 
L 163.57626 232.008192 
L 165.575812 231.209856 
L 167.575364 227.218176 
L 169.574916 221.363712 
L 171.574468 224.823168 
L 173.57402 225.355392 
L 175.573572 228.814848 
L 177.573124 210.719232 
L 179.572676 219.500928 
L 181.572228 217.638144 
L 183.571781 210.45312 
L 185.571333 204.332544 
L 187.570885 215.509248 
L 189.570437 205.929216 
L 191.569989 203.80032 
L 193.569541 206.993664 
L 195.569093 208.856448 
L 197.568645 196.881408 
L 199.568197 204.864768 
L 201.567749 206.195328 
L 203.567301 203.534208 
L 205.566853 206.46144 
L 207.566405 201.1392 
L 209.565957 205.13088 
L 211.56551 200.074752 
L 213.565062 204.864768 
L 215.564614 206.195328 
L 217.564166 203.268096 
L 219.563718 207.525888 
L 221.56327 201.405312 
L 223.562822 200.074752 
L 225.562374 207.259776 
L 227.561926 195.284736 
L 229.561478 199.80864 
L 231.56103 202.46976 
L 233.560582 192.623616 
L 235.560134 202.735872 
L 237.559686 194.220288 
L 239.559239 196.615296 
L 241.558791 194.4864 
L 243.558343 197.945856 
L 245.557895 199.80864 
L 247.557447 201.937536 
L 249.556999 203.534208 
L 251.556551 200.606976 
L 253.556103 208.058112 
L 255.555655 201.937536 
L 257.555207 209.654784 
L 259.554759 203.80032 
L 261.554311 207.259776 
L 263.553863 203.001984 
L 265.553415 209.920896 
L 267.552968 200.606976 
L 269.55252 205.929216 
L 271.552072 205.396992 
L 273.551624 217.372032 
L 275.551176 210.985344 
L 277.550728 208.058112 
L 279.55028 214.977024 
L 281.549832 216.041472 
L 283.549384 225.08928 
L 285.548936 222.694272 
L 287.548488 230.677632 
L 289.54804 223.75872 
L 291.547592 230.41152 
L 293.547144 240.789888 
L 295.546697 237.862656 
L 297.546249 249.305472 
L 299.545801 250.902144 
L 301.545353 256.490496 
L 303.544905 260.216064 
L 307.544009 268.199424 
L 309.543561 275.384448 
L 311.543113 278.843904 
L 313.542665 281.771136 
L 315.542217 279.908352 
L 317.541769 282.835584 
L 319.541321 287.093376 
L 321.540873 290.020608 
L 323.540426 292.681728 
L 325.539978 296.93952 
L 327.53953 295.342848 
L 329.539082 299.334528 
L 331.538634 300.132864 
L 333.538186 300.665088 
L 335.537738 301.995648 
L 337.53729 303.060096 
L 339.536842 304.390656 
L 341.536394 304.124544 
L 343.535946 305.188992 
L 345.535498 305.987328 
L 347.53505 306.25344 
L 351.534155 306.25344 
L 353.533707 307.051776 
L 355.533259 306.785664 
L 357.532811 306.785664 
L 359.532363 307.584 
L 361.531915 307.051776 
L 363.531467 307.317888 
L 369.530123 307.317888 
L 371.529675 307.584 
L 397.523852 307.584 
L 397.523852 307.584 
" clip-path="url(#pb7e2bb608d)" style="fill: none; stroke: #2ca02c; stroke-width: 1.5; stroke-linecap: square"/>
   </g>
   <g id="patch_3">
    <path d="M 57.6 307.584 
L 57.6 41.472 
" style="fill: none; stroke: #000000; stroke-width: 0.8; stroke-linejoin: miter; stroke-linecap: square"/>
   </g>
   <g id="patch_4">
    <path d="M 414.72 307.584 
L 414.72 41.472 
" style="fill: none; stroke: #000000; stroke-width: 0.8; stroke-linejoin: miter; stroke-linecap: square"/>
   </g>
   <g id="patch_5">
    <path d="M 57.6 307.584 
L 414.72 307.584 
" style="fill: none; stroke: #000000; stroke-width: 0.8; stroke-linejoin: miter; stroke-linecap: square"/>
   </g>
   <g id="patch_6">
    <path d="M 57.6 41.472 
L 414.72 41.472 
" style="fill: none; stroke: #000000; stroke-width: 0.8; stroke-linejoin: miter; stroke-linecap: square"/>
   </g>
  </g>
 </g>
 <defs>
  <clipPath id="pb7e2bb608d">
   <rect x="57.6" y="41.472" width="357.12" height="266.112"/>
  </clipPath>
 </defs>
</svg>
