<?xml version="1.0" encoding="utf-8" standalone="no"?>
<!DOCTYPE svg PUBLIC "-//W3C//DTD SVG 1.1//EN"
  "http://www.w3.org/Graphics/SVG/1.1/DTD/svg11.dtd">
<svg xmlns:xlink="http://www.w3.org/1999/xlink" width="460.8pt" height="345.6pt" viewBox="0 0 460.8 345.6" xmlns="http://www.w3.org/2000/svg" version="1.1">
 <metadata>
  <rdf:RDF xmlns:dc="http://purl.org/dc/elements/1.1/" xmlns:cc="http://creativecommons.org/ns#" xmlns:rdf="http://www.w3.org/1999/02/22-rdf-syntax-ns#">
   <cc:Work>
    <dc:type rdf:resource="http://purl.org/dc/dcmitype/StillImage"/>
    <dc:date>2025-01-07T09:28:15.030430</dc:date>
    <dc:format>image/svg+xml</dc:format>
    <dc:creator>
     <cc:Agent>
      <dc:title>Matplotlib v3.9.2, https://matplotlib.org/</dc:title>
     </cc:Agent>
    </dc:creator>
   </cc:Work>
  </rdf:RDF>
 </metadata>
 <defs>
  <style type="text/css">*{stroke-linejoin: round; stroke-linecap: butt}</style>
 </defs>
 <g id="figure_1">
  <g id="patch_1">
   <path d="M 0 345.6 
L 460.8 345.6 
L 460.8 0 
L 0 0 
z
" style="fill: #ffffff"/>
  </g>
  <g id="axes_1">
   <g id="patch_2">
    <path d="M 57.6 307.584 
L 414.72 307.584 
L 414.72 41.472 
L 57.6 41.472 
z
" style="fill: #ffffff"/>
   </g>
   <g id="matplotlib.axis_1">
    <g id="xtick_1">
     <g id="line2d_1">
      <defs>
       <path id="m8180ae025f" d="M 0 0 
L 0 3.5 
" style="stroke: #000000; stroke-width: 0.8"/>
      </defs>
      <g>
       <use xlink:href="#m8180ae025f" x="102.792627" y="307.584" style="stroke: #000000; stroke-width: 0.8"/>
      </g>
     </g>
     <g id="text_1">
      <!-- 25 -->
      <g transform="translate(96.430127 322.182437) scale(0.1 -0.1)">
       <defs>
        <path id="DejaVuSans-32" d="M 1228 531 
L 3431 531 
L 3431 0 
L 469 0 
L 469 531 
Q 828 903 1448 1529 
Q 2069 2156 2228 2338 
Q 2531 2678 2651 2914 
Q 2772 3150 2772 3378 
Q 2772 3750 2511 3984 
Q 2250 4219 1831 4219 
Q 1534 4219 1204 4116 
Q 875 4013 500 3803 
L 500 4441 
Q 881 4594 1212 4672 
Q 1544 4750 1819 4750 
Q 2544 4750 2975 4387 
Q 3406 4025 3406 3419 
Q 3406 3131 3298 2873 
Q 3191 2616 2906 2266 
Q 2828 2175 2409 1742 
Q 1991 1309 1228 531 
z
" transform="scale(0.015625)"/>
        <path id="DejaVuSans-35" d="M 691 4666 
L 3169 4666 
L 3169 4134 
L 1269 4134 
L 1269 2991 
Q 1406 3038 1543 3061 
Q 1681 3084 1819 3084 
Q 2600 3084 3056 2656 
Q 3513 2228 3513 1497 
Q 3513 744 3044 326 
Q 2575 -91 1722 -91 
Q 1428 -91 1123 -41 
Q 819 9 494 109 
L 494 744 
Q 775 591 1075 516 
Q 1375 441 1709 441 
Q 2250 441 2565 725 
Q 2881 1009 2881 1497 
Q 2881 1984 2565 2268 
Q 2250 2553 1709 2553 
Q 1456 2553 1204 2497 
Q 953 2441 691 2322 
L 691 4666 
z
" transform="scale(0.015625)"/>
       </defs>
       <use xlink:href="#DejaVuSans-32"/>
       <use xlink:href="#DejaVuSans-35" x="63.623047"/>
      </g>
     </g>
    </g>
    <g id="xtick_2">
     <g id="line2d_2">
      <g>
       <use xlink:href="#m8180ae025f" x="151.915048" y="307.584" style="stroke: #000000; stroke-width: 0.8"/>
      </g>
     </g>
     <g id="text_2">
      <!-- 50 -->
      <g transform="translate(145.552548 322.182437) scale(0.1 -0.1)">
       <defs>
        <path id="DejaVuSans-30" d="M 2034 4250 
Q 1547 4250 1301 3770 
Q 1056 3291 1056 2328 
Q 1056 1369 1301 889 
Q 1547 409 2034 409 
Q 2525 409 2770 889 
Q 3016 1369 3016 2328 
Q 3016 3291 2770 3770 
Q 2525 4250 2034 4250 
z
M 2034 4750 
Q 2819 4750 3233 4129 
Q 3647 3509 3647 2328 
Q 3647 1150 3233 529 
Q 2819 -91 2034 -91 
Q 1250 -91 836 529 
Q 422 1150 422 2328 
Q 422 3509 836 4129 
Q 1250 4750 2034 4750 
z
" transform="scale(0.015625)"/>
       </defs>
       <use xlink:href="#DejaVuSans-35"/>
       <use xlink:href="#DejaVuSans-30" x="63.623047"/>
      </g>
     </g>
    </g>
    <g id="xtick_3">
     <g id="line2d_3">
      <g>
       <use xlink:href="#m8180ae025f" x="201.037469" y="307.584" style="stroke: #000000; stroke-width: 0.8"/>
      </g>
     </g>
     <g id="text_3">
      <!-- 75 -->
      <g transform="translate(194.674969 322.182437) scale(0.1 -0.1)">
       <defs>
        <path id="DejaVuSans-37" d="M 525 4666 
L 3525 4666 
L 3525 4397 
L 1831 0 
L 1172 0 
L 2766 4134 
L 525 4134 
L 525 4666 
z
" transform="scale(0.015625)"/>
       </defs>
       <use xlink:href="#DejaVuSans-37"/>
       <use xlink:href="#DejaVuSans-35" x="63.623047"/>
      </g>
     </g>
    </g>
    <g id="xtick_4">
     <g id="line2d_4">
      <g>
       <use xlink:href="#m8180ae025f" x="250.15989" y="307.584" style="stroke: #000000; stroke-width: 0.8"/>
      </g>
     </g>
     <g id="text_4">
      <!-- 100 -->
      <g transform="translate(240.61614 322.182437) scale(0.1 -0.1)">
       <defs>
        <path id="DejaVuSans-31" d="M 794 531 
L 1825 531 
L 1825 4091 
L 703 3866 
L 703 4441 
L 1819 4666 
L 2450 4666 
L 2450 531 
L 3481 531 
L 3481 0 
L 794 0 
L 794 531 
z
" transform="scale(0.015625)"/>
       </defs>
       <use xlink:href="#DejaVuSans-31"/>
       <use xlink:href="#DejaVuSans-30" x="63.623047"/>
       <use xlink:href="#DejaVuSans-30" x="127.246094"/>
      </g>
     </g>
    </g>
    <g id="xtick_5">
     <g id="line2d_5">
      <g>
       <use xlink:href="#m8180ae025f" x="299.282311" y="307.584" style="stroke: #000000; stroke-width: 0.8"/>
      </g>
     </g>
     <g id="text_5">
      <!-- 125 -->
      <g transform="translate(289.738561 322.182437) scale(0.1 -0.1)">
       <use xlink:href="#DejaVuSans-31"/>
       <use xlink:href="#DejaVuSans-32" x="63.623047"/>
       <use xlink:href="#DejaVuSans-35" x="127.246094"/>
      </g>
     </g>
    </g>
    <g id="xtick_6">
     <g id="line2d_6">
      <g>
       <use xlink:href="#m8180ae025f" x="348.404732" y="307.584" style="stroke: #000000; stroke-width: 0.8"/>
      </g>
     </g>
     <g id="text_6">
      <!-- 150 -->
      <g transform="translate(338.860982 322.182437) scale(0.1 -0.1)">
       <use xlink:href="#DejaVuSans-31"/>
       <use xlink:href="#DejaVuSans-35" x="63.623047"/>
       <use xlink:href="#DejaVuSans-30" x="127.246094"/>
      </g>
     </g>
    </g>
    <g id="xtick_7">
     <g id="line2d_7">
      <g>
       <use xlink:href="#m8180ae025f" x="397.527153" y="307.584" style="stroke: #000000; stroke-width: 0.8"/>
      </g>
     </g>
     <g id="text_7">
      <!-- 175 -->
      <g transform="translate(387.983403 322.182437) scale(0.1 -0.1)">
       <use xlink:href="#DejaVuSans-31"/>
       <use xlink:href="#DejaVuSans-37" x="63.623047"/>
       <use xlink:href="#DejaVuSans-35" x="127.246094"/>
      </g>
     </g>
    </g>
    <g id="text_8">
     <!-- degree of polymerization -->
     <g transform="translate(173.402187 335.860562) scale(0.1 -0.1)">
      <defs>
       <path id="DejaVuSans-64" d="M 2906 2969 
L 2906 4863 
L 3481 4863 
L 3481 0 
L 2906 0 
L 2906 525 
Q 2725 213 2448 61 
Q 2172 -91 1784 -91 
Q 1150 -91 751 415 
Q 353 922 353 1747 
Q 353 2572 751 3078 
Q 1150 3584 1784 3584 
Q 2172 3584 2448 3432 
Q 2725 3281 2906 2969 
z
M 947 1747 
Q 947 1113 1208 752 
Q 1469 391 1925 391 
Q 2381 391 2643 752 
Q 2906 1113 2906 1747 
Q 2906 2381 2643 2742 
Q 2381 3103 1925 3103 
Q 1469 3103 1208 2742 
Q 947 2381 947 1747 
z
" transform="scale(0.015625)"/>
       <path id="DejaVuSans-65" d="M 3597 1894 
L 3597 1613 
L 953 1613 
Q 991 1019 1311 708 
Q 1631 397 2203 397 
Q 2534 397 2845 478 
Q 3156 559 3463 722 
L 3463 178 
Q 3153 47 2828 -22 
Q 2503 -91 2169 -91 
Q 1331 -91 842 396 
Q 353 884 353 1716 
Q 353 2575 817 3079 
Q 1281 3584 2069 3584 
Q 2775 3584 3186 3129 
Q 3597 2675 3597 1894 
z
M 3022 2063 
Q 3016 2534 2758 2815 
Q 2500 3097 2075 3097 
Q 1594 3097 1305 2825 
Q 1016 2553 972 2059 
L 3022 2063 
z
" transform="scale(0.015625)"/>
       <path id="DejaVuSans-67" d="M 2906 1791 
Q 2906 2416 2648 2759 
Q 2391 3103 1925 3103 
Q 1463 3103 1205 2759 
Q 947 2416 947 1791 
Q 947 1169 1205 825 
Q 1463 481 1925 481 
Q 2391 481 2648 825 
Q 2906 1169 2906 1791 
z
M 3481 434 
Q 3481 -459 3084 -895 
Q 2688 -1331 1869 -1331 
Q 1566 -1331 1297 -1286 
Q 1028 -1241 775 -1147 
L 775 -588 
Q 1028 -725 1275 -790 
Q 1522 -856 1778 -856 
Q 2344 -856 2625 -561 
Q 2906 -266 2906 331 
L 2906 616 
Q 2728 306 2450 153 
Q 2172 0 1784 0 
Q 1141 0 747 490 
Q 353 981 353 1791 
Q 353 2603 747 3093 
Q 1141 3584 1784 3584 
Q 2172 3584 2450 3431 
Q 2728 3278 2906 2969 
L 2906 3500 
L 3481 3500 
L 3481 434 
z
" transform="scale(0.015625)"/>
       <path id="DejaVuSans-72" d="M 2631 2963 
Q 2534 3019 2420 3045 
Q 2306 3072 2169 3072 
Q 1681 3072 1420 2755 
Q 1159 2438 1159 1844 
L 1159 0 
L 581 0 
L 581 3500 
L 1159 3500 
L 1159 2956 
Q 1341 3275 1631 3429 
Q 1922 3584 2338 3584 
Q 2397 3584 2469 3576 
Q 2541 3569 2628 3553 
L 2631 2963 
z
" transform="scale(0.015625)"/>
       <path id="DejaVuSans-20" transform="scale(0.015625)"/>
       <path id="DejaVuSans-6f" d="M 1959 3097 
Q 1497 3097 1228 2736 
Q 959 2375 959 1747 
Q 959 1119 1226 758 
Q 1494 397 1959 397 
Q 2419 397 2687 759 
Q 2956 1122 2956 1747 
Q 2956 2369 2687 2733 
Q 2419 3097 1959 3097 
z
M 1959 3584 
Q 2709 3584 3137 3096 
Q 3566 2609 3566 1747 
Q 3566 888 3137 398 
Q 2709 -91 1959 -91 
Q 1206 -91 779 398 
Q 353 888 353 1747 
Q 353 2609 779 3096 
Q 1206 3584 1959 3584 
z
" transform="scale(0.015625)"/>
       <path id="DejaVuSans-66" d="M 2375 4863 
L 2375 4384 
L 1825 4384 
Q 1516 4384 1395 4259 
Q 1275 4134 1275 3809 
L 1275 3500 
L 2222 3500 
L 2222 3053 
L 1275 3053 
L 1275 0 
L 697 0 
L 697 3053 
L 147 3053 
L 147 3500 
L 697 3500 
L 697 3744 
Q 697 4328 969 4595 
Q 1241 4863 1831 4863 
L 2375 4863 
z
" transform="scale(0.015625)"/>
       <path id="DejaVuSans-70" d="M 1159 525 
L 1159 -1331 
L 581 -1331 
L 581 3500 
L 1159 3500 
L 1159 2969 
Q 1341 3281 1617 3432 
Q 1894 3584 2278 3584 
Q 2916 3584 3314 3078 
Q 3713 2572 3713 1747 
Q 3713 922 3314 415 
Q 2916 -91 2278 -91 
Q 1894 -91 1617 61 
Q 1341 213 1159 525 
z
M 3116 1747 
Q 3116 2381 2855 2742 
Q 2594 3103 2138 3103 
Q 1681 3103 1420 2742 
Q 1159 2381 1159 1747 
Q 1159 1113 1420 752 
Q 1681 391 2138 391 
Q 2594 391 2855 752 
Q 3116 1113 3116 1747 
z
" transform="scale(0.015625)"/>
       <path id="DejaVuSans-6c" d="M 603 4863 
L 1178 4863 
L 1178 0 
L 603 0 
L 603 4863 
z
" transform="scale(0.015625)"/>
       <path id="DejaVuSans-79" d="M 2059 -325 
Q 1816 -950 1584 -1140 
Q 1353 -1331 966 -1331 
L 506 -1331 
L 506 -850 
L 844 -850 
Q 1081 -850 1212 -737 
Q 1344 -625 1503 -206 
L 1606 56 
L 191 3500 
L 800 3500 
L 1894 763 
L 2988 3500 
L 3597 3500 
L 2059 -325 
z
" transform="scale(0.015625)"/>
       <path id="DejaVuSans-6d" d="M 3328 2828 
Q 3544 3216 3844 3400 
Q 4144 3584 4550 3584 
Q 5097 3584 5394 3201 
Q 5691 2819 5691 2113 
L 5691 0 
L 5113 0 
L 5113 2094 
Q 5113 2597 4934 2840 
Q 4756 3084 4391 3084 
Q 3944 3084 3684 2787 
Q 3425 2491 3425 1978 
L 3425 0 
L 2847 0 
L 2847 2094 
Q 2847 2600 2669 2842 
Q 2491 3084 2119 3084 
Q 1678 3084 1418 2786 
Q 1159 2488 1159 1978 
L 1159 0 
L 581 0 
L 581 3500 
L 1159 3500 
L 1159 2956 
Q 1356 3278 1631 3431 
Q 1906 3584 2284 3584 
Q 2666 3584 2933 3390 
Q 3200 3197 3328 2828 
z
" transform="scale(0.015625)"/>
       <path id="DejaVuSans-69" d="M 603 3500 
L 1178 3500 
L 1178 0 
L 603 0 
L 603 3500 
z
M 603 4863 
L 1178 4863 
L 1178 4134 
L 603 4134 
L 603 4863 
z
" transform="scale(0.015625)"/>
       <path id="DejaVuSans-7a" d="M 353 3500 
L 3084 3500 
L 3084 2975 
L 922 459 
L 3084 459 
L 3084 0 
L 275 0 
L 275 525 
L 2438 3041 
L 353 3041 
L 353 3500 
z
" transform="scale(0.015625)"/>
       <path id="DejaVuSans-61" d="M 2194 1759 
Q 1497 1759 1228 1600 
Q 959 1441 959 1056 
Q 959 750 1161 570 
Q 1363 391 1709 391 
Q 2188 391 2477 730 
Q 2766 1069 2766 1631 
L 2766 1759 
L 2194 1759 
z
M 3341 1997 
L 3341 0 
L 2766 0 
L 2766 531 
Q 2569 213 2275 61 
Q 1981 -91 1556 -91 
Q 1019 -91 701 211 
Q 384 513 384 1019 
Q 384 1609 779 1909 
Q 1175 2209 1959 2209 
L 2766 2209 
L 2766 2266 
Q 2766 2663 2505 2880 
Q 2244 3097 1772 3097 
Q 1472 3097 1187 3025 
Q 903 2953 641 2809 
L 641 3341 
Q 956 3463 1253 3523 
Q 1550 3584 1831 3584 
Q 2591 3584 2966 3190 
Q 3341 2797 3341 1997 
z
" transform="scale(0.015625)"/>
       <path id="DejaVuSans-74" d="M 1172 4494 
L 1172 3500 
L 2356 3500 
L 2356 3053 
L 1172 3053 
L 1172 1153 
Q 1172 725 1289 603 
Q 1406 481 1766 481 
L 2356 481 
L 2356 0 
L 1766 0 
Q 1100 0 847 248 
Q 594 497 594 1153 
L 594 3053 
L 172 3053 
L 172 3500 
L 594 3500 
L 594 4494 
L 1172 4494 
z
" transform="scale(0.015625)"/>
       <path id="DejaVuSans-6e" d="M 3513 2113 
L 3513 0 
L 2938 0 
L 2938 2094 
Q 2938 2591 2744 2837 
Q 2550 3084 2163 3084 
Q 1697 3084 1428 2787 
Q 1159 2491 1159 1978 
L 1159 0 
L 581 0 
L 581 3500 
L 1159 3500 
L 1159 2956 
Q 1366 3272 1645 3428 
Q 1925 3584 2291 3584 
Q 2894 3584 3203 3211 
Q 3513 2838 3513 2113 
z
" transform="scale(0.015625)"/>
      </defs>
      <use xlink:href="#DejaVuSans-64"/>
      <use xlink:href="#DejaVuSans-65" x="63.476562"/>
      <use xlink:href="#DejaVuSans-67" x="125"/>
      <use xlink:href="#DejaVuSans-72" x="188.476562"/>
      <use xlink:href="#DejaVuSans-65" x="227.339844"/>
      <use xlink:href="#DejaVuSans-65" x="288.863281"/>
      <use xlink:href="#DejaVuSans-20" x="350.386719"/>
      <use xlink:href="#DejaVuSans-6f" x="382.173828"/>
      <use xlink:href="#DejaVuSans-66" x="443.355469"/>
      <use xlink:href="#DejaVuSans-20" x="478.560547"/>
      <use xlink:href="#DejaVuSans-70" x="510.347656"/>
      <use xlink:href="#DejaVuSans-6f" x="573.824219"/>
      <use xlink:href="#DejaVuSans-6c" x="635.005859"/>
      <use xlink:href="#DejaVuSans-79" x="662.789062"/>
      <use xlink:href="#DejaVuSans-6d" x="721.96875"/>
      <use xlink:href="#DejaVuSans-65" x="819.380859"/>
      <use xlink:href="#DejaVuSans-72" x="880.904297"/>
      <use xlink:href="#DejaVuSans-69" x="922.017578"/>
      <use xlink:href="#DejaVuSans-7a" x="949.800781"/>
      <use xlink:href="#DejaVuSans-61" x="1002.291016"/>
      <use xlink:href="#DejaVuSans-74" x="1063.570312"/>
      <use xlink:href="#DejaVuSans-69" x="1102.779297"/>
      <use xlink:href="#DejaVuSans-6f" x="1130.5625"/>
      <use xlink:href="#DejaVuSans-6e" x="1191.744141"/>
     </g>
    </g>
   </g>
   <g id="matplotlib.axis_2">
    <g id="ytick_1">
     <g id="line2d_8">
      <defs>
       <path id="mec09e7e303" d="M 0 0 
L -3.5 0 
" style="stroke: #000000; stroke-width: 0.8"/>
      </defs>
      <g>
       <use xlink:href="#mec09e7e303" x="57.6" y="307.584" style="stroke: #000000; stroke-width: 0.8"/>
      </g>
     </g>
     <g id="text_9">
      <!-- 0.0 -->
      <g transform="translate(34.696875 311.383219) scale(0.1 -0.1)">
       <defs>
        <path id="DejaVuSans-2e" d="M 684 794 
L 1344 794 
L 1344 0 
L 684 0 
L 684 794 
z
" transform="scale(0.015625)"/>
       </defs>
       <use xlink:href="#DejaVuSans-30"/>
       <use xlink:href="#DejaVuSans-2e" x="63.623047"/>
       <use xlink:href="#DejaVuSans-30" x="95.410156"/>
      </g>
     </g>
    </g>
    <g id="ytick_2">
     <g id="line2d_9">
      <g>
       <use xlink:href="#mec09e7e303" x="57.6" y="254.3616" style="stroke: #000000; stroke-width: 0.8"/>
      </g>
     </g>
     <g id="text_10">
      <!-- 0.2 -->
      <g transform="translate(34.696875 258.160819) scale(0.1 -0.1)">
       <use xlink:href="#DejaVuSans-30"/>
       <use xlink:href="#DejaVuSans-2e" x="63.623047"/>
       <use xlink:href="#DejaVuSans-32" x="95.410156"/>
      </g>
     </g>
    </g>
    <g id="ytick_3">
     <g id="line2d_10">
      <g>
       <use xlink:href="#mec09e7e303" x="57.6" y="201.1392" style="stroke: #000000; stroke-width: 0.8"/>
      </g>
     </g>
     <g id="text_11">
      <!-- 0.4 -->
      <g transform="translate(34.696875 204.938419) scale(0.1 -0.1)">
       <defs>
        <path id="DejaVuSans-34" d="M 2419 4116 
L 825 1625 
L 2419 1625 
L 2419 4116 
z
M 2253 4666 
L 3047 4666 
L 3047 1625 
L 3713 1625 
L 3713 1100 
L 3047 1100 
L 3047 0 
L 2419 0 
L 2419 1100 
L 313 1100 
L 313 1709 
L 2253 4666 
z
" transform="scale(0.015625)"/>
       </defs>
       <use xlink:href="#DejaVuSans-30"/>
       <use xlink:href="#DejaVuSans-2e" x="63.623047"/>
       <use xlink:href="#DejaVuSans-34" x="95.410156"/>
      </g>
     </g>
    </g>
    <g id="ytick_4">
     <g id="line2d_11">
      <g>
       <use xlink:href="#mec09e7e303" x="57.6" y="147.9168" style="stroke: #000000; stroke-width: 0.8"/>
      </g>
     </g>
     <g id="text_12">
      <!-- 0.6 -->
      <g transform="translate(34.696875 151.716019) scale(0.1 -0.1)">
       <defs>
        <path id="DejaVuSans-36" d="M 2113 2584 
Q 1688 2584 1439 2293 
Q 1191 2003 1191 1497 
Q 1191 994 1439 701 
Q 1688 409 2113 409 
Q 2538 409 2786 701 
Q 3034 994 3034 1497 
Q 3034 2003 2786 2293 
Q 2538 2584 2113 2584 
z
M 3366 4563 
L 3366 3988 
Q 3128 4100 2886 4159 
Q 2644 4219 2406 4219 
Q 1781 4219 1451 3797 
Q 1122 3375 1075 2522 
Q 1259 2794 1537 2939 
Q 1816 3084 2150 3084 
Q 2853 3084 3261 2657 
Q 3669 2231 3669 1497 
Q 3669 778 3244 343 
Q 2819 -91 2113 -91 
Q 1303 -91 875 529 
Q 447 1150 447 2328 
Q 447 3434 972 4092 
Q 1497 4750 2381 4750 
Q 2619 4750 2861 4703 
Q 3103 4656 3366 4563 
z
" transform="scale(0.015625)"/>
       </defs>
       <use xlink:href="#DejaVuSans-30"/>
       <use xlink:href="#DejaVuSans-2e" x="63.623047"/>
       <use xlink:href="#DejaVuSans-36" x="95.410156"/>
      </g>
     </g>
    </g>
    <g id="ytick_5">
     <g id="line2d_12">
      <g>
       <use xlink:href="#mec09e7e303" x="57.6" y="94.6944" style="stroke: #000000; stroke-width: 0.8"/>
      </g>
     </g>
     <g id="text_13">
      <!-- 0.8 -->
      <g transform="translate(34.696875 98.493619) scale(0.1 -0.1)">
       <defs>
        <path id="DejaVuSans-38" d="M 2034 2216 
Q 1584 2216 1326 1975 
Q 1069 1734 1069 1313 
Q 1069 891 1326 650 
Q 1584 409 2034 409 
Q 2484 409 2743 651 
Q 3003 894 3003 1313 
Q 3003 1734 2745 1975 
Q 2488 2216 2034 2216 
z
M 1403 2484 
Q 997 2584 770 2862 
Q 544 3141 544 3541 
Q 544 4100 942 4425 
Q 1341 4750 2034 4750 
Q 2731 4750 3128 4425 
Q 3525 4100 3525 3541 
Q 3525 3141 3298 2862 
Q 3072 2584 2669 2484 
Q 3125 2378 3379 2068 
Q 3634 1759 3634 1313 
Q 3634 634 3220 271 
Q 2806 -91 2034 -91 
Q 1263 -91 848 271 
Q 434 634 434 1313 
Q 434 1759 690 2068 
Q 947 2378 1403 2484 
z
M 1172 3481 
Q 1172 3119 1398 2916 
Q 1625 2713 2034 2713 
Q 2441 2713 2670 2916 
Q 2900 3119 2900 3481 
Q 2900 3844 2670 4047 
Q 2441 4250 2034 4250 
Q 1625 4250 1398 4047 
Q 1172 3844 1172 3481 
z
" transform="scale(0.015625)"/>
       </defs>
       <use xlink:href="#DejaVuSans-30"/>
       <use xlink:href="#DejaVuSans-2e" x="63.623047"/>
       <use xlink:href="#DejaVuSans-38" x="95.410156"/>
      </g>
     </g>
    </g>
    <g id="ytick_6">
     <g id="line2d_13">
      <g>
       <use xlink:href="#mec09e7e303" x="57.6" y="41.472" style="stroke: #000000; stroke-width: 0.8"/>
      </g>
     </g>
     <g id="text_14">
      <!-- 1.0 -->
      <g transform="translate(34.696875 45.271219) scale(0.1 -0.1)">
       <use xlink:href="#DejaVuSans-31"/>
       <use xlink:href="#DejaVuSans-2e" x="63.623047"/>
       <use xlink:href="#DejaVuSans-30" x="95.410156"/>
      </g>
     </g>
    </g>
    <g id="text_15">
     <!-- monomer probability -->
     <g transform="translate(28.617187 226.953) rotate(-90) scale(0.1 -0.1)">
      <defs>
       <path id="DejaVuSans-62" d="M 3116 1747 
Q 3116 2381 2855 2742 
Q 2594 3103 2138 3103 
Q 1681 3103 1420 2742 
Q 1159 2381 1159 1747 
Q 1159 1113 1420 752 
Q 1681 391 2138 391 
Q 2594 391 2855 752 
Q 3116 1113 3116 1747 
z
M 1159 2969 
Q 1341 3281 1617 3432 
Q 1894 3584 2278 3584 
Q 2916 3584 3314 3078 
Q 3713 2572 3713 1747 
Q 3713 922 3314 415 
Q 2916 -91 2278 -91 
Q 1894 -91 1617 61 
Q 1341 213 1159 525 
L 1159 0 
L 581 0 
L 581 4863 
L 1159 4863 
L 1159 2969 
z
" transform="scale(0.015625)"/>
      </defs>
      <use xlink:href="#DejaVuSans-6d"/>
      <use xlink:href="#DejaVuSans-6f" x="97.412109"/>
      <use xlink:href="#DejaVuSans-6e" x="158.59375"/>
      <use xlink:href="#DejaVuSans-6f" x="221.972656"/>
      <use xlink:href="#DejaVuSans-6d" x="283.154297"/>
      <use xlink:href="#DejaVuSans-65" x="380.566406"/>
      <use xlink:href="#DejaVuSans-72" x="442.089844"/>
      <use xlink:href="#DejaVuSans-20" x="483.203125"/>
      <use xlink:href="#DejaVuSans-70" x="514.990234"/>
      <use xlink:href="#DejaVuSans-72" x="578.466797"/>
      <use xlink:href="#DejaVuSans-6f" x="617.330078"/>
      <use xlink:href="#DejaVuSans-62" x="678.511719"/>
      <use xlink:href="#DejaVuSans-61" x="741.988281"/>
      <use xlink:href="#DejaVuSans-62" x="803.267578"/>
      <use xlink:href="#DejaVuSans-69" x="866.744141"/>
      <use xlink:href="#DejaVuSans-6c" x="894.527344"/>
      <use xlink:href="#DejaVuSans-69" x="922.310547"/>
      <use xlink:href="#DejaVuSans-74" x="950.09375"/>
      <use xlink:href="#DejaVuSans-79" x="989.302734"/>
     </g>
    </g>
   </g>
   <g id="line2d_14">
    <path d="M 53.670206 153.505152 
L 55.635103 148.449024 
L 57.6 151.110144 
L 59.564897 148.981248 
L 61.529794 145.521792 
L 63.494691 144.457344 
L 65.459587 149.24736 
L 67.424484 149.779584 
L 69.389381 149.513472 
L 71.354278 152.706816 
L 73.319175 155.101824 
L 75.284072 152.440704 
L 77.248968 152.440704 
L 79.213865 158.827392 
L 81.178762 156.964608 
L 83.143659 151.642368 
L 85.108556 155.101824 
L 87.073453 146.852352 
L 89.038349 148.715136 
L 91.003246 145.787904 
L 92.968143 142.328448 
L 94.93304 153.505152 
L 96.897937 156.432384 
L 98.862834 148.182912 
L 100.82773 156.964608 
L 102.792627 146.320128 
L 104.757524 158.827392 
L 106.722421 154.835712 
L 108.687318 152.972928 
L 110.652215 152.174592 
L 112.617111 146.320128 
L 114.582008 154.835712 
L 116.546905 158.56128 
L 118.511802 143.659008 
L 120.476699 150.844032 
L 122.441596 155.101824 
L 124.406492 159.89184 
L 126.371389 146.320128 
L 128.336286 139.401216 
L 130.301183 147.9168 
L 132.26608 145.25568 
L 134.230977 142.328448 
L 136.195873 152.174592 
L 138.16077 158.56128 
L 140.125667 145.787904 
L 142.090564 149.779584 
L 144.055461 152.706816 
L 146.020358 156.166272 
L 147.985254 151.642368 
L 149.950151 158.56128 
L 151.915048 146.320128 
L 153.879945 147.384576 
L 155.844842 156.964608 
L 157.809739 150.57792 
L 159.774635 145.521792 
L 161.739532 161.488512 
L 163.704429 156.166272 
L 165.669326 151.376256 
L 167.634223 149.513472 
L 169.59912 144.989568 
L 171.564017 154.5696 
L 173.528913 145.787904 
L 175.49381 153.23904 
L 177.458707 149.513472 
L 179.423604 150.844032 
L 181.388501 150.045696 
L 183.353398 150.844032 
L 185.318294 151.376256 
L 187.283191 153.23904 
L 189.248088 146.320128 
L 191.212985 149.513472 
L 193.177882 153.505152 
L 195.142779 153.23904 
L 197.107675 153.23904 
L 199.072572 148.449024 
L 201.037469 148.449024 
L 203.002366 153.23904 
L 204.967263 156.166272 
L 206.93216 151.642368 
L 208.897056 153.771264 
L 210.861953 149.24736 
L 212.82685 149.24736 
L 214.791747 154.037376 
L 216.756644 158.029056 
L 218.721541 148.981248 
L 222.651334 152.174592 
L 224.616231 151.376256 
L 226.581128 151.110144 
L 228.546025 149.24736 
L 230.510922 158.029056 
L 232.475818 150.311808 
L 234.440715 144.457344 
L 236.405612 152.440704 
L 238.370509 146.58624 
L 240.335406 146.852352 
L 242.300303 151.642368 
L 244.265199 155.101824 
L 246.230096 150.57792 
L 248.194993 153.505152 
L 250.15989 149.513472 
L 252.124787 153.23904 
L 254.089684 153.23904 
L 256.05458 159.093504 
L 258.019477 150.844032 
L 259.984374 156.432384 
L 261.949271 147.118464 
L 263.914168 157.23072 
L 265.879065 156.964608 
L 267.843961 160.424064 
L 269.808858 167.342976 
L 271.773755 164.947968 
L 273.738652 167.609088 
L 275.703549 167.342976 
L 277.668446 172.665216 
L 279.633343 181.446912 
L 283.563136 186.769152 
L 285.528033 185.438592 
L 287.49293 187.301376 
L 289.457827 197.14752 
L 291.422724 201.405312 
L 293.38762 209.920896 
L 297.317414 223.492608 
L 299.282311 231.475968 
L 301.247208 230.41152 
L 303.212105 235.999872 
L 305.177001 240.257664 
L 307.141898 252.232704 
L 309.106795 251.70048 
L 313.036589 266.868864 
L 315.001486 267.401088 
L 316.966382 274.053888 
L 318.931279 279.376128 
L 320.896176 275.916672 
L 322.861073 283.367808 
L 324.82597 287.6256 
L 326.790867 288.690048 
L 328.755763 291.351168 
L 330.72066 292.415616 
L 332.685557 297.205632 
L 334.650454 295.875072 
L 338.580248 299.60064 
L 340.545144 300.132864 
L 342.510041 300.132864 
L 346.439835 305.455104 
L 348.404732 304.390656 
L 350.369629 304.124544 
L 352.334525 305.455104 
L 354.299422 305.987328 
L 356.264319 305.987328 
L 358.229216 306.785664 
L 360.194113 307.051776 
L 362.15901 306.25344 
L 364.123906 307.317888 
L 371.983494 307.317888 
L 373.948391 307.584 
L 397.527153 307.584 
L 397.527153 307.584 
" clip-path="url(#pa47c7ff385)" style="fill: none; stroke: #1f77b4; stroke-width: 1.5; stroke-linecap: square"/>
   </g>
   <g id="line2d_15">
    <path d="M 53.670206 271.126656 
L 55.635103 271.392768 
L 57.6 267.401088 
L 59.564897 271.924992 
L 61.529794 278.31168 
L 63.494691 273.787776 
L 65.459587 267.6672 
L 67.424484 274.053888 
L 69.389381 274.852224 
L 71.354278 267.6672 
L 73.319175 269.529984 
L 75.284072 270.062208 
L 77.248968 269.529984 
L 79.213865 270.062208 
L 81.178762 270.32832 
L 83.143659 271.392768 
L 85.108556 273.521664 
L 87.073453 272.191104 
L 89.038349 274.053888 
L 91.003246 275.65056 
L 92.968143 273.521664 
L 94.93304 271.126656 
L 96.897937 268.465536 
L 98.862834 272.98944 
L 100.82773 267.134976 
L 102.792627 273.255552 
L 104.757524 268.99776 
L 106.722421 269.796096 
L 108.687318 266.868864 
L 110.652215 271.392768 
L 112.617111 272.98944 
L 114.582008 264.739968 
L 116.546905 268.99776 
L 118.511802 274.053888 
L 120.476699 272.98944 
L 122.441596 268.99776 
L 124.406492 264.739968 
L 128.336286 271.65888 
L 130.301183 268.731648 
L 132.26608 275.65056 
L 134.230977 276.182784 
L 136.195873 268.99776 
L 138.16077 272.457216 
L 140.125667 276.448896 
L 142.090564 272.723328 
L 144.055461 267.134976 
L 146.020358 274.053888 
L 147.985254 268.99776 
L 149.950151 265.804416 
L 151.915048 271.924992 
L 153.879945 268.465536 
L 155.844842 267.134976 
L 157.809739 266.868864 
L 159.774635 277.779456 
L 161.739532 266.602752 
L 163.704429 271.65888 
L 165.669326 272.98944 
L 167.634223 272.723328 
L 169.59912 270.32832 
L 171.564017 276.182784 
L 173.528913 268.99776 
L 175.49381 274.053888 
L 177.458707 269.796096 
L 179.423604 274.852224 
L 181.388501 275.384448 
L 183.353398 270.594432 
L 185.318294 270.860544 
L 187.283191 267.6672 
L 189.248088 274.852224 
L 191.212985 274.053888 
L 193.177882 271.126656 
L 195.142779 268.99776 
L 197.107675 268.99776 
L 199.072572 277.513344 
L 201.037469 276.98112 
L 203.002366 266.33664 
L 204.967263 268.731648 
L 206.93216 274.852224 
L 208.897056 265.804416 
L 210.861953 273.255552 
L 212.82685 271.924992 
L 214.791747 267.134976 
L 216.756644 267.401088 
L 218.721541 273.521664 
L 220.686437 268.731648 
L 222.651334 269.529984 
L 224.616231 272.98944 
L 226.581128 269.796096 
L 228.546025 270.32832 
L 230.510922 268.731648 
L 232.475818 271.392768 
L 234.440715 266.868864 
L 236.405612 271.924992 
L 238.370509 274.852224 
L 240.335406 274.852224 
L 242.300303 270.062208 
L 244.265199 265.804416 
L 246.230096 272.457216 
L 248.194993 268.731648 
L 250.15989 273.255552 
L 252.124787 271.126656 
L 254.089684 275.384448 
L 256.05458 268.99776 
L 258.019477 273.521664 
L 259.984374 271.924992 
L 261.949271 276.98112 
L 263.914168 273.255552 
L 265.879065 276.182784 
L 267.843961 272.191104 
L 269.808858 269.796096 
L 271.773755 276.448896 
L 273.738652 276.98112 
L 275.703549 276.448896 
L 277.668446 276.182784 
L 279.633343 271.392768 
L 281.598239 279.376128 
L 283.563136 276.448896 
L 285.528033 282.037248 
L 287.49293 280.9728 
L 289.457827 280.706688 
L 291.422724 283.900032 
L 293.38762 282.835584 
L 295.352517 288.423936 
L 297.317414 286.028928 
L 299.282311 286.29504 
L 301.247208 291.351168 
L 303.212105 293.480064 
L 305.177001 294.810624 
L 307.141898 293.746176 
L 309.106795 293.213952 
L 311.071692 294.544512 
L 313.036589 297.471744 
L 315.001486 298.536192 
L 316.966382 301.729536 
L 318.931279 300.665088 
L 320.896176 303.060096 
L 322.861073 303.858432 
L 324.82597 301.197312 
L 326.790867 304.656768 
L 328.755763 302.793984 
L 330.72066 304.656768 
L 332.685557 303.060096 
L 334.650454 305.188992 
L 338.580248 305.188992 
L 342.510041 306.785664 
L 344.474938 306.519552 
L 346.439835 305.987328 
L 348.404732 306.519552 
L 350.369629 307.317888 
L 352.334525 307.317888 
L 354.299422 307.584 
L 356.264319 307.584 
L 360.194113 307.051776 
L 362.15901 307.584 
L 364.123906 307.317888 
L 366.088803 307.584 
L 368.0537 307.317888 
L 370.018597 307.584 
L 397.527153 307.584 
L 397.527153 307.584 
" clip-path="url(#pa47c7ff385)" style="fill: none; stroke: #ff7f0e; stroke-width: 1.5; stroke-linecap: square"/>
   </g>
   <g id="line2d_16">
    <path d="M 53.670206 232.008192 
L 55.635103 236.798208 
L 57.6 238.128768 
L 59.564897 235.73376 
L 61.529794 232.806528 
L 63.494691 238.39488 
L 65.459587 239.72544 
L 67.424484 232.806528 
L 69.389381 232.274304 
L 71.354278 236.265984 
L 73.319175 232.008192 
L 75.284072 234.137088 
L 77.248968 234.669312 
L 79.213865 227.7504 
L 81.178762 229.347072 
L 83.143659 233.604864 
L 85.108556 228.016512 
L 87.073453 237.596544 
L 89.038349 233.870976 
L 91.003246 235.201536 
L 92.968143 240.789888 
L 94.93304 232.008192 
L 96.897937 231.74208 
L 98.862834 235.467648 
L 100.82773 232.540416 
L 102.792627 237.06432 
L 104.757524 228.814848 
L 106.722421 232.008192 
L 108.687318 236.798208 
L 110.652215 233.07264 
L 112.617111 237.330432 
L 114.582008 237.06432 
L 116.546905 229.08096 
L 118.511802 238.927104 
L 120.476699 232.806528 
L 122.441596 232.540416 
L 124.406492 232.008192 
L 126.371389 242.120448 
L 128.336286 245.579904 
L 130.301183 239.991552 
L 132.26608 235.73376 
L 134.230977 238.128768 
L 136.195873 235.467648 
L 138.16077 225.621504 
L 140.125667 234.4032 
L 142.090564 234.137088 
L 144.055461 236.798208 
L 146.020358 226.41984 
L 147.985254 235.999872 
L 149.950151 232.274304 
L 151.915048 238.39488 
L 153.879945 240.789888 
L 155.844842 232.540416 
L 157.809739 239.193216 
L 159.774635 233.338752 
L 161.739532 228.548736 
L 163.704429 228.814848 
L 165.669326 232.274304 
L 167.634223 234.4032 
L 169.59912 241.322112 
L 171.564017 225.887616 
L 173.528913 241.854336 
L 175.49381 229.347072 
L 177.458707 237.330432 
L 179.423604 230.943744 
L 181.388501 231.209856 
L 183.353398 235.201536 
L 185.318294 234.4032 
L 187.283191 235.73376 
L 189.248088 235.467648 
L 191.212985 233.07264 
L 193.177882 232.008192 
L 195.142779 234.4032 
L 197.107675 234.4032 
L 199.072572 230.677632 
L 201.037469 231.209856 
L 203.002366 237.06432 
L 204.967263 231.74208 
L 206.93216 230.145408 
L 208.897056 237.06432 
L 210.861953 234.137088 
L 212.82685 235.467648 
L 214.791747 235.467648 
L 216.756644 231.209856 
L 218.721541 234.137088 
L 220.686437 237.330432 
L 222.651334 234.935424 
L 224.616231 232.274304 
L 226.581128 235.73376 
L 228.546025 237.06432 
L 230.510922 229.879296 
L 232.475818 234.935424 
L 234.440715 245.579904 
L 236.405612 232.540416 
L 238.370509 235.73376 
L 242.300303 236.265984 
L 244.265199 237.330432 
L 246.230096 235.467648 
L 248.194993 236.532096 
L 252.124787 235.467648 
L 254.089684 232.008192 
L 256.05458 233.07264 
L 258.019477 239.193216 
L 259.984374 235.999872 
L 261.949271 241.056 
L 263.914168 238.128768 
L 265.879065 238.927104 
L 267.843961 241.854336 
L 269.808858 240.257664 
L 271.773755 241.322112 
L 273.738652 241.322112 
L 275.703549 246.112128 
L 277.668446 246.910464 
L 279.633343 248.241024 
L 281.598239 244.249344 
L 283.563136 252.232704 
L 285.528033 254.095488 
L 287.49293 260.216064 
L 289.457827 257.02272 
L 291.422724 259.417728 
L 293.38762 262.611072 
L 295.352517 261.546624 
L 297.317414 266.070528 
L 299.282311 266.602752 
L 301.247208 274.586112 
L 303.212105 274.32 
L 305.177001 277.779456 
L 307.141898 277.513344 
L 309.106795 287.093376 
L 311.071692 288.157824 
L 313.036589 287.359488 
L 315.001486 290.818944 
L 316.966382 290.28672 
L 318.931279 292.415616 
L 320.896176 298.003968 
L 322.861073 296.141184 
L 324.82597 300.132864 
L 326.790867 298.802304 
L 328.755763 300.665088 
L 330.72066 301.729536 
L 332.685557 301.463424 
L 334.650454 303.326208 
L 336.615351 302.793984 
L 338.580248 303.858432 
L 340.545144 304.124544 
L 342.510041 305.455104 
L 344.474938 304.92288 
L 346.439835 304.92288 
L 348.404732 306.519552 
L 350.369629 307.317888 
L 352.334525 306.519552 
L 354.299422 306.519552 
L 356.264319 307.051776 
L 358.229216 306.519552 
L 360.194113 307.051776 
L 362.15901 307.317888 
L 364.123906 307.051776 
L 366.088803 307.051776 
L 368.0537 307.584 
L 397.527153 307.584 
L 397.527153 307.584 
" clip-path="url(#pa47c7ff385)" style="fill: none; stroke: #2ca02c; stroke-width: 1.5; stroke-linecap: square"/>
   </g>
   <g id="patch_3">
    <path d="M 57.6 307.584 
L 57.6 41.472 
" style="fill: none; stroke: #000000; stroke-width: 0.8; stroke-linejoin: miter; stroke-linecap: square"/>
   </g>
   <g id="patch_4">
    <path d="M 414.72 307.584 
L 414.72 41.472 
" style="fill: none; stroke: #000000; stroke-width: 0.8; stroke-linejoin: miter; stroke-linecap: square"/>
   </g>
   <g id="patch_5">
    <path d="M 57.6 307.584 
L 414.72 307.584 
" style="fill: none; stroke: #000000; stroke-width: 0.8; stroke-linejoin: miter; stroke-linecap: square"/>
   </g>
   <g id="patch_6">
    <path d="M 57.6 41.472 
L 414.72 41.472 
" style="fill: none; stroke: #000000; stroke-width: 0.8; stroke-linejoin: miter; stroke-linecap: square"/>
   </g>
  </g>
 </g>
 <defs>
  <clipPath id="pa47c7ff385">
   <rect x="57.6" y="41.472" width="357.12" height="266.112"/>
  </clipPath>
 </defs>
</svg>
