<?xml version="1.0" encoding="utf-8" standalone="no"?>
<!DOCTYPE svg PUBLIC "-//W3C//DTD SVG 1.1//EN"
  "http://www.w3.org/Graphics/SVG/1.1/DTD/svg11.dtd">
<svg xmlns:xlink="http://www.w3.org/1999/xlink" width="371.52pt" height="280.512pt" viewBox="0 0 371.52 280.512" xmlns="http://www.w3.org/2000/svg" version="1.1">
 <metadata>
  <rdf:RDF xmlns:dc="http://purl.org/dc/elements/1.1/" xmlns:cc="http://creativecommons.org/ns#" xmlns:rdf="http://www.w3.org/1999/02/22-rdf-syntax-ns#">
   <cc:Work>
    <dc:type rdf:resource="http://purl.org/dc/dcmitype/StillImage"/>
    <dc:date>2025-01-08T11:45:48.213436</dc:date>
    <dc:format>image/svg+xml</dc:format>
    <dc:creator>
     <cc:Agent>
      <dc:title>Matplotlib v3.9.2, https://matplotlib.org/</dc:title>
     </cc:Agent>
    </dc:creator>
   </cc:Work>
  </rdf:RDF>
 </metadata>
 <defs>
  <style type="text/css">*{stroke-linejoin: round; stroke-linecap: butt}</style>
 </defs>
 <g id="figure_1">
  <g id="patch_1">
   <path d="M 0 280.512 
L 371.52 280.512 
L 371.52 0 
L 0 0 
L 0 280.512 
z
" style="fill: none"/>
  </g>
  <g id="axes_1">
   <g id="patch_2">
    <path d="M 7.2 273.312 
L 364.32 273.312 
L 364.32 7.2 
L 7.2 7.2 
L 7.2 273.312 
z
" style="fill: none"/>
   </g>
   <g id="patch_3">
    <path d="M 325.044447 128.063648 
C 337.580777 128.063648 337.580777 145.184824 325.044447 145.184824 
C 312.508117 145.184824 312.508117 128.063648 321.935153 128.063648 
" clip-path="url(#pfb4234e9a1)" style="fill: none; stroke: #000000; stroke-width: 2.781037; stroke-linecap: round"/>
    <path d="M 317.935153 126.063648 
L 321.935153 128.063648 
L 317.935153 130.063648 
z
" clip-path="url(#pfb4234e9a1)" style="stroke: #000000; stroke-width: 2.781037; stroke-linecap: round"/>
   </g>
   <g id="patch_4">
    <path d="M 323.94542 136.597563 
Q 318.814714 107.564795 295.440207 89.599312 
" clip-path="url(#pfb4234e9a1)" style="fill: none; stroke: #000000; stroke-width: 0.000724; stroke-linecap: round"/>
    <path d="M 297.392894 93.622621 
L 295.440207 89.599312 
L 299.830467 90.451147 
z
" clip-path="url(#pfb4234e9a1)" style="stroke: #000000; stroke-width: 0.000724; stroke-linecap: round"/>
   </g>
   <g id="patch_5">
    <path d="M 320.673894 137.705832 
Q 281.670726 74.10555 208.240778 60.928046 
" clip-path="url(#pfb4234e9a1)" style="fill: none; stroke: #000000; stroke-width: 0.004081; stroke-linecap: round"/>
    <path d="M 211.824613 63.603139 
L 208.240778 60.928046 
L 212.531154 59.666034 
z
" clip-path="url(#pfb4234e9a1)" style="stroke: #000000; stroke-width: 0.004081; stroke-linecap: round"/>
   </g>
   <g id="patch_6">
    <path d="M 318.56153 139.439321 
Q 232.14665 65.036604 119.562181 83.154683 
" clip-path="url(#pfb4234e9a1)" style="fill: none"/>
    <path d="M 123.829139 84.493739 
L 119.562181 83.154683 
L 123.193601 80.544551 
z
" clip-path="url(#pfb4234e9a1)"/>
   </g>
   <g id="patch_7">
    <path d="M 317.251325 141.409376 
Q 199.682364 86.279193 82.12026 141.405024 
" clip-path="url(#pfb4234e9a1)" style="fill: none; stroke: #000000; stroke-width: 0.006773; stroke-linecap: round"/>
    <path d="M 86.590978 141.517626 
L 82.12026 141.405024 
L 84.892773 137.896011 
z
" clip-path="url(#pfb4234e9a1)" style="stroke: #000000; stroke-width: 0.006773; stroke-linecap: round"/>
   </g>
   <g id="patch_8">
    <path d="M 316.512544 143.686276 
Q 203.928731 125.570513 117.519551 199.971202 
" clip-path="url(#pfb4234e9a1)" style="fill: none; stroke: #000000; stroke-width: 0.005955; stroke-linecap: round"/>
    <path d="M 121.855724 198.876855 
L 117.519551 199.971202 
L 119.245777 195.845655 
z
" clip-path="url(#pfb4234e9a1)" style="stroke: #000000; stroke-width: 0.005955; stroke-linecap: round"/>
   </g>
   <g id="patch_9">
    <path d="M 316.487675 146.533416 
Q 243.05362 159.712288 204.050835 223.313132 
" clip-path="url(#pfb4234e9a1)" style="fill: none"/>
    <path d="M 207.84687 220.948789 
L 204.050835 223.313132 
L 204.436982 218.857698 
z
" clip-path="url(#pfb4234e9a1)"/>
   </g>
   <g id="patch_10">
    <path d="M 317.936594 150.127227 
Q 294.559368 168.091943 289.426584 197.12345 
" clip-path="url(#pfb4234e9a1)" style="fill: none"/>
    <path d="M 292.092441 193.532739 
L 289.426584 197.12345 
L 288.15353 192.836338 
z
" clip-path="url(#pfb4234e9a1)"/>
   </g>
   <g id="patch_11">
    <path d="M 289.425415 93.239585 
Q 294.556121 122.272353 317.905167 140.218267 
" clip-path="url(#pfb4234e9a1)" style="fill: none; stroke: #000000; stroke-width: 0.029446; stroke-linecap: round"/>
    <path d="M 315.95248 136.194959 
L 317.905167 140.218267 
L 313.514908 139.366432 
z
" clip-path="url(#pfb4234e9a1)" style="stroke: #000000; stroke-width: 0.029446; stroke-linecap: round"/>
   </g>
   <g id="patch_12">
    <path d="M 288.326388 67.531147 
C 300.862717 67.531147 300.862717 84.652324 288.326388 84.652324 
C 275.790058 84.652324 275.790058 67.531147 288.312858 67.531147 
" clip-path="url(#pfb4234e9a1)" style="fill: none; stroke: #000000; stroke-width: 0.012101; stroke-linecap: round"/>
    <path d="M 284.312858 65.531147 
L 288.312858 67.531147 
L 284.312858 69.531147 
z
" clip-path="url(#pfb4234e9a1)" style="stroke: #000000; stroke-width: 0.012101; stroke-linecap: round"/>
   </g>
   <g id="patch_13">
    <path d="M 281.729047 79.044228 
Q 249.292295 53.419319 208.356167 58.243517 
" clip-path="url(#pfb4234e9a1)" style="fill: none; stroke: #000000; stroke-width: 0.105447; stroke-linecap: round"/>
    <path d="M 212.562751 59.761624 
L 208.356167 58.243517 
L 212.094603 55.789114 
z
" clip-path="url(#pfb4234e9a1)" style="stroke: #000000; stroke-width: 0.105447; stroke-linecap: round"/>
   </g>
   <g id="patch_14">
    <path d="M 280.510955 80.91687 
Q 199.679564 44.064436 118.848172 80.918318 
" clip-path="url(#pfb4234e9a1)" style="fill: none"/>
    <path d="M 123.317431 81.078694 
L 118.848172 80.918318 
L 121.658028 77.439136 
z
" clip-path="url(#pfb4234e9a1)"/>
   </g>
   <g id="patch_15">
    <path d="M 279.794485 83.153776 
Q 167.210671 65.038013 80.796446 139.443046 
" clip-path="url(#pfb4234e9a1)" style="fill: none"/>
    <path d="M 85.13262 138.348699 
L 80.796446 139.443046 
L 82.522673 135.317499 
z
" clip-path="url(#pfb4234e9a1)"/>
   </g>
   <g id="patch_16">
    <path d="M 279.765899 85.94718 
Q 171.53462 103.965717 115.35846 198.214153 
" clip-path="url(#pfb4234e9a1)" style="fill: none; stroke: #000000; stroke-width: 0.000479; stroke-linecap: round"/>
    <path d="M 119.124416 195.802187 
L 115.35846 198.214153 
L 115.688461 193.754209 
z
" clip-path="url(#pfb4234e9a1)" style="stroke: #000000; stroke-width: 0.000479; stroke-linecap: round"/>
   </g>
   <g id="patch_17">
    <path d="M 281.0839 89.40111 
Q 210.658288 137.494123 200.546384 222.172479 
" clip-path="url(#pfb4234e9a1)" style="fill: none"/>
    <path d="M 203.006567 218.437844 
L 200.546384 222.172479 
L 199.034785 217.963552 
z
" clip-path="url(#pfb4234e9a1)"/>
   </g>
   <g id="patch_18">
    <path d="M 284.658649 92.495982 
Q 261.728571 145.183227 284.657259 197.870472 
" clip-path="url(#pfb4234e9a1)" style="fill: none"/>
    <path d="M 284.894985 193.404658 
L 284.657259 197.870472 
L 281.227244 195.000803 
z
" clip-path="url(#pfb4234e9a1)"/>
   </g>
   <g id="patch_19">
    <path d="M 204.051704 67.057933 
Q 243.054873 130.658215 316.388166 143.818374 
" clip-path="url(#pfb4234e9a1)" style="fill: none; stroke: #000000; stroke-width: 0.091912; stroke-linecap: round"/>
    <path d="M 312.80433 141.143281 
L 316.388166 143.818374 
L 312.09779 145.080387 
z
" clip-path="url(#pfb4234e9a1)" style="stroke: #000000; stroke-width: 0.091912; stroke-linecap: round"/>
   </g>
   <g id="patch_20">
    <path d="M 206.278492 65.187037 
Q 238.715244 90.811946 279.749271 85.976211 
" clip-path="url(#pfb4234e9a1)" style="fill: none; stroke: #000000; stroke-width: 0.017278; stroke-linecap: round"/>
    <path d="M 275.542686 84.458104 
L 279.749271 85.976211 
L 276.010835 88.430614 
z
" clip-path="url(#pfb4234e9a1)" style="stroke: #000000; stroke-width: 0.017278; stroke-linecap: round"/>
   </g>
   <g id="patch_21">
    <path d="M 199.681151 42.457765 
C 212.217481 42.457765 212.217481 59.578941 199.681151 59.578941 
C 187.144822 59.578941 187.144822 42.457765 199.538316 42.457765 
" clip-path="url(#pfb4234e9a1)" style="fill: none; stroke: #000000; stroke-width: 0.127756; stroke-linecap: round"/>
    <path d="M 195.538316 40.457765 
L 199.538316 42.457765 
L 195.538316 44.457765 
z
" clip-path="url(#pfb4234e9a1)" style="stroke: #000000; stroke-width: 0.127756; stroke-linecap: round"/>
   </g>
   <g id="patch_22">
    <path d="M 191.12375 58.257378 
Q 150.070483 53.419185 117.633675 79.043897 
" clip-path="url(#pfb4234e9a1)" style="fill: none"/>
    <path d="M 122.012206 78.133696 
L 117.633675 79.043897 
L 119.532633 74.994951 
z
" clip-path="url(#pfb4234e9a1)"/>
   </g>
   <g id="patch_23">
    <path d="M 191.124379 60.927534 
Q 117.690324 74.106405 78.794091 137.533498 
" clip-path="url(#pfb4234e9a1)" style="fill: none; stroke: #000000; stroke-width: 0.182302; stroke-linecap: round"/>
    <path d="M 82.590126 135.169155 
L 78.794091 137.533498 
L 79.180237 133.078064 
z
" clip-path="url(#pfb4234e9a1)" style="stroke: #000000; stroke-width: 0.182302; stroke-linecap: round"/>
   </g>
   <g id="patch_24">
    <path d="M 192.438663 64.327728 
Q 122.013052 112.420741 112.180628 194.758686 
" clip-path="url(#pfb4234e9a1)" style="fill: none; stroke: #000000; stroke-width: 2.1082; stroke-linecap: round"/>
    <path d="M 114.640811 191.024051 
L 112.180628 194.758686 
L 110.66903 190.549759 
z
" clip-path="url(#pfb4234e9a1)" style="stroke: #000000; stroke-width: 2.1082; stroke-linecap: round"/>
   </g>
   <g id="patch_25">
    <path d="M 195.952491 67.392882 
Q 160.607417 145.18362 195.948301 222.967544 
" clip-path="url(#pfb4234e9a1)" style="fill: none; stroke: #000000; stroke-width: 0.006695; stroke-linecap: round"/>
    <path d="M 196.114558 218.498499 
L 195.948301 222.967544 
L 192.472819 220.153112 
z
" clip-path="url(#pfb4234e9a1)" style="stroke: #000000; stroke-width: 0.006695; stroke-linecap: round"/>
   </g>
   <g id="patch_26">
    <path d="M 200.546262 68.196144 
Q 210.657801 152.874721 281.083048 200.967956 
" clip-path="url(#pfb4234e9a1)" style="fill: none"/>
    <path d="M 278.90769 197.060551 
L 281.083048 200.967956 
L 276.651909 200.3638 
z
" clip-path="url(#pfb4234e9a1)"/>
   </g>
   <g id="patch_27">
    <path d="M 117.518831 90.397826 
Q 203.933712 164.800544 316.51818 146.682465 
" clip-path="url(#pfb4234e9a1)" style="fill: none"/>
    <path d="M 312.251223 145.343408 
L 316.51818 146.682465 
L 312.886761 149.292597 
z
" clip-path="url(#pfb4234e9a1)"/>
   </g>
   <g id="patch_28">
    <path d="M 118.851347 88.387778 
Q 199.682739 125.240212 280.51413 88.38633 
" clip-path="url(#pfb4234e9a1)" style="fill: none"/>
    <path d="M 276.044871 88.225954 
L 280.51413 88.38633 
L 277.704274 91.865512 
z
" clip-path="url(#pfb4234e9a1)"/>
   </g>
   <g id="patch_29">
    <path d="M 119.593316 85.973888 
Q 160.646583 90.812081 193.077649 65.191905 
" clip-path="url(#pfb4234e9a1)" style="fill: none; stroke: #000000; stroke-width: 0.006545; stroke-linecap: round"/>
    <path d="M 188.699118 66.102105 
L 193.077649 65.191905 
L 191.17869 69.24085 
z
" clip-path="url(#pfb4234e9a1)" style="stroke: #000000; stroke-width: 0.006545; stroke-linecap: round"/>
   </g>
   <g id="patch_30">
    <path d="M 111.035915 67.531147 
C 123.572244 67.531147 123.572244 84.652324 111.035915 84.652324 
C 98.499585 84.652324 98.499585 67.531147 111.035915 67.531147 
" clip-path="url(#pfb4234e9a1)" style="fill: none"/>
    <path d="M 107.035915 65.531147 
L 111.035915 67.531147 
L 107.035915 69.531147 
z
" clip-path="url(#pfb4234e9a1)"/>
   </g>
   <g id="patch_31">
    <path d="M 103.928061 89.594726 
Q 80.550835 107.559443 75.418052 136.59095 
" clip-path="url(#pfb4234e9a1)" style="fill: none"/>
    <path d="M 78.083909 133.000239 
L 75.418052 136.59095 
L 74.144997 132.303838 
z
" clip-path="url(#pfb4234e9a1)"/>
   </g>
   <g id="patch_32">
    <path d="M 107.368176 92.495982 
Q 84.438098 145.183227 107.366786 197.870472 
" clip-path="url(#pfb4234e9a1)" style="fill: none"/>
    <path d="M 107.604511 193.404658 
L 107.366786 197.870472 
L 103.936771 195.000803 
z
" clip-path="url(#pfb4234e9a1)"/>
   </g>
   <g id="patch_33">
    <path d="M 111.901025 93.269527 
Q 122.012565 177.948104 192.437811 226.041338 
" clip-path="url(#pfb4234e9a1)" style="fill: none"/>
    <path d="M 190.262453 222.133933 
L 192.437811 226.041338 
L 188.006672 225.437182 
z
" clip-path="url(#pfb4234e9a1)"/>
   </g>
   <g id="patch_34">
    <path d="M 115.357769 92.154336 
Q 171.534009 186.403514 279.765096 204.422335 
" clip-path="url(#pfb4234e9a1)" style="fill: none"/>
    <path d="M 276.147852 201.792591 
L 279.765096 204.422335 
L 275.490955 205.738283 
z
" clip-path="url(#pfb4234e9a1)"/>
   </g>
   <g id="patch_35">
    <path d="M 82.110978 148.960272 
Q 199.679938 204.090455 317.169731 148.998532 
" clip-path="url(#pfb4234e9a1)" style="fill: none; stroke: #000000; stroke-width: 0.078207; stroke-linecap: round"/>
    <path d="M 312.699013 148.885929 
L 317.169731 148.998532 
L 314.397218 152.507544 
z
" clip-path="url(#pfb4234e9a1)" style="stroke: #000000; stroke-width: 0.078207; stroke-linecap: round"/>
   </g>
   <g id="patch_36">
    <path d="M 82.849758 146.683372 
Q 195.433572 164.799135 281.844439 90.396993 
" clip-path="url(#pfb4234e9a1)" style="fill: none; stroke: #000000; stroke-width: 0.003963; stroke-linecap: round"/>
    <path d="M 277.508266 91.49134 
L 281.844439 90.396993 
L 280.118213 94.52254 
z
" clip-path="url(#pfb4234e9a1)" style="stroke: #000000; stroke-width: 0.003963; stroke-linecap: round"/>
   </g>
   <g id="patch_37">
    <path d="M 82.874627 143.836232 
Q 156.308682 130.65736 195.302854 67.070561 
" clip-path="url(#pfb4234e9a1)" style="fill: none; stroke: #000000; stroke-width: 0.014736; stroke-linecap: round"/>
    <path d="M 191.506819 69.434904 
L 195.302854 67.070561 
L 194.916708 71.525995 
z
" clip-path="url(#pfb4234e9a1)" style="stroke: #000000; stroke-width: 0.014736; stroke-linecap: round"/>
   </g>
   <g id="patch_38">
    <path d="M 81.425708 140.242421 
Q 104.802935 122.277705 109.935718 93.246198 
" clip-path="url(#pfb4234e9a1)" style="fill: none"/>
    <path d="M 107.269861 96.836909 
L 109.935718 93.246198 
L 111.208773 97.53331 
z
" clip-path="url(#pfb4234e9a1)"/>
   </g>
   <g id="patch_39">
    <path d="M 74.317855 128.063648 
C 86.854185 128.063648 86.854185 145.184824 74.317855 145.184824 
C 61.781526 145.184824 61.781526 128.063648 74.291314 128.063648 
" clip-path="url(#pfb4234e9a1)" style="fill: none; stroke: #000000; stroke-width: 0.023739; stroke-linecap: round"/>
    <path d="M 70.291314 126.063648 
L 74.291314 128.063648 
L 70.291314 130.063648 
z
" clip-path="url(#pfb4234e9a1)" style="stroke: #000000; stroke-width: 0.023739; stroke-linecap: round"/>
   </g>
   <g id="patch_40">
    <path d="M 75.416883 153.772085 
Q 80.547588 182.804853 103.838217 200.705868 
" clip-path="url(#pfb4234e9a1)" style="fill: none; stroke: #000000; stroke-width: 0.095346; stroke-linecap: round"/>
    <path d="M 101.88553 196.682559 
L 103.838217 200.705868 
L 99.447958 199.854033 
z
" clip-path="url(#pfb4234e9a1)" style="stroke: #000000; stroke-width: 0.095346; stroke-linecap: round"/>
   </g>
   <g id="patch_41">
    <path d="M 78.688408 152.663816 
Q 117.691577 216.264098 191.126015 229.442408 
" clip-path="url(#pfb4234e9a1)" style="fill: none"/>
    <path d="M 187.54218 226.767315 
L 191.126015 229.442408 
L 186.835639 230.70442 
z
" clip-path="url(#pfb4234e9a1)"/>
   </g>
   <g id="patch_42">
    <path d="M 80.800772 150.930327 
Q 167.215653 225.333044 279.800121 207.214965 
" clip-path="url(#pfb4234e9a1)" style="fill: none"/>
    <path d="M 275.533163 205.875909 
L 279.800121 207.214965 
L 276.168701 209.825097 
z
" clip-path="url(#pfb4234e9a1)"/>
   </g>
   <g id="patch_43">
    <path d="M 119.567817 207.215872 
Q 232.151631 225.331636 318.506013 150.978129 
" clip-path="url(#pfb4234e9a1)" style="fill: none; stroke: #000000; stroke-width: 0.070633; stroke-linecap: round"/>
    <path d="M 314.169839 152.072476 
L 318.506013 150.978129 
L 316.779786 155.103676 
z
" clip-path="url(#pfb4234e9a1)" style="stroke: #000000; stroke-width: 0.070633; stroke-linecap: round"/>
   </g>
   <g id="patch_44">
    <path d="M 119.596403 204.422468 
Q 227.827683 186.403931 283.941525 92.260046 
" clip-path="url(#pfb4234e9a1)" style="fill: none; stroke: #000000; stroke-width: 0.109343; stroke-linecap: round"/>
    <path d="M 280.17557 94.672012 
L 283.941525 92.260046 
L 283.611524 96.71999 
z
" clip-path="url(#pfb4234e9a1)" style="stroke: #000000; stroke-width: 0.109343; stroke-linecap: round"/>
   </g>
   <g id="patch_45">
    <path d="M 118.278402 200.968538 
Q 188.704014 152.875525 198.53776 70.526503 
" clip-path="url(#pfb4234e9a1)" style="fill: none; stroke: #000000; stroke-width: 2.098223; stroke-linecap: round"/>
    <path d="M 196.077577 74.261139 
L 198.53776 70.526503 
L 200.049358 74.735431 
z
" clip-path="url(#pfb4234e9a1)" style="stroke: #000000; stroke-width: 2.098223; stroke-linecap: round"/>
   </g>
   <g id="patch_46">
    <path d="M 114.703653 197.873666 
Q 137.633731 145.186421 114.707517 92.504862 
" clip-path="url(#pfb4234e9a1)" style="fill: none; stroke: #000000; stroke-width: 0.005546; stroke-linecap: round"/>
    <path d="M 114.469792 96.970675 
L 114.707517 92.504862 
L 118.137533 95.37453 
z
" clip-path="url(#pfb4234e9a1)" style="stroke: #000000; stroke-width: 0.005546; stroke-linecap: round"/>
   </g>
   <g id="patch_47">
    <path d="M 109.936887 197.130063 
Q 104.806181 168.097295 81.431797 150.131906 
" clip-path="url(#pfb4234e9a1)" style="fill: none; stroke: #000000; stroke-width: 0.000862; stroke-linecap: round"/>
    <path d="M 83.384484 154.155215 
L 81.431797 150.131906 
L 85.822056 150.983742 
z
" clip-path="url(#pfb4234e9a1)" style="stroke: #000000; stroke-width: 0.000862; stroke-linecap: round"/>
   </g>
   <g id="patch_48">
    <path d="M 111.035915 188.596148 
C 123.572244 188.596148 123.572244 205.717324 111.035915 205.717324 
C 98.499585 205.717324 98.499585 188.596148 111.029475 188.596148 
" clip-path="url(#pfb4234e9a1)" style="fill: none; stroke: #000000; stroke-width: 0.00576; stroke-linecap: round"/>
    <path d="M 107.029475 186.596148 
L 111.029475 188.596148 
L 107.029475 190.596148 
z
" clip-path="url(#pfb4234e9a1)" style="stroke: #000000; stroke-width: 0.00576; stroke-linecap: round"/>
   </g>
   <g id="patch_49">
    <path d="M 117.633256 211.32542 
Q 150.070008 236.950329 191.123219 232.112333 
" clip-path="url(#pfb4234e9a1)" style="fill: none"/>
    <path d="M 186.916635 230.594226 
L 191.123219 232.112333 
L 187.384783 234.566736 
z
" clip-path="url(#pfb4234e9a1)"/>
   </g>
   <g id="patch_50">
    <path d="M 118.851347 209.452778 
Q 199.682739 246.305213 280.51413 209.45133 
" clip-path="url(#pfb4234e9a1)" style="fill: none"/>
    <path d="M 276.044871 209.290954 
L 280.51413 209.45133 
L 277.704274 212.930512 
z
" clip-path="url(#pfb4234e9a1)"/>
   </g>
   <g id="patch_51">
    <path d="M 208.237923 229.442114 
Q 281.671978 216.263243 320.674763 152.662399 
" clip-path="url(#pfb4234e9a1)" style="fill: none"/>
    <path d="M 316.878728 155.026742 
L 320.674763 152.662399 
L 320.288617 157.117833 
z
" clip-path="url(#pfb4234e9a1)"/>
   </g>
   <g id="patch_52">
    <path d="M 206.923639 226.04192 
Q 277.349251 177.948907 287.461155 93.270551 
" clip-path="url(#pfb4234e9a1)" style="fill: none"/>
    <path d="M 285.000972 97.005187 
L 287.461155 93.270551 
L 288.972754 97.479479 
z
" clip-path="url(#pfb4234e9a1)"/>
   </g>
   <g id="patch_53">
    <path d="M 203.409811 222.976766 
Q 238.754886 145.186028 203.410995 67.395488 
" clip-path="url(#pfb4234e9a1)" style="fill: none; stroke: #000000; stroke-width: 0.000195; stroke-linecap: round"/>
    <path d="M 203.244739 71.864532 
L 203.410995 67.395488 
L 206.886477 70.20992 
z
" clip-path="url(#pfb4234e9a1)" style="stroke: #000000; stroke-width: 0.000195; stroke-linecap: round"/>
   </g>
   <g id="patch_54">
    <path d="M 198.816041 222.173504 
Q 188.704501 137.494927 118.279254 89.401692 
" clip-path="url(#pfb4234e9a1)" style="fill: none"/>
    <path d="M 120.454613 93.309097 
L 118.279254 89.401692 
L 122.710394 90.005849 
z
" clip-path="url(#pfb4234e9a1)"/>
   </g>
   <g id="patch_55">
    <path d="M 195.310599 223.311715 
Q 156.30743 159.711433 82.874112 146.533324 
" clip-path="url(#pfb4234e9a1)" style="fill: none; stroke: #000000; stroke-width: 0.001018; stroke-linecap: round"/>
    <path d="M 86.457947 149.208417 
L 82.874112 146.533324 
L 87.164488 145.271311 
z
" clip-path="url(#pfb4234e9a1)" style="stroke: #000000; stroke-width: 0.001018; stroke-linecap: round"/>
   </g>
   <g id="patch_56">
    <path d="M 193.08381 225.182611 
Q 160.647058 199.557702 119.600173 204.394952 
" clip-path="url(#pfb4234e9a1)" style="fill: none; stroke: #000000; stroke-width: 0.005698; stroke-linecap: round"/>
    <path d="M 123.806758 205.913059 
L 119.600173 204.394952 
L 123.33861 201.940549 
z
" clip-path="url(#pfb4234e9a1)" style="stroke: #000000; stroke-width: 0.005698; stroke-linecap: round"/>
   </g>
   <g id="patch_57">
    <path d="M 199.681151 213.66953 
C 212.217481 213.66953 212.217481 230.790707 199.681151 230.790707 
C 187.144822 230.790707 187.144822 213.66953 199.681151 213.66953 
" clip-path="url(#pfb4234e9a1)" style="fill: none"/>
    <path d="M 195.681151 211.66953 
L 199.681151 213.66953 
L 195.681151 215.66953 
z
" clip-path="url(#pfb4234e9a1)"/>
   </g>
   <g id="patch_58">
    <path d="M 208.238553 232.11227 
Q 249.29182 236.950464 281.728627 211.325751 
" clip-path="url(#pfb4234e9a1)" style="fill: none"/>
    <path d="M 277.350096 212.235952 
L 281.728627 211.325751 
L 279.829669 215.374697 
z
" clip-path="url(#pfb4234e9a1)"/>
   </g>
   <g id="patch_59">
    <path d="M 295.434241 200.774922 
Q 318.811467 182.810205 323.944251 153.778698 
" clip-path="url(#pfb4234e9a1)" style="fill: none"/>
    <path d="M 321.278394 157.369409 
L 323.944251 153.778698 
L 325.217305 158.06581 
z
" clip-path="url(#pfb4234e9a1)"/>
   </g>
   <g id="patch_60">
    <path d="M 291.994126 197.873666 
Q 314.924204 145.186421 291.995516 92.499177 
" clip-path="url(#pfb4234e9a1)" style="fill: none"/>
    <path d="M 291.757791 96.96499 
L 291.995516 92.499177 
L 295.425532 95.368845 
z
" clip-path="url(#pfb4234e9a1)"/>
   </g>
   <g id="patch_61">
    <path d="M 287.461277 197.100121 
Q 277.349738 112.421544 206.924491 64.32831 
" clip-path="url(#pfb4234e9a1)" style="fill: none"/>
    <path d="M 209.099849 68.235715 
L 206.924491 64.32831 
L 211.35563 64.932466 
z
" clip-path="url(#pfb4234e9a1)"/>
   </g>
   <g id="patch_62">
    <path d="M 284.004533 198.215312 
Q 227.828293 103.966134 119.597207 85.947314 
" clip-path="url(#pfb4234e9a1)" style="fill: none"/>
    <path d="M 123.21445 88.577057 
L 119.597207 85.947314 
L 123.871347 84.631365 
z
" clip-path="url(#pfb4234e9a1)"/>
   </g>
   <g id="patch_63">
    <path d="M 281.843471 199.971822 
Q 195.428591 125.569104 82.844122 143.687183 
" clip-path="url(#pfb4234e9a1)" style="fill: none"/>
    <path d="M 87.11108 145.02624 
L 82.844122 143.687183 
L 86.475542 141.077051 
z
" clip-path="url(#pfb4234e9a1)"/>
   </g>
   <g id="patch_64">
    <path d="M 280.510955 201.98187 
Q 199.679564 165.129436 118.848172 201.983318 
" clip-path="url(#pfb4234e9a1)" style="fill: none"/>
    <path d="M 123.317431 202.143694 
L 118.848172 201.983318 
L 121.658028 198.504136 
z
" clip-path="url(#pfb4234e9a1)"/>
   </g>
   <g id="patch_65">
    <path d="M 279.768986 204.39576 
Q 238.715719 199.557567 206.278912 225.18228 
" clip-path="url(#pfb4234e9a1)" style="fill: none"/>
    <path d="M 210.657443 224.272079 
L 206.278912 225.18228 
L 208.17787 221.133334 
z
" clip-path="url(#pfb4234e9a1)"/>
   </g>
   <g id="patch_66">
    <path d="M 288.326388 188.596148 
C 300.862717 188.596148 300.862717 205.717324 288.326388 205.717324 
C 275.790058 205.717324 275.790058 188.596148 288.326388 188.596148 
" clip-path="url(#pfb4234e9a1)" style="fill: none"/>
    <path d="M 284.326388 186.596148 
L 288.326388 188.596148 
L 284.326388 190.596148 
z
" clip-path="url(#pfb4234e9a1)"/>
   </g>
   <g id="matplotlib.axis_1">
    <g id="xtick_1"/>
    <g id="xtick_2"/>
    <g id="xtick_3"/>
    <g id="xtick_4"/>
    <g id="xtick_5"/>
    <g id="xtick_6"/>
   </g>
   <g id="matplotlib.axis_2">
    <g id="ytick_1"/>
    <g id="ytick_2"/>
    <g id="ytick_3"/>
    <g id="ytick_4"/>
    <g id="ytick_5"/>
    <g id="ytick_6"/>
   </g>
   <g id="PathCollection_1">
    <path d="M 325.044447 154.536579 
C 327.524561 154.536579 329.90343 153.551219 331.657136 151.797513 
C 333.410842 150.043807 334.396202 147.664938 334.396202 145.184824 
C 334.396202 142.70471 333.410842 140.325841 331.657136 138.572135 
C 329.90343 136.818429 327.524561 135.83307 325.044447 135.83307 
C 322.564333 135.83307 320.185464 136.818429 318.431758 138.572135 
C 316.678052 140.325841 315.692693 142.70471 315.692693 145.184824 
C 315.692693 147.664938 316.678052 150.043807 318.431758 151.797513 
C 320.185464 153.551219 322.564333 154.536579 325.044447 154.536579 
z
" clip-path="url(#pfb4234e9a1)" style="fill: #add8e6; stroke: #add8e6"/>
    <path d="M 288.326388 86.799069 
C 288.895711 86.799069 289.441794 86.572875 289.844366 86.170302 
C 290.246939 85.76773 290.473133 85.221647 290.473133 84.652324 
C 290.473133 84.083 290.246939 83.536918 289.844366 83.134346 
C 289.441794 82.731773 288.895711 82.505578 288.326388 82.505578 
C 287.757064 82.505578 287.210982 82.731773 286.80841 83.134346 
C 286.405837 83.536918 286.179642 84.083 286.179642 84.652324 
C 286.179642 85.221647 286.405837 85.76773 286.80841 86.170302 
C 287.210982 86.572875 287.757064 86.799069 288.326388 86.799069 
z
" clip-path="url(#pfb4234e9a1)" style="fill: #add8e6; stroke: #add8e6"/>
    <path d="M 199.681151 68.477929 
C 202.04119 68.477929 204.304886 67.540275 205.973686 65.871476 
C 207.642485 64.202676 208.580139 61.93898 208.580139 59.578941 
C 208.580139 57.218902 207.642485 54.955207 205.973686 53.286407 
C 204.304886 51.617607 202.04119 50.679954 199.681151 50.679954 
C 197.321112 50.679954 195.057416 51.617607 193.388617 53.286407 
C 191.719817 54.955207 190.782164 57.218902 190.782164 59.578941 
C 190.782164 61.93898 191.719817 64.202676 193.388617 65.871476 
C 195.057416 67.540275 197.321112 68.477929 199.681151 68.477929 
z
" clip-path="url(#pfb4234e9a1)" style="fill: #add8e6; stroke: #add8e6"/>
    <path d="M 111.035915 85.104573 
C 111.155852 85.104573 111.270894 85.056921 111.355703 84.972112 
C 111.440512 84.887303 111.488164 84.772262 111.488164 84.652324 
C 111.488164 84.532386 111.440512 84.417344 111.355703 84.332535 
C 111.270894 84.247727 111.155852 84.200075 111.035915 84.200075 
C 110.915977 84.200075 110.800935 84.247727 110.716126 84.332535 
C 110.631317 84.417344 110.583665 84.532386 110.583665 84.652324 
C 110.583665 84.772262 110.631317 84.887303 110.716126 84.972112 
C 110.800935 85.056921 110.915977 85.104573 111.035915 85.104573 
z
" clip-path="url(#pfb4234e9a1)" style="fill: #add8e6; stroke: #add8e6"/>
    <path d="M 74.317855 147.78285 
C 75.00686 147.78285 75.667737 147.509106 76.154937 147.021906 
C 76.642137 146.534706 76.915882 145.873829 76.915882 145.184824 
C 76.915882 144.495819 76.642137 143.834942 76.154937 143.347742 
C 75.667737 142.860542 75.00686 142.586798 74.317855 142.586798 
C 73.628851 142.586798 72.967973 142.860542 72.480773 143.347742 
C 71.993573 143.834942 71.719829 144.495819 71.719829 145.184824 
C 71.719829 145.873829 71.993573 146.534706 72.480773 147.021906 
C 72.967973 147.509106 73.628851 147.78285 74.317855 147.78285 
z
" clip-path="url(#pfb4234e9a1)" style="fill: #add8e6; stroke: #add8e6"/>
    <path d="M 111.035915 214.177463 
C 113.279569 214.177463 115.431632 213.286049 117.018136 211.699546 
C 118.604639 210.113042 119.496053 207.960979 119.496053 205.717324 
C 119.496053 203.473669 118.604639 201.321607 117.018136 199.735103 
C 115.431632 198.148599 113.279569 197.257186 111.035915 197.257186 
C 108.79226 197.257186 106.640197 198.148599 105.053693 199.735103 
C 103.46719 201.321607 102.575776 203.473669 102.575776 205.717324 
C 102.575776 207.960979 103.46719 210.113042 105.053693 211.699546 
C 106.640197 213.286049 108.79226 214.177463 111.035915 214.177463 
z
" clip-path="url(#pfb4234e9a1)" style="fill: #add8e6; stroke: #add8e6"/>
    <path d="M 199.681151 231.255441 
C 199.8044 231.255441 199.922618 231.206474 200.009768 231.119324 
C 200.096918 231.032173 200.145886 230.913956 200.145886 230.790707 
C 200.145886 230.667458 200.096918 230.54924 200.009768 230.46209 
C 199.922618 230.37494 199.8044 230.325972 199.681151 230.325972 
C 199.557902 230.325972 199.439684 230.37494 199.352534 230.46209 
C 199.265384 230.54924 199.216417 230.667458 199.216417 230.790707 
C 199.216417 230.913956 199.265384 231.032173 199.352534 231.119324 
C 199.439684 231.206474 199.557902 231.255441 199.681151 231.255441 
z
" clip-path="url(#pfb4234e9a1)" style="fill: #add8e6; stroke: #add8e6"/>
    <path d="M 288.326388 205.717324 
C 288.326388 205.717324 288.326388 205.717324 288.326388 205.717324 
C 288.326388 205.717324 288.326388 205.717324 288.326388 205.717324 
C 288.326388 205.717324 288.326388 205.717324 288.326388 205.717324 
C 288.326388 205.717324 288.326388 205.717324 288.326388 205.717324 
C 288.326388 205.717324 288.326388 205.717324 288.326388 205.717324 
C 288.326388 205.717324 288.326388 205.717324 288.326388 205.717324 
C 288.326388 205.717324 288.326388 205.717324 288.326388 205.717324 
C 288.326388 205.717324 288.326388 205.717324 288.326388 205.717324 
z
" clip-path="url(#pfb4234e9a1)" style="fill: #add8e6; stroke: #add8e6"/>
   </g>
   <g id="patch_67">
    <path d="M 7.2 273.312 
L 7.2 7.2 
" style="fill: none; stroke: #000000; stroke-width: 0.8; stroke-linejoin: miter; stroke-linecap: square"/>
   </g>
   <g id="patch_68">
    <path d="M 364.32 273.312 
L 364.32 7.2 
" style="fill: none; stroke: #000000; stroke-width: 0.8; stroke-linejoin: miter; stroke-linecap: square"/>
   </g>
   <g id="patch_69">
    <path d="M 7.2 273.312 
L 364.32 273.312 
" style="fill: none; stroke: #000000; stroke-width: 0.8; stroke-linejoin: miter; stroke-linecap: square"/>
   </g>
   <g id="patch_70">
    <path d="M 7.2 7.2 
L 364.32 7.2 
" style="fill: none; stroke: #000000; stroke-width: 0.8; stroke-linejoin: miter; stroke-linecap: square"/>
   </g>
   <g id="text_1">
    <g clip-path="url(#pfb4234e9a1)">
     <!-- 111 -->
     <g transform="translate(313.591947 148.496074) scale(0.12 -0.12)">
      <defs>
       <path id="DejaVuSans-31" d="M 794 531 
L 1825 531 
L 1825 4091 
L 703 3866 
L 703 4441 
L 1819 4666 
L 2450 4666 
L 2450 531 
L 3481 531 
L 3481 0 
L 794 0 
L 794 531 
z
" transform="scale(0.015625)"/>
      </defs>
      <use xlink:href="#DejaVuSans-31"/>
      <use xlink:href="#DejaVuSans-31" x="63.623047"/>
      <use xlink:href="#DejaVuSans-31" x="127.246094"/>
     </g>
    </g>
   </g>
   <g id="text_2">
    <g clip-path="url(#pfb4234e9a1)">
     <!-- 112 -->
     <g transform="translate(276.873888 87.963574) scale(0.12 -0.12)">
      <defs>
       <path id="DejaVuSans-32" d="M 1228 531 
L 3431 531 
L 3431 0 
L 469 0 
L 469 531 
Q 828 903 1448 1529 
Q 2069 2156 2228 2338 
Q 2531 2678 2651 2914 
Q 2772 3150 2772 3378 
Q 2772 3750 2511 3984 
Q 2250 4219 1831 4219 
Q 1534 4219 1204 4116 
Q 875 4013 500 3803 
L 500 4441 
Q 881 4594 1212 4672 
Q 1544 4750 1819 4750 
Q 2544 4750 2975 4387 
Q 3406 4025 3406 3419 
Q 3406 3131 3298 2873 
Q 3191 2616 2906 2266 
Q 2828 2175 2409 1742 
Q 1991 1309 1228 531 
z
" transform="scale(0.015625)"/>
      </defs>
      <use xlink:href="#DejaVuSans-31"/>
      <use xlink:href="#DejaVuSans-31" x="63.623047"/>
      <use xlink:href="#DejaVuSans-32" x="127.246094"/>
     </g>
    </g>
   </g>
   <g id="text_3">
    <g clip-path="url(#pfb4234e9a1)">
     <!-- 121 -->
     <g transform="translate(188.228651 62.890191) scale(0.12 -0.12)">
      <use xlink:href="#DejaVuSans-31"/>
      <use xlink:href="#DejaVuSans-32" x="63.623047"/>
      <use xlink:href="#DejaVuSans-31" x="127.246094"/>
     </g>
    </g>
   </g>
   <g id="text_4">
    <g clip-path="url(#pfb4234e9a1)">
     <!-- 122 -->
     <g transform="translate(99.583415 87.963574) scale(0.12 -0.12)">
      <use xlink:href="#DejaVuSans-31"/>
      <use xlink:href="#DejaVuSans-32" x="63.623047"/>
      <use xlink:href="#DejaVuSans-32" x="127.246094"/>
     </g>
    </g>
   </g>
   <g id="text_5">
    <g clip-path="url(#pfb4234e9a1)">
     <!-- 211 -->
     <g transform="translate(62.865355 148.496074) scale(0.12 -0.12)">
      <use xlink:href="#DejaVuSans-32"/>
      <use xlink:href="#DejaVuSans-31" x="63.623047"/>
      <use xlink:href="#DejaVuSans-31" x="127.246094"/>
     </g>
    </g>
   </g>
   <g id="text_6">
    <g clip-path="url(#pfb4234e9a1)">
     <!-- 212 -->
     <g transform="translate(99.583415 209.028574) scale(0.12 -0.12)">
      <use xlink:href="#DejaVuSans-32"/>
      <use xlink:href="#DejaVuSans-31" x="63.623047"/>
      <use xlink:href="#DejaVuSans-32" x="127.246094"/>
     </g>
    </g>
   </g>
   <g id="text_7">
    <g clip-path="url(#pfb4234e9a1)">
     <!-- 221 -->
     <g transform="translate(188.228651 234.101957) scale(0.12 -0.12)">
      <use xlink:href="#DejaVuSans-32"/>
      <use xlink:href="#DejaVuSans-32" x="63.623047"/>
      <use xlink:href="#DejaVuSans-31" x="127.246094"/>
     </g>
    </g>
   </g>
   <g id="text_8">
    <g clip-path="url(#pfb4234e9a1)">
     <!-- 222 -->
     <g transform="translate(276.873888 209.028574) scale(0.12 -0.12)">
      <use xlink:href="#DejaVuSans-32"/>
      <use xlink:href="#DejaVuSans-32" x="63.623047"/>
      <use xlink:href="#DejaVuSans-32" x="127.246094"/>
     </g>
    </g>
   </g>
  </g>
 </g>
 <defs>
  <clipPath id="pfb4234e9a1">
   <rect x="7.2" y="7.2" width="357.12" height="266.112"/>
  </clipPath>
 </defs>
</svg>
