<?xml version="1.0" encoding="utf-8" standalone="no"?>
<!DOCTYPE svg PUBLIC "-//W3C//DTD SVG 1.1//EN"
  "http://www.w3.org/Graphics/SVG/1.1/DTD/svg11.dtd">
<svg xmlns:xlink="http://www.w3.org/1999/xlink" width="371.52pt" height="280.512pt" viewBox="0 0 371.52 280.512" xmlns="http://www.w3.org/2000/svg" version="1.1">
 <metadata>
  <rdf:RDF xmlns:dc="http://purl.org/dc/elements/1.1/" xmlns:cc="http://creativecommons.org/ns#" xmlns:rdf="http://www.w3.org/1999/02/22-rdf-syntax-ns#">
   <cc:Work>
    <dc:type rdf:resource="http://purl.org/dc/dcmitype/StillImage"/>
    <dc:date>2025-01-08T12:05:34.234860</dc:date>
    <dc:format>image/svg+xml</dc:format>
    <dc:creator>
     <cc:Agent>
      <dc:title>Matplotlib v3.9.2, https://matplotlib.org/</dc:title>
     </cc:Agent>
    </dc:creator>
   </cc:Work>
  </rdf:RDF>
 </metadata>
 <defs>
  <style type="text/css">*{stroke-linejoin: round; stroke-linecap: butt}</style>
 </defs>
 <g id="figure_1">
  <g id="patch_1">
   <path d="M 0 280.512 
L 371.52 280.512 
L 371.52 0 
L 0 0 
L 0 280.512 
z
" style="fill: none"/>
  </g>
  <g id="axes_1">
   <g id="patch_2">
    <path d="M 7.2 273.312 
L 364.32 273.312 
L 364.32 7.2 
L 7.2 7.2 
L 7.2 273.312 
z
" style="fill: none"/>
   </g>
   <g id="patch_3">
    <path d="M 323.991047 128.052342 
C 336.483811 128.052342 336.483811 145.171739 323.991047 145.171739 
C 311.498284 145.171739 311.498284 128.052342 320.749433 128.052342 
" clip-path="url(#p6904ac6259)" style="fill: none; stroke: #000000; stroke-width: 2.899388; stroke-linecap: round"/>
    <path d="M 316.749433 126.052342 
L 320.749433 128.052342 
L 316.749433 130.052342 
z
" clip-path="url(#p6904ac6259)" style="stroke: #000000; stroke-width: 2.899388; stroke-linecap: round"/>
   </g>
   <g id="patch_4">
    <path d="M 322.904369 136.582392 
Q 317.820791 107.58107 294.877145 89.889107 
" clip-path="url(#p6904ac6259)" style="fill: none; stroke: #000000; stroke-width: 0.420579; stroke-linecap: round"/>
    <path d="M 296.823484 93.915491 
L 294.877145 89.889107 
L 299.266055 90.747866 
z
" clip-path="url(#p6904ac6259)" style="stroke: #000000; stroke-width: 0.420579; stroke-linecap: round"/>
   </g>
   <g id="patch_5">
    <path d="M 319.632175 137.686572 
Q 280.827906 74.201099 207.773228 60.965376 
" clip-path="url(#p6904ac6259)" style="fill: none; stroke: #000000; stroke-width: 0.145016; stroke-linecap: round"/>
    <path d="M 211.352605 63.646432 
L 207.773228 60.965376 
L 212.065699 59.710508 
z
" clip-path="url(#p6904ac6259)" style="stroke: #000000; stroke-width: 0.145016; stroke-linecap: round"/>
   </g>
   <g id="patch_6">
    <path d="M 317.517165 139.424427 
Q 231.463194 65.210916 119.611159 83.098702 
" clip-path="url(#p6904ac6259)" style="fill: none; stroke: #000000; stroke-width: 0.323559; stroke-linecap: round"/>
    <path d="M 123.876802 84.441939 
L 119.611159 83.098702 
L 123.245134 80.49213 
z
" clip-path="url(#p6904ac6259)" style="stroke: #000000; stroke-width: 0.323559; stroke-linecap: round"/>
   </g>
   <g id="patch_7">
    <path d="M 316.194508 141.395112 
Q 199.063654 86.484663 82.081037 141.325391 
" clip-path="url(#p6904ac6259)" style="fill: none; stroke: #000000; stroke-width: 0.146432; stroke-linecap: round"/>
    <path d="M 86.551745 141.438413 
L 82.081037 141.325391 
L 84.853879 137.816638 
z
" clip-path="url(#p6904ac6259)" style="stroke: #000000; stroke-width: 0.146432; stroke-linecap: round"/>
   </g>
   <g id="patch_8">
    <path d="M 315.46324 143.682023 
Q 203.254004 125.737147 117.216625 199.936397 
" clip-path="url(#p6904ac6259)" style="fill: none; stroke: #000000; stroke-width: 0.019583; stroke-linecap: round"/>
    <path d="M 121.551931 198.838617 
L 117.216625 199.936397 
L 118.939585 195.809484 
z
" clip-path="url(#p6904ac6259)" style="stroke: #000000; stroke-width: 0.019583; stroke-linecap: round"/>
   </g>
   <g id="patch_9">
    <path d="M 315.43702 146.534136 
Q 242.223687 159.800047 203.486833 223.177946 
" clip-path="url(#p6904ac6259)" style="fill: none; stroke: #000000; stroke-width: 0.114112; stroke-linecap: round"/>
    <path d="M 207.279358 220.807977 
L 203.486833 223.177946 
L 203.866372 218.721945 
z
" clip-path="url(#p6904ac6259)" style="stroke: #000000; stroke-width: 0.114112; stroke-linecap: round"/>
   </g>
   <g id="patch_10">
    <path d="M 316.890432 150.125427 
Q 293.573019 168.103683 288.5407 196.803868 
" clip-path="url(#p6904ac6259)" style="fill: none; stroke: #000000; stroke-width: 0.272689; stroke-linecap: round"/>
    <path d="M 291.201472 193.209387 
L 288.5407 196.803868 
L 287.261578 192.518562 
z
" clip-path="url(#p6904ac6259)" style="stroke: #000000; stroke-width: 0.272689; stroke-linecap: round"/>
   </g>
   <g id="patch_11">
    <path d="M 288.487268 93.234878 
Q 293.570846 122.2362 316.757894 140.115852 
" clip-path="url(#p6904ac6259)" style="fill: none; stroke: #000000; stroke-width: 0.145666; stroke-linecap: round"/>
    <path d="M 314.811555 136.089468 
L 316.757894 140.115852 
L 312.368984 139.257092 
z
" clip-path="url(#p6904ac6259)" style="stroke: #000000; stroke-width: 0.145666; stroke-linecap: round"/>
   </g>
   <g id="patch_12">
    <path d="M 287.40059 67.526134 
C 299.893353 67.526134 299.893353 84.645531 287.40059 84.645531 
C 274.907826 84.645531 274.907826 67.526134 287.375931 67.526134 
" clip-path="url(#p6904ac6259)" style="fill: none; stroke: #000000; stroke-width: 0.022055; stroke-linecap: round"/>
    <path d="M 283.375931 65.526134 
L 287.375931 67.526134 
L 283.375931 69.526134 
z
" clip-path="url(#p6904ac6259)" style="stroke: #000000; stroke-width: 0.022055; stroke-linecap: round"/>
   </g>
   <g id="patch_13">
    <path d="M 280.805691 79.030877 
Q 248.516847 53.490006 207.631706 58.260649 
" clip-path="url(#p6904ac6259)" style="fill: none; stroke: #000000; stroke-width: 0.005909; stroke-linecap: round"/>
    <path d="M 211.836546 59.783581 
L 207.631706 58.260649 
L 211.372955 55.810536 
z
" clip-path="url(#p6904ac6259)" style="stroke: #000000; stroke-width: 0.005909; stroke-linecap: round"/>
   </g>
   <g id="patch_14">
    <path d="M 279.585359 80.91077 
Q 199.063188 44.211601 118.555798 80.904236 
" clip-path="url(#p6904ac6259)" style="fill: none; stroke: #000000; stroke-width: 0.01453; stroke-linecap: round"/>
    <path d="M 123.025035 81.065234 
L 118.555798 80.904236 
L 121.366139 77.425445 
z
" clip-path="url(#p6904ac6259)" style="stroke: #000000; stroke-width: 0.01453; stroke-linecap: round"/>
   </g>
   <g id="patch_15">
    <path d="M 278.872782 83.155814 
Q 166.663547 65.210938 80.703995 139.343068 
" clip-path="url(#p6904ac6259)" style="fill: none; stroke: #000000; stroke-width: 0.111506; stroke-linecap: round"/>
    <path d="M 85.039301 138.245289 
L 80.703995 139.343068 
L 82.426955 135.216156 
z
" clip-path="url(#p6904ac6259)" style="stroke: #000000; stroke-width: 0.111506; stroke-linecap: round"/>
   </g>
   <g id="patch_16">
    <path d="M 278.841393 85.954299 
Q 170.924152 104.103507 115.046834 198.171973 
" clip-path="url(#p6904ac6259)" style="fill: none; stroke: #000000; stroke-width: 0.018; stroke-linecap: round"/>
    <path d="M 118.809158 195.754346 
L 115.046834 198.171973 
L 115.370127 193.711537 
z
" clip-path="url(#p6904ac6259)" style="stroke: #000000; stroke-width: 0.018; stroke-linecap: round"/>
   </g>
   <g id="patch_17">
    <path d="M 280.1678 89.403579 
Q 209.891789 137.551404 199.927314 222.05252 
" clip-path="url(#p6904ac6259)" style="fill: none; stroke: #000000; stroke-width: 0.090281; stroke-linecap: round"/>
    <path d="M 202.381991 218.314264 
L 199.927314 222.05252 
L 198.409515 217.845825 
z
" clip-path="url(#p6904ac6259)" style="stroke: #000000; stroke-width: 0.090281; stroke-linecap: round"/>
   </g>
   <g id="patch_18">
    <path d="M 283.733233 92.488374 
Q 260.805538 145.170142 283.636441 197.63269 
" clip-path="url(#p6904ac6259)" style="fill: none; stroke: #000000; stroke-width: 0.21384; stroke-linecap: round"/>
    <path d="M 283.874166 193.166877 
L 283.636441 197.63269 
L 280.206426 194.763022 
z
" clip-path="url(#p6904ac6259)" style="stroke: #000000; stroke-width: 0.21384; stroke-linecap: round"/>
   </g>
   <g id="patch_19">
    <path d="M 203.422283 67.059922 
Q 242.226553 130.545394 315.278333 143.780592 
" clip-path="url(#p6904ac6259)" style="fill: none; stroke: #000000; stroke-width: 0.147649; stroke-linecap: round"/>
    <path d="M 311.698956 141.099537 
L 315.278333 143.780592 
L 310.985863 145.035461 
z
" clip-path="url(#p6904ac6259)" style="stroke: #000000; stroke-width: 0.147649; stroke-linecap: round"/>
   </g>
   <g id="patch_20">
    <path d="M 205.658309 65.189408 
Q 237.947153 90.730279 278.815892 85.96155 
" clip-path="url(#p6904ac6259)" style="fill: none; stroke: #000000; stroke-width: 0.02068; stroke-linecap: round"/>
    <path d="M 274.611052 84.438619 
L 278.815892 85.96155 
L 275.074642 88.411663 
z
" clip-path="url(#p6904ac6259)" style="stroke: #000000; stroke-width: 0.02068; stroke-linecap: round"/>
   </g>
   <g id="patch_21">
    <path d="M 199.063411 42.455357 
C 211.556174 42.455357 211.556174 59.574754 199.063411 59.574754 
C 186.570647 59.574754 186.570647 42.455357 199.056548 42.455357 
" clip-path="url(#p6904ac6259)" style="fill: none; stroke: #000000; stroke-width: 0.006139; stroke-linecap: round"/>
    <path d="M 195.056548 40.455357 
L 199.056548 42.455357 
L 195.056548 44.455357 
z
" clip-path="url(#p6904ac6259)" style="stroke: #000000; stroke-width: 0.006139; stroke-linecap: round"/>
   </g>
   <g id="patch_22">
    <path d="M 190.502315 58.261489 
Q 149.610544 53.489845 117.332357 79.021996 
" clip-path="url(#p6904ac6259)" style="fill: none; stroke: #000000; stroke-width: 0.01223; stroke-linecap: round"/>
    <path d="M 121.710319 78.109062 
L 117.332357 79.021996 
L 119.228787 74.971866 
z
" clip-path="url(#p6904ac6259)" style="stroke: #000000; stroke-width: 0.01223; stroke-linecap: round"/>
   </g>
   <g id="patch_23">
    <path d="M 190.509384 60.937151 
Q 117.296051 74.203062 78.497678 137.681613 
" clip-path="url(#p6904ac6259)" style="fill: none; stroke: #000000; stroke-width: 0.008603; stroke-linecap: round"/>
    <path d="M 82.290203 135.311643 
L 78.497678 137.681613 
L 78.877217 133.225611 
z
" clip-path="url(#p6904ac6259)" style="stroke: #000000; stroke-width: 0.008603; stroke-linecap: round"/>
   </g>
   <g id="patch_24">
    <path d="M 191.830621 64.332803 
Q 121.55461 112.480628 111.57838 197.081421 
" clip-path="url(#p6904ac6259)" style="fill: none; stroke: #000000; stroke-width: 0.000509; stroke-linecap: round"/>
    <path d="M 114.033058 193.343165 
L 111.57838 197.081421 
L 110.060582 192.874725 
z
" clip-path="url(#p6904ac6259)" style="stroke: #000000; stroke-width: 0.000509; stroke-linecap: round"/>
   </g>
   <g id="patch_25">
    <path d="M 195.332765 67.393107 
Q 159.994867 145.173273 195.330882 222.946228 
" clip-path="url(#p6904ac6259)" style="fill: none; stroke: #000000; stroke-width: 0.007084; stroke-linecap: round"/>
    <path d="M 195.497133 218.477183 
L 195.330882 222.946228 
L 191.855397 220.1318 
z
" clip-path="url(#p6904ac6259)" style="stroke: #000000; stroke-width: 0.007084; stroke-linecap: round"/>
   </g>
   <g id="patch_26">
    <path d="M 199.915435 68.190225 
Q 209.891556 152.791689 280.152938 200.929717 
" clip-path="url(#p6904ac6259)" style="fill: none; stroke: #000000; stroke-width: 0.015671; stroke-linecap: round"/>
    <path d="M 277.983518 197.019011 
L 280.152938 200.929717 
L 275.722722 200.318829 
z
" clip-path="url(#p6904ac6259)" style="stroke: #000000; stroke-width: 0.015671; stroke-linecap: round"/>
   </g>
   <g id="patch_27">
    <path d="M 117.200114 90.392844 
Q 203.254085 164.606355 315.342976 146.680689 
" clip-path="url(#p6904ac6259)" style="fill: none; stroke: #000000; stroke-width: 0.109016; stroke-linecap: round"/>
    <path d="M 311.077333 145.337452 
L 315.342976 146.680689 
L 311.709001 149.287262 
z
" clip-path="url(#p6904ac6259)" style="stroke: #000000; stroke-width: 0.109016; stroke-linecap: round"/>
   </g>
   <g id="patch_28">
    <path d="M 118.541462 88.380292 
Q 199.063634 125.079461 279.570105 88.387244 
" clip-path="url(#p6904ac6259)" style="fill: none; stroke: #000000; stroke-width: 0.015433; stroke-linecap: round"/>
    <path d="M 275.100868 88.226247 
L 279.570105 88.387244 
L 276.759764 91.866035 
z
" clip-path="url(#p6904ac6259)" style="stroke: #000000; stroke-width: 0.015433; stroke-linecap: round"/>
   </g>
   <g id="patch_29">
    <path d="M 119.287327 85.958796 
Q 160.179098 90.730441 192.463671 65.193237 
" clip-path="url(#p6904ac6259)" style="fill: none; stroke: #000000; stroke-width: 0.004947; stroke-linecap: round"/>
    <path d="M 188.085709 66.106172 
L 192.463671 65.193237 
L 190.567242 69.243368 
z
" clip-path="url(#p6904ac6259)" style="stroke: #000000; stroke-width: 0.004947; stroke-linecap: round"/>
   </g>
   <g id="patch_30">
    <path d="M 110.726232 67.526134 
C 123.218995 67.526134 123.218995 84.645531 110.726232 84.645531 
C 98.233468 84.645531 98.233468 67.526134 110.708519 67.526134 
" clip-path="url(#p6904ac6259)" style="fill: none; stroke: #000000; stroke-width: 0.015842; stroke-linecap: round"/>
    <path d="M 106.708519 65.526134 
L 110.708519 67.526134 
L 106.708519 69.526134 
z
" clip-path="url(#p6904ac6259)" style="stroke: #000000; stroke-width: 0.015842; stroke-linecap: round"/>
   </g>
   <g id="patch_31">
    <path d="M 103.625616 89.599218 
Q 80.308203 107.577475 75.241884 136.471565 
" clip-path="url(#p6904ac6259)" style="fill: none; stroke: #000000; stroke-width: 0.096609; stroke-linecap: round"/>
    <path d="M 77.902656 132.877084 
L 75.241884 136.471565 
L 73.962763 132.186259 
z
" clip-path="url(#p6904ac6259)" style="stroke: #000000; stroke-width: 0.096609; stroke-linecap: round"/>
   </g>
   <g id="patch_32">
    <path d="M 107.058874 92.488374 
Q 84.13118 145.170142 107.051982 197.839267 
" clip-path="url(#p6904ac6259)" style="fill: none; stroke: #000000; stroke-width: 0.012333; stroke-linecap: round"/>
    <path d="M 107.289707 193.373454 
L 107.051982 197.839267 
L 103.621967 194.969599 
z
" clip-path="url(#p6904ac6259)" style="stroke: #000000; stroke-width: 0.012333; stroke-linecap: round"/>
   </g>
   <g id="patch_33">
    <path d="M 111.578256 93.261001 
Q 121.554377 177.862466 191.774925 225.972517 
" clip-path="url(#p6904ac6259)" style="fill: none; stroke: #000000; stroke-width: 0.059944; stroke-linecap: round"/>
    <path d="M 189.605506 222.061811 
L 191.774925 225.972517 
L 187.344709 225.361629 
z
" clip-path="url(#p6904ac6259)" style="stroke: #000000; stroke-width: 0.059944; stroke-linecap: round"/>
   </g>
   <g id="patch_34">
    <path d="M 115.036959 92.154882 
Q 170.924743 186.240376 278.653245 204.357538 
" clip-path="url(#p6904ac6259)" style="fill: none; stroke: #000000; stroke-width: 0.171354; stroke-linecap: round"/>
    <path d="M 275.040328 201.721853 
L 278.653245 204.357538 
L 274.376947 205.666461 
z
" clip-path="url(#p6904ac6259)" style="stroke: #000000; stroke-width: 0.171354; stroke-linecap: round"/>
   </g>
   <g id="patch_35">
    <path d="M 81.932314 148.948367 
Q 199.063167 203.858816 315.788465 149.138717 
" clip-path="url(#p6904ac6259)" style="fill: none; stroke: #000000; stroke-width: 0.400621; stroke-linecap: round"/>
    <path d="M 311.317757 149.025695 
L 315.788465 149.138717 
L 313.015623 152.64747 
z
" clip-path="url(#p6904ac6259)" style="stroke: #000000; stroke-width: 0.400621; stroke-linecap: round"/>
   </g>
   <g id="patch_36">
    <path d="M 82.663582 146.661456 
Q 194.872817 164.606332 280.875893 90.436666 
" clip-path="url(#p6904ac6259)" style="fill: none; stroke: #000000; stroke-width: 0.060099; stroke-linecap: round"/>
    <path d="M 276.540587 91.534445 
L 280.875893 90.436666 
L 279.152933 94.563578 
z
" clip-path="url(#p6904ac6259)" style="stroke: #000000; stroke-width: 0.060099; stroke-linecap: round"/>
   </g>
   <g id="patch_37">
    <path d="M 82.689801 143.809343 
Q 155.903134 130.543431 194.693452 67.07806 
" clip-path="url(#p6904ac6259)" style="fill: none; stroke: #000000; stroke-width: 0.022418; stroke-linecap: round"/>
    <path d="M 190.900927 69.44803 
L 194.693452 67.07806 
L 194.313913 71.534062 
z
" clip-path="url(#p6904ac6259)" style="stroke: #000000; stroke-width: 0.022418; stroke-linecap: round"/>
   </g>
   <g id="patch_38">
    <path d="M 81.236389 140.218052 
Q 104.553802 122.239795 109.628695 93.296805 
" clip-path="url(#p6904ac6259)" style="fill: none; stroke: #000000; stroke-width: 0.052204; stroke-linecap: round"/>
    <path d="M 106.967924 96.891286 
L 109.628695 93.296805 
L 110.907817 97.582111 
z
" clip-path="url(#p6904ac6259)" style="stroke: #000000; stroke-width: 0.052204; stroke-linecap: round"/>
   </g>
   <g id="patch_39">
    <path d="M 74.135774 128.052342 
C 86.628538 128.052342 86.628538 145.171739 74.135774 145.171739 
C 61.64301 145.171739 61.64301 128.052342 74.109649 128.052342 
" clip-path="url(#p6904ac6259)" style="fill: none; stroke: #000000; stroke-width: 0.023366; stroke-linecap: round"/>
    <path d="M 70.109649 126.052342 
L 74.109649 128.052342 
L 70.109649 130.052342 
z
" clip-path="url(#p6904ac6259)" style="stroke: #000000; stroke-width: 0.023366; stroke-linecap: round"/>
   </g>
   <g id="patch_40">
    <path d="M 75.222452 153.761087 
Q 80.30603 182.762409 103.61934 200.739421 
" clip-path="url(#p6904ac6259)" style="fill: none; stroke: #000000; stroke-width: 0.003058; stroke-linecap: round"/>
    <path d="M 101.673001 196.713038 
L 103.61934 200.739421 
L 99.23043 199.880662 
z
" clip-path="url(#p6904ac6259)" style="stroke: #000000; stroke-width: 0.003058; stroke-linecap: round"/>
   </g>
   <g id="patch_41">
    <path d="M 78.494647 152.656907 
Q 117.298916 216.142379 190.494995 229.403721 
" clip-path="url(#p6904ac6259)" style="fill: none; stroke: #000000; stroke-width: 0.016484; stroke-linecap: round"/>
    <path d="M 186.915617 226.722665 
L 190.494995 229.403721 
L 186.202524 230.658589 
z
" clip-path="url(#p6904ac6259)" style="stroke: #000000; stroke-width: 0.016484; stroke-linecap: round"/>
   </g>
   <g id="patch_42">
    <path d="M 80.609657 150.919052 
Q 166.663627 225.132563 278.83174 207.194228 
" clip-path="url(#p6904ac6259)" style="fill: none; stroke: #000000; stroke-width: 0.037258; stroke-linecap: round"/>
    <path d="M 274.566097 205.850991 
L 278.83174 207.194228 
L 275.197765 209.800801 
z
" clip-path="url(#p6904ac6259)" style="stroke: #000000; stroke-width: 0.037258; stroke-linecap: round"/>
   </g>
   <g id="patch_43">
    <path d="M 119.254039 207.187664 
Q 231.463275 225.13254 317.501097 150.932909 
" clip-path="url(#p6904ac6259)" style="fill: none; stroke: #000000; stroke-width: 0.01906; stroke-linecap: round"/>
    <path d="M 313.165791 152.030688 
L 317.501097 150.932909 
L 315.778137 155.059821 
z
" clip-path="url(#p6904ac6259)" style="stroke: #000000; stroke-width: 0.01906; stroke-linecap: round"/>
   </g>
   <g id="patch_44">
    <path d="M 119.285429 204.38918 
Q 227.202669 186.239972 283.088955 92.156409 
" clip-path="url(#p6904ac6259)" style="fill: none; stroke: #000000; stroke-width: 0.002294; stroke-linecap: round"/>
    <path d="M 279.326632 94.574036 
L 283.088955 92.156409 
L 282.765663 96.616844 
z
" clip-path="url(#p6904ac6259)" style="stroke: #000000; stroke-width: 0.002294; stroke-linecap: round"/>
   </g>
   <g id="patch_45">
    <path d="M 117.959022 200.9399 
Q 188.235033 152.792075 198.211265 68.191252 
" clip-path="url(#p6904ac6259)" style="fill: none; stroke: #000000; stroke-width: 0.000483; stroke-linecap: round"/>
    <path d="M 195.756588 71.929508 
L 198.211265 68.191252 
L 199.729064 72.397948 
z
" clip-path="url(#p6904ac6259)" style="stroke: #000000; stroke-width: 0.000483; stroke-linecap: round"/>
   </g>
   <g id="patch_46">
    <path d="M 114.393589 197.855105 
Q 137.321284 145.173336 114.395968 92.493841 
" clip-path="url(#p6904ac6259)" style="fill: none; stroke: #000000; stroke-width: 0.002217; stroke-linecap: round"/>
    <path d="M 114.158243 96.959654 
L 114.395968 92.493841 
L 117.825983 95.363509 
z
" clip-path="url(#p6904ac6259)" style="stroke: #000000; stroke-width: 0.002217; stroke-linecap: round"/>
   </g>
   <g id="patch_47">
    <path d="M 109.639553 197.1086 
Q 104.555975 168.107278 81.253169 150.138365 
" clip-path="url(#p6904ac6259)" style="fill: none; stroke: #000000; stroke-width: 0.014921; stroke-linecap: round"/>
    <path d="M 83.199507 154.164749 
L 81.253169 150.138365 
L 85.642079 150.997124 
z
" clip-path="url(#p6904ac6259)" style="stroke: #000000; stroke-width: 0.014921; stroke-linecap: round"/>
   </g>
   <g id="patch_48">
    <path d="M 110.726232 188.578551 
C 123.218995 188.578551 123.218995 205.697948 110.726232 205.697948 
C 98.233468 205.697948 98.233468 188.578551 110.72356 188.578551 
" clip-path="url(#p6904ac6259)" style="fill: none; stroke: #000000; stroke-width: 0.00239; stroke-linecap: round"/>
    <path d="M 106.72356 186.578551 
L 110.72356 188.578551 
L 106.72356 190.578551 
z
" clip-path="url(#p6904ac6259)" style="stroke: #000000; stroke-width: 0.00239; stroke-linecap: round"/>
   </g>
   <g id="patch_49">
    <path d="M 117.32113 211.312602 
Q 149.609974 236.853472 190.488489 232.083603 
" clip-path="url(#p6904ac6259)" style="fill: none; stroke: #000000; stroke-width: 0.011877; stroke-linecap: round"/>
    <path d="M 186.283649 230.560671 
L 190.488489 232.083603 
L 186.74724 234.533716 
z
" clip-path="url(#p6904ac6259)" style="stroke: #000000; stroke-width: 0.011877; stroke-linecap: round"/>
   </g>
   <g id="patch_50">
    <path d="M 118.541462 209.432709 
Q 199.063634 246.131878 279.552985 209.447464 
" clip-path="url(#p6904ac6259)" style="fill: none; stroke: #000000; stroke-width: 0.03226; stroke-linecap: round"/>
    <path d="M 275.083748 209.286466 
L 279.552985 209.447464 
L 276.742645 212.926255 
z
" clip-path="url(#p6904ac6259)" style="stroke: #000000; stroke-width: 0.03226; stroke-linecap: round"/>
   </g>
   <g id="patch_51">
    <path d="M 207.617438 229.406327 
Q 280.830771 216.140416 319.456288 152.944678 
" clip-path="url(#p6904ac6259)" style="fill: none; stroke: #000000; stroke-width: 0.305064; stroke-linecap: round"/>
    <path d="M 315.663763 155.314647 
L 319.456288 152.944678 
L 319.076749 157.400679 
z
" clip-path="url(#p6904ac6259)" style="stroke: #000000; stroke-width: 0.305064; stroke-linecap: round"/>
   </g>
   <g id="patch_52">
    <path d="M 206.296201 226.010676 
Q 276.572212 177.862851 286.54176 93.318709 
" clip-path="url(#p6904ac6259)" style="fill: none; stroke: #000000; stroke-width: 0.051531; stroke-linecap: round"/>
    <path d="M 284.087083 97.056966 
L 286.54176 93.318709 
L 288.059559 97.525405 
z
" clip-path="url(#p6904ac6259)" style="stroke: #000000; stroke-width: 0.051531; stroke-linecap: round"/>
   </g>
   <g id="patch_53">
    <path d="M 202.794057 222.950372 
Q 238.131954 145.170206 202.800578 67.40746 
" clip-path="url(#p6904ac6259)" style="fill: none; stroke: #000000; stroke-width: 0.017114; stroke-linecap: round"/>
    <path d="M 202.634327 71.876505 
L 202.800578 67.40746 
L 206.276063 70.221888 
z
" clip-path="url(#p6904ac6259)" style="stroke: #000000; stroke-width: 0.017114; stroke-linecap: round"/>
   </g>
   <g id="patch_54">
    <path d="M 198.211386 222.153254 
Q 188.235266 137.551789 117.997358 89.429844 
" clip-path="url(#p6904ac6259)" style="fill: none; stroke: #000000; stroke-width: 0.041122; stroke-linecap: round"/>
    <path d="M 120.166777 93.34055 
L 117.997358 89.429844 
L 122.427574 90.040732 
z
" clip-path="url(#p6904ac6259)" style="stroke: #000000; stroke-width: 0.041122; stroke-linecap: round"/>
   </g>
   <g id="patch_55">
    <path d="M 194.704538 223.283557 
Q 155.900269 159.798084 82.705632 146.537004 
" clip-path="url(#p6904ac6259)" style="fill: none; stroke: #000000; stroke-width: 0.017795; stroke-linecap: round"/>
    <path d="M 86.28501 149.21806 
L 82.705632 146.537004 
L 86.998103 145.282135 
z
" clip-path="url(#p6904ac6259)" style="stroke: #000000; stroke-width: 0.017795; stroke-linecap: round"/>
   </g>
   <g id="patch_56">
    <path d="M 192.468512 225.15407 
Q 160.179668 199.6132 119.288729 204.384519 
" clip-path="url(#p6904ac6259)" style="fill: none; stroke: #000000; stroke-width: 0.000689; stroke-linecap: round"/>
    <path d="M 123.493569 205.90745 
L 119.288729 204.384519 
L 123.029979 201.934406 
z
" clip-path="url(#p6904ac6259)" style="stroke: #000000; stroke-width: 0.000689; stroke-linecap: round"/>
   </g>
   <g id="patch_57">
    <path d="M 199.063411 213.649327 
C 211.556174 213.649327 211.556174 230.768724 199.063411 230.768724 
C 186.570647 230.768724 186.570647 213.649327 199.051416 213.649327 
" clip-path="url(#p6904ac6259)" style="fill: none; stroke: #000000; stroke-width: 0.010728; stroke-linecap: round"/>
    <path d="M 195.051416 211.649327 
L 199.051416 213.649327 
L 195.051416 215.649327 
z
" clip-path="url(#p6904ac6259)" style="stroke: #000000; stroke-width: 0.010728; stroke-linecap: round"/>
   </g>
   <g id="patch_58">
    <path d="M 207.624506 232.08199 
Q 248.516277 236.853634 280.775778 211.336264 
" clip-path="url(#p6904ac6259)" style="fill: none; stroke: #000000; stroke-width: 0.03354; stroke-linecap: round"/>
    <path d="M 276.397816 212.249198 
L 280.775778 211.336264 
L 278.879348 215.386394 
z
" clip-path="url(#p6904ac6259)" style="stroke: #000000; stroke-width: 0.03354; stroke-linecap: round"/>
   </g>
   <g id="patch_59">
    <path d="M 294.501205 200.74426 
Q 317.818618 182.766004 322.854754 154.044053 
" clip-path="url(#p6904ac6259)" style="fill: none; stroke: #000000; stroke-width: 0.252924; stroke-linecap: round"/>
    <path d="M 320.193982 157.638534 
L 322.854754 154.044053 
L 324.133876 158.329359 
z
" clip-path="url(#p6904ac6259)" style="stroke: #000000; stroke-width: 0.252924; stroke-linecap: round"/>
   </g>
   <g id="patch_60">
    <path d="M 291.067947 197.855105 
Q 313.995642 145.173336 291.085078 92.527737 
" clip-path="url(#p6904ac6259)" style="fill: none; stroke: #000000; stroke-width: 0.035282; stroke-linecap: round"/>
    <path d="M 290.847352 96.99355 
L 291.085078 92.527737 
L 294.515093 95.397406 
z
" clip-path="url(#p6904ac6259)" style="stroke: #000000; stroke-width: 0.035282; stroke-linecap: round"/>
   </g>
   <g id="patch_61">
    <path d="M 286.548565 197.082477 
Q 276.572445 112.481013 206.30956 64.341955 
" clip-path="url(#p6904ac6259)" style="fill: none; stroke: #000000; stroke-width: 0.014041; stroke-linecap: round"/>
    <path d="M 208.478979 68.252661 
L 206.30956 64.341955 
L 210.739776 64.952843 
z
" clip-path="url(#p6904ac6259)" style="stroke: #000000; stroke-width: 0.014041; stroke-linecap: round"/>
   </g>
   <g id="patch_62">
    <path d="M 283.089862 198.188597 
Q 227.202079 104.103102 119.317354 85.959667 
" clip-path="url(#p6904ac6259)" style="fill: none; stroke: #000000; stroke-width: 0.029662; stroke-linecap: round"/>
    <path d="M 122.93027 88.595352 
L 119.317354 85.959667 
L 123.593652 84.650745 
z
" clip-path="url(#p6904ac6259)" style="stroke: #000000; stroke-width: 0.029662; stroke-linecap: round"/>
   </g>
   <g id="patch_63">
    <path d="M 280.926707 199.950635 
Q 194.872737 125.737124 82.880823 143.647281 
" clip-path="url(#p6904ac6259)" style="fill: none; stroke: #000000; stroke-width: 0.196858; stroke-linecap: round"/>
    <path d="M 87.146467 144.990517 
L 82.880823 143.647281 
L 86.514799 141.040708 
z
" clip-path="url(#p6904ac6259)" style="stroke: #000000; stroke-width: 0.196858; stroke-linecap: round"/>
   </g>
   <g id="patch_64">
    <path d="M 279.585359 201.963187 
Q 199.063188 165.264018 118.573782 201.948457 
" clip-path="url(#p6904ac6259)" style="fill: none; stroke: #000000; stroke-width: 0.032207; stroke-linecap: round"/>
    <path d="M 123.043019 202.109454 
L 118.573782 201.948457 
L 121.384122 198.469666 
z
" clip-path="url(#p6904ac6259)" style="stroke: #000000; stroke-width: 0.032207; stroke-linecap: round"/>
   </g>
   <g id="patch_65">
    <path d="M 278.839494 204.384682 
Q 237.947723 199.613038 205.810211 225.033915 
" clip-path="url(#p6904ac6259)" style="fill: none; stroke: #000000; stroke-width: 0.172658; stroke-linecap: round"/>
    <path d="M 210.188173 224.120981 
L 205.810211 225.033915 
L 207.706641 220.983785 
z
" clip-path="url(#p6904ac6259)" style="stroke: #000000; stroke-width: 0.172658; stroke-linecap: round"/>
   </g>
   <g id="patch_66">
    <path d="M 287.40059 188.578551 
C 299.893353 188.578551 299.893353 205.697948 287.40059 205.697948 
C 274.907826 205.697948 274.907826 188.578551 286.930355 188.578551 
" clip-path="url(#p6904ac6259)" style="fill: none; stroke: #000000; stroke-width: 0.420591; stroke-linecap: round"/>
    <path d="M 282.930355 186.578551 
L 286.930355 188.578551 
L 282.930355 190.578551 
z
" clip-path="url(#p6904ac6259)" style="stroke: #000000; stroke-width: 0.420591; stroke-linecap: round"/>
   </g>
   <g id="matplotlib.axis_1">
    <g id="xtick_1"/>
    <g id="xtick_2"/>
    <g id="xtick_3"/>
    <g id="xtick_4"/>
    <g id="xtick_5"/>
    <g id="xtick_6"/>
   </g>
   <g id="matplotlib.axis_2">
    <g id="ytick_1"/>
    <g id="ytick_2"/>
    <g id="ytick_3"/>
    <g id="ytick_4"/>
    <g id="ytick_5"/>
    <g id="ytick_6"/>
   </g>
   <g id="PathCollection_1">
    <path d="M 323.991047 156.819374 
C 327.080036 156.819374 330.042924 155.592106 332.227169 153.407861 
C 334.411414 151.223616 335.638683 148.260728 335.638683 145.171739 
C 335.638683 142.08275 334.411414 139.119863 332.227169 136.935618 
C 330.042924 134.751373 327.080036 133.524104 323.991047 133.524104 
C 320.902059 133.524104 317.939171 134.751373 315.754926 136.935618 
C 313.570681 139.119863 312.343412 142.08275 312.343412 145.171739 
C 312.343412 148.260728 313.570681 151.223616 315.754926 153.407861 
C 317.939171 155.592106 320.902059 156.819374 323.991047 156.819374 
z
" clip-path="url(#p6904ac6259)" style="fill: #add8e6; stroke: #add8e6"/>
    <path d="M 287.40059 89.053573 
C 288.569616 89.053573 289.69092 88.589114 290.517546 87.762487 
C 291.344173 86.935861 291.808632 85.814557 291.808632 84.645531 
C 291.808632 83.476504 291.344173 82.355201 290.517546 81.528574 
C 289.69092 80.701948 288.569616 80.237489 287.40059 80.237489 
C 286.231563 80.237489 285.11026 80.701948 284.283633 81.528574 
C 283.457007 82.355201 282.992548 83.476504 282.992548 84.645531 
C 282.992548 85.814557 283.457007 86.935861 284.283633 87.762487 
C 285.11026 88.589114 286.231563 89.053573 287.40059 89.053573 
z
" clip-path="url(#p6904ac6259)" style="fill: #add8e6; stroke: #add8e6"/>
    <path d="M 199.063411 62.188213 
C 199.756508 62.188213 200.421311 61.912843 200.911405 61.422749 
C 201.401499 60.932655 201.676869 60.267852 201.676869 59.574754 
C 201.676869 58.881657 201.401499 58.216854 200.911405 57.72676 
C 200.421311 57.236666 199.756508 56.961296 199.063411 56.961296 
C 198.370313 56.961296 197.70551 57.236666 197.215416 57.72676 
C 196.725322 58.216854 196.449952 58.881657 196.449952 59.574754 
C 196.449952 60.267852 196.725322 60.932655 197.215416 61.422749 
C 197.70551 61.912843 198.370313 62.188213 199.063411 62.188213 
z
" clip-path="url(#p6904ac6259)" style="fill: #add8e6; stroke: #add8e6"/>
    <path d="M 110.726232 88.54055 
C 111.759203 88.54055 112.750005 88.130147 113.480426 87.399726 
C 114.210847 86.669305 114.621251 85.678502 114.621251 84.645531 
C 114.621251 83.61256 114.210847 82.621757 113.480426 81.891336 
C 112.750005 81.160915 111.759203 80.750511 110.726232 80.750511 
C 109.69326 80.750511 108.702458 81.160915 107.972037 81.891336 
C 107.241616 82.621757 106.831212 83.61256 106.831212 84.645531 
C 106.831212 85.678502 107.241616 86.669305 107.972037 87.399726 
C 108.702458 88.130147 109.69326 88.54055 110.726232 88.54055 
z
" clip-path="url(#p6904ac6259)" style="fill: #add8e6; stroke: #add8e6"/>
    <path d="M 74.135774 149.557466 
C 75.298882 149.557466 76.414509 149.095358 77.236951 148.272916 
C 78.059392 147.450474 78.5215 146.334848 78.5215 145.171739 
C 78.5215 144.008631 78.059392 142.893004 77.236951 142.070562 
C 76.414509 141.248121 75.298882 140.786013 74.135774 140.786013 
C 72.972666 140.786013 71.857039 141.248121 71.034597 142.070562 
C 70.212155 142.893004 69.750048 144.008631 69.750048 145.171739 
C 69.750048 146.334848 70.212155 147.450474 71.034597 148.272916 
C 71.857039 149.095358 72.972666 149.557466 74.135774 149.557466 
z
" clip-path="url(#p6904ac6259)" style="fill: #add8e6; stroke: #add8e6"/>
    <path d="M 110.726232 207.332554 
C 111.159734 207.332554 111.57554 207.160322 111.882073 206.853789 
C 112.188606 206.547256 112.360838 206.131451 112.360838 205.697948 
C 112.360838 205.264445 112.188606 204.848639 111.882073 204.542106 
C 111.57554 204.235574 111.159734 204.063341 110.726232 204.063341 
C 110.292729 204.063341 109.876923 204.235574 109.57039 204.542106 
C 109.263857 204.848639 109.091625 205.264445 109.091625 205.697948 
C 109.091625 206.131451 109.263857 206.547256 109.57039 206.853789 
C 109.876923 207.160322 110.292729 207.332554 110.726232 207.332554 
z
" clip-path="url(#p6904ac6259)" style="fill: #add8e6; stroke: #add8e6"/>
    <path d="M 199.063411 234.631944 
C 200.087949 234.631944 201.070662 234.224891 201.79512 233.500433 
C 202.519577 232.775976 202.926631 231.793262 202.926631 230.768724 
C 202.926631 229.744186 202.519577 228.761473 201.79512 228.037015 
C 201.070662 227.312557 200.087949 226.905504 199.063411 226.905504 
C 198.038873 226.905504 197.056159 227.312557 196.331702 228.037015 
C 195.607244 228.761473 195.200191 229.744186 195.200191 230.768724 
C 195.200191 231.793262 195.607244 232.775976 196.331702 233.500433 
C 197.056159 234.224891 198.038873 234.631944 199.063411 234.631944 
z
" clip-path="url(#p6904ac6259)" style="fill: #add8e6; stroke: #add8e6"/>
    <path d="M 287.40059 211.70373 
C 288.993342 211.70373 290.521073 211.070922 291.647319 209.944677 
C 292.773565 208.818431 293.406372 207.2907 293.406372 205.697948 
C 293.406372 204.105196 292.773565 202.577464 291.647319 201.451219 
C 290.521073 200.324973 288.993342 199.692166 287.40059 199.692166 
C 285.807838 199.692166 284.280107 200.324973 283.153861 201.451219 
C 282.027615 202.577464 281.394808 204.105196 281.394808 205.697948 
C 281.394808 207.2907 282.027615 208.818431 283.153861 209.944677 
C 284.280107 211.070922 285.807838 211.70373 287.40059 211.70373 
z
" clip-path="url(#p6904ac6259)" style="fill: #add8e6; stroke: #add8e6"/>
   </g>
   <g id="patch_67">
    <path d="M 7.2 273.312 
L 7.2 7.2 
" style="fill: none; stroke: #000000; stroke-width: 0.8; stroke-linejoin: miter; stroke-linecap: square"/>
   </g>
   <g id="patch_68">
    <path d="M 364.32 273.312 
L 364.32 7.2 
" style="fill: none; stroke: #000000; stroke-width: 0.8; stroke-linejoin: miter; stroke-linecap: square"/>
   </g>
   <g id="patch_69">
    <path d="M 7.2 273.312 
L 364.32 273.312 
" style="fill: none; stroke: #000000; stroke-width: 0.8; stroke-linejoin: miter; stroke-linecap: square"/>
   </g>
   <g id="patch_70">
    <path d="M 7.2 7.2 
L 364.32 7.2 
" style="fill: none; stroke: #000000; stroke-width: 0.8; stroke-linejoin: miter; stroke-linecap: square"/>
   </g>
   <g id="text_1">
    <g clip-path="url(#p6904ac6259)">
     <!-- 111 -->
     <g transform="translate(312.538547 148.482989) scale(0.12 -0.12)">
      <defs>
       <path id="DejaVuSans-31" d="M 794 531 
L 1825 531 
L 1825 4091 
L 703 3866 
L 703 4441 
L 1819 4666 
L 2450 4666 
L 2450 531 
L 3481 531 
L 3481 0 
L 794 0 
L 794 531 
z
" transform="scale(0.015625)"/>
      </defs>
      <use xlink:href="#DejaVuSans-31"/>
      <use xlink:href="#DejaVuSans-31" x="63.623047"/>
      <use xlink:href="#DejaVuSans-31" x="127.246094"/>
     </g>
    </g>
   </g>
   <g id="text_2">
    <g clip-path="url(#p6904ac6259)">
     <!-- 112 -->
     <g transform="translate(275.94809 87.956781) scale(0.12 -0.12)">
      <defs>
       <path id="DejaVuSans-32" d="M 1228 531 
L 3431 531 
L 3431 0 
L 469 0 
L 469 531 
Q 828 903 1448 1529 
Q 2069 2156 2228 2338 
Q 2531 2678 2651 2914 
Q 2772 3150 2772 3378 
Q 2772 3750 2511 3984 
Q 2250 4219 1831 4219 
Q 1534 4219 1204 4116 
Q 875 4013 500 3803 
L 500 4441 
Q 881 4594 1212 4672 
Q 1544 4750 1819 4750 
Q 2544 4750 2975 4387 
Q 3406 4025 3406 3419 
Q 3406 3131 3298 2873 
Q 3191 2616 2906 2266 
Q 2828 2175 2409 1742 
Q 1991 1309 1228 531 
z
" transform="scale(0.015625)"/>
      </defs>
      <use xlink:href="#DejaVuSans-31"/>
      <use xlink:href="#DejaVuSans-31" x="63.623047"/>
      <use xlink:href="#DejaVuSans-32" x="127.246094"/>
     </g>
    </g>
   </g>
   <g id="text_3">
    <g clip-path="url(#p6904ac6259)">
     <!-- 121 -->
     <g transform="translate(187.610911 62.886004) scale(0.12 -0.12)">
      <use xlink:href="#DejaVuSans-31"/>
      <use xlink:href="#DejaVuSans-32" x="63.623047"/>
      <use xlink:href="#DejaVuSans-31" x="127.246094"/>
     </g>
    </g>
   </g>
   <g id="text_4">
    <g clip-path="url(#p6904ac6259)">
     <!-- 122 -->
     <g transform="translate(99.273732 87.956781) scale(0.12 -0.12)">
      <use xlink:href="#DejaVuSans-31"/>
      <use xlink:href="#DejaVuSans-32" x="63.623047"/>
      <use xlink:href="#DejaVuSans-32" x="127.246094"/>
     </g>
    </g>
   </g>
   <g id="text_5">
    <g clip-path="url(#p6904ac6259)">
     <!-- 211 -->
     <g transform="translate(62.683274 148.482989) scale(0.12 -0.12)">
      <use xlink:href="#DejaVuSans-32"/>
      <use xlink:href="#DejaVuSans-31" x="63.623047"/>
      <use xlink:href="#DejaVuSans-31" x="127.246094"/>
     </g>
    </g>
   </g>
   <g id="text_6">
    <g clip-path="url(#p6904ac6259)">
     <!-- 212 -->
     <g transform="translate(99.273732 209.009198) scale(0.12 -0.12)">
      <use xlink:href="#DejaVuSans-32"/>
      <use xlink:href="#DejaVuSans-31" x="63.623047"/>
      <use xlink:href="#DejaVuSans-32" x="127.246094"/>
     </g>
    </g>
   </g>
   <g id="text_7">
    <g clip-path="url(#p6904ac6259)">
     <!-- 221 -->
     <g transform="translate(187.610911 234.079974) scale(0.12 -0.12)">
      <use xlink:href="#DejaVuSans-32"/>
      <use xlink:href="#DejaVuSans-32" x="63.623047"/>
      <use xlink:href="#DejaVuSans-31" x="127.246094"/>
     </g>
    </g>
   </g>
   <g id="text_8">
    <g clip-path="url(#p6904ac6259)">
     <!-- 222 -->
     <g transform="translate(275.94809 209.009198) scale(0.12 -0.12)">
      <use xlink:href="#DejaVuSans-32"/>
      <use xlink:href="#DejaVuSans-32" x="63.623047"/>
      <use xlink:href="#DejaVuSans-32" x="127.246094"/>
     </g>
    </g>
   </g>
  </g>
 </g>
 <defs>
  <clipPath id="p6904ac6259">
   <rect x="7.2" y="7.2" width="357.12" height="266.112"/>
  </clipPath>
 </defs>
</svg>
