<?xml version="1.0" encoding="utf-8" standalone="no"?>
<!DOCTYPE svg PUBLIC "-//W3C//DTD SVG 1.1//EN"
  "http://www.w3.org/Graphics/SVG/1.1/DTD/svg11.dtd">
<svg xmlns:xlink="http://www.w3.org/1999/xlink" width="371.52pt" height="280.512pt" viewBox="0 0 371.52 280.512" xmlns="http://www.w3.org/2000/svg" version="1.1">
 <metadata>
  <rdf:RDF xmlns:dc="http://purl.org/dc/elements/1.1/" xmlns:cc="http://creativecommons.org/ns#" xmlns:rdf="http://www.w3.org/1999/02/22-rdf-syntax-ns#">
   <cc:Work>
    <dc:type rdf:resource="http://purl.org/dc/dcmitype/StillImage"/>
    <dc:date>2025-01-13T11:16:59.181444</dc:date>
    <dc:format>image/svg+xml</dc:format>
    <dc:creator>
     <cc:Agent>
      <dc:title>Matplotlib v3.9.2, https://matplotlib.org/</dc:title>
     </cc:Agent>
    </dc:creator>
   </cc:Work>
  </rdf:RDF>
 </metadata>
 <defs>
  <style type="text/css">*{stroke-linejoin: round; stroke-linecap: butt}</style>
 </defs>
 <g id="figure_1">
  <g id="patch_1">
   <path d="M 0 280.512 
L 371.52 280.512 
L 371.52 0 
L 0 0 
L 0 280.512 
z
" style="fill: none"/>
  </g>
  <g id="axes_1">
   <g id="patch_2">
    <path d="M 7.2 273.312 
L 364.32 273.312 
L 364.32 7.2 
L 7.2 7.2 
L 7.2 273.312 
z
" style="fill: none"/>
   </g>
   <g id="patch_3">
    <path d="M 325.073817 128.063648 
C 337.594168 128.063648 337.594168 145.184824 325.073817 145.184824 
C 312.553465 145.184824 312.553465 128.063648 324.98934 128.063648 
" clip-path="url(#p00f7e47721)" style="fill: none; stroke: #000000; stroke-width: 0.075558; stroke-linecap: round"/>
    <path d="M 320.98934 126.063648 
L 324.98934 128.063648 
L 320.98934 130.063648 
z
" clip-path="url(#p00f7e47721)" style="stroke: #000000; stroke-width: 0.075558; stroke-linecap: round"/>
   </g>
   <g id="patch_4">
    <path d="M 323.978411 136.590758 
Q 318.863707 107.570771 295.509575 89.600431 
" clip-path="url(#p00f7e47721)" style="fill: none"/>
    <path d="M 297.460041 93.624817 
L 295.509575 89.600431 
L 299.899363 90.45469 
z
" clip-path="url(#p00f7e47721)"/>
   </g>
   <g id="patch_5">
    <path d="M 320.708853 137.705413 
Q 281.779932 74.145125 208.434594 60.934278 
" clip-path="url(#p00f7e47721)" style="fill: none; stroke: #000000; stroke-width: 0.007446; stroke-linecap: round"/>
    <path d="M 212.016714 63.611668 
L 208.434594 60.934278 
L 212.725778 59.675016 
z
" clip-path="url(#p00f7e47721)" style="stroke: #000000; stroke-width: 0.007446; stroke-linecap: round"/>
   </g>
   <g id="patch_6">
    <path d="M 318.594804 139.439058 
Q 232.314077 65.105393 119.868732 83.157053 
" clip-path="url(#p00f7e47721)" style="fill: none"/>
    <path d="M 124.135178 84.497738 
L 119.868732 83.157053 
L 123.501147 80.548307 
z
" clip-path="url(#p00f7e47721)"/>
   </g>
   <g id="patch_7">
    <path d="M 317.282985 141.410605 
Q 199.871274 86.357741 82.470974 141.404345 
" clip-path="url(#p00f7e47721)" style="fill: none; stroke: #000000; stroke-width: 0.011273; stroke-linecap: round"/>
    <path d="M 86.941689 141.517052 
L 82.470974 141.404345 
L 85.243569 137.895397 
z
" clip-path="url(#p00f7e47721)" style="stroke: #000000; stroke-width: 0.011273; stroke-linecap: round"/>
   </g>
   <g id="patch_8">
    <path d="M 316.544101 143.689708 
Q 204.098643 125.637651 117.827401 199.962652 
" clip-path="url(#p00f7e47721)" style="fill: none; stroke: #000000; stroke-width: 0.011331; stroke-linecap: round"/>
    <path d="M 122.163261 198.867062 
L 117.827401 199.962652 
L 119.552445 195.83661 
z
" clip-path="url(#p00f7e47721)" style="stroke: #000000; stroke-width: 0.011331; stroke-linecap: round"/>
   </g>
   <g id="patch_9">
    <path d="M 316.52029 146.538222 
Q 243.166156 159.749662 204.236632 223.309068 
" clip-path="url(#p00f7e47721)" style="fill: none"/>
    <path d="M 208.031373 220.942648 
L 204.236632 223.309068 
L 204.62034 218.853423 
z
" clip-path="url(#p00f7e47721)"/>
   </g>
   <g id="patch_10">
    <path d="M 317.963849 150.135201 
Q 294.610868 168.106238 289.497316 197.126924 
" clip-path="url(#p00f7e47721)" style="fill: none"/>
    <path d="M 292.161095 193.534671 
L 289.497316 197.126924 
L 288.221781 192.840549 
z
" clip-path="url(#p00f7e47721)"/>
   </g>
   <g id="patch_11">
    <path d="M 289.497962 93.246389 
Q 294.612666 122.266377 317.930907 140.2091 
" clip-path="url(#p00f7e47721)" style="fill: none; stroke: #000000; stroke-width: 0.040505; stroke-linecap: round"/>
    <path d="M 315.980441 136.184714 
L 317.930907 140.2091 
L 313.541119 139.354841 
z
" clip-path="url(#p00f7e47721)" style="stroke: #000000; stroke-width: 0.040505; stroke-linecap: round"/>
   </g>
   <g id="patch_12">
    <path d="M 288.402557 67.531147 
C 300.922908 67.531147 300.922908 84.652324 288.402557 84.652324 
C 275.882205 84.652324 275.882205 67.531147 288.398491 67.531147 
" clip-path="url(#p00f7e47721)" style="fill: none; stroke: #000000; stroke-width: 0.003636; stroke-linecap: round"/>
    <path d="M 284.398491 65.531147 
L 288.398491 67.531147 
L 284.398491 69.531147 
z
" clip-path="url(#p00f7e47721)" style="stroke: #000000; stroke-width: 0.003636; stroke-linecap: round"/>
   </g>
   <g id="patch_13">
    <path d="M 281.805334 79.041104 
Q 249.422832 53.446953 208.577574 58.243061 
" clip-path="url(#p00f7e47721)" style="fill: none; stroke: #000000; stroke-width: 0.13426; stroke-linecap: round"/>
    <path d="M 212.78352 59.762934 
L 208.577574 58.243061 
L 212.317039 55.790227 
z
" clip-path="url(#p00f7e47721)" style="stroke: #000000; stroke-width: 0.13426; stroke-linecap: round"/>
   </g>
   <g id="patch_14">
    <path d="M 280.586278 80.916704 
Q 199.86823 44.120872 119.150183 80.918594 
" clip-path="url(#p00f7e47721)" style="fill: none"/>
    <path d="M 123.619435 81.079176 
L 119.150183 80.918594 
L 121.960199 77.439542 
z
" clip-path="url(#p00f7e47721)"/>
   </g>
   <g id="patch_15">
    <path d="M 279.872841 83.157208 
Q 167.427383 65.105151 81.146543 139.43842 
" clip-path="url(#p00f7e47721)" style="fill: none"/>
    <path d="M 85.482403 138.34283 
L 81.146543 139.43842 
L 82.871587 135.312378 
z
" clip-path="url(#p00f7e47721)"/>
   </g>
   <g id="patch_16">
    <path d="M 279.843161 85.952325 
Q 171.725221 104.020802 115.655529 198.212828 
" clip-path="url(#p00f7e47721)" style="fill: none"/>
    <path d="M 119.420107 195.798713 
L 115.655529 198.212828 
L 115.982984 193.752696 
z
" clip-path="url(#p00f7e47721)"/>
   </g>
   <g id="patch_17">
    <path d="M 281.165236 89.403576 
Q 210.790949 137.519904 200.730369 222.174945 
" clip-path="url(#p00f7e47721)" style="fill: none"/>
    <path d="M 203.18844 218.438919 
L 200.730369 222.174945 
L 199.216391 217.966873 
z
" clip-path="url(#p00f7e47721)"/>
   </g>
   <g id="patch_18">
    <path d="M 284.734818 92.495982 
Q 261.80474 145.183227 284.733428 197.870472 
" clip-path="url(#p00f7e47721)" style="fill: none"/>
    <path d="M 284.971153 193.404658 
L 284.733428 197.870472 
L 281.303413 195.000803 
z
" clip-path="url(#p00f7e47721)"/>
   </g>
   <g id="patch_19">
    <path d="M 204.235267 67.058352 
Q 243.164188 130.61864 316.444793 143.817827 
" clip-path="url(#p00f7e47721)" style="fill: none; stroke: #000000; stroke-width: 0.066276; stroke-linecap: round"/>
    <path d="M 312.862673 141.140438 
L 316.444793 143.817827 
L 312.153609 145.07709 
z
" clip-path="url(#p00f7e47721)" style="stroke: #000000; stroke-width: 0.066276; stroke-linecap: round"/>
   </g>
   <g id="patch_20">
    <path d="M 206.467526 65.190161 
Q 238.850028 90.784313 279.814697 85.974182 
" clip-path="url(#p00f7e47721)" style="fill: none; stroke: #000000; stroke-width: 0.026722; stroke-linecap: round"/>
    <path d="M 275.608751 84.45431 
L 279.814697 85.974182 
L 276.075231 88.427016 
z
" clip-path="url(#p00f7e47721)" style="stroke: #000000; stroke-width: 0.026722; stroke-linecap: round"/>
   </g>
   <g id="patch_21">
    <path d="M 199.870304 42.457765 
C 212.390655 42.457765 212.390655 59.578941 199.870304 59.578941 
C 187.349952 59.578941 187.349952 42.457765 199.675864 42.457765 
" clip-path="url(#p00f7e47721)" style="fill: none; stroke: #000000; stroke-width: 0.173912; stroke-linecap: round"/>
    <path d="M 195.675864 40.457765 
L 199.675864 42.457765 
L 195.675864 44.457765 
z
" clip-path="url(#p00f7e47721)" style="stroke: #000000; stroke-width: 0.173912; stroke-linecap: round"/>
   </g>
   <g id="patch_22">
    <path d="M 191.310484 58.260375 
Q 150.316314 53.447366 117.933983 79.042123 
" clip-path="url(#p00f7e47721)" style="fill: none"/>
    <path d="M 122.312288 78.130834 
L 117.933983 79.042123 
L 119.831934 74.992706 
z
" clip-path="url(#p00f7e47721)"/>
   </g>
   <g id="patch_23">
    <path d="M 191.316777 60.93234 
Q 117.962643 74.143779 79.192731 137.44259 
" clip-path="url(#p00f7e47721)" style="fill: none; stroke: #000000; stroke-width: 0.273328; stroke-linecap: round"/>
    <path d="M 82.987471 135.07617 
L 79.192731 137.44259 
L 79.576439 132.986946 
z
" clip-path="url(#p00f7e47721)" style="stroke: #000000; stroke-width: 0.273328; stroke-linecap: round"/>
   </g>
   <g id="patch_24">
    <path d="M 192.632983 64.330193 
Q 122.258696 112.446521 112.630785 193.460856 
" clip-path="url(#p00f7e47721)" style="fill: none; stroke: #000000; stroke-width: 3.279261; stroke-linecap: round"/>
    <path d="M 115.088856 189.724831 
L 112.630785 193.460856 
L 111.116807 189.252784 
z
" clip-path="url(#p00f7e47721)" style="stroke: #000000; stroke-width: 3.279261; stroke-linecap: round"/>
   </g>
   <g id="patch_25">
    <path d="M 196.141644 67.392882 
Q 160.796569 145.18362 196.134974 222.962086 
" clip-path="url(#p00f7e47721)" style="fill: none; stroke: #000000; stroke-width: 0.012057; stroke-linecap: round"/>
    <path d="M 196.30123 218.493041 
L 196.134974 222.962086 
L 192.659492 220.147654 
z
" clip-path="url(#p00f7e47721)" style="stroke: #000000; stroke-width: 0.012057; stroke-linecap: round"/>
   </g>
   <g id="patch_26">
    <path d="M 200.730247 68.193679 
Q 210.790462 152.848941 281.164384 200.96549 
" clip-path="url(#p00f7e47721)" style="fill: none"/>
    <path d="M 278.991235 197.056856 
L 281.164384 200.96549 
L 276.733587 200.358829 
z
" clip-path="url(#p00f7e47721)"/>
   </g>
   <g id="patch_27">
    <path d="M 117.817063 90.39809 
Q 204.09779 164.731755 316.543136 146.680095 
" clip-path="url(#p00f7e47721)" style="fill: none"/>
    <path d="M 312.276689 145.33941 
L 316.543136 146.680095 
L 312.91072 149.288841 
z
" clip-path="url(#p00f7e47721)"/>
   </g>
   <g id="patch_28">
    <path d="M 119.154329 88.387943 
Q 199.872377 125.183776 280.590425 88.386053 
" clip-path="url(#p00f7e47721)" style="fill: none"/>
    <path d="M 276.121172 88.225472 
L 280.590425 88.386053 
L 277.780408 91.865106 
z
" clip-path="url(#p00f7e47721)"/>
   </g>
   <g id="patch_29">
    <path d="M 119.89787 85.97089 
Q 160.89204 90.783899 193.271181 65.191663 
" clip-path="url(#p00f7e47721)" style="fill: none; stroke: #000000; stroke-width: 0.003636; stroke-linecap: round"/>
    <path d="M 188.892877 66.102952 
L 193.271181 65.191663 
L 191.37323 69.24108 
z
" clip-path="url(#p00f7e47721)" style="stroke: #000000; stroke-width: 0.003636; stroke-linecap: round"/>
   </g>
   <g id="patch_30">
    <path d="M 111.338051 67.531147 
C 123.858402 67.531147 123.858402 84.652324 111.338051 84.652324 
C 98.817699 84.652324 98.817699 67.531147 111.338051 67.531147 
" clip-path="url(#p00f7e47721)" style="fill: none"/>
    <path d="M 107.338051 65.531147 
L 111.338051 67.531147 
L 107.338051 69.531147 
z
" clip-path="url(#p00f7e47721)"/>
   </g>
   <g id="patch_31">
    <path d="M 104.228083 89.602701 
Q 80.875102 107.573738 75.76155 136.594424 
" clip-path="url(#p00f7e47721)" style="fill: none"/>
    <path d="M 78.425329 133.00217 
L 75.76155 136.594424 
L 74.486015 132.308049 
z
" clip-path="url(#p00f7e47721)"/>
   </g>
   <g id="patch_32">
    <path d="M 107.670312 92.495982 
Q 84.740234 145.183227 107.668922 197.870472 
" clip-path="url(#p00f7e47721)" style="fill: none"/>
    <path d="M 107.906647 193.404658 
L 107.668922 197.870472 
L 104.238907 195.000803 
z
" clip-path="url(#p00f7e47721)"/>
   </g>
   <g id="patch_33">
    <path d="M 112.197994 93.267061 
Q 122.258209 177.922323 192.632131 226.038873 
" clip-path="url(#p00f7e47721)" style="fill: none"/>
    <path d="M 190.458982 222.130238 
L 192.632131 226.038873 
L 188.201334 225.432211 
z
" clip-path="url(#p00f7e47721)"/>
   </g>
   <g id="patch_34">
    <path d="M 115.655386 92.15658 
Q 171.725012 186.348703 279.842885 204.417277 
" clip-path="url(#p00f7e47721)" style="fill: none"/>
    <path d="M 276.227266 201.785301 
L 279.842885 204.417277 
L 275.567933 205.730587 
z
" clip-path="url(#p00f7e47721)"/>
   </g>
   <g id="patch_35">
    <path d="M 82.457622 148.959043 
Q 199.869333 204.011907 317.208507 148.993964 
" clip-path="url(#p00f7e47721)" style="fill: none; stroke: #000000; stroke-width: 0.071657; stroke-linecap: round"/>
    <path d="M 312.737792 148.881257 
L 317.208507 148.993964 
L 314.435912 152.502912 
z
" clip-path="url(#p00f7e47721)" style="stroke: #000000; stroke-width: 0.071657; stroke-linecap: round"/>
   </g>
   <g id="patch_36">
    <path d="M 83.196506 146.67994 
Q 195.641964 164.731997 281.913064 90.407119 
" clip-path="url(#p00f7e47721)" style="fill: none; stroke: #000000; stroke-width: 0.011498; stroke-linecap: round"/>
    <path d="M 277.577204 91.502709 
L 281.913064 90.407119 
L 280.18802 94.533161 
z
" clip-path="url(#p00f7e47721)" style="stroke: #000000; stroke-width: 0.011498; stroke-linecap: round"/>
   </g>
   <g id="patch_37">
    <path d="M 83.220317 143.831426 
Q 156.574451 130.619986 195.503975 67.06058 
" clip-path="url(#p00f7e47721)" style="fill: none"/>
    <path d="M 191.709235 69.427 
L 195.503975 67.06058 
L 195.120267 71.516225 
z
" clip-path="url(#p00f7e47721)"/>
   </g>
   <g id="patch_38">
    <path d="M 81.776759 140.234447 
Q 105.129739 122.26341 110.243291 93.242724 
" clip-path="url(#p00f7e47721)" style="fill: none"/>
    <path d="M 107.579512 96.834978 
L 110.243291 93.242724 
L 111.518826 97.529099 
z
" clip-path="url(#p00f7e47721)"/>
   </g>
   <g id="patch_39">
    <path d="M 74.666791 128.063648 
C 87.187142 128.063648 87.187142 145.184824 74.666791 145.184824 
C 62.146439 145.184824 62.146439 128.063648 74.607464 128.063648 
" clip-path="url(#p00f7e47721)" style="fill: none; stroke: #000000; stroke-width: 0.053063; stroke-linecap: round"/>
    <path d="M 70.607464 126.063648 
L 74.607464 128.063648 
L 70.607464 130.063648 
z
" clip-path="url(#p00f7e47721)" style="stroke: #000000; stroke-width: 0.053063; stroke-linecap: round"/>
   </g>
   <g id="patch_40">
    <path d="M 75.762196 153.77889 
Q 80.8769 182.798877 104.100353 200.668663 
" clip-path="url(#p00f7e47721)" style="fill: none; stroke: #000000; stroke-width: 0.147481; stroke-linecap: round"/>
    <path d="M 102.149887 196.644277 
L 104.100353 200.668663 
L 99.710564 199.814404 
z
" clip-path="url(#p00f7e47721)" style="stroke: #000000; stroke-width: 0.147481; stroke-linecap: round"/>
   </g>
   <g id="patch_41">
    <path d="M 79.031754 152.664235 
Q 117.960675 216.224523 191.314206 229.436845 
" clip-path="url(#p00f7e47721)" style="fill: none"/>
    <path d="M 187.732086 226.759456 
L 191.314206 229.436845 
L 187.023022 230.696108 
z
" clip-path="url(#p00f7e47721)"/>
   </g>
   <g id="patch_42">
    <path d="M 81.145803 150.93059 
Q 167.42653 225.264255 279.871876 207.212596 
" clip-path="url(#p00f7e47721)" style="fill: none"/>
    <path d="M 275.605429 205.871911 
L 279.871876 207.212596 
L 276.23946 209.821342 
z
" clip-path="url(#p00f7e47721)"/>
   </g>
   <g id="patch_43">
    <path d="M 119.867766 207.212441 
Q 232.313224 225.264497 318.522559 150.992832 
" clip-path="url(#p00f7e47721)" style="fill: none; stroke: #000000; stroke-width: 0.084418; stroke-linecap: round"/>
    <path d="M 314.186698 152.088422 
L 318.522559 150.992832 
L 316.797515 155.118874 
z
" clip-path="url(#p00f7e47721)" style="stroke: #000000; stroke-width: 0.084418; stroke-linecap: round"/>
   </g>
   <g id="patch_44">
    <path d="M 119.897446 204.417323 
Q 228.015386 186.348846 284.002634 92.29532 
" clip-path="url(#p00f7e47721)" style="fill: none; stroke: #000000; stroke-width: 0.144164; stroke-linecap: round"/>
    <path d="M 280.238055 94.709435 
L 284.002634 92.29532 
L 283.675179 96.755451 
z
" clip-path="url(#p00f7e47721)" style="stroke: #000000; stroke-width: 0.144164; stroke-linecap: round"/>
   </g>
   <g id="patch_45">
    <path d="M 118.575371 200.966073 
Q 188.949658 152.849744 198.568922 71.908174 
" clip-path="url(#p00f7e47721)" style="fill: none; stroke: #000000; stroke-width: 3.344802; stroke-linecap: round"/>
    <path d="M 196.110851 75.6442 
L 198.568922 71.908174 
L 200.0829 76.116246 
z
" clip-path="url(#p00f7e47721)" style="stroke: #000000; stroke-width: 3.344802; stroke-linecap: round"/>
   </g>
   <g id="patch_46">
    <path d="M 115.005789 197.873666 
Q 137.935867 145.186421 115.008801 92.502904 
" clip-path="url(#p00f7e47721)" style="fill: none; stroke: #000000; stroke-width: 0.003636; stroke-linecap: round"/>
    <path d="M 114.771076 96.968718 
L 115.008801 92.502904 
L 118.438817 95.372573 
z
" clip-path="url(#p00f7e47721)" style="stroke: #000000; stroke-width: 0.003636; stroke-linecap: round"/>
   </g>
   <g id="patch_47">
    <path d="M 110.242645 197.123259 
Q 105.127941 168.103271 81.773809 150.132931 
" clip-path="url(#p00f7e47721)" style="fill: none"/>
    <path d="M 83.724275 154.157317 
L 81.773809 150.132931 
L 86.163597 150.98719 
z
" clip-path="url(#p00f7e47721)"/>
   </g>
   <g id="patch_48">
    <path d="M 111.338051 188.596148 
C 123.858402 188.596148 123.858402 205.717324 111.338051 205.717324 
C 98.817699 205.717324 98.817699 188.596148 111.329084 188.596148 
" clip-path="url(#p00f7e47721)" style="fill: none; stroke: #000000; stroke-width: 0.00802; stroke-linecap: round"/>
    <path d="M 107.329084 186.596148 
L 111.329084 188.596148 
L 107.329084 190.596148 
z
" clip-path="url(#p00f7e47721)" style="stroke: #000000; stroke-width: 0.00802; stroke-linecap: round"/>
   </g>
   <g id="patch_49">
    <path d="M 117.935273 211.328544 
Q 150.317775 236.922695 191.312117 232.109081 
" clip-path="url(#p00f7e47721)" style="fill: none"/>
    <path d="M 187.10617 230.589209 
L 191.312117 232.109081 
L 187.572651 234.561915 
z
" clip-path="url(#p00f7e47721)"/>
   </g>
   <g id="patch_50">
    <path d="M 119.154329 209.452944 
Q 199.872377 246.248776 280.590425 209.451054 
" clip-path="url(#p00f7e47721)" style="fill: none"/>
    <path d="M 276.121172 209.290472 
L 280.590425 209.451054 
L 277.780408 212.930106 
z
" clip-path="url(#p00f7e47721)"/>
   </g>
   <g id="patch_51">
    <path d="M 208.42383 229.437309 
Q 281.777964 216.225869 320.707488 152.666463 
" clip-path="url(#p00f7e47721)" style="fill: none"/>
    <path d="M 316.912747 155.032883 
L 320.707488 152.666463 
L 320.32378 157.122108 
z
" clip-path="url(#p00f7e47721)"/>
   </g>
   <g id="patch_52">
    <path d="M 207.107624 226.039455 
Q 277.481911 177.923127 287.542491 93.268086 
" clip-path="url(#p00f7e47721)" style="fill: none"/>
    <path d="M 285.08442 97.004111 
L 287.542491 93.268086 
L 289.056469 97.476158 
z
" clip-path="url(#p00f7e47721)"/>
   </g>
   <g id="patch_53">
    <path d="M 203.598963 222.976766 
Q 238.944038 145.186028 203.600057 67.395289 
" clip-path="url(#p00f7e47721)" style="fill: none"/>
    <path d="M 203.433801 71.864334 
L 203.600057 67.395289 
L 207.075539 70.209721 
z
" clip-path="url(#p00f7e47721)"/>
   </g>
   <g id="patch_54">
    <path d="M 199.01036 222.175969 
Q 188.950145 137.520707 118.576223 89.404158 
" clip-path="url(#p00f7e47721)" style="fill: none"/>
    <path d="M 120.749372 93.312792 
L 118.576223 89.404158 
L 123.00702 90.010819 
z
" clip-path="url(#p00f7e47721)"/>
   </g>
   <g id="patch_55">
    <path d="M 195.50534 223.311296 
Q 156.576419 159.751008 83.222888 146.538685 
" clip-path="url(#p00f7e47721)" style="fill: none"/>
    <path d="M 86.805008 149.216075 
L 83.222888 146.538685 
L 87.514072 145.279423 
z
" clip-path="url(#p00f7e47721)"/>
   </g>
   <g id="patch_56">
    <path d="M 193.273081 225.179487 
Q 160.890579 199.585335 119.909626 204.397378 
" clip-path="url(#p00f7e47721)" style="fill: none; stroke: #000000; stroke-width: 0.012057; stroke-linecap: round"/>
    <path d="M 124.115573 205.91725 
L 119.909626 204.397378 
L 123.649092 201.944544 
z
" clip-path="url(#p00f7e47721)" style="stroke: #000000; stroke-width: 0.012057; stroke-linecap: round"/>
   </g>
   <g id="patch_57">
    <path d="M 199.870304 213.66953 
C 212.390655 213.66953 212.390655 230.790707 199.870304 230.790707 
C 187.349952 230.790707 187.349952 213.66953 199.870304 213.66953 
" clip-path="url(#p00f7e47721)" style="fill: none"/>
    <path d="M 195.870304 211.66953 
L 199.870304 213.66953 
L 195.870304 215.66953 
z
" clip-path="url(#p00f7e47721)"/>
   </g>
   <g id="patch_58">
    <path d="M 208.430123 232.109273 
Q 249.424293 236.922282 281.806624 211.327525 
" clip-path="url(#p00f7e47721)" style="fill: none"/>
    <path d="M 277.428319 212.238814 
L 281.806624 211.327525 
L 279.908673 215.376942 
z
" clip-path="url(#p00f7e47721)"/>
   </g>
   <g id="patch_59">
    <path d="M 295.512525 200.766947 
Q 318.865505 182.79591 323.979057 153.775224 
" clip-path="url(#p00f7e47721)" style="fill: none"/>
    <path d="M 321.315278 157.367478 
L 323.979057 153.775224 
L 325.254592 158.061599 
z
" clip-path="url(#p00f7e47721)"/>
   </g>
   <g id="patch_60">
    <path d="M 292.070295 197.873666 
Q 315.000373 145.186421 292.071685 92.499177 
" clip-path="url(#p00f7e47721)" style="fill: none"/>
    <path d="M 291.83396 96.96499 
L 292.071685 92.499177 
L 295.501701 95.368845 
z
" clip-path="url(#p00f7e47721)"/>
   </g>
   <g id="patch_61">
    <path d="M 287.542613 197.102587 
Q 277.482398 112.447325 207.108476 64.330775 
" clip-path="url(#p00f7e47721)" style="fill: none"/>
    <path d="M 209.281625 68.23941 
L 207.108476 64.330775 
L 211.539273 64.937437 
z
" clip-path="url(#p00f7e47721)"/>
   </g>
   <g id="patch_62">
    <path d="M 284.085221 198.213068 
Q 228.015595 104.020945 119.897722 85.952371 
" clip-path="url(#p00f7e47721)" style="fill: none"/>
    <path d="M 123.513341 88.584347 
L 119.897722 85.952371 
L 124.172674 84.639061 
z
" clip-path="url(#p00f7e47721)"/>
   </g>
   <g id="patch_63">
    <path d="M 281.923544 199.971558 
Q 195.642817 125.637893 83.197472 143.689553 
" clip-path="url(#p00f7e47721)" style="fill: none"/>
    <path d="M 87.463918 145.030238 
L 83.197472 143.689553 
L 86.829887 141.080807 
z
" clip-path="url(#p00f7e47721)"/>
   </g>
   <g id="patch_64">
    <path d="M 280.586278 201.981705 
Q 199.86823 165.185872 119.150183 201.983595 
" clip-path="url(#p00f7e47721)" style="fill: none"/>
    <path d="M 123.619435 202.144176 
L 119.150183 201.983595 
L 121.960199 198.504542 
z
" clip-path="url(#p00f7e47721)"/>
   </g>
   <g id="patch_65">
    <path d="M 279.842737 204.398758 
Q 238.848567 199.585749 206.466236 225.180506 
" clip-path="url(#p00f7e47721)" style="fill: none"/>
    <path d="M 210.844541 224.269217 
L 206.466236 225.180506 
L 208.364187 221.131089 
z
" clip-path="url(#p00f7e47721)"/>
   </g>
   <g id="patch_66">
    <path d="M 288.402557 188.596148 
C 300.922908 188.596148 300.922908 205.717324 288.402557 205.717324 
C 275.882205 205.717324 275.882205 188.596148 288.402557 188.596148 
" clip-path="url(#p00f7e47721)" style="fill: none"/>
    <path d="M 284.402557 186.596148 
L 288.402557 188.596148 
L 284.402557 190.596148 
z
" clip-path="url(#p00f7e47721)"/>
   </g>
   <g id="matplotlib.axis_1">
    <g id="xtick_1"/>
    <g id="xtick_2"/>
    <g id="xtick_3"/>
    <g id="xtick_4"/>
    <g id="xtick_5"/>
    <g id="xtick_6"/>
   </g>
   <g id="matplotlib.axis_2">
    <g id="ytick_1"/>
    <g id="ytick_2"/>
    <g id="ytick_3"/>
    <g id="ytick_4"/>
    <g id="ytick_5"/>
    <g id="ytick_6"/>
   </g>
   <g id="PathCollection_1">
    <path d="M 325.073817 147.001478 
C 325.555599 147.001478 326.017713 146.810064 326.358385 146.469392 
C 326.699056 146.128721 326.89047 145.666606 326.89047 145.184824 
C 326.89047 144.703042 326.699056 144.240927 326.358385 143.900256 
C 326.017713 143.559584 325.555599 143.36817 325.073817 143.36817 
C 324.592034 143.36817 324.12992 143.559584 323.789248 143.900256 
C 323.448577 144.240927 323.257163 144.703042 323.257163 145.184824 
C 323.257163 145.666606 323.448577 146.128721 323.789248 146.469392 
C 324.12992 146.810064 324.592034 147.001478 325.073817 147.001478 
z
" clip-path="url(#p00f7e47721)" style="fill: #add8e6; stroke: #add8e6"/>
    <path d="M 288.402557 87.013479 
C 289.028742 87.013479 289.629365 86.764693 290.072145 86.321912 
C 290.514925 85.879132 290.763711 85.278509 290.763711 84.652324 
C 290.763711 84.026138 290.514925 83.425515 290.072145 82.982735 
C 289.629365 82.539955 289.028742 82.291169 288.402557 82.291169 
C 287.776371 82.291169 287.175748 82.539955 286.732968 82.982735 
C 286.290188 83.425515 286.041402 84.026138 286.041402 84.652324 
C 286.041402 85.278509 286.290188 85.879132 286.732968 86.321912 
C 287.175748 86.764693 287.776371 87.013479 288.402557 87.013479 
z
" clip-path="url(#p00f7e47721)" style="fill: #add8e6; stroke: #add8e6"/>
    <path d="M 199.870304 70.521343 
C 202.772262 70.521343 205.555755 69.368382 207.60775 67.316388 
C 209.659745 65.264393 210.812705 62.4809 210.812705 59.578941 
C 210.812705 56.676983 209.659745 53.89349 207.60775 51.841495 
C 205.555755 49.7895 202.772262 48.63654 199.870304 48.63654 
C 196.968345 48.63654 194.184852 49.7895 192.132857 51.841495 
C 190.080862 53.89349 188.927902 56.676983 188.927902 59.578941 
C 188.927902 62.4809 190.080862 65.264393 192.132857 67.316388 
C 194.184852 69.368382 196.968345 70.521343 199.870304 70.521343 
z
" clip-path="url(#p00f7e47721)" style="fill: #add8e6; stroke: #add8e6"/>
    <path d="M 111.338051 84.989424 
C 111.42745 84.989424 111.513201 84.953905 111.576416 84.89069 
C 111.639631 84.827474 111.67515 84.741724 111.67515 84.652324 
C 111.67515 84.562924 111.639631 84.477174 111.576416 84.413958 
C 111.513201 84.350743 111.42745 84.315224 111.338051 84.315224 
C 111.248651 84.315224 111.1629 84.350743 111.099685 84.413958 
C 111.03647 84.477174 111.000951 84.562924 111.000951 84.652324 
C 111.000951 84.741724 111.03647 84.827474 111.099685 84.89069 
C 111.1629 84.953905 111.248651 84.989424 111.338051 84.989424 
z
" clip-path="url(#p00f7e47721)" style="fill: #add8e6; stroke: #add8e6"/>
    <path d="M 74.666791 148.162342 
C 75.456438 148.162342 76.213849 147.848612 76.772214 147.290247 
C 77.330578 146.731882 77.644309 145.974471 77.644309 145.184824 
C 77.644309 144.395177 77.330578 143.637766 76.772214 143.079401 
C 76.213849 142.521036 75.456438 142.207306 74.666791 142.207306 
C 73.877144 142.207306 73.119732 142.521036 72.561367 143.079401 
C 72.003003 143.637766 71.689273 144.395177 71.689273 145.184824 
C 71.689273 145.974471 72.003003 146.731882 72.561367 147.290247 
C 73.119732 147.848612 73.877144 148.162342 74.666791 148.162342 
z
" clip-path="url(#p00f7e47721)" style="fill: #add8e6; stroke: #add8e6"/>
    <path d="M 111.338051 216.301866 
C 114.145104 216.301866 116.837565 215.186612 118.822452 213.201725 
C 120.807338 211.216839 121.922592 208.524377 121.922592 205.717324 
C 121.922592 202.910271 120.807338 200.217809 118.822452 198.232923 
C 116.837565 196.248037 114.145104 195.132783 111.338051 195.132783 
C 108.530997 195.132783 105.838536 196.248037 103.853649 198.232923 
C 101.868763 200.217809 100.753509 202.910271 100.753509 205.717324 
C 100.753509 208.524377 101.868763 211.216839 103.853649 213.201725 
C 105.838536 215.186612 108.530997 216.301866 111.338051 216.301866 
z
" clip-path="url(#p00f7e47721)" style="fill: #add8e6; stroke: #add8e6"/>
    <path d="M 199.870304 231.404542 
C 200.033095 231.404542 200.18924 231.339865 200.304351 231.224754 
C 200.419462 231.109643 200.484139 230.953498 200.484139 230.790707 
C 200.484139 230.627916 200.419462 230.47177 200.304351 230.356659 
C 200.18924 230.241549 200.033095 230.176871 199.870304 230.176871 
C 199.707512 230.176871 199.551367 230.241549 199.436256 230.356659 
C 199.321145 230.47177 199.256468 230.627916 199.256468 230.790707 
C 199.256468 230.953498 199.321145 231.109643 199.436256 231.224754 
C 199.551367 231.339865 199.707512 231.404542 199.870304 231.404542 
z
" clip-path="url(#p00f7e47721)" style="fill: #add8e6; stroke: #add8e6"/>
    <path d="M 288.402557 205.717324 
C 288.402557 205.717324 288.402557 205.717324 288.402557 205.717324 
C 288.402557 205.717324 288.402557 205.717324 288.402557 205.717324 
C 288.402557 205.717324 288.402557 205.717324 288.402557 205.717324 
C 288.402557 205.717324 288.402557 205.717324 288.402557 205.717324 
C 288.402557 205.717324 288.402557 205.717324 288.402557 205.717324 
C 288.402557 205.717324 288.402557 205.717324 288.402557 205.717324 
C 288.402557 205.717324 288.402557 205.717324 288.402557 205.717324 
C 288.402557 205.717324 288.402557 205.717324 288.402557 205.717324 
z
" clip-path="url(#p00f7e47721)" style="fill: #add8e6; stroke: #add8e6"/>
   </g>
   <g id="patch_67">
    <path d="M 7.2 273.312 
L 7.2 7.2 
" style="fill: none; stroke: #000000; stroke-width: 0.8; stroke-linejoin: miter; stroke-linecap: square"/>
   </g>
   <g id="patch_68">
    <path d="M 364.32 273.312 
L 364.32 7.2 
" style="fill: none; stroke: #000000; stroke-width: 0.8; stroke-linejoin: miter; stroke-linecap: square"/>
   </g>
   <g id="patch_69">
    <path d="M 7.2 273.312 
L 364.32 273.312 
" style="fill: none; stroke: #000000; stroke-width: 0.8; stroke-linejoin: miter; stroke-linecap: square"/>
   </g>
   <g id="patch_70">
    <path d="M 7.2 7.2 
L 364.32 7.2 
" style="fill: none; stroke: #000000; stroke-width: 0.8; stroke-linejoin: miter; stroke-linecap: square"/>
   </g>
   <g id="text_1">
    <g clip-path="url(#p00f7e47721)">
     <!-- 111 -->
     <g transform="translate(313.621317 148.496074) scale(0.12 -0.12)">
      <defs>
       <path id="DejaVuSans-31" d="M 794 531 
L 1825 531 
L 1825 4091 
L 703 3866 
L 703 4441 
L 1819 4666 
L 2450 4666 
L 2450 531 
L 3481 531 
L 3481 0 
L 794 0 
L 794 531 
z
" transform="scale(0.015625)"/>
      </defs>
      <use xlink:href="#DejaVuSans-31"/>
      <use xlink:href="#DejaVuSans-31" x="63.623047"/>
      <use xlink:href="#DejaVuSans-31" x="127.246094"/>
     </g>
    </g>
   </g>
   <g id="text_2">
    <g clip-path="url(#p00f7e47721)">
     <!-- 112 -->
     <g transform="translate(276.950057 87.963574) scale(0.12 -0.12)">
      <defs>
       <path id="DejaVuSans-32" d="M 1228 531 
L 3431 531 
L 3431 0 
L 469 0 
L 469 531 
Q 828 903 1448 1529 
Q 2069 2156 2228 2338 
Q 2531 2678 2651 2914 
Q 2772 3150 2772 3378 
Q 2772 3750 2511 3984 
Q 2250 4219 1831 4219 
Q 1534 4219 1204 4116 
Q 875 4013 500 3803 
L 500 4441 
Q 881 4594 1212 4672 
Q 1544 4750 1819 4750 
Q 2544 4750 2975 4387 
Q 3406 4025 3406 3419 
Q 3406 3131 3298 2873 
Q 3191 2616 2906 2266 
Q 2828 2175 2409 1742 
Q 1991 1309 1228 531 
z
" transform="scale(0.015625)"/>
      </defs>
      <use xlink:href="#DejaVuSans-31"/>
      <use xlink:href="#DejaVuSans-31" x="63.623047"/>
      <use xlink:href="#DejaVuSans-32" x="127.246094"/>
     </g>
    </g>
   </g>
   <g id="text_3">
    <g clip-path="url(#p00f7e47721)">
     <!-- 121 -->
     <g transform="translate(188.417804 62.890191) scale(0.12 -0.12)">
      <use xlink:href="#DejaVuSans-31"/>
      <use xlink:href="#DejaVuSans-32" x="63.623047"/>
      <use xlink:href="#DejaVuSans-31" x="127.246094"/>
     </g>
    </g>
   </g>
   <g id="text_4">
    <g clip-path="url(#p00f7e47721)">
     <!-- 122 -->
     <g transform="translate(99.885551 87.963574) scale(0.12 -0.12)">
      <use xlink:href="#DejaVuSans-31"/>
      <use xlink:href="#DejaVuSans-32" x="63.623047"/>
      <use xlink:href="#DejaVuSans-32" x="127.246094"/>
     </g>
    </g>
   </g>
   <g id="text_5">
    <g clip-path="url(#p00f7e47721)">
     <!-- 211 -->
     <g transform="translate(63.214291 148.496074) scale(0.12 -0.12)">
      <use xlink:href="#DejaVuSans-32"/>
      <use xlink:href="#DejaVuSans-31" x="63.623047"/>
      <use xlink:href="#DejaVuSans-31" x="127.246094"/>
     </g>
    </g>
   </g>
   <g id="text_6">
    <g clip-path="url(#p00f7e47721)">
     <!-- 212 -->
     <g transform="translate(99.885551 209.028574) scale(0.12 -0.12)">
      <use xlink:href="#DejaVuSans-32"/>
      <use xlink:href="#DejaVuSans-31" x="63.623047"/>
      <use xlink:href="#DejaVuSans-32" x="127.246094"/>
     </g>
    </g>
   </g>
   <g id="text_7">
    <g clip-path="url(#p00f7e47721)">
     <!-- 221 -->
     <g transform="translate(188.417804 234.101957) scale(0.12 -0.12)">
      <use xlink:href="#DejaVuSans-32"/>
      <use xlink:href="#DejaVuSans-32" x="63.623047"/>
      <use xlink:href="#DejaVuSans-31" x="127.246094"/>
     </g>
    </g>
   </g>
   <g id="text_8">
    <g clip-path="url(#p00f7e47721)">
     <!-- 222 -->
     <g transform="translate(276.950057 209.028574) scale(0.12 -0.12)">
      <use xlink:href="#DejaVuSans-32"/>
      <use xlink:href="#DejaVuSans-32" x="63.623047"/>
      <use xlink:href="#DejaVuSans-32" x="127.246094"/>
     </g>
    </g>
   </g>
  </g>
 </g>
 <defs>
  <clipPath id="p00f7e47721">
   <rect x="7.2" y="7.2" width="357.12" height="266.112"/>
  </clipPath>
 </defs>
</svg>
