<?xml version="1.0" encoding="utf-8" standalone="no"?>
<!DOCTYPE svg PUBLIC "-//W3C//DTD SVG 1.1//EN"
  "http://www.w3.org/Graphics/SVG/1.1/DTD/svg11.dtd">
<svg xmlns:xlink="http://www.w3.org/1999/xlink" width="371.52pt" height="280.512pt" viewBox="0 0 371.52 280.512" xmlns="http://www.w3.org/2000/svg" version="1.1">
 <metadata>
  <rdf:RDF xmlns:dc="http://purl.org/dc/elements/1.1/" xmlns:cc="http://creativecommons.org/ns#" xmlns:rdf="http://www.w3.org/1999/02/22-rdf-syntax-ns#">
   <cc:Work>
    <dc:type rdf:resource="http://purl.org/dc/dcmitype/StillImage"/>
    <dc:date>2025-01-08T11:54:54.959901</dc:date>
    <dc:format>image/svg+xml</dc:format>
    <dc:creator>
     <cc:Agent>
      <dc:title>Matplotlib v3.9.2, https://matplotlib.org/</dc:title>
     </cc:Agent>
    </dc:creator>
   </cc:Work>
  </rdf:RDF>
 </metadata>
 <defs>
  <style type="text/css">*{stroke-linejoin: round; stroke-linecap: butt}</style>
 </defs>
 <g id="figure_1">
  <g id="patch_1">
   <path d="M 0 280.512 
L 371.52 280.512 
L 371.52 0 
L 0 0 
L 0 280.512 
z
" style="fill: none"/>
  </g>
  <g id="axes_1">
   <g id="patch_2">
    <path d="M 7.2 273.312 
L 364.32 273.312 
L 364.32 7.2 
L 7.2 7.2 
L 7.2 273.312 
z
" style="fill: none"/>
   </g>
   <g id="patch_3">
    <path d="M 325.152618 128.003661 
C 337.654816 128.003661 337.654816 145.115395 325.152618 145.115395 
C 312.650421 145.115395 312.650421 128.003661 322.088124 128.003661 
" clip-path="url(#p5b2cc0ad48)" style="fill: none; stroke: #000000; stroke-width: 2.740967; stroke-linecap: round"/>
    <path d="M 318.088124 126.003661 
L 322.088124 128.003661 
L 318.088124 130.003661 
z
" clip-path="url(#p5b2cc0ad48)" style="stroke: #000000; stroke-width: 2.740967; stroke-linecap: round"/>
   </g>
   <g id="patch_4">
    <path d="M 324.061503 136.527706 
Q 318.963121 107.532736 295.779868 89.675691 
" clip-path="url(#p5b2cc0ad48)" style="fill: none; stroke: #000000; stroke-width: 0.15739; stroke-linecap: round"/>
    <path d="M 297.72835 93.701038 
L 295.779868 89.675691 
L 300.169235 90.532113 
z
" clip-path="url(#p5b2cc0ad48)" style="stroke: #000000; stroke-width: 0.15739; stroke-linecap: round"/>
   </g>
   <g id="patch_5">
    <path d="M 320.790576 137.634217 
Q 281.936232 74.143208 208.879194 60.949249 
" clip-path="url(#p5b2cc0ad48)" style="fill: none; stroke: #000000; stroke-width: 0.176381; stroke-linecap: round"/>
    <path d="M 212.46007 63.628302 
L 208.879194 60.949249 
L 213.170962 59.69198 
z
" clip-path="url(#p5b2cc0ad48)" style="stroke: #000000; stroke-width: 0.176381; stroke-linecap: round"/>
   </g>
   <g id="patch_6">
    <path d="M 318.672612 139.366303 
Q 232.537931 65.130589 120.324235 83.112547 
" clip-path="url(#p5b2cc0ad48)" style="fill: none; stroke: #000000; stroke-width: 0.058475; stroke-linecap: round"/>
    <path d="M 124.590303 84.454437 
L 120.324235 83.112547 
L 123.957388 80.504827 
z
" clip-path="url(#p5b2cc0ad48)" style="stroke: #000000; stroke-width: 0.058475; stroke-linecap: round"/>
   </g>
   <g id="patch_7">
    <path d="M 317.357822 141.339493 
Q 200.131131 86.380538 83.10072 141.247017 
" clip-path="url(#p5b2cc0ad48)" style="fill: none; stroke: #000000; stroke-width: 0.193893; stroke-linecap: round"/>
    <path d="M 87.57143 141.359934 
L 83.10072 141.247017 
L 85.87348 137.738199 
z
" clip-path="url(#p5b2cc0ad48)" style="stroke: #000000; stroke-width: 0.193893; stroke-linecap: round"/>
   </g>
   <g id="patch_8">
    <path d="M 316.619606 143.621993 
Q 204.341368 125.629728 118.26239 199.81748 
" clip-path="url(#p5b2cc0ad48)" style="fill: none; stroke: #000000; stroke-width: 0.06576; stroke-linecap: round"/>
    <path d="M 122.598042 198.721069 
L 118.26239 199.81748 
L 119.986653 195.691111 
z
" clip-path="url(#p5b2cc0ad48)" style="stroke: #000000; stroke-width: 0.06576; stroke-linecap: round"/>
   </g>
   <g id="patch_9">
    <path d="M 316.599641 146.472599 
Q 243.348187 159.701087 204.534522 223.124528 
" clip-path="url(#p5b2cc0ad48)" style="fill: none; stroke: #000000; stroke-width: 0.070311; stroke-linecap: round"/>
    <path d="M 208.328378 220.75669 
L 204.534522 223.124528 
L 204.916566 218.66874 
z
" clip-path="url(#p5b2cc0ad48)" style="stroke: #000000; stroke-width: 0.070311; stroke-linecap: round"/>
   </g>
   <g id="patch_10">
    <path d="M 318.050258 150.064678 
Q 294.726203 168.028259 289.636803 196.963388 
" clip-path="url(#p5b2cc0ad48)" style="fill: none; stroke: #000000; stroke-width: 0.053578; stroke-linecap: round"/>
    <path d="M 292.299488 193.370325 
L 289.636803 196.963388 
L 288.359963 192.677402 
z
" clip-path="url(#p5b2cc0ad48)" style="stroke: #000000; stroke-width: 0.053578; stroke-linecap: round"/>
   </g>
   <g id="patch_11">
    <path d="M 289.625646 93.203968 
Q 294.724028 122.198938 317.86302 140.02189 
" clip-path="url(#p5b2cc0ad48)" style="fill: none; stroke: #000000; stroke-width: 0.207361; stroke-linecap: round"/>
    <path d="M 315.914537 135.996544 
L 317.86302 140.02189 
L 313.473653 139.165469 
z
" clip-path="url(#p5b2cc0ad48)" style="stroke: #000000; stroke-width: 0.207361; stroke-linecap: round"/>
   </g>
   <g id="patch_12">
    <path d="M 288.53453 67.504545 
C 301.036728 67.504545 301.036728 84.616279 288.53453 84.616279 
C 276.032333 84.616279 276.032333 67.504545 288.444402 67.504545 
" clip-path="url(#p5b2cc0ad48)" style="fill: none; stroke: #000000; stroke-width: 0.080613; stroke-linecap: round"/>
    <path d="M 284.444402 65.504545 
L 288.444402 67.504545 
L 284.444402 69.504545 
z
" clip-path="url(#p5b2cc0ad48)" style="stroke: #000000; stroke-width: 0.080613; stroke-linecap: round"/>
   </g>
   <g id="patch_13">
    <path d="M 281.938232 79.003737 
Q 249.616131 53.450408 208.766169 58.231788 
" clip-path="url(#p5b2cc0ad48)" style="fill: none; stroke: #000000; stroke-width: 0.066149; stroke-linecap: round"/>
    <path d="M 212.971555 59.753212 
L 208.766169 58.231788 
L 212.50654 55.780334 
z
" clip-path="url(#p5b2cc0ad48)" style="stroke: #000000; stroke-width: 0.066149; stroke-linecap: round"/>
   </g>
   <g id="patch_14">
    <path d="M 280.718794 80.881157 
Q 200.130666 44.149468 119.589991 80.85951 
" clip-path="url(#p5b2cc0ad48)" style="fill: none; stroke: #000000; stroke-width: 0.046643; stroke-linecap: round"/>
    <path d="M 124.059232 81.020405 
L 119.589991 80.85951 
L 122.400251 77.380654 
z
" clip-path="url(#p5b2cc0ad48)" style="stroke: #000000; stroke-width: 0.046643; stroke-linecap: round"/>
   </g>
   <g id="patch_15">
    <path d="M 280.001518 83.122877 
Q 167.72328 65.130612 81.661296 139.303717 
" clip-path="url(#p5b2cc0ad48)" style="fill: none; stroke: #000000; stroke-width: 0.085827; stroke-linecap: round"/>
    <path d="M 85.996948 138.207307 
L 81.661296 139.303717 
L 83.385559 135.177349 
z
" clip-path="url(#p5b2cc0ad48)" style="stroke: #000000; stroke-width: 0.085827; stroke-linecap: round"/>
   </g>
   <g id="patch_16">
    <path d="M 279.971425 85.920732 
Q 172.003982 104.01615 116.073518 198.053982 
" clip-path="url(#p5b2cc0ad48)" style="fill: none; stroke: #000000; stroke-width: 0.053583; stroke-linecap: round"/>
    <path d="M 119.837197 195.638464 
L 116.073518 198.053982 
L 116.399312 193.593728 
z
" clip-path="url(#p5b2cc0ad48)" style="stroke: #000000; stroke-width: 0.053583; stroke-linecap: round"/>
   </g>
   <g id="patch_17">
    <path d="M 281.295393 89.37311 
Q 211.009104 137.475605 200.995241 221.991849 
" clip-path="url(#p5b2cc0ad48)" style="fill: none; stroke: #000000; stroke-width: 0.05642; stroke-linecap: round"/>
    <path d="M 203.451994 218.254957 
L 200.995241 221.991849 
L 199.479779 217.784311 
z
" clip-path="url(#p5b2cc0ad48)" style="stroke: #000000; stroke-width: 0.05642; stroke-linecap: round"/>
   </g>
   <g id="patch_18">
    <path d="M 284.865601 92.462997 
Q 261.952879 145.117747 284.834067 197.695334 
" clip-path="url(#p5b2cc0ad48)" style="fill: none; stroke: #000000; stroke-width: 0.075269; stroke-linecap: round"/>
    <path d="M 285.071777 193.22952 
L 284.834067 197.695334 
L 281.404042 194.825678 
z
" clip-path="url(#p5b2cc0ad48)" style="stroke: #000000; stroke-width: 0.075269; stroke-linecap: round"/>
   </g>
   <g id="patch_19">
    <path d="M 204.492688 67.037902 
Q 243.347032 130.528912 316.351461 143.71337 
" clip-path="url(#p5b2cc0ad48)" style="fill: none; stroke: #000000; stroke-width: 0.224197; stroke-linecap: round"/>
    <path d="M 312.770585 141.034316 
L 316.351461 143.71337 
L 312.059693 144.970639 
z
" clip-path="url(#p5b2cc0ad48)" style="stroke: #000000; stroke-width: 0.224197; stroke-linecap: round"/>
   </g>
   <g id="patch_20">
    <path d="M 206.726944 65.169267 
Q 239.049045 90.722596 279.88962 85.942315 
" clip-path="url(#p5b2cc0ad48)" style="fill: none; stroke: #000000; stroke-width: 0.074602; stroke-linecap: round"/>
    <path d="M 275.684234 84.420891 
L 279.88962 85.942315 
L 276.149249 88.393769 
z
" clip-path="url(#p5b2cc0ad48)" style="stroke: #000000; stroke-width: 0.074602; stroke-linecap: round"/>
   </g>
   <g id="patch_21">
    <path d="M 200.130645 42.444991 
C 212.632843 42.444991 212.632843 59.556725 200.130645 59.556725 
C 187.628448 59.556725 187.628448 42.444991 200.032478 42.444991 
" clip-path="url(#p5b2cc0ad48)" style="fill: none; stroke: #000000; stroke-width: 0.087804; stroke-linecap: round"/>
    <path d="M 196.032478 40.444991 
L 200.032478 42.444991 
L 196.032478 44.444991 
z
" clip-path="url(#p5b2cc0ad48)" style="stroke: #000000; stroke-width: 0.087804; stroke-linecap: round"/>
   </g>
   <g id="patch_22">
    <path d="M 191.570297 58.240587 
Q 150.646699 53.449972 118.378377 78.960005 
" clip-path="url(#p5b2cc0ad48)" style="fill: none; stroke: #000000; stroke-width: 0.061523; stroke-linecap: round"/>
    <path d="M 122.756588 78.048265 
L 118.378377 78.960005 
L 120.275912 74.910392 
z
" clip-path="url(#p5b2cc0ad48)" style="stroke: #000000; stroke-width: 0.061523; stroke-linecap: round"/>
   </g>
   <g id="patch_23">
    <path d="M 191.577668 60.913929 
Q 118.326214 74.142417 79.522373 137.549805 
" clip-path="url(#p5b2cc0ad48)" style="fill: none; stroke: #000000; stroke-width: 0.087144; stroke-linecap: round"/>
    <path d="M 83.316229 135.181967 
L 79.522373 137.549805 
L 79.904417 133.094017 
z
" clip-path="url(#p5b2cc0ad48)" style="stroke: #000000; stroke-width: 0.087144; stroke-linecap: round"/>
   </g>
   <g id="patch_24">
    <path d="M 192.891508 64.313555 
Q 122.605219 112.416051 112.592376 196.923683 
" clip-path="url(#p5b2cc0ad48)" style="fill: none; stroke: #000000; stroke-width: 0.064176; stroke-linecap: round"/>
    <path d="M 115.04913 193.186791 
L 112.592376 196.923683 
L 111.076914 192.716145 
z
" clip-path="url(#p5b2cc0ad48)" style="stroke: #000000; stroke-width: 0.064176; stroke-linecap: round"/>
   </g>
   <g id="patch_25">
    <path d="M 196.401669 67.371578 
Q 161.080722 145.114436 196.372525 222.795062 
" clip-path="url(#p5b2cc0ad48)" style="fill: none; stroke: #000000; stroke-width: 0.061137; stroke-linecap: round"/>
    <path d="M 196.538884 218.326021 
L 196.372525 222.795062 
L 192.897108 219.98055 
z
" clip-path="url(#p5b2cc0ad48)" style="stroke: #000000; stroke-width: 0.061137; stroke-linecap: round"/>
   </g>
   <g id="patch_26">
    <path d="M 200.987824 68.176341 
Q 211.009123 152.755217 281.234564 200.81605 
" clip-path="url(#p5b2cc0ad48)" style="fill: none; stroke: #000000; stroke-width: 0.065967; stroke-linecap: round"/>
    <path d="M 279.063152 196.90645 
L 281.234564 200.81605 
L 276.804037 200.207419 
z
" clip-path="url(#p5b2cc0ad48)" style="stroke: #000000; stroke-width: 0.065967; stroke-linecap: round"/>
   </g>
   <g id="patch_27">
    <path d="M 118.206767 90.365371 
Q 204.341448 164.601084 316.533132 146.622654 
" clip-path="url(#p5b2cc0ad48)" style="fill: none; stroke: #000000; stroke-width: 0.078414; stroke-linecap: round"/>
    <path d="M 312.267065 145.280764 
L 316.533132 146.622654 
L 312.89998 149.230374 
z
" clip-path="url(#p5b2cc0ad48)" style="stroke: #000000; stroke-width: 0.078414; stroke-linecap: round"/>
   </g>
   <g id="patch_28">
    <path d="M 119.542497 88.351401 
Q 200.130625 125.08309 280.659695 88.378338 
" clip-path="url(#p5b2cc0ad48)" style="fill: none; stroke: #000000; stroke-width: 0.05805; stroke-linecap: round"/>
    <path d="M 276.190455 88.217443 
L 280.659695 88.378338 
L 277.849435 91.857193 
z
" clip-path="url(#p5b2cc0ad48)" style="stroke: #000000; stroke-width: 0.05805; stroke-linecap: round"/>
   </g>
   <g id="patch_29">
    <path d="M 120.287109 85.932417 
Q 161.210707 90.723032 193.472942 65.217811 
" clip-path="url(#p5b2cc0ad48)" style="fill: none; stroke: #000000; stroke-width: 0.068463; stroke-linecap: round"/>
    <path d="M 189.094731 66.129551 
L 193.472942 65.217811 
L 191.575407 69.267424 
z
" clip-path="url(#p5b2cc0ad48)" style="stroke: #000000; stroke-width: 0.068463; stroke-linecap: round"/>
   </g>
   <g id="patch_30">
    <path d="M 111.726761 67.504545 
C 124.228958 67.504545 124.228958 84.616279 111.726761 84.616279 
C 99.224563 84.616279 99.224563 67.504545 111.649058 67.504545 
" clip-path="url(#p5b2cc0ad48)" style="fill: none; stroke: #000000; stroke-width: 0.069499; stroke-linecap: round"/>
    <path d="M 107.649058 65.504545 
L 111.649058 67.504545 
L 107.649058 69.504545 
z
" clip-path="url(#p5b2cc0ad48)" style="stroke: #000000; stroke-width: 0.069499; stroke-linecap: round"/>
   </g>
   <g id="patch_31">
    <path d="M 104.6244 89.565563 
Q 81.300345 107.529143 76.212419 136.455892 
" clip-path="url(#p5b2cc0ad48)" style="fill: none; stroke: #000000; stroke-width: 0.061188; stroke-linecap: round"/>
    <path d="M 78.875105 132.862829 
L 76.212419 136.455892 
L 74.93558 132.169905 
z
" clip-path="url(#p5b2cc0ad48)" style="stroke: #000000; stroke-width: 0.061188; stroke-linecap: round"/>
   </g>
   <g id="patch_32">
    <path d="M 108.057831 92.462997 
Q 85.145109 145.117747 108.025816 197.694226 
" clip-path="url(#p5b2cc0ad48)" style="fill: none; stroke: #000000; stroke-width: 0.07635; stroke-linecap: round"/>
    <path d="M 108.263525 193.228413 
L 108.025816 197.694226 
L 104.59579 194.824571 
z
" clip-path="url(#p5b2cc0ad48)" style="stroke: #000000; stroke-width: 0.07635; stroke-linecap: round"/>
   </g>
   <g id="patch_33">
    <path d="M 112.583939 93.235895 
Q 122.605239 177.814771 192.826897 225.873015 
" clip-path="url(#p5b2cc0ad48)" style="fill: none; stroke: #000000; stroke-width: 0.070066; stroke-linecap: round"/>
    <path d="M 190.655485 221.963416 
L 192.826897 225.873015 
L 188.39637 225.264385 
z
" clip-path="url(#p5b2cc0ad48)" style="stroke: #000000; stroke-width: 0.070066; stroke-linecap: round"/>
   </g>
   <g id="patch_34">
    <path d="M 116.043298 92.125998 
Q 172.004573 186.215044 279.866487 204.29247 
" clip-path="url(#p5b2cc0ad48)" style="fill: none; stroke: #000000; stroke-width: 0.095875; stroke-linecap: round"/>
    <path d="M 276.252094 201.658811 
L 279.866487 204.29247 
L 275.590924 205.603789 
z
" clip-path="url(#p5b2cc0ad48)" style="stroke: #000000; stroke-width: 0.095875; stroke-linecap: round"/>
   </g>
   <g id="patch_35">
    <path d="M 82.903469 148.891297 
Q 200.13016 203.850252 317.106545 149.009101 
" clip-path="url(#p5b2cc0ad48)" style="fill: none; stroke: #000000; stroke-width: 0.247263; stroke-linecap: round"/>
    <path d="M 312.635835 148.896184 
L 317.106545 149.009101 
L 314.333785 152.517919 
z
" clip-path="url(#p5b2cc0ad48)" style="stroke: #000000; stroke-width: 0.247263; stroke-linecap: round"/>
   </g>
   <g id="patch_36">
    <path d="M 83.641685 146.608797 
Q 195.919923 164.601062 281.988283 90.422462 
" clip-path="url(#p5b2cc0ad48)" style="fill: none; stroke: #000000; stroke-width: 0.078299; stroke-linecap: round"/>
    <path d="M 277.65263 91.518873 
L 281.988283 90.422462 
L 280.26402 94.54883 
z
" clip-path="url(#p5b2cc0ad48)" style="stroke: #000000; stroke-width: 0.078299; stroke-linecap: round"/>
   </g>
   <g id="patch_37">
    <path d="M 83.66165 143.75819 
Q 156.913104 130.529703 195.716032 67.123806 
" clip-path="url(#p5b2cc0ad48)" style="fill: none; stroke: #000000; stroke-width: 0.088708; stroke-linecap: round"/>
    <path d="M 191.922176 69.491644 
L 195.716032 67.123806 
L 195.333989 71.579593 
z
" clip-path="url(#p5b2cc0ad48)" style="stroke: #000000; stroke-width: 0.088708; stroke-linecap: round"/>
   </g>
   <g id="patch_38">
    <path d="M 82.211033 140.166111 
Q 105.535088 122.202531 110.624769 93.265803 
" clip-path="url(#p5b2cc0ad48)" style="fill: none; stroke: #000000; stroke-width: 0.052126; stroke-linecap: round"/>
    <path d="M 107.962084 96.858866 
L 110.624769 93.265803 
L 111.901609 97.551789 
z
" clip-path="url(#p5b2cc0ad48)" style="stroke: #000000; stroke-width: 0.052126; stroke-linecap: round"/>
   </g>
   <g id="patch_39">
    <path d="M 75.108672 128.003661 
C 87.61087 128.003661 87.61087 145.115395 75.108672 145.115395 
C 62.606475 145.115395 62.606475 128.003661 75.00839 128.003661 
" clip-path="url(#p5b2cc0ad48)" style="fill: none; stroke: #000000; stroke-width: 0.089695; stroke-linecap: round"/>
    <path d="M 71.00839 126.003661 
L 75.00839 128.003661 
L 71.00839 130.003661 
z
" clip-path="url(#p5b2cc0ad48)" style="stroke: #000000; stroke-width: 0.089695; stroke-linecap: round"/>
   </g>
   <g id="patch_40">
    <path d="M 76.199788 153.703084 
Q 81.29817 182.698053 104.565743 200.620046 
" clip-path="url(#p5b2cc0ad48)" style="fill: none; stroke: #000000; stroke-width: 0.062194; stroke-linecap: round"/>
    <path d="M 102.61726 196.5947 
L 104.565743 200.620046 
L 100.176376 199.763624 
z
" clip-path="url(#p5b2cc0ad48)" style="stroke: #000000; stroke-width: 0.062194; stroke-linecap: round"/>
   </g>
   <g id="patch_41">
    <path d="M 79.470715 152.596572 
Q 118.325059 216.087582 191.512446 229.305081 
" clip-path="url(#p5b2cc0ad48)" style="fill: none; stroke: #000000; stroke-width: 0.057907; stroke-linecap: round"/>
    <path d="M 187.93157 226.626028 
L 191.512446 229.305081 
L 187.220678 230.56235 
z
" clip-path="url(#p5b2cc0ad48)" style="stroke: #000000; stroke-width: 0.057907; stroke-linecap: round"/>
   </g>
   <g id="patch_42">
    <path d="M 81.588679 150.864487 
Q 167.72336 225.1002 279.936504 207.118331 
" clip-path="url(#p5b2cc0ad48)" style="fill: none; stroke: #000000; stroke-width: 0.058975; stroke-linecap: round"/>
    <path d="M 275.670437 205.776441 
L 279.936504 207.118331 
L 276.303351 209.726051 
z
" clip-path="url(#p5b2cc0ad48)" style="stroke: #000000; stroke-width: 0.058975; stroke-linecap: round"/>
   </g>
   <g id="patch_43">
    <path d="M 120.259773 207.107912 
Q 232.538011 225.100177 318.60198 150.925362 
" clip-path="url(#p5b2cc0ad48)" style="fill: none; stroke: #000000; stroke-width: 0.083483; stroke-linecap: round"/>
    <path d="M 314.266327 152.021773 
L 318.60198 150.925362 
L 316.877717 155.05173 
z
" clip-path="url(#p5b2cc0ad48)" style="stroke: #000000; stroke-width: 0.083483; stroke-linecap: round"/>
   </g>
   <g id="patch_44">
    <path d="M 120.289866 204.310057 
Q 228.257309 186.214639 284.187178 92.177808 
" clip-path="url(#p5b2cc0ad48)" style="fill: none; stroke: #000000; stroke-width: 0.054623; stroke-linecap: round"/>
    <path d="M 280.423499 94.593325 
L 284.187178 92.177808 
L 283.861385 96.638061 
z
" clip-path="url(#p5b2cc0ad48)" style="stroke: #000000; stroke-width: 0.054623; stroke-linecap: round"/>
   </g>
   <g id="patch_45">
    <path d="M 118.965898 200.85768 
Q 189.252187 152.755184 199.265202 68.246102 
" clip-path="url(#p5b2cc0ad48)" style="fill: none; stroke: #000000; stroke-width: 0.06287; stroke-linecap: round"/>
    <path d="M 196.808448 71.982994 
L 199.265202 68.246102 
L 200.780663 72.45364 
z
" clip-path="url(#p5b2cc0ad48)" style="stroke: #000000; stroke-width: 0.06287; stroke-linecap: round"/>
   </g>
   <g id="patch_46">
    <path d="M 115.39569 197.767793 
Q 138.308412 145.113043 115.423319 92.526483 
" clip-path="url(#p5b2cc0ad48)" style="fill: none; stroke: #000000; stroke-width: 0.066517; stroke-linecap: round"/>
    <path d="M 115.185609 96.992297 
L 115.423319 92.526483 
L 118.853344 95.396139 
z
" clip-path="url(#p5b2cc0ad48)" style="stroke: #000000; stroke-width: 0.066517; stroke-linecap: round"/>
   </g>
   <g id="patch_47">
    <path d="M 110.635645 197.026822 
Q 105.537263 168.031852 82.27584 150.114596 
" clip-path="url(#p5b2cc0ad48)" style="fill: none; stroke: #000000; stroke-width: 0.069137; stroke-linecap: round"/>
    <path d="M 84.224322 154.139942 
L 82.27584 150.114596 
L 86.665207 150.971017 
z
" clip-path="url(#p5b2cc0ad48)" style="stroke: #000000; stroke-width: 0.069137; stroke-linecap: round"/>
   </g>
   <g id="patch_48">
    <path d="M 111.726761 188.502777 
C 124.228958 188.502777 124.228958 205.614511 111.726761 205.614511 
C 99.224563 205.614511 99.224563 188.502777 111.652862 188.502777 
" clip-path="url(#p5b2cc0ad48)" style="fill: none; stroke: #000000; stroke-width: 0.066097; stroke-linecap: round"/>
    <path d="M 107.652862 186.502777 
L 111.652862 188.502777 
L 107.652862 190.502777 
z
" clip-path="url(#p5b2cc0ad48)" style="stroke: #000000; stroke-width: 0.066097; stroke-linecap: round"/>
   </g>
   <g id="patch_49">
    <path d="M 118.323059 211.227053 
Q 150.64516 236.780382 191.498565 231.998599 
" clip-path="url(#p5b2cc0ad48)" style="fill: none; stroke: #000000; stroke-width: 0.063048; stroke-linecap: round"/>
    <path d="M 187.293179 230.477175 
L 191.498565 231.998599 
L 187.758194 234.450053 
z
" clip-path="url(#p5b2cc0ad48)" style="stroke: #000000; stroke-width: 0.063048; stroke-linecap: round"/>
   </g>
   <g id="patch_50">
    <path d="M 119.542497 209.349633 
Q 200.130625 246.081321 280.632183 209.389109 
" clip-path="url(#p5b2cc0ad48)" style="fill: none; stroke: #000000; stroke-width: 0.085094; stroke-linecap: round"/>
    <path d="M 276.162942 209.228214 
L 280.632183 209.389109 
L 277.821922 212.867965 
z
" clip-path="url(#p5b2cc0ad48)" style="stroke: #000000; stroke-width: 0.085094; stroke-linecap: round"/>
   </g>
   <g id="patch_51">
    <path d="M 208.683623 229.31686 
Q 281.935077 216.088373 320.7363 152.685263 
" clip-path="url(#p5b2cc0ad48)" style="fill: none; stroke: #000000; stroke-width: 0.09163; stroke-linecap: round"/>
    <path d="M 316.942444 155.053101 
L 320.7363 152.685263 
L 320.354256 157.14105 
z
" clip-path="url(#p5b2cc0ad48)" style="stroke: #000000; stroke-width: 0.09163; stroke-linecap: round"/>
   </g>
   <g id="patch_52">
    <path d="M 207.369783 225.917234 
Q 277.656072 177.814738 287.66924 93.304359 
" clip-path="url(#p5b2cc0ad48)" style="fill: none; stroke: #000000; stroke-width: 0.061701; stroke-linecap: round"/>
    <path d="M 285.212487 97.041251 
L 287.66924 93.304359 
L 289.184702 97.511897 
z
" clip-path="url(#p5b2cc0ad48)" style="stroke: #000000; stroke-width: 0.061701; stroke-linecap: round"/>
   </g>
   <g id="patch_53">
    <path d="M 203.859621 222.859212 
Q 239.180569 145.116354 203.890353 67.439221 
" clip-path="url(#p5b2cc0ad48)" style="fill: none; stroke: #000000; stroke-width: 0.064569; stroke-linecap: round"/>
    <path d="M 203.723994 71.908261 
L 203.890353 67.439221 
L 207.36577 70.253733 
z
" clip-path="url(#p5b2cc0ad48)" style="stroke: #000000; stroke-width: 0.064569; stroke-linecap: round"/>
   </g>
   <g id="patch_54">
    <path d="M 199.273467 222.054448 
Q 189.252168 137.475573 119.020152 89.41024 
" clip-path="url(#p5b2cc0ad48)" style="fill: none; stroke: #000000; stroke-width: 0.058841; stroke-linecap: round"/>
    <path d="M 121.191564 93.31984 
L 119.020152 89.41024 
L 123.450679 90.018871 
z
" clip-path="url(#p5b2cc0ad48)" style="stroke: #000000; stroke-width: 0.058841; stroke-linecap: round"/>
   </g>
   <g id="patch_55">
    <path d="M 195.768603 223.192887 
Q 156.914259 159.701878 83.736265 146.486074 
" clip-path="url(#p5b2cc0ad48)" style="fill: none; stroke: #000000; stroke-width: 0.066444; stroke-linecap: round"/>
    <path d="M 87.317141 149.165128 
L 83.736265 146.486074 
L 88.028033 145.228805 
z
" clip-path="url(#p5b2cc0ad48)" style="stroke: #000000; stroke-width: 0.066444; stroke-linecap: round"/>
   </g>
   <g id="patch_56">
    <path d="M 193.534347 225.061522 
Q 161.212246 199.508194 120.357858 204.290091 
" clip-path="url(#p5b2cc0ad48)" style="fill: none; stroke: #000000; stroke-width: 0.062163; stroke-linecap: round"/>
    <path d="M 124.563244 205.811516 
L 120.357858 204.290091 
L 124.098229 201.838638 
z
" clip-path="url(#p5b2cc0ad48)" style="stroke: #000000; stroke-width: 0.062163; stroke-linecap: round"/>
   </g>
   <g id="patch_57">
    <path d="M 200.130645 213.562331 
C 212.632843 213.562331 212.632843 230.674065 200.130645 230.674065 
C 187.628448 230.674065 187.628448 213.562331 200.050269 213.562331 
" clip-path="url(#p5b2cc0ad48)" style="fill: none; stroke: #000000; stroke-width: 0.071891; stroke-linecap: round"/>
    <path d="M 196.050269 211.562331 
L 200.050269 213.562331 
L 196.050269 215.562331 
z
" clip-path="url(#p5b2cc0ad48)" style="stroke: #000000; stroke-width: 0.071891; stroke-linecap: round"/>
   </g>
   <g id="patch_58">
    <path d="M 208.690994 231.990203 
Q 249.614592 236.780818 281.869005 211.281781 
" clip-path="url(#p5b2cc0ad48)" style="fill: none; stroke: #000000; stroke-width: 0.077381; stroke-linecap: round"/>
    <path d="M 277.490794 212.19352 
L 281.869005 211.281781 
L 279.97147 215.331393 
z
" clip-path="url(#p5b2cc0ad48)" style="stroke: #000000; stroke-width: 0.077381; stroke-linecap: round"/>
   </g>
   <g id="patch_59">
    <path d="M 295.636891 200.665227 
Q 318.960946 182.701646 324.046425 153.788808 
" clip-path="url(#p5b2cc0ad48)" style="fill: none; stroke: #000000; stroke-width: 0.073821; stroke-linecap: round"/>
    <path d="M 321.38374 157.381872 
L 324.046425 153.788808 
L 325.323265 158.074795 
z
" clip-path="url(#p5b2cc0ad48)" style="stroke: #000000; stroke-width: 0.073821; stroke-linecap: round"/>
   </g>
   <g id="patch_60">
    <path d="M 292.20346 197.767793 
Q 315.116182 145.113043 292.23158 92.527613 
" clip-path="url(#p5b2cc0ad48)" style="fill: none; stroke: #000000; stroke-width: 0.067619; stroke-linecap: round"/>
    <path d="M 291.993871 96.993427 
L 292.23158 92.527613 
L 295.661606 95.397269 
z
" clip-path="url(#p5b2cc0ad48)" style="stroke: #000000; stroke-width: 0.067619; stroke-linecap: round"/>
   </g>
   <g id="patch_61">
    <path d="M 287.677352 196.994894 
Q 277.656052 112.416019 207.438386 64.360506 
" clip-path="url(#p5b2cc0ad48)" style="fill: none; stroke: #000000; stroke-width: 0.074393; stroke-linecap: round"/>
    <path d="M 209.609799 68.270106 
L 207.438386 64.360506 
L 211.868913 64.969137 
z
" clip-path="url(#p5b2cc0ad48)" style="stroke: #000000; stroke-width: 0.074393; stroke-linecap: round"/>
   </g>
   <g id="patch_62">
    <path d="M 284.217993 198.104792 
Q 228.256718 104.015746 120.38187 85.936152 
" clip-path="url(#p5b2cc0ad48)" style="fill: none; stroke: #000000; stroke-width: 0.084145; stroke-linecap: round"/>
    <path d="M 123.996264 88.569811 
L 120.38187 85.936152 
L 124.657433 84.624833 
z
" clip-path="url(#p5b2cc0ad48)" style="stroke: #000000; stroke-width: 0.084145; stroke-linecap: round"/>
   </g>
   <g id="patch_63">
    <path d="M 282.054524 199.865418 
Q 195.919843 125.629705 83.722314 143.609072 
" clip-path="url(#p5b2cc0ad48)" style="fill: none; stroke: #000000; stroke-width: 0.07312; stroke-linecap: round"/>
    <path d="M 87.988381 144.950962 
L 83.722314 143.609072 
L 87.355466 141.001352 
z
" clip-path="url(#p5b2cc0ad48)" style="stroke: #000000; stroke-width: 0.07312; stroke-linecap: round"/>
   </g>
   <g id="patch_64">
    <path d="M 280.718794 201.879388 
Q 200.130666 165.1477 119.628207 201.840322 
" clip-path="url(#p5b2cc0ad48)" style="fill: none; stroke: #000000; stroke-width: 0.084208; stroke-linecap: round"/>
    <path d="M 124.097448 202.001217 
L 119.628207 201.840322 
L 122.438468 198.361466 
z
" clip-path="url(#p5b2cc0ad48)" style="stroke: #000000; stroke-width: 0.084208; stroke-linecap: round"/>
   </g>
   <g id="patch_65">
    <path d="M 279.974182 204.298372 
Q 239.050584 199.507757 206.804575 225.00015 
" clip-path="url(#p5b2cc0ad48)" style="fill: none; stroke: #000000; stroke-width: 0.086964; stroke-linecap: round"/>
    <path d="M 211.182786 224.088411 
L 206.804575 225.00015 
L 208.702111 220.950538 
z
" clip-path="url(#p5b2cc0ad48)" style="stroke: #000000; stroke-width: 0.086964; stroke-linecap: round"/>
   </g>
   <g id="patch_66">
    <path d="M 288.53453 188.502777 
C 301.036728 188.502777 301.036728 205.614511 288.53453 205.614511 
C 276.032333 205.614511 276.032333 188.502777 288.398129 188.502777 
" clip-path="url(#p5b2cc0ad48)" style="fill: none; stroke: #000000; stroke-width: 0.122001; stroke-linecap: round"/>
    <path d="M 284.398129 186.502777 
L 288.398129 188.502777 
L 284.398129 190.502777 
z
" clip-path="url(#p5b2cc0ad48)" style="stroke: #000000; stroke-width: 0.122001; stroke-linecap: round"/>
   </g>
   <g id="matplotlib.axis_1">
    <g id="xtick_1"/>
    <g id="xtick_2"/>
    <g id="xtick_3"/>
    <g id="xtick_4"/>
    <g id="xtick_5"/>
    <g id="xtick_6"/>
   </g>
   <g id="matplotlib.axis_2">
    <g id="ytick_1"/>
    <g id="ytick_2"/>
    <g id="ytick_3"/>
    <g id="ytick_4"/>
    <g id="ytick_5"/>
    <g id="ytick_6"/>
   </g>
   <g id="PathCollection_1">
    <path d="M 325.152618 155.598649 
C 327.93281 155.598649 330.599506 154.494067 332.565399 152.528175 
C 334.531291 150.562283 335.635873 147.895586 335.635873 145.115395 
C 335.635873 142.335203 334.531291 139.668507 332.565399 137.702615 
C 330.599506 135.736722 327.93281 134.63214 325.152618 134.63214 
C 322.372427 134.63214 319.705731 135.736722 317.739838 137.702615 
C 315.773946 139.668507 314.669364 142.335203 314.669364 145.115395 
C 314.669364 147.895586 315.773946 150.562283 317.739838 152.528175 
C 319.705731 154.494067 322.372427 155.598649 325.152618 155.598649 
z
" clip-path="url(#p5b2cc0ad48)" style="fill: #add8e6; stroke: #add8e6"/>
    <path d="M 288.53453 89.198394 
C 289.749721 89.198394 290.915305 88.715593 291.774575 87.856324 
C 292.633845 86.997054 293.116645 85.83147 293.116645 84.616279 
C 293.116645 83.401088 292.633845 82.235504 291.774575 81.376235 
C 290.915305 80.516965 289.749721 80.034164 288.53453 80.034164 
C 287.319339 80.034164 286.153756 80.516965 285.294486 81.376235 
C 284.435216 82.235504 283.952416 83.401088 283.952416 84.616279 
C 283.952416 85.83147 284.435216 86.997054 285.294486 87.856324 
C 286.153756 88.715593 287.319339 89.198394 288.53453 89.198394 
z
" clip-path="url(#p5b2cc0ad48)" style="fill: #add8e6; stroke: #add8e6"/>
    <path d="M 200.130645 64.321665 
C 201.394322 64.321665 202.606412 63.819601 203.499967 62.926046 
C 204.393521 62.032492 204.895585 60.820402 204.895585 59.556725 
C 204.895585 58.293048 204.393521 57.080958 203.499967 56.187403 
C 202.606412 55.293849 201.394322 54.791785 200.130645 54.791785 
C 198.866969 54.791785 197.654879 55.293849 196.761324 56.187403 
C 195.86777 57.080958 195.365706 58.293048 195.365706 59.556725 
C 195.365706 60.820402 195.86777 62.032492 196.761324 62.926046 
C 197.654879 63.819601 198.866969 64.321665 200.130645 64.321665 
z
" clip-path="url(#p5b2cc0ad48)" style="fill: #add8e6; stroke: #add8e6"/>
    <path d="M 111.726761 88.86593 
C 112.853781 88.86593 113.934794 88.41816 114.731718 87.621236 
C 115.528642 86.824312 115.976412 85.7433 115.976412 84.616279 
C 115.976412 83.489258 115.528642 82.408246 114.731718 81.611322 
C 113.934794 80.814398 112.853781 80.366628 111.726761 80.366628 
C 110.59974 80.366628 109.518727 80.814398 108.721804 81.611322 
C 107.92488 82.408246 107.47711 83.489258 107.47711 84.616279 
C 107.47711 85.7433 107.92488 86.824312 108.721804 87.621236 
C 109.518727 88.41816 110.59974 88.86593 111.726761 88.86593 
z
" clip-path="url(#p5b2cc0ad48)" style="fill: #add8e6; stroke: #add8e6"/>
    <path d="M 75.108672 149.908509 
C 76.379821 149.908509 77.599078 149.403476 78.497916 148.504638 
C 79.396754 147.6058 79.901786 146.386543 79.901786 145.115395 
C 79.901786 143.844246 79.396754 142.624989 78.497916 141.726152 
C 77.599078 140.827314 76.379821 140.322281 75.108672 140.322281 
C 73.837524 140.322281 72.618267 140.827314 71.719429 141.726152 
C 70.820591 142.624989 70.315559 143.844246 70.315559 145.115395 
C 70.315559 146.386543 70.820591 147.6058 71.719429 148.504638 
C 72.618267 149.403476 73.837524 149.908509 75.108672 149.908509 
z
" clip-path="url(#p5b2cc0ad48)" style="fill: #add8e6; stroke: #add8e6"/>
    <path d="M 111.726761 209.763565 
C 112.827103 209.763565 113.882526 209.326394 114.660585 208.548335 
C 115.438644 207.770276 115.875815 206.714853 115.875815 205.614511 
C 115.875815 204.514168 115.438644 203.458745 114.660585 202.680686 
C 113.882526 201.902627 112.827103 201.465456 111.726761 201.465456 
C 110.626418 201.465456 109.570995 201.902627 108.792936 202.680686 
C 108.014877 203.458745 107.577706 204.514168 107.577706 205.614511 
C 107.577706 206.714853 108.014877 207.770276 108.792936 208.548335 
C 109.570995 209.326394 110.626418 209.763565 111.726761 209.763565 
z
" clip-path="url(#p5b2cc0ad48)" style="fill: #add8e6; stroke: #add8e6"/>
    <path d="M 200.130645 234.837218 
C 201.234727 234.837218 202.293736 234.398562 203.07444 233.617859 
C 203.855143 232.837156 204.293799 231.778146 204.293799 230.674065 
C 204.293799 229.569984 203.855143 228.510974 203.07444 227.730271 
C 202.293736 226.949567 201.234727 226.510911 200.130645 226.510911 
C 199.026564 226.510911 197.967555 226.949567 197.186851 227.730271 
C 196.406148 228.510974 195.967492 229.569984 195.967492 230.674065 
C 195.967492 231.778146 196.406148 232.837156 197.186851 233.617859 
C 197.967555 234.398562 199.026564 234.837218 200.130645 234.837218 
z
" clip-path="url(#p5b2cc0ad48)" style="fill: #add8e6; stroke: #add8e6"/>
    <path d="M 288.53453 210.177511 
C 289.744652 210.177511 290.905374 209.696725 291.761059 208.841039 
C 292.616745 207.985354 293.097531 206.824632 293.097531 205.614511 
C 293.097531 204.404389 292.616745 203.243667 291.761059 202.387982 
C 290.905374 201.532296 289.744652 201.05151 288.53453 201.05151 
C 287.324408 201.05151 286.163687 201.532296 285.308002 202.387982 
C 284.452316 203.243667 283.97153 204.404389 283.97153 205.614511 
C 283.97153 206.824632 284.452316 207.985354 285.308002 208.841039 
C 286.163687 209.696725 287.324408 210.177511 288.53453 210.177511 
z
" clip-path="url(#p5b2cc0ad48)" style="fill: #add8e6; stroke: #add8e6"/>
   </g>
   <g id="patch_67">
    <path d="M 7.2 273.312 
L 7.2 7.2 
" style="fill: none; stroke: #000000; stroke-width: 0.8; stroke-linejoin: miter; stroke-linecap: square"/>
   </g>
   <g id="patch_68">
    <path d="M 364.32 273.312 
L 364.32 7.2 
" style="fill: none; stroke: #000000; stroke-width: 0.8; stroke-linejoin: miter; stroke-linecap: square"/>
   </g>
   <g id="patch_69">
    <path d="M 7.2 273.312 
L 364.32 273.312 
" style="fill: none; stroke: #000000; stroke-width: 0.8; stroke-linejoin: miter; stroke-linecap: square"/>
   </g>
   <g id="patch_70">
    <path d="M 7.2 7.2 
L 364.32 7.2 
" style="fill: none; stroke: #000000; stroke-width: 0.8; stroke-linejoin: miter; stroke-linecap: square"/>
   </g>
   <g id="text_1">
    <g clip-path="url(#p5b2cc0ad48)">
     <!-- 111 -->
     <g transform="translate(313.700118 148.426645) scale(0.12 -0.12)">
      <defs>
       <path id="DejaVuSans-31" d="M 794 531 
L 1825 531 
L 1825 4091 
L 703 3866 
L 703 4441 
L 1819 4666 
L 2450 4666 
L 2450 531 
L 3481 531 
L 3481 0 
L 794 0 
L 794 531 
z
" transform="scale(0.015625)"/>
      </defs>
      <use xlink:href="#DejaVuSans-31"/>
      <use xlink:href="#DejaVuSans-31" x="63.623047"/>
      <use xlink:href="#DejaVuSans-31" x="127.246094"/>
     </g>
    </g>
   </g>
   <g id="text_2">
    <g clip-path="url(#p5b2cc0ad48)">
     <!-- 112 -->
     <g transform="translate(277.08203 87.927529) scale(0.12 -0.12)">
      <defs>
       <path id="DejaVuSans-32" d="M 1228 531 
L 3431 531 
L 3431 0 
L 469 0 
L 469 531 
Q 828 903 1448 1529 
Q 2069 2156 2228 2338 
Q 2531 2678 2651 2914 
Q 2772 3150 2772 3378 
Q 2772 3750 2511 3984 
Q 2250 4219 1831 4219 
Q 1534 4219 1204 4116 
Q 875 4013 500 3803 
L 500 4441 
Q 881 4594 1212 4672 
Q 1544 4750 1819 4750 
Q 2544 4750 2975 4387 
Q 3406 4025 3406 3419 
Q 3406 3131 3298 2873 
Q 3191 2616 2906 2266 
Q 2828 2175 2409 1742 
Q 1991 1309 1228 531 
z
" transform="scale(0.015625)"/>
      </defs>
      <use xlink:href="#DejaVuSans-31"/>
      <use xlink:href="#DejaVuSans-31" x="63.623047"/>
      <use xlink:href="#DejaVuSans-32" x="127.246094"/>
     </g>
    </g>
   </g>
   <g id="text_3">
    <g clip-path="url(#p5b2cc0ad48)">
     <!-- 121 -->
     <g transform="translate(188.678145 62.867975) scale(0.12 -0.12)">
      <use xlink:href="#DejaVuSans-31"/>
      <use xlink:href="#DejaVuSans-32" x="63.623047"/>
      <use xlink:href="#DejaVuSans-31" x="127.246094"/>
     </g>
    </g>
   </g>
   <g id="text_4">
    <g clip-path="url(#p5b2cc0ad48)">
     <!-- 122 -->
     <g transform="translate(100.274261 87.927529) scale(0.12 -0.12)">
      <use xlink:href="#DejaVuSans-31"/>
      <use xlink:href="#DejaVuSans-32" x="63.623047"/>
      <use xlink:href="#DejaVuSans-32" x="127.246094"/>
     </g>
    </g>
   </g>
   <g id="text_5">
    <g clip-path="url(#p5b2cc0ad48)">
     <!-- 211 -->
     <g transform="translate(63.656172 148.426645) scale(0.12 -0.12)">
      <use xlink:href="#DejaVuSans-32"/>
      <use xlink:href="#DejaVuSans-31" x="63.623047"/>
      <use xlink:href="#DejaVuSans-31" x="127.246094"/>
     </g>
    </g>
   </g>
   <g id="text_6">
    <g clip-path="url(#p5b2cc0ad48)">
     <!-- 212 -->
     <g transform="translate(100.274261 208.925761) scale(0.12 -0.12)">
      <use xlink:href="#DejaVuSans-32"/>
      <use xlink:href="#DejaVuSans-31" x="63.623047"/>
      <use xlink:href="#DejaVuSans-32" x="127.246094"/>
     </g>
    </g>
   </g>
   <g id="text_7">
    <g clip-path="url(#p5b2cc0ad48)">
     <!-- 221 -->
     <g transform="translate(188.678145 233.985315) scale(0.12 -0.12)">
      <use xlink:href="#DejaVuSans-32"/>
      <use xlink:href="#DejaVuSans-32" x="63.623047"/>
      <use xlink:href="#DejaVuSans-31" x="127.246094"/>
     </g>
    </g>
   </g>
   <g id="text_8">
    <g clip-path="url(#p5b2cc0ad48)">
     <!-- 222 -->
     <g transform="translate(277.08203 208.925761) scale(0.12 -0.12)">
      <use xlink:href="#DejaVuSans-32"/>
      <use xlink:href="#DejaVuSans-32" x="63.623047"/>
      <use xlink:href="#DejaVuSans-32" x="127.246094"/>
     </g>
    </g>
   </g>
  </g>
 </g>
 <defs>
  <clipPath id="p5b2cc0ad48">
   <rect x="7.2" y="7.2" width="357.12" height="266.112"/>
  </clipPath>
 </defs>
</svg>
