<?xml version="1.0" encoding="utf-8" standalone="no"?>
<!DOCTYPE svg PUBLIC "-//W3C//DTD SVG 1.1//EN"
  "http://www.w3.org/Graphics/SVG/1.1/DTD/svg11.dtd">
<svg xmlns:xlink="http://www.w3.org/1999/xlink" width="371.52pt" height="280.512pt" viewBox="0 0 371.52 280.512" xmlns="http://www.w3.org/2000/svg" version="1.1">
 <metadata>
  <rdf:RDF xmlns:dc="http://purl.org/dc/elements/1.1/" xmlns:cc="http://creativecommons.org/ns#" xmlns:rdf="http://www.w3.org/1999/02/22-rdf-syntax-ns#">
   <cc:Work>
    <dc:type rdf:resource="http://purl.org/dc/dcmitype/StillImage"/>
    <dc:date>2025-01-08T12:12:13.190492</dc:date>
    <dc:format>image/svg+xml</dc:format>
    <dc:creator>
     <cc:Agent>
      <dc:title>Matplotlib v3.9.2, https://matplotlib.org/</dc:title>
     </cc:Agent>
    </dc:creator>
   </cc:Work>
  </rdf:RDF>
 </metadata>
 <defs>
  <style type="text/css">*{stroke-linejoin: round; stroke-linecap: butt}</style>
 </defs>
 <g id="figure_1">
  <g id="patch_1">
   <path d="M 0 280.512 
L 371.52 280.512 
L 371.52 0 
L 0 0 
L 0 280.512 
z
" style="fill: none"/>
  </g>
  <g id="axes_1">
   <g id="patch_2">
    <path d="M 7.2 273.312 
L 364.32 273.312 
L 364.32 7.2 
L 7.2 7.2 
L 7.2 273.312 
z
" style="fill: none"/>
   </g>
   <g id="patch_3">
    <path d="M 324.46019 128.032804 
C 336.888733 128.032804 336.888733 145.149126 324.46019 145.149126 
C 312.031647 145.149126 312.031647 128.032804 323.392107 128.032804 
" clip-path="url(#p7e5ec0ef99)" style="fill: none; stroke: #000000; stroke-width: 0.955322; stroke-linecap: round"/>
    <path d="M 319.392107 126.032804 
L 323.392107 128.032804 
L 319.392107 130.032804 
z
" clip-path="url(#p7e5ec0ef99)" style="stroke: #000000; stroke-width: 0.955322; stroke-linecap: round"/>
   </g>
   <g id="patch_4">
    <path d="M 323.390861 136.552117 
Q 318.375691 107.602848 295.496858 89.874557 
" clip-path="url(#p7e5ec0ef99)" style="fill: none; stroke: #000000; stroke-width: 0.390718; stroke-linecap: round"/>
    <path d="M 297.433684 93.905525 
L 295.496858 89.874557 
L 299.883728 90.743678 
z
" clip-path="url(#p7e5ec0ef99)" style="stroke: #000000; stroke-width: 0.390718; stroke-linecap: round"/>
   </g>
   <g id="patch_5">
    <path d="M 320.118397 137.654619 
Q 281.609317 74.343905 209.180866 61.0341 
" clip-path="url(#p7e5ec0ef99)" style="fill: none; stroke: #000000; stroke-width: 0.412278; stroke-linecap: round"/>
    <path d="M 212.753514 63.724116 
L 209.180866 61.0341 
L 213.476468 59.789991 
z
" clip-path="url(#p7e5ec0ef99)" style="stroke: #000000; stroke-width: 0.412278; stroke-linecap: round"/>
   </g>
   <g id="patch_6">
    <path d="M 317.990982 139.391662 
Q 232.471601 65.466225 121.011705 83.125699 
" clip-path="url(#p7e5ec0ef99)" style="fill: none; stroke: #000000; stroke-width: 0.172243; stroke-linecap: round"/>
    <path d="M 125.275397 84.475115 
L 121.011705 83.125699 
L 124.649453 80.524395 
z
" clip-path="url(#p7e5ec0ef99)" style="stroke: #000000; stroke-width: 0.172243; stroke-linecap: round"/>
   </g>
   <g id="patch_7">
    <path d="M 316.6658 141.374135 
Q 200.173797 86.780951 84.08676 141.18525 
" clip-path="url(#p7e5ec0ef99)" style="fill: none; stroke: #000000; stroke-width: 0.400016; stroke-linecap: round"/>
    <path d="M 88.557454 141.298795 
L 84.08676 141.18525 
L 86.860013 137.676822 
z
" clip-path="url(#p7e5ec0ef99)" style="stroke: #000000; stroke-width: 0.400016; stroke-linecap: round"/>
   </g>
   <g id="patch_8">
    <path d="M 315.927127 143.670654 
Q 204.277409 125.982379 118.905515 199.781982 
" clip-path="url(#p7e5ec0ef99)" style="fill: none; stroke: #000000; stroke-width: 0.173923; stroke-linecap: round"/>
    <path d="M 123.239535 198.679133 
L 118.905515 199.781982 
L 120.623648 195.653057 
z
" clip-path="url(#p7e5ec0ef99)" style="stroke: #000000; stroke-width: 0.173923; stroke-linecap: round"/>
   </g>
   <g id="patch_9">
    <path d="M 315.909949 146.531935 
Q 243.027555 159.924189 204.616083 223.0726 
" clip-path="url(#p7e5ec0ef99)" style="fill: none; stroke: #000000; stroke-width: 0.169013; stroke-linecap: round"/>
    <path d="M 208.403534 220.694532 
L 204.616083 223.0726 
L 204.986099 218.615798 
z
" clip-path="url(#p7e5ec0ef99)" style="stroke: #000000; stroke-width: 0.169013; stroke-linecap: round"/>
   </g>
   <g id="patch_10">
    <path d="M 317.366539 150.122267 
Q 294.142375 168.118108 289.142131 196.981035 
" clip-path="url(#p7e5ec0ef99)" style="fill: none; stroke: #000000; stroke-width: 0.078361; stroke-linecap: round"/>
    <path d="M 291.795571 193.381139 
L 289.142131 196.981035 
L 287.854278 192.698345 
z
" clip-path="url(#p7e5ec0ef99)" style="stroke: #000000; stroke-width: 0.078361; stroke-linecap: round"/>
   </g>
   <g id="patch_11">
    <path d="M 289.12716 93.230799 
Q 294.142329 122.180068 317.015337 139.903846 
" clip-path="url(#p7e5ec0ef99)" style="fill: none; stroke: #000000; stroke-width: 0.397309; stroke-linecap: round"/>
    <path d="M 315.078511 135.872877 
L 317.015337 139.903846 
L 312.628467 139.034725 
z
" clip-path="url(#p7e5ec0ef99)" style="stroke: #000000; stroke-width: 0.397309; stroke-linecap: round"/>
   </g>
   <g id="patch_12">
    <path d="M 288.05783 67.517469 
C 300.486373 67.517469 300.486373 84.633791 288.05783 84.633791 
C 275.629287 84.633791 275.629287 67.517469 287.87377 67.517469 
" clip-path="url(#p7e5ec0ef99)" style="fill: none; stroke: #000000; stroke-width: 0.164628; stroke-linecap: round"/>
    <path d="M 283.87377 65.517469 
L 287.87377 67.517469 
L 283.87377 69.517469 
z
" clip-path="url(#p7e5ec0ef99)" style="stroke: #000000; stroke-width: 0.164628; stroke-linecap: round"/>
   </g>
   <g id="patch_13">
    <path d="M 281.468597 79.011076 
Q 249.394938 53.591133 208.936411 58.244101 
" clip-path="url(#p7e5ec0ef99)" style="fill: none; stroke: #000000; stroke-width: 0.1793; stroke-linecap: round"/>
    <path d="M 213.138724 59.773993 
L 208.936411 58.244101 
L 212.681713 55.800186 
z
" clip-path="url(#p7e5ec0ef99)" style="stroke: #000000; stroke-width: 0.1793; stroke-linecap: round"/>
   </g>
   <g id="patch_14">
    <path d="M 280.245227 80.90112 
Q 200.175398 44.425217 120.180087 80.866593 
" clip-path="url(#p7e5ec0ef99)" style="fill: none; stroke: #000000; stroke-width: 0.073241; stroke-linecap: round"/>
    <path d="M 124.649294 81.028417 
L 120.180087 80.866593 
L 122.991071 77.388322 
z
" clip-path="url(#p7e5ec0ef99)" style="stroke: #000000; stroke-width: 0.073241; stroke-linecap: round"/>
   </g>
   <g id="patch_15">
    <path d="M 279.524767 83.155319 
Q 167.875049 65.467044 82.501905 139.267728 
" clip-path="url(#p7e5ec0ef99)" style="fill: none; stroke: #000000; stroke-width: 0.172445; stroke-linecap: round"/>
    <path d="M 86.835925 138.164879 
L 82.501905 139.267728 
L 84.220038 135.138803 
z
" clip-path="url(#p7e5ec0ef99)" style="stroke: #000000; stroke-width: 0.172445; stroke-linecap: round"/>
   </g>
   <g id="patch_16">
    <path d="M 279.496715 85.963741 
Q 172.047803 104.304667 116.630474 198.06904 
" clip-path="url(#p7e5ec0ef99)" style="fill: none; stroke: #000000; stroke-width: 0.077792; stroke-linecap: round"/>
    <path d="M 120.387458 195.643123 
L 116.630474 198.06904 
L 116.94393 193.607903 
z
" clip-path="url(#p7e5ec0ef99)" style="stroke: #000000; stroke-width: 0.077792; stroke-linecap: round"/>
   </g>
   <g id="patch_17">
    <path d="M 280.832273 89.410274 
Q 210.787486 137.634261 201.017831 222.029155 
" clip-path="url(#p7e5ec0ef99)" style="fill: none; stroke: #000000; stroke-width: 0.073203; stroke-linecap: round"/>
    <path d="M 203.464537 218.285677 
L 201.017831 222.029155 
L 199.491072 217.825703 
z
" clip-path="url(#p7e5ec0ef99)" style="stroke: #000000; stroke-width: 0.073203; stroke-linecap: round"/>
   </g>
   <g id="patch_18">
    <path d="M 284.391132 92.475225 
Q 261.467556 145.147529 284.376467 197.789328 
" clip-path="url(#p7e5ec0ef99)" style="fill: none; stroke: #000000; stroke-width: 0.029757; stroke-linecap: round"/>
    <path d="M 284.614192 193.323515 
L 284.376467 197.789328 
L 280.946451 194.91966 
z
" clip-path="url(#p7e5ec0ef99)" style="stroke: #000000; stroke-width: 0.029757; stroke-linecap: round"/>
   </g>
   <g id="patch_19">
    <path d="M 204.516553 67.062025 
Q 243.025633 130.372739 315.456933 143.683068 
" clip-path="url(#p7e5ec0ef99)" style="fill: none; stroke: #000000; stroke-width: 0.409687; stroke-linecap: round"/>
    <path d="M 311.884285 140.993052 
L 315.456933 143.683068 
L 311.161331 144.927176 
z
" clip-path="url(#p7e5ec0ef99)" style="stroke: #000000; stroke-width: 0.409687; stroke-linecap: round"/>
   </g>
   <g id="patch_20">
    <path d="M 206.763994 65.190233 
Q 238.837653 90.610176 279.292411 85.957642 
" clip-path="url(#p7e5ec0ef99)" style="fill: none; stroke: #000000; stroke-width: 0.182693; stroke-linecap: round"/>
    <path d="M 275.090098 84.427749 
L 279.292411 85.957642 
L 275.547109 88.401556 
z
" clip-path="url(#p7e5ec0ef99)" style="stroke: #000000; stroke-width: 0.182693; stroke-linecap: round"/>
   </g>
   <g id="patch_21">
    <path d="M 200.17476 42.451197 
C 212.603303 42.451197 212.603303 59.567518 200.17476 59.567518 
C 187.746217 59.567518 187.746217 42.451197 199.983761 42.451197 
" clip-path="url(#p7e5ec0ef99)" style="fill: none; stroke: #000000; stroke-width: 0.170835; stroke-linecap: round"/>
    <path d="M 195.983761 40.451197 
L 199.983761 42.451197 
L 195.983761 44.451197 
z
" clip-path="url(#p7e5ec0ef99)" style="stroke: #000000; stroke-width: 0.170835; stroke-linecap: round"/>
   </g>
   <g id="patch_22">
    <path d="M 191.610815 58.266838 
Q 150.953291 53.591501 118.940585 78.96379 
" clip-path="url(#p7e5ec0ef99)" style="fill: none; stroke: #000000; stroke-width: 0.069391; stroke-linecap: round"/>
    <path d="M 123.317666 78.046642 
L 118.940585 78.96379 
L 120.833115 74.911836 
z
" clip-path="url(#p7e5ec0ef99)" style="stroke: #000000; stroke-width: 0.069391; stroke-linecap: round"/>
   </g>
   <g id="patch_23">
    <path d="M 191.624519 60.950328 
Q 118.742125 74.342582 80.330851 137.490668 
" clip-path="url(#p7e5ec0ef99)" style="fill: none; stroke: #000000; stroke-width: 0.169353; stroke-linecap: round"/>
    <path d="M 84.118302 135.112599 
L 80.330851 137.490668 
L 80.700867 133.033866 
z
" clip-path="url(#p7e5ec0ef99)" style="stroke: #000000; stroke-width: 0.169353; stroke-linecap: round"/>
   </g>
   <g id="patch_24">
    <path d="M 192.949203 64.344001 
Q 122.904416 112.567989 113.135463 196.956826 
" clip-path="url(#p7e5ec0ef99)" style="fill: none; stroke: #000000; stroke-width: 0.078657; stroke-linecap: round"/>
    <path d="M 115.582168 193.213347 
L 113.135463 196.956826 
L 111.608703 192.753374 
z
" clip-path="url(#p7e5ec0ef99)" style="stroke: #000000; stroke-width: 0.078657; stroke-linecap: round"/>
   </g>
   <g id="patch_25">
    <path d="M 196.444785 67.384466 
Q 161.113236 145.150659 196.414016 222.846065 
" clip-path="url(#p7e5ec0ef99)" style="fill: none; stroke: #000000; stroke-width: 0.069542; stroke-linecap: round"/>
    <path d="M 196.580267 218.37702 
L 196.414016 222.846065 
L 192.938531 220.031637 
z
" clip-path="url(#p7e5ec0ef99)" style="stroke: #000000; stroke-width: 0.069542; stroke-linecap: round"/>
   </g>
   <g id="patch_26">
    <path d="M 201.008548 68.188903 
Q 210.788009 152.66486 280.800641 200.8662 
" clip-path="url(#p7e5ec0ef99)" style="fill: none; stroke: #000000; stroke-width: 0.035346; stroke-linecap: round"/>
    <path d="M 278.640098 196.950583 
L 280.800641 200.8662 
L 276.371822 200.245264 
z
" clip-path="url(#p7e5ec0ef99)" style="stroke: #000000; stroke-width: 0.035346; stroke-linecap: round"/>
   </g>
   <g id="patch_27">
    <path d="M 118.760898 90.391255 
Q 204.280279 164.316691 315.740245 146.657206 
" clip-path="url(#p7e5ec0ef99)" style="fill: none; stroke: #000000; stroke-width: 0.17218; stroke-linecap: round"/>
    <path d="M 311.476553 145.30779 
L 315.740245 146.657206 
L 312.102497 149.258511 
z
" clip-path="url(#p7e5ec0ef99)" style="stroke: #000000; stroke-width: 0.17218; stroke-linecap: round"/>
   </g>
   <g id="patch_28">
    <path d="M 120.104293 88.366462 
Q 200.174123 124.842364 280.168226 88.401539 
" clip-path="url(#p7e5ec0ef99)" style="fill: none; stroke: #000000; stroke-width: 0.074428; stroke-linecap: round"/>
    <path d="M 275.699019 88.239715 
L 280.168226 88.401539 
L 277.357243 91.87981 
z
" clip-path="url(#p7e5ec0ef99)" style="stroke: #000000; stroke-width: 0.074428; stroke-linecap: round"/>
   </g>
   <g id="patch_29">
    <path d="M 120.855635 85.934471 
Q 161.51316 90.609808 193.517483 65.244163 
" clip-path="url(#p7e5ec0ef99)" style="fill: none; stroke: #000000; stroke-width: 0.078958; stroke-linecap: round"/>
    <path d="M 189.140402 66.161311 
L 193.517483 65.244163 
L 191.624953 69.296117 
z
" clip-path="url(#p7e5ec0ef99)" style="stroke: #000000; stroke-width: 0.078958; stroke-linecap: round"/>
   </g>
   <g id="patch_30">
    <path d="M 112.29169 67.517469 
C 124.720233 67.517469 124.720233 84.633791 112.29169 84.633791 
C 99.863147 84.633791 99.863147 67.517469 112.253166 67.517469 
" clip-path="url(#p7e5ec0ef99)" style="fill: none; stroke: #000000; stroke-width: 0.034457; stroke-linecap: round"/>
    <path d="M 108.253166 65.517469 
L 112.253166 67.517469 
L 108.253166 69.517469 
z
" clip-path="url(#p7e5ec0ef99)" style="stroke: #000000; stroke-width: 0.034457; stroke-linecap: round"/>
   </g>
   <g id="patch_31">
    <path d="M 105.198039 89.606932 
Q 81.973875 107.602773 76.972178 136.474089 
" clip-path="url(#p7e5ec0ef99)" style="fill: none; stroke: #000000; stroke-width: 0.070746; stroke-linecap: round"/>
    <path d="M 79.625618 132.874192 
L 76.972178 136.474089 
L 75.684325 132.191399 
z
" clip-path="url(#p7e5ec0ef99)" style="stroke: #000000; stroke-width: 0.070746; stroke-linecap: round"/>
   </g>
   <g id="patch_32">
    <path d="M 108.624992 92.475225 
Q 85.701416 145.147529 108.611276 197.79151 
" clip-path="url(#p7e5ec0ef99)" style="fill: none; stroke: #000000; stroke-width: 0.027628; stroke-linecap: round"/>
    <path d="M 108.849001 193.325697 
L 108.611276 197.79151 
L 105.181261 194.921842 
z
" clip-path="url(#p7e5ec0ef99)" style="stroke: #000000; stroke-width: 0.027628; stroke-linecap: round"/>
   </g>
   <g id="patch_33">
    <path d="M 113.125478 93.255175 
Q 122.904939 177.731132 192.921793 225.93538 
" clip-path="url(#p7e5ec0ef99)" style="fill: none; stroke: #000000; stroke-width: 0.030761; stroke-linecap: round"/>
    <path d="M 190.761251 222.019763 
L 192.921793 225.93538 
L 188.492974 225.314443 
z
" clip-path="url(#p7e5ec0ef99)" style="stroke: #000000; stroke-width: 0.030761; stroke-linecap: round"/>
   </g>
   <g id="patch_34">
    <path d="M 116.58798 92.157311 
Q 172.050385 185.995363 279.486581 204.332781 
" clip-path="url(#p7e5ec0ef99)" style="fill: none; stroke: #000000; stroke-width: 0.012286; stroke-linecap: round"/>
    <path d="M 275.8801 201.688297 
L 279.486581 204.332781 
L 275.207105 205.631275 
z
" clip-path="url(#p7e5ec0ef99)" style="stroke: #000000; stroke-width: 0.012286; stroke-linecap: round"/>
   </g>
   <g id="patch_35">
    <path d="M 83.68372 148.924117 
Q 200.175723 203.517301 316.262184 149.113272 
" clip-path="url(#p7e5ec0ef99)" style="fill: none; stroke: #000000; stroke-width: 0.400586; stroke-linecap: round"/>
    <path d="M 311.79149 148.999727 
L 316.262184 149.113272 
L 313.488931 152.6217 
z
" clip-path="url(#p7e5ec0ef99)" style="stroke: #000000; stroke-width: 0.400586; stroke-linecap: round"/>
   </g>
   <g id="patch_36">
    <path d="M 84.422394 146.627597 
Q 196.072112 164.315873 281.442112 90.517906 
" clip-path="url(#p7e5ec0ef99)" style="fill: none; stroke: #000000; stroke-width: 0.176162; stroke-linecap: round"/>
    <path d="M 277.108093 91.620755 
L 281.442112 90.517906 
L 279.723979 94.646831 
z
" clip-path="url(#p7e5ec0ef99)" style="stroke: #000000; stroke-width: 0.176162; stroke-linecap: round"/>
   </g>
   <g id="patch_37">
    <path d="M 84.439572 143.766316 
Q 157.321966 130.374062 195.73381 67.22504 
" clip-path="url(#p7e5ec0ef99)" style="fill: none; stroke: #000000; stroke-width: 0.168373; stroke-linecap: round"/>
    <path d="M 191.946358 69.603109 
L 195.73381 67.22504 
L 195.363794 71.681842 
z
" clip-path="url(#p7e5ec0ef99)" style="stroke: #000000; stroke-width: 0.168373; stroke-linecap: round"/>
   </g>
   <g id="patch_38">
    <path d="M 82.982982 140.175984 
Q 106.207146 122.180144 111.207508 93.316535 
" clip-path="url(#p7e5ec0ef99)" style="fill: none; stroke: #000000; stroke-width: 0.077742; stroke-linecap: round"/>
    <path d="M 108.554068 96.916432 
L 111.207508 93.316535 
L 112.495361 97.599225 
z
" clip-path="url(#p7e5ec0ef99)" style="stroke: #000000; stroke-width: 0.077742; stroke-linecap: round"/>
   </g>
   <g id="patch_39">
    <path d="M 75.889331 128.032804 
C 88.317874 128.032804 88.317874 145.149126 75.889331 145.149126 
C 63.460788 145.149126 63.460788 128.032804 75.70244 128.032804 
" clip-path="url(#p7e5ec0ef99)" style="fill: none; stroke: #000000; stroke-width: 0.16716; stroke-linecap: round"/>
    <path d="M 71.70244 126.032804 
L 75.70244 128.032804 
L 71.70244 130.032804 
z
" clip-path="url(#p7e5ec0ef99)" style="stroke: #000000; stroke-width: 0.16716; stroke-linecap: round"/>
   </g>
   <g id="patch_40">
    <path d="M 76.95866 153.746134 
Q 81.97383 182.695403 105.136135 200.643351 
" clip-path="url(#p7e5ec0ef99)" style="fill: none; stroke: #000000; stroke-width: 0.069961; stroke-linecap: round"/>
    <path d="M 103.19931 196.612383 
L 105.136135 200.643351 
L 100.749265 199.774231 
z
" clip-path="url(#p7e5ec0ef99)" style="stroke: #000000; stroke-width: 0.069961; stroke-linecap: round"/>
   </g>
   <g id="patch_41">
    <path d="M 80.231124 152.643632 
Q 118.740203 215.954346 191.534906 229.331456 
" clip-path="url(#p7e5ec0ef99)" style="fill: none; stroke: #000000; stroke-width: 0.079208; stroke-linecap: round"/>
    <path d="M 187.962258 226.64144 
L 191.534906 229.331456 
L 187.239304 230.575564 
z
" clip-path="url(#p7e5ec0ef99)" style="stroke: #000000; stroke-width: 0.079208; stroke-linecap: round"/>
   </g>
   <g id="patch_42">
    <path d="M 82.358539 150.90659 
Q 167.877919 224.832026 279.495439 207.147579 
" clip-path="url(#p7e5ec0ef99)" style="fill: none; stroke: #000000; stroke-width: 0.029502; stroke-linecap: round"/>
    <path d="M 275.231747 205.798163 
L 279.495439 207.147579 
L 275.85769 209.748883 
z
" clip-path="url(#p7e5ec0ef99)" style="stroke: #000000; stroke-width: 0.029502; stroke-linecap: round"/>
   </g>
   <g id="patch_43">
    <path d="M 120.824753 207.142932 
Q 232.474471 224.831208 317.844081 151.033579 
" clip-path="url(#p7e5ec0ef99)" style="fill: none; stroke: #000000; stroke-width: 0.176624; stroke-linecap: round"/>
    <path d="M 313.510061 152.136427 
L 317.844081 151.033579 
L 316.125948 155.162504 
z
" clip-path="url(#p7e5ec0ef99)" style="stroke: #000000; stroke-width: 0.176624; stroke-linecap: round"/>
   </g>
   <g id="patch_44">
    <path d="M 120.852806 204.334511 
Q 228.301718 185.993585 283.722977 92.22256 
" clip-path="url(#p7e5ec0ef99)" style="fill: none; stroke: #000000; stroke-width: 0.070882; stroke-linecap: round"/>
    <path d="M 279.965994 94.648477 
L 283.722977 92.22256 
L 283.409521 96.683697 
z
" clip-path="url(#p7e5ec0ef99)" style="stroke: #000000; stroke-width: 0.070882; stroke-linecap: round"/>
   </g>
   <g id="patch_45">
    <path d="M 119.517248 200.887978 
Q 189.562035 152.66399 199.332113 68.265438 
" clip-path="url(#p7e5ec0ef99)" style="fill: none; stroke: #000000; stroke-width: 0.069909; stroke-linecap: round"/>
    <path d="M 196.885407 72.008917 
L 199.332113 68.265438 
L 200.858872 72.46889 
z
" clip-path="url(#p7e5ec0ef99)" style="stroke: #000000; stroke-width: 0.069909; stroke-linecap: round"/>
   </g>
   <g id="patch_46">
    <path d="M 115.958389 197.823027 
Q 138.881964 145.150722 115.973639 92.510268 
" clip-path="url(#p7e5ec0ef99)" style="fill: none; stroke: #000000; stroke-width: 0.031068; stroke-linecap: round"/>
    <path d="M 115.735914 96.976081 
L 115.973639 92.510268 
L 119.403654 95.379936 
z
" clip-path="url(#p7e5ec0ef99)" style="stroke: #000000; stroke-width: 0.031068; stroke-linecap: round"/>
   </g>
   <g id="patch_47">
    <path d="M 111.222361 197.067452 
Q 106.207191 168.118183 83.0503 150.174431 
" clip-path="url(#p7e5ec0ef99)" style="fill: none; stroke: #000000; stroke-width: 0.076088; stroke-linecap: round"/>
    <path d="M 84.987126 154.205399 
L 83.0503 150.174431 
L 87.43717 151.043552 
z
" clip-path="url(#p7e5ec0ef99)" style="stroke: #000000; stroke-width: 0.076088; stroke-linecap: round"/>
   </g>
   <g id="patch_48">
    <path d="M 112.29169 188.548139 
C 124.720233 188.548139 124.720233 205.664461 112.29169 205.664461 
C 99.863147 205.664461 99.863147 188.548139 112.253102 188.548139 
" clip-path="url(#p7e5ec0ef99)" style="fill: none; stroke: #000000; stroke-width: 0.034514; stroke-linecap: round"/>
    <path d="M 108.253102 186.548139 
L 112.253102 188.548139 
L 108.253102 190.548139 
z
" clip-path="url(#p7e5ec0ef99)" style="stroke: #000000; stroke-width: 0.034514; stroke-linecap: round"/>
   </g>
   <g id="patch_49">
    <path d="M 118.880924 211.287176 
Q 150.954583 236.707119 191.576264 232.035387 
" clip-path="url(#p7e5ec0ef99)" style="fill: none; stroke: #000000; stroke-width: 0.032408; stroke-linecap: round"/>
    <path d="M 187.373951 230.505495 
L 191.576264 232.035387 
L 187.830962 234.479301 
z
" clip-path="url(#p7e5ec0ef99)" style="stroke: #000000; stroke-width: 0.032408; stroke-linecap: round"/>
   </g>
   <g id="patch_50">
    <path d="M 120.104293 209.397132 
Q 200.174123 245.873034 280.229102 209.404477 
" clip-path="url(#p7e5ec0ef99)" style="fill: none; stroke: #000000; stroke-width: 0.014595; stroke-linecap: round"/>
    <path d="M 275.759895 209.242653 
L 280.229102 209.404477 
L 277.418119 212.882748 
z
" clip-path="url(#p7e5ec0ef99)" style="stroke: #000000; stroke-width: 0.014595; stroke-linecap: round"/>
   </g>
   <g id="patch_51">
    <path d="M 208.725002 229.347924 
Q 281.607395 215.95567 320.020853 152.803995 
" clip-path="url(#p7e5ec0ef99)" style="fill: none; stroke: #000000; stroke-width: 0.165596; stroke-linecap: round"/>
    <path d="M 316.233401 155.182063 
L 320.020853 152.803995 
L 319.650837 157.260797 
z
" clip-path="url(#p7e5ec0ef99)" style="stroke: #000000; stroke-width: 0.165596; stroke-linecap: round"/>
   </g>
   <g id="patch_52">
    <path d="M 207.400318 225.95425 
Q 277.445105 177.730263 287.214673 93.336117 
" clip-path="url(#p7e5ec0ef99)" style="fill: none; stroke: #000000; stroke-width: 0.073877; stroke-linecap: round"/>
    <path d="M 284.767967 97.079595 
L 287.214673 93.336117 
L 288.741432 97.539568 
z
" clip-path="url(#p7e5ec0ef99)" style="stroke: #000000; stroke-width: 0.073877; stroke-linecap: round"/>
   </g>
   <g id="patch_53">
    <path d="M 203.904736 222.913785 
Q 239.236285 145.147593 203.937037 67.455559 
" clip-path="url(#p7e5ec0ef99)" style="fill: none; stroke: #000000; stroke-width: 0.072855; stroke-linecap: round"/>
    <path d="M 203.770786 71.924603 
L 203.937037 67.455559 
L 207.412522 70.269987 
z
" clip-path="url(#p7e5ec0ef99)" style="stroke: #000000; stroke-width: 0.072855; stroke-linecap: round"/>
   </g>
   <g id="patch_54">
    <path d="M 199.340973 222.109349 
Q 189.561512 137.633392 119.545052 89.429416 
" clip-path="url(#p7e5ec0ef99)" style="fill: none; stroke: #000000; stroke-width: 0.03119; stroke-linecap: round"/>
    <path d="M 121.705595 93.345033 
L 119.545052 89.429416 
L 123.973871 90.050353 
z
" clip-path="url(#p7e5ec0ef99)" style="stroke: #000000; stroke-width: 0.03119; stroke-linecap: round"/>
   </g>
   <g id="patch_55">
    <path d="M 195.832968 223.236227 
Q 157.323888 159.925513 84.527737 146.548137 
" clip-path="url(#p7e5ec0ef99)" style="fill: none; stroke: #000000; stroke-width: 0.07789; stroke-linecap: round"/>
    <path d="M 88.100384 149.238153 
L 84.527737 146.548137 
L 88.823338 145.304028 
z
" clip-path="url(#p7e5ec0ef99)" style="stroke: #000000; stroke-width: 0.07789; stroke-linecap: round"/>
   </g>
   <g id="patch_56">
    <path d="M 193.585527 225.108018 
Q 161.511868 199.688075 120.88884 204.359962 
" clip-path="url(#p7e5ec0ef99)" style="fill: none; stroke: #000000; stroke-width: 0.031196; stroke-linecap: round"/>
    <path d="M 125.091152 205.889854 
L 120.88884 204.359962 
L 124.634141 201.916047 
z
" clip-path="url(#p7e5ec0ef99)" style="stroke: #000000; stroke-width: 0.031196; stroke-linecap: round"/>
   </g>
   <g id="patch_57">
    <path d="M 200.17476 213.614412 
C 212.603303 213.614412 212.603303 230.730733 200.17476 230.730733 
C 187.746217 230.730733 187.746217 213.614412 200.143568 213.614412 
" clip-path="url(#p7e5ec0ef99)" style="fill: none; stroke: #000000; stroke-width: 0.027899; stroke-linecap: round"/>
    <path d="M 196.143568 211.614412 
L 200.143568 213.614412 
L 196.143568 215.614412 
z
" clip-path="url(#p7e5ec0ef99)" style="stroke: #000000; stroke-width: 0.027899; stroke-linecap: round"/>
   </g>
   <g id="patch_58">
    <path d="M 208.738705 232.031413 
Q 249.39623 236.70675 281.456163 211.29703 
" clip-path="url(#p7e5ec0ef99)" style="fill: none; stroke: #000000; stroke-width: 0.015491; stroke-linecap: round"/>
    <path d="M 277.079082 212.214178 
L 281.456163 211.29703 
L 279.563633 215.348984 
z
" clip-path="url(#p7e5ec0ef99)" style="stroke: #000000; stroke-width: 0.015491; stroke-linecap: round"/>
   </g>
   <g id="patch_59">
    <path d="M 295.151481 200.691319 
Q 318.375646 182.695479 323.375346 153.835687 
" clip-path="url(#p7e5ec0ef99)" style="fill: none; stroke: #000000; stroke-width: 0.081207; stroke-linecap: round"/>
    <path d="M 320.721906 157.435583 
L 323.375346 153.835687 
L 324.663199 158.118377 
z
" clip-path="url(#p7e5ec0ef99)" style="stroke: #000000; stroke-width: 0.081207; stroke-linecap: round"/>
   </g>
   <g id="patch_60">
    <path d="M 291.724529 197.823027 
Q 314.648105 145.150722 291.739179 92.50889 
" clip-path="url(#p7e5ec0ef99)" style="fill: none; stroke: #000000; stroke-width: 0.029723; stroke-linecap: round"/>
    <path d="M 291.501454 96.974703 
L 291.739179 92.50889 
L 295.169195 95.378558 
z
" clip-path="url(#p7e5ec0ef99)" style="stroke: #000000; stroke-width: 0.029723; stroke-linecap: round"/>
   </g>
   <g id="patch_61">
    <path d="M 287.224043 197.043076 
Q 277.444582 112.567119 207.428257 64.363237 
" clip-path="url(#p7e5ec0ef99)" style="fill: none; stroke: #000000; stroke-width: 0.031336; stroke-linecap: round"/>
    <path d="M 209.5888 68.278854 
L 207.428257 64.363237 
L 211.857076 64.984173 
z
" clip-path="url(#p7e5ec0ef99)" style="stroke: #000000; stroke-width: 0.031336; stroke-linecap: round"/>
   </g>
   <g id="patch_62">
    <path d="M 283.761541 198.14094 
Q 228.299136 104.302889 120.866102 85.96601 
" clip-path="url(#p7e5ec0ef99)" style="fill: none; stroke: #000000; stroke-width: 0.015155; stroke-linecap: round"/>
    <path d="M 124.472582 88.610494 
L 120.866102 85.96601 
L 125.145577 84.667516 
z
" clip-path="url(#p7e5ec0ef99)" style="stroke: #000000; stroke-width: 0.015155; stroke-linecap: round"/>
   </g>
   <g id="patch_63">
    <path d="M 281.588623 199.906997 
Q 196.069242 125.98156 84.455231 143.665452 
" clip-path="url(#p7e5ec0ef99)" style="fill: none; stroke: #000000; stroke-width: 0.03268; stroke-linecap: round"/>
    <path d="M 88.718924 145.014868 
L 84.455231 143.665452 
L 88.09298 141.064147 
z
" clip-path="url(#p7e5ec0ef99)" style="stroke: #000000; stroke-width: 0.03268; stroke-linecap: round"/>
   </g>
   <g id="patch_64">
    <path d="M 280.245227 201.93179 
Q 200.175398 165.455887 120.120604 201.92436 
" clip-path="url(#p7e5ec0ef99)" style="fill: none; stroke: #000000; stroke-width: 0.014778; stroke-linecap: round"/>
    <path d="M 124.589811 202.086184 
L 120.120604 201.92436 
L 122.931588 198.446088 
z
" clip-path="url(#p7e5ec0ef99)" style="stroke: #000000; stroke-width: 0.014778; stroke-linecap: round"/>
   </g>
   <g id="patch_65">
    <path d="M 279.493886 204.363781 
Q 238.836361 199.688444 206.773474 225.100505 
" clip-path="url(#p7e5ec0ef99)" style="fill: none; stroke: #000000; stroke-width: 0.01212; stroke-linecap: round"/>
    <path d="M 211.150555 224.183357 
L 206.773474 225.100505 
L 208.666004 221.048551 
z
" clip-path="url(#p7e5ec0ef99)" style="stroke: #000000; stroke-width: 0.01212; stroke-linecap: round"/>
   </g>
   <g id="patch_66">
    <path d="M 288.05783 188.548139 
C 300.486373 188.548139 300.486373 205.664461 288.05783 205.664461 
C 275.629287 205.664461 275.629287 188.548139 288.051431 188.548139 
" clip-path="url(#p7e5ec0ef99)" style="fill: none; stroke: #000000; stroke-width: 0.005724; stroke-linecap: round"/>
    <path d="M 284.051431 186.548139 
L 288.051431 188.548139 
L 284.051431 190.548139 
z
" clip-path="url(#p7e5ec0ef99)" style="stroke: #000000; stroke-width: 0.005724; stroke-linecap: round"/>
   </g>
   <g id="matplotlib.axis_1">
    <g id="xtick_1"/>
    <g id="xtick_2"/>
    <g id="xtick_3"/>
    <g id="xtick_4"/>
    <g id="xtick_5"/>
    <g id="xtick_6"/>
   </g>
   <g id="matplotlib.axis_2">
    <g id="ytick_1"/>
    <g id="ytick_2"/>
    <g id="ytick_3"/>
    <g id="ytick_4"/>
    <g id="ytick_5"/>
    <g id="ytick_6"/>
   </g>
   <g id="PathCollection_1">
    <path d="M 324.46019 154.422533 
C 326.919526 154.422533 329.278466 153.445429 331.017479 151.706415 
C 332.756493 149.967402 333.733598 147.608462 333.733598 145.149126 
C 333.733598 142.689789 332.756493 140.33085 331.017479 138.591836 
C 329.278466 136.852823 326.919526 135.875718 324.46019 135.875718 
C 322.000853 135.875718 319.641914 136.852823 317.9029 138.591836 
C 316.163887 140.33085 315.186782 142.689789 315.186782 145.149126 
C 315.186782 147.608462 316.163887 149.967402 317.9029 151.706415 
C 319.641914 153.445429 322.000853 154.422533 324.46019 154.422533 
z
" clip-path="url(#p7e5ec0ef99)" style="fill: #add8e6; stroke: #add8e6"/>
    <path d="M 288.05783 90.674474 
C 289.659838 90.674474 291.196448 90.03799 292.329239 88.905199 
C 293.462029 87.772408 294.098514 86.235799 294.098514 84.633791 
C 294.098514 83.031783 293.462029 81.495173 292.329239 80.362383 
C 291.196448 79.229592 289.659838 78.593107 288.05783 78.593107 
C 286.455822 78.593107 284.919213 79.229592 283.786422 80.362383 
C 282.653631 81.495173 282.017147 83.031783 282.017147 84.633791 
C 282.017147 86.235799 282.653631 87.772408 283.786422 88.905199 
C 284.919213 90.03799 286.455822 90.674474 288.05783 90.674474 
z
" clip-path="url(#p7e5ec0ef99)" style="fill: #add8e6; stroke: #add8e6"/>
    <path d="M 200.17476 65.654146 
C 201.788953 65.654146 203.33725 65.012821 204.478656 63.871414 
C 205.620063 62.730008 206.261388 61.181711 206.261388 59.567518 
C 206.261388 57.953326 205.620063 56.405029 204.478656 55.263622 
C 203.33725 54.122216 201.788953 53.48089 200.17476 53.48089 
C 198.560568 53.48089 197.012271 54.122216 195.870864 55.263622 
C 194.729458 56.405029 194.088132 57.953326 194.088132 59.567518 
C 194.088132 61.181711 194.729458 62.730008 195.870864 63.871414 
C 197.012271 65.012821 198.560568 65.654146 200.17476 65.654146 
z
" clip-path="url(#p7e5ec0ef99)" style="fill: #add8e6; stroke: #add8e6"/>
    <path d="M 112.29169 88.592344 
C 113.341511 88.592344 114.348475 88.175246 115.09081 87.43291 
C 115.833145 86.690575 116.250243 85.683611 116.250243 84.633791 
C 116.250243 83.58397 115.833145 82.577006 115.09081 81.834671 
C 114.348475 81.092336 113.341511 80.675238 112.29169 80.675238 
C 111.24187 80.675238 110.234906 81.092336 109.492571 81.834671 
C 108.750235 82.577006 108.333137 83.58397 108.333137 84.633791 
C 108.333137 85.683611 108.750235 86.690575 109.492571 87.43291 
C 110.234906 88.175246 111.24187 88.592344 112.29169 88.592344 
z
" clip-path="url(#p7e5ec0ef99)" style="fill: #add8e6; stroke: #add8e6"/>
    <path d="M 75.889331 151.192444 
C 77.492037 151.192444 79.029317 150.555682 80.162602 149.422397 
C 81.295887 148.289112 81.932649 146.751833 81.932649 145.149126 
C 81.932649 143.546419 81.295887 142.009139 80.162602 140.875854 
C 79.029317 139.74257 77.492037 139.105807 75.889331 139.105807 
C 74.286624 139.105807 72.749344 139.74257 71.616059 140.875854 
C 70.482775 142.009139 69.846012 143.546419 69.846012 145.149126 
C 69.846012 146.751833 70.482775 148.289112 71.616059 149.422397 
C 72.749344 150.555682 74.286624 151.192444 75.889331 151.192444 
z
" clip-path="url(#p7e5ec0ef99)" style="fill: #add8e6; stroke: #add8e6"/>
    <path d="M 112.29169 209.641302 
C 113.346361 209.641302 114.357977 209.222277 115.103742 208.476512 
C 115.849506 207.730747 116.268531 206.719131 116.268531 205.664461 
C 116.268531 204.60979 115.849506 203.598174 115.103742 202.852409 
C 114.357977 202.106645 113.346361 201.68762 112.29169 201.68762 
C 111.23702 201.68762 110.225404 202.106645 109.479639 202.852409 
C 108.733874 203.598174 108.314849 204.60979 108.314849 205.664461 
C 108.314849 206.719131 108.733874 207.730747 109.479639 208.476512 
C 110.225404 209.222277 111.23702 209.641302 112.29169 209.641302 
z
" clip-path="url(#p7e5ec0ef99)" style="fill: #add8e6; stroke: #add8e6"/>
    <path d="M 200.17476 234.667711 
C 201.218859 234.667711 202.220335 234.252886 202.958624 233.514597 
C 203.696913 232.776308 204.111738 231.774832 204.111738 230.730733 
C 204.111738 229.686635 203.696913 228.685159 202.958624 227.94687 
C 202.220335 227.20858 201.218859 226.793756 200.17476 226.793756 
C 199.130662 226.793756 198.129186 227.20858 197.390897 227.94687 
C 196.652607 228.685159 196.237783 229.686635 196.237783 230.730733 
C 196.237783 231.774832 196.652607 232.776308 197.390897 233.514597 
C 198.129186 234.252886 199.130662 234.667711 200.17476 234.667711 
z
" clip-path="url(#p7e5ec0ef99)" style="fill: #add8e6; stroke: #add8e6"/>
    <path d="M 288.05783 208.302664 
C 288.75749 208.302664 289.428588 208.024687 289.923322 207.529952 
C 290.418056 207.035218 290.696034 206.36412 290.696034 205.664461 
C 290.696034 204.964801 290.418056 204.293703 289.923322 203.798969 
C 289.428588 203.304235 288.75749 203.026257 288.05783 203.026257 
C 287.358171 203.026257 286.687073 203.304235 286.192339 203.798969 
C 285.697605 204.293703 285.419627 204.964801 285.419627 205.664461 
C 285.419627 206.36412 285.697605 207.035218 286.192339 207.529952 
C 286.687073 208.024687 287.358171 208.302664 288.05783 208.302664 
z
" clip-path="url(#p7e5ec0ef99)" style="fill: #add8e6; stroke: #add8e6"/>
   </g>
   <g id="patch_67">
    <path d="M 7.2 273.312 
L 7.2 7.2 
" style="fill: none; stroke: #000000; stroke-width: 0.8; stroke-linejoin: miter; stroke-linecap: square"/>
   </g>
   <g id="patch_68">
    <path d="M 364.32 273.312 
L 364.32 7.2 
" style="fill: none; stroke: #000000; stroke-width: 0.8; stroke-linejoin: miter; stroke-linecap: square"/>
   </g>
   <g id="patch_69">
    <path d="M 7.2 273.312 
L 364.32 273.312 
" style="fill: none; stroke: #000000; stroke-width: 0.8; stroke-linejoin: miter; stroke-linecap: square"/>
   </g>
   <g id="patch_70">
    <path d="M 7.2 7.2 
L 364.32 7.2 
" style="fill: none; stroke: #000000; stroke-width: 0.8; stroke-linejoin: miter; stroke-linecap: square"/>
   </g>
   <g id="text_1">
    <g clip-path="url(#p7e5ec0ef99)">
     <!-- 111 -->
     <g transform="translate(313.00769 148.460376) scale(0.12 -0.12)">
      <defs>
       <path id="DejaVuSans-31" d="M 794 531 
L 1825 531 
L 1825 4091 
L 703 3866 
L 703 4441 
L 1819 4666 
L 2450 4666 
L 2450 531 
L 3481 531 
L 3481 0 
L 794 0 
L 794 531 
z
" transform="scale(0.015625)"/>
      </defs>
      <use xlink:href="#DejaVuSans-31"/>
      <use xlink:href="#DejaVuSans-31" x="63.623047"/>
      <use xlink:href="#DejaVuSans-31" x="127.246094"/>
     </g>
    </g>
   </g>
   <g id="text_2">
    <g clip-path="url(#p7e5ec0ef99)">
     <!-- 112 -->
     <g transform="translate(276.60533 87.945041) scale(0.12 -0.12)">
      <defs>
       <path id="DejaVuSans-32" d="M 1228 531 
L 3431 531 
L 3431 0 
L 469 0 
L 469 531 
Q 828 903 1448 1529 
Q 2069 2156 2228 2338 
Q 2531 2678 2651 2914 
Q 2772 3150 2772 3378 
Q 2772 3750 2511 3984 
Q 2250 4219 1831 4219 
Q 1534 4219 1204 4116 
Q 875 4013 500 3803 
L 500 4441 
Q 881 4594 1212 4672 
Q 1544 4750 1819 4750 
Q 2544 4750 2975 4387 
Q 3406 4025 3406 3419 
Q 3406 3131 3298 2873 
Q 3191 2616 2906 2266 
Q 2828 2175 2409 1742 
Q 1991 1309 1228 531 
z
" transform="scale(0.015625)"/>
      </defs>
      <use xlink:href="#DejaVuSans-31"/>
      <use xlink:href="#DejaVuSans-31" x="63.623047"/>
      <use xlink:href="#DejaVuSans-32" x="127.246094"/>
     </g>
    </g>
   </g>
   <g id="text_3">
    <g clip-path="url(#p7e5ec0ef99)">
     <!-- 121 -->
     <g transform="translate(188.72226 62.878768) scale(0.12 -0.12)">
      <use xlink:href="#DejaVuSans-31"/>
      <use xlink:href="#DejaVuSans-32" x="63.623047"/>
      <use xlink:href="#DejaVuSans-31" x="127.246094"/>
     </g>
    </g>
   </g>
   <g id="text_4">
    <g clip-path="url(#p7e5ec0ef99)">
     <!-- 122 -->
     <g transform="translate(100.83919 87.945041) scale(0.12 -0.12)">
      <use xlink:href="#DejaVuSans-31"/>
      <use xlink:href="#DejaVuSans-32" x="63.623047"/>
      <use xlink:href="#DejaVuSans-32" x="127.246094"/>
     </g>
    </g>
   </g>
   <g id="text_5">
    <g clip-path="url(#p7e5ec0ef99)">
     <!-- 211 -->
     <g transform="translate(64.436831 148.460376) scale(0.12 -0.12)">
      <use xlink:href="#DejaVuSans-32"/>
      <use xlink:href="#DejaVuSans-31" x="63.623047"/>
      <use xlink:href="#DejaVuSans-31" x="127.246094"/>
     </g>
    </g>
   </g>
   <g id="text_6">
    <g clip-path="url(#p7e5ec0ef99)">
     <!-- 212 -->
     <g transform="translate(100.83919 208.975711) scale(0.12 -0.12)">
      <use xlink:href="#DejaVuSans-32"/>
      <use xlink:href="#DejaVuSans-31" x="63.623047"/>
      <use xlink:href="#DejaVuSans-32" x="127.246094"/>
     </g>
    </g>
   </g>
   <g id="text_7">
    <g clip-path="url(#p7e5ec0ef99)">
     <!-- 221 -->
     <g transform="translate(188.72226 234.041983) scale(0.12 -0.12)">
      <use xlink:href="#DejaVuSans-32"/>
      <use xlink:href="#DejaVuSans-32" x="63.623047"/>
      <use xlink:href="#DejaVuSans-31" x="127.246094"/>
     </g>
    </g>
   </g>
   <g id="text_8">
    <g clip-path="url(#p7e5ec0ef99)">
     <!-- 222 -->
     <g transform="translate(276.60533 208.975711) scale(0.12 -0.12)">
      <use xlink:href="#DejaVuSans-32"/>
      <use xlink:href="#DejaVuSans-32" x="63.623047"/>
      <use xlink:href="#DejaVuSans-32" x="127.246094"/>
     </g>
    </g>
   </g>
  </g>
 </g>
 <defs>
  <clipPath id="p7e5ec0ef99">
   <rect x="7.2" y="7.2" width="357.12" height="266.112"/>
  </clipPath>
 </defs>
</svg>
